<svg width="104" height="47" viewBox="0 0 104 47" fill="none" xmlns="http://www.w3.org/2000/svg">
<g opacity="0.55">
<path fill-rule="evenodd" clip-rule="evenodd" d="M58.0003 0.00141341C77.319 -0.128043 103.696 8.64114 103.696 23.9285C103.696 40.1028 75.1103 46.8617 51.8577 46.8617C27.437 46.8617 0 39.5837 0 23.9285C0 15.7383 8.38202 9.68043 16.3841 6.17481C21.4764 3.94392 26.3998 5.82063 30.6742 7.44993C33.528 8.53776 36.0926 9.5153 38.2248 9.08638C40.4724 8.63429 42.072 6.47786 43.5914 4.42951C45.0057 2.52274 46.3506 0.709612 48.0841 0.452092C50.6231 0.0752159 55.6289 0.0171418 58.0003 0.00141341ZM7.52241 23.9291C7.52241 37.8651 28.0195 45.7481 51.8583 45.7481C73.18 45.7481 96.1767 38.8487 96.1773 23.9297C96.1773 11.6562 76.9602 4.5318 69.9672 2.79502C65.9002 1.78477 58.0523 1.03767 54.661 2.01404C52.2176 2.71759 49.4594 5.31277 46.847 7.77082C44.5109 9.96889 42.2913 12.0573 40.5176 12.5853C37.5931 13.4562 34.9499 11.6611 32.2358 9.81801C29.1467 7.72013 25.9658 5.55995 22.174 7.19776C18.0816 8.96539 7.52241 15.9198 7.52241 23.9291Z" fill="white"/>
<path fill-rule="evenodd" clip-rule="evenodd" d="M88.7547 24.3387C89.2168 24.3387 89.6524 24.159 89.9784 23.8317C90.3051 23.5044 90.4854 23.0707 90.4854 22.6091C90.4854 22.1458 90.3051 21.7114 89.9784 21.3853C89.6524 21.0569 89.2162 20.8772 88.7547 20.8772C87.8007 20.8772 87.0239 21.6533 87.0239 22.6091C87.0239 23.0713 87.2042 23.5044 87.5309 23.8317C87.8575 24.159 88.2925 24.3387 88.7547 24.3387ZM87.2756 22.6091C87.2756 22.2135 87.4298 21.8421 87.7093 21.5626C87.9876 21.2837 88.3596 21.1301 88.7547 21.1301C89.1497 21.1301 89.5211 21.2837 89.8006 21.5626C90.0807 21.8427 90.2337 22.2135 90.2337 22.6091C90.2337 23.4246 89.5701 24.0858 88.7553 24.0858C88.3608 24.0858 87.9882 23.9321 87.7099 23.6533C87.4298 23.3732 87.2756 23.0036 87.2756 22.6091Z" fill="white"/>
<path fill-rule="evenodd" clip-rule="evenodd" d="M41.2621 31.1763C41.2718 31.258 38.4032 33.0807 36.1347 32.8599C35.5406 32.803 32.2594 32.7062 32.3012 29.638C32.3496 25.9726 40.0444 26.1904 40.7745 24.9733C41.1405 24.3623 41.2137 22.0678 39.3578 22.141C36.886 22.2377 36.8618 24.2691 35.6707 25.2413C34.2666 26.3894 32.081 25.4857 33.5709 23.5329C35.8056 20.6014 39.9791 20.827 40.0662 20.8228C43.383 20.6207 45.8409 22.4827 45.8288 24.5589C45.8197 26.0725 45.8167 29.8085 45.8167 30.0033C45.8167 30.4927 46.1276 31.6101 47.0375 31.6778C47.709 31.7262 47.8553 32.6409 47.0375 32.6905C47.0375 32.6905 43.3467 32.6905 43.3346 32.6905C42.5174 32.6651 41.3746 32.1297 41.2621 31.1763ZM41.1042 26.7312C39.3868 26.8952 37.2338 27.8794 37.3554 29.1002C37.5587 31.1243 41.1042 30.7601 41.1163 28.3452C41.1254 26.6108 41.1042 26.7312 41.1042 26.7312Z" fill="white"/>
<path fill-rule="evenodd" clip-rule="evenodd" d="M64.0267 33.031C64.0267 33.031 58.5079 23.2885 58.3361 23.0199C58.1661 22.7519 57.9586 22.4573 57.0179 22.4089C56.079 22.3605 56.1994 21.4084 57.122 21.4084C57.537 21.4084 64.4417 21.4084 64.9045 21.4084C65.8415 21.4084 65.7091 22.3841 64.8071 22.3841C64.0987 22.3841 63.9408 22.7265 63.9408 23.1415C63.9408 24.0949 66.1277 28.0246 66.1277 28.0246C66.1277 28.0246 68.4555 23.4343 68.47 23.3859C68.6775 22.7017 68.4337 22.5317 67.5674 22.4573C66.7 22.3841 66.7973 21.4568 67.542 21.4084C68.006 21.3775 71.2309 21.4235 72.0609 21.4084C72.9798 21.3908 72.9278 22.4089 72.0373 22.3841C71.3047 22.3642 70.5945 22.8971 70.3998 23.2643C70.2044 23.6297 65.2221 32.4945 64.9535 33.0069C64.6849 33.5192 64.1967 33.374 64.0267 33.031Z" fill="white"/>
<path fill-rule="evenodd" clip-rule="evenodd" d="M80.0135 31.2247C82.043 31.4588 84.19 30.408 84.7507 29.6627C85.3254 28.8957 85.9388 29.7928 85.4349 30.3693C83.9825 32.0305 82.5167 33.1042 79.1103 33.1792C68.9534 33.3964 69.2444 21.0684 79.5011 21.1162C84.8977 21.141 85.7646 24.9303 85.8735 25.7312C85.9382 26.2037 85.5656 27.0252 84.7265 27.0252C83.9208 27.0252 76.9616 27.0379 76.9616 27.0379C76.774 29.9096 78.7431 31.0783 80.0135 31.2247ZM77.4485 24.9497C77.4981 25.2297 77.6191 25.4899 77.9869 25.5358C78.1823 25.5594 80.8682 25.5358 80.8682 25.5358C80.8682 25.5358 81.2832 25.4378 81.3322 25.0713C81.3806 24.7053 81.2832 22.5075 79.3045 22.5075C78.3523 22.5075 77.2743 23.9491 77.4485 24.9497Z" fill="white"/>
<path fill-rule="evenodd" clip-rule="evenodd" d="M31.1756 19.7484C32.8162 23.7434 28.6155 23.5626 27.7934 21.1404C27.5617 20.4562 27.5738 19.5276 27.0366 18.8682C26.2478 17.9003 25.3035 17.9348 24.7415 17.9173C20.4634 17.7769 18.3751 29.6779 24.6925 30.9319C27.0263 31.3953 28.9682 29.7444 29.6983 29.0034C30.4551 28.2333 31.0939 29.1038 30.5894 29.8944C28.6119 32.9948 24.8522 33.2652 23.4348 33.2525C13.509 33.1545 11.2266 17.9578 23.2757 16.1829C26.6035 15.6923 30.247 17.4884 31.1756 19.7484Z" fill="white"/>
<path fill-rule="evenodd" clip-rule="evenodd" d="M56.8219 31.7196C56.3083 31.7395 55.3017 31.1775 55.2762 30.5061L55.2823 16.7734C55.2793 15.7903 54.4832 16.1708 54.4832 16.1708L49.1349 18.4902C48.366 18.8447 48.7586 19.7273 49.5136 19.406C50.8324 18.8447 50.7955 19.7968 50.7955 19.7968V30.5405C50.7955 31.4703 49.6134 31.7395 49.1234 31.7492C48.4882 31.7619 48.5009 32.6899 49.0986 32.6899H56.9374C57.7547 32.6778 57.7244 31.6833 56.8219 31.7196Z" fill="white"/>
<path fill-rule="evenodd" clip-rule="evenodd" d="M89.073 21.9849C89.1553 22.0272 89.1958 22.1101 89.1958 22.2341C89.1958 22.3484 89.154 22.4253 89.0687 22.4646C89.0204 22.487 88.949 22.4978 88.8522 22.4978H88.3688V21.9498H88.8649C88.9574 21.9498 89.0264 21.9613 89.073 21.9849ZM87.9526 21.5953V23.6369H88.3688V22.836H88.8098C88.9345 22.836 89.0216 22.8572 89.0675 22.9007C89.1123 22.9443 89.1365 23.0308 89.1383 23.1609L89.1407 23.3508C89.1419 23.4113 89.1486 23.4688 89.1589 23.5268C89.1649 23.5553 89.1734 23.5916 89.1867 23.6369H89.6567V23.5849C89.6156 23.5601 89.589 23.5214 89.5787 23.4694C89.5714 23.4361 89.5678 23.3726 89.5678 23.2794V23.1421C89.5678 22.9993 89.5479 22.8929 89.5079 22.8233C89.468 22.7537 89.4015 22.6993 89.3077 22.6612C89.4214 22.6231 89.5019 22.5559 89.5497 22.4628C89.5993 22.3696 89.6235 22.2734 89.6235 22.1766C89.6235 22.0962 89.6108 22.0242 89.5848 21.9619C89.5587 21.899 89.5237 21.8427 89.4801 21.7907C89.4263 21.7278 89.3609 21.6794 89.2835 21.6479C89.2061 21.6164 89.096 21.5983 88.9532 21.5959H87.9526V21.5953Z" fill="white"/>
<path fill-rule="evenodd" clip-rule="evenodd" d="M77.5386 17.9409C77.5386 17.9409 80.8791 14.1739 83.7792 13.8448C84.9286 13.7142 86.2842 13.8128 86.5093 15.0154C86.7283 16.1853 86.0344 16.7334 84.9485 16.7697C83.196 16.829 81.2197 16.9034 79.5622 17.8308C78.9451 18.175 76.9658 19.3292 77.5386 17.9409Z" fill="white"/>
</g>
</svg>
