<svg width="68" height="68" viewBox="0 0 68 68" fill="none" xmlns="http://www.w3.org/2000/svg">
<circle cx="34.1006" cy="34.0444" r="33.8662" fill="#DDE6FF"/>
<path fill-rule="evenodd" clip-rule="evenodd" d="M36.2064 17.3505H41.1362L49 24.5292V53H21V24.5292L28.8638 17.3505H33.7936V15H36.2064V17.3505ZM23.4121 50.6494H46.5866H46.5867V25.548L40.1818 19.7012H36.2058V26.2139H33.793V19.7012H29.817L23.4121 25.5479V50.6494Z" fill="black"/>
<path fill-rule="evenodd" clip-rule="evenodd" d="M31 31C33.2056 31 35 32.7944 35 35C35 37.2056 33.2056 39 31 39C28.7944 39 27 37.2056 27 35C27 32.7944 28.7944 31 31 31ZM30.9993 33.6665C30.2641 33.6665 29.666 34.2646 29.666 34.9998C29.666 35.735 30.2641 36.3332 30.9993 36.3332C31.7345 36.3332 32.3327 35.735 32.3327 34.9998C32.3327 34.2646 31.7345 33.6665 30.9993 33.6665Z" fill="black"/>
<path fill-rule="evenodd" clip-rule="evenodd" d="M40 48C37.7944 48 36 46.2056 36 44C36 41.7944 37.7944 40 40 40C42.2056 40 44 41.7944 44 44C44 46.2056 42.2056 48 40 48ZM39.9993 45.3332C40.7345 45.3332 41.3327 44.735 41.3327 43.9998C41.3327 43.2646 40.7345 42.6665 39.9993 42.6665C39.2641 42.6665 38.666 43.2646 38.666 43.9998C38.666 44.735 39.2641 45.3332 39.9993 45.3332Z" fill="black"/>
<path d="M29.7304 46L28 44.2696L39.2696 33L41 34.7304L29.7304 46Z" fill="black"/>
</svg>
