<svg width="68" height="69" viewBox="0 0 68 69" fill="none" xmlns="http://www.w3.org/2000/svg">
<circle cx="33.9741" cy="34.7959" r="33.8662" fill="#DDE6FF"/>
<path fill-rule="evenodd" clip-rule="evenodd" d="M46.5618 27.6037C47.4758 28.4117 48 29.5827 48 30.8166C48 32.0506 47.4758 33.2217 46.5617 34.0295C46.371 34.198 46.3011 34.4642 46.3838 34.7075C46.7801 35.874 46.6612 37.1561 46.0573 38.2248C45.4532 39.2942 44.426 40.0407 43.2395 40.2729C42.9919 40.3213 42.8012 40.5161 42.7538 40.7691C42.6765 41.1801 42.5405 41.5715 42.3551 41.9344L45.9041 50.0727C46.2397 50.8423 45.6828 51.7139 44.8484 51.7014L41.0014 51.629L38.4819 54.6004C37.94 55.2394 36.9289 55.0889 36.5908 54.3135L33.5 47.2259L30.4091 54.3135C30.0716 55.0874 29.0609 55.2406 28.518 54.6004L25.9985 51.629L22.1515 51.7014C21.3225 51.7168 20.7588 50.8455 21.0958 50.0727L24.6448 41.9344C24.4595 41.5716 24.3234 41.1802 24.2462 40.7693C24.1988 40.5161 24.008 40.3213 23.7604 40.2729C22.5739 40.0408 21.5469 39.2943 20.9426 38.2248C20.3388 37.1561 20.2198 35.874 20.6161 34.7074C20.6988 34.4641 20.6289 34.1979 20.4382 34.0294C19.5242 33.2215 19 32.0505 19 30.8166C19 29.5826 19.5242 28.4116 20.4382 27.6037C20.6289 27.4352 20.6987 27.1691 20.616 26.9257C20.2197 25.759 20.3387 24.477 20.9425 23.4082C21.5463 22.3395 22.5734 21.5932 23.7604 21.3606C24.008 21.3121 24.1986 21.1172 24.2461 20.8641C24.4737 19.6515 25.2042 18.6021 26.25 17.985C27.2659 17.3857 28.5158 17.2343 29.6921 17.6514C29.9282 17.7353 30.1917 17.6637 30.3557 17.4698C31.1463 16.5358 32.2923 16 33.5 16C34.7078 16 35.8538 16.5358 36.6444 17.4699C36.8082 17.6634 37.0717 17.7353 37.308 17.6513C38.4864 17.2335 39.736 17.3867 40.7499 17.985C41.7958 18.602 42.5262 19.6515 42.7538 20.8643C42.8013 21.1173 42.992 21.3122 43.2396 21.3607C44.4265 21.5933 45.4536 22.3396 46.0574 23.4082C46.6612 24.477 46.7802 25.7591 46.3838 26.9258C46.3012 27.169 46.3711 27.4352 46.5618 27.6037ZM27.3639 49.7034L29.0644 51.7088L31.8639 45.2895C31.292 45.039 30.781 44.6576 30.3763 44.1866C30.0904 43.8531 29.8079 43.9437 29.523 44.035C29.4655 44.0534 29.4079 44.0719 29.3501 44.0869C28.3312 44.3516 27.26 44.2087 26.3527 43.7068L23.8905 49.353L26.4868 49.3041L26.5077 49.3038C26.8359 49.3038 27.1484 49.4493 27.3639 49.7034ZM43.1095 49.3529L40.5133 49.304C40.1763 49.2961 39.8561 49.4439 39.6361 49.7034L37.9356 51.7088L35.1361 45.2893C35.6973 45.0427 36.2235 44.6605 36.6439 44.1637C36.8079 43.9702 37.0712 43.898 37.3076 43.9819C38.4285 44.38 39.6413 44.2638 40.6473 43.7067L43.1095 49.3529ZM44.2433 35.4668C43.8545 34.3224 44.1827 33.0708 45.0795 32.2782C45.4955 31.9105 45.7341 31.3777 45.7341 30.8166C45.7341 30.2554 45.4954 29.7226 45.0794 29.3549C44.1828 28.5624 43.8545 27.3109 44.2432 26.1664C44.4237 25.6353 44.3696 25.052 44.095 24.566C43.8203 24.08 43.353 23.7406 42.8127 23.6347C41.6483 23.4066 40.7517 22.4903 40.5284 21.3005C40.4247 20.7484 40.0925 20.2708 39.6169 19.9903C39.1437 19.7111 38.5645 19.6566 38.0509 19.8388C36.9398 20.2327 35.7028 19.897 34.9305 18.9845C34.5706 18.5592 34.0492 18.3154 33.5 18.3154C32.9507 18.3154 32.4294 18.5592 32.0695 18.9844C31.2958 19.8986 30.0579 20.2321 28.9491 19.8388C28.4354 19.6567 27.8561 19.711 27.3828 19.9902C26.9072 20.2708 26.575 20.7483 26.4714 21.3004C26.2481 22.4903 25.3514 23.4065 24.1871 23.6345C23.6468 23.7404 23.1794 24.0799 22.9048 24.5659C22.6302 25.052 22.5761 25.6352 22.7565 26.1663C23.1454 27.3107 22.8172 28.5623 21.9205 29.3549C21.5045 29.7226 21.2659 30.2554 21.2659 30.8165C21.2659 31.3776 21.5045 31.9104 21.9205 32.2781C22.8172 33.0707 23.1454 34.3223 22.7565 35.4666C22.5762 35.9977 22.6303 36.5809 22.9048 37.067C23.1797 37.5535 23.6469 37.893 24.1864 37.9986C25.351 38.2264 26.248 39.1426 26.4715 40.3328C26.5783 40.9011 26.9248 41.3724 27.3829 41.6427C27.8443 41.9148 28.4234 41.981 28.9487 41.7946C29.5208 41.5916 30.1228 41.5827 30.6788 41.744C31.2073 41.8972 31.6964 42.2078 32.0696 42.6487C32.4286 43.0728 32.9437 43.3095 33.4745 43.3166C33.478 43.3166 33.4816 43.3168 33.4851 43.317C33.488 43.3172 33.491 43.3173 33.494 43.3174L33.5 43.3176L33.5059 43.3174C33.5098 43.3173 33.5137 43.3171 33.5176 43.3169C33.5202 43.3167 33.5228 43.3166 33.5254 43.3166C33.9975 43.3103 34.4484 43.1232 34.7903 42.7973C34.8139 42.7747 34.8445 42.741 34.8825 42.6991C35.1636 42.3894 35.8513 41.6319 37.1076 41.6319C37.5498 41.6319 37.7705 41.7042 37.9843 41.7742C38.1257 41.8205 38.264 41.8658 38.4614 41.8885C39.4579 42 40.3449 41.3103 40.5284 40.3328C40.7518 39.1428 41.6487 38.2266 42.8134 37.9987C43.353 37.8932 43.8202 37.5536 44.095 37.0671C44.3697 36.581 44.4236 35.9977 44.2433 35.4668Z" fill="black"/>
<path fill-rule="evenodd" clip-rule="evenodd" d="M25.1199 30.8166C25.1199 26.0949 28.8792 22.2537 33.5 22.2537C38.1207 22.2537 41.88 26.0949 41.88 30.8166C41.88 35.5383 38.1207 39.3796 33.5 39.3796C28.8792 39.3796 25.1199 35.5383 25.1199 30.8166ZM27.3858 30.8165C27.3858 34.2615 30.1287 37.0641 33.5 37.0641C36.8713 37.0641 39.6141 34.2614 39.6141 30.8165C39.6141 27.3716 36.8713 24.569 33.5 24.569C30.1286 24.569 27.3858 27.3715 27.3858 30.8165Z" fill="black"/>
</svg>
