<svg width="149" height="49" viewBox="0 0 149 49" fill="none" xmlns="http://www.w3.org/2000/svg">
<g opacity="0.551595">
<path d="M57.3967 42.5651C51.8351 38.9931 44.2872 38.3663 32.1145 41.7333C19.1377 44.7737 14.811 46.7227 9.12883 42.8102C6.94587 40.8882 6.16323 37.7937 6.74764 33.3362C8.10311 26.0697 11.7662 19.0769 18.2726 11.3201C21.9045 7.28506 25.2732 3.82226 29.7217 2.43173C33.1311 1.55942 32.8123 4.23075 32.3998 4.6128C31.9645 4.6128 31.2332 4.68116 30.668 5.04886C30.2094 5.40352 28.9503 6.54873 28.8827 8.0892C28.7851 10.4474 31.233 9.95658 32.2888 8.6618C33.4268 7.20273 35.1087 4.40864 33.7857 1.80456C33.2312 0.877663 32.2731 0.237073 31.0836 0.0189477C27.0102 -0.213148 23.2166 1.72278 19.7155 3.86305C12.0587 9.16604 5.9338 16.5141 2.46805 24.5574C0.46987 29.4103 -1.33718 36.362 1.37153 42.02C3.46686 45.9459 7.81707 48.0312 13.0071 47.5952C16.6472 47.2139 21.0488 46.0409 24.0091 45.3327C26.9695 44.6234 42.1233 39.4299 47.1024 48.4688C47.1024 48.4688 48.7581 45.2643 52.8959 45.196C56.2978 44.883 61.2053 46.1778 64.7792 48.7948C63.5886 47.0095 60.2129 44.3784 57.3967 42.5651Z" fill="white"/>
<path fill-rule="evenodd" clip-rule="evenodd" d="M20.3714 20.3996C24.9352 14.3657 30.6332 10.8481 33.4681 12.6881C36.0885 14.5769 34.0747 19.324 33.4276 20.8495C33.361 21.0065 33.3088 21.1295 33.2777 21.2116C34.2949 21.4691 37.5474 19.1693 39.4438 17.099C40.9502 15.4481 43.5311 13.3242 45.1614 12.7156C46.3793 12.1335 48.2612 11.9443 49.4948 12.6746C50.3225 13.1486 50.8771 14.1225 50.9354 15.1509C51.0986 18.0191 47.7252 22.7275 46.0337 20.3464C45.6856 19.318 46.0661 18.2219 47.1612 17.0853C47.7172 16.5171 48.401 16.2605 49.2544 16.2874C49.5908 15.7596 49.505 14.9891 48.9734 14.6774C48.4153 14.3391 47.2909 14.5698 46.2563 15.3675C42.5916 18.2496 39.3711 23.0261 37.5021 28.2891C37.1712 29.2764 36.9906 30.78 37.5774 31.8084C39.1827 34.256 42.9396 30.8493 42.9396 30.8493C45.4755 28.617 47.9212 25.5244 49.8422 22.7776C54.8317 15.6343 61.459 9.47452 64.3855 13.4791C64.4093 13.5099 64.4378 13.5559 64.4649 13.5995C64.4976 13.6522 64.5281 13.7014 64.5455 13.7161C64.5875 13.662 65.1035 12.8362 65.1035 12.8362H69.8271C69.8271 12.8362 59.8229 30.0007 59.8098 30.0281C59.6018 30.4466 59.4689 31.0375 59.8057 31.3218C60.0582 31.4979 60.4831 31.3039 60.5461 31.2752C60.5492 31.2737 60.5515 31.2727 60.5527 31.2722C60.5534 31.2719 60.5538 31.2717 60.5539 31.2717C62.898 30.1468 66.3857 25.362 67.0513 24.4488L67.0513 24.4488C67.1224 24.3513 67.1613 24.2979 67.1631 24.2979H68.7901C66.2394 27.9953 63.0815 32.2726 59.1617 35.0055C58.0735 35.7226 56.6418 36.4863 55.2271 35.9853C53.885 35.1493 53.9704 34.1289 54.072 32.9147L54.072 32.9146V32.9146C54.0839 32.7729 54.096 32.6286 54.106 32.4817C54.1054 32.4817 54.0946 32.4939 54.0743 32.5171L54.0741 32.5172C53.7059 32.9359 50.2193 36.8999 47.2756 36.0533C46.2475 35.7285 44.6041 34.8485 45.8233 30.6543C45.8233 30.6543 45.9166 30.2762 45.9881 29.9928C45.7054 30.2629 45.2055 30.736 45.2055 30.736C42.2719 33.5772 38.9465 36.7706 34.7821 36.0801C31.9732 35.2168 31.7569 32.5711 31.6624 31.4157C31.6518 31.2858 31.6427 31.1748 31.6317 31.0872C31.3041 28.4376 34.2767 23.2801 34.6884 22.5657C34.7181 22.5142 34.7345 22.4858 34.7354 22.4831C33.8324 22.7403 33.031 22.9297 32.3657 23.051C32.3143 23.1324 31.2379 24.8912 31.2379 24.8912L31.1729 24.9978L31.1729 24.9978C30.0219 26.8864 28.8277 28.8458 27.2905 30.4792L26.9933 30.7907C24.6902 33.4556 19.2744 38.4342 16.3571 35.0114C14.3959 32.1025 16.198 25.812 20.3714 20.3996ZM60.4868 15.7188C59.8348 16.2869 57.1604 19.6559 56.2415 20.9139C52.5467 25.839 51.3494 29.3966 51.2507 30.5598C51.2157 30.9118 51.3381 31.2501 51.6484 31.4531C51.9061 31.6431 52.2933 31.6159 52.5282 31.5479C54.1755 30.6415 55.1854 29.3426 56.1884 27.8276C56.1884 27.8276 56.9038 26.7456 56.8991 26.7589C59.1701 23.0246 61.5855 18.8708 63.632 15.245C63.5562 14.6501 62.6797 13.8104 60.4868 15.7188ZM30.5446 23.0921C30.5446 23.0921 30.5035 23.2143 30.4831 23.2542C30.4779 23.2542 28.4237 26.5685 28.4237 26.5685L28.3942 26.6075C27.1594 28.2384 25.6207 30.2707 23.7011 31.2501C23.1275 31.4396 22.3348 31.5616 21.9307 31.0613C21.0743 30.0464 21.5157 28.6394 21.8743 27.503L22.0012 27.097C23.0294 24.3373 24.6609 21.9015 26.2488 19.6421C26.2686 19.6287 26.3131 19.6152 26.3291 19.6152C26.3305 19.62 26.3321 19.6231 26.3338 19.6263C26.3369 19.6321 26.3402 19.6383 26.342 19.6559C27.3385 21.5497 29.2069 22.4288 30.6042 22.8353C30.6126 22.8353 30.6216 22.8488 30.6216 22.8759C30.6218 22.9162 30.599 22.9708 30.5446 23.0921ZM31.5758 21.2657C31.5758 21.2657 32.4818 19.2095 32.4908 19.1825C32.8019 18.2622 33.0763 17.2746 33.0761 16.3954C33.0761 15.7456 32.926 15.1505 32.53 14.6904C31.8879 14.1896 30.7821 14.4465 30.0709 14.934C29.3295 15.4884 27.647 17.0173 28.0567 18.9656C28.3536 19.9667 29.3168 20.8056 30.5937 21.1977L31.0004 21.2657C31.011 21.2682 31.0215 21.2706 31.032 21.273C31.2561 21.3244 31.4506 21.3691 31.5758 21.2657Z" fill="white"/>
<path fill-rule="evenodd" clip-rule="evenodd" d="M89.2481 23.8717C90.3928 23.8037 91.4669 24.431 91.9193 25.4125C92.9151 27.5127 92.2731 30.267 91.6949 32.2166C89.2983 38.7753 84.4885 44.4753 79.1371 47.1206C76.6671 48.1157 73.1695 48.7151 70.5317 45.9479C67.4293 42.6889 67.8156 37.1937 69.0867 33.4579C70.7358 27.9084 73.8296 22.2905 78.8174 15.7862C85.6016 7.48187 91.9295 2.69598 98.7451 0.732578C100.64 0.268651 103.212 0.105438 104.781 1.82346C104.781 1.82346 105.54 1.56429 106.37 1.26451C108.484 0.500801 112.636 -0.480712 117.737 2.31421C117.829 2.36509 117.921 2.41598 118.013 2.4669C120.17 3.65789 122.354 4.86378 124.424 6.1322L125.773 6.9641C124.841 7.85059 123.187 9.62302 122.18 10.7955C121.329 10.4247 119.79 9.40735 118.072 8.27261C115.623 6.65458 112.813 4.79788 111.124 4.23662C111.124 4.23662 107.447 2.54618 105.654 3.5003C105.681 3.82784 105.698 4.26401 105.698 4.59118C105.698 7.29109 104.677 9.71822 103.529 12.159C101.547 15.3766 99.1222 18.8945 95.3687 19.7674C94.5537 19.822 93.5414 19.74 92.9713 18.7039C91.8962 16.7418 92.9328 14.5289 93.7086 12.8727C93.72 12.8483 93.7314 12.824 93.7427 12.7999C96.8048 6.24101 103.229 2.69579 103.229 2.69579C102.111 2.25944 100.819 2.42302 99.4229 3.13195C92.5796 6.52775 87.4998 12.8955 82.8915 19.0996C78.4222 25.7809 75.2992 31.6443 74.5759 38.5299C74.4127 40.9571 75.1848 42.8392 76.6985 43.7388C79.1018 45.2112 81.8487 43.3024 83.7053 41.7206C85.8053 39.8394 87.8807 37.1115 89.237 34.384C91.07 30.676 91.5547 26.8444 90.1756 26.3805C88.5971 25.9307 87.1913 27.6213 86.4888 28.6716C84.6324 31.2079 84.2684 34.0576 84.2684 34.0576C81.5929 35.2577 79.2353 37.4528 78.0795 38.7887C78.438 35.8162 78.9847 33.9484 79.9864 31.6847C81.8953 27.2807 85.5311 24.2129 89.2481 23.8717ZM95.6384 18.1859C97.201 17.8047 103.516 13.0183 104.225 4.86413C104.253 4.56379 104.255 4.34618 104.16 4.00522C100.269 6.00979 96.6424 9.9228 94.5181 14.5321C93.0757 17.9541 94.6915 18.3765 95.6384 18.1859Z" fill="white"/>
<path d="M141.98 5.66336C138.594 7.63018 135.084 8.90387 130.836 8.46089C129.658 9.8184 128.512 11.217 127.455 12.657C133.418 14.2081 139.74 10.7598 143.266 7.47804C146.995 4.16809 148.908 0 148.908 0C148.908 0 146.112 3.26794 141.98 5.66336Z" fill="white"/>
<path d="M75.2395 16.8258L77.8194 12.6193H73.2474L70.6685 16.8258H75.2395Z" fill="white"/>
<path fill-rule="evenodd" clip-rule="evenodd" d="M130.018 42.5746C129.766 43.3246 130.439 43.5762 130.918 43.2489C133.57 41.6838 135.698 38.449 137.388 35.8807L137.388 35.8806L137.388 35.8806L137.576 35.5944H139.162C137.952 37.6445 133.295 44.7354 129.404 46.8635C129.25 46.9466 129.099 47.0317 128.95 47.1159L128.95 47.1159C128.047 47.6257 127.204 48.1016 126.129 47.9019C124.301 47.6703 124.211 45.3512 124.544 44.0557C123.505 45.1602 121.267 47.3158 119.258 47.8611C117.509 48.2018 115.214 47.5059 115.847 43.0594C112.901 46.7701 109.279 49.5797 107.092 46.8651C105.561 44.9423 106.31 41.6957 107.931 36.9221C107.931 36.9221 108.477 35.2848 108.537 35.0811C108.514 35.0667 108.508 35.0667 108.494 35.0667C107.605 35.2966 106.476 35.3618 106.079 35.3847C106.005 35.3891 105.956 35.3919 105.94 35.394C103.383 39.8955 100.139 44.8191 95.4959 47.2742C94.8129 47.6285 93.0742 48.3653 91.6928 47.6565C90.3495 46.8923 89.8233 45.3646 90.0818 42.9917C90.4488 39.9631 91.7742 37.3183 93.1036 34.8489C95.5752 30.962 99.0004 26.2423 103.583 24.3327C104.606 23.8692 106.124 23.5825 107.351 24.1965C108.398 24.96 108.679 26.0645 108.679 27.2385C108.679 27.784 108.615 28.3429 108.546 28.8886C108.147 30.7982 107.349 32.5581 106.716 33.8672C107.022 34.072 108.817 33.6488 109.281 33.2947C115.693 19.8457 123.026 9.99774 131.71 3.16415L131.778 3.12352C133.468 1.96371 135.567 0.531985 137.494 0.90026C138.085 1.00948 138.537 1.48678 138.642 2.1143C138.957 4.06433 138.102 5.70163 137.33 7.16038C136.665 7.37918 135.652 7.57022 135.652 7.57022L136.367 6.09693C136.878 5.08771 137.322 4.20095 137.266 3.00088C137.117 2.68666 136.944 2.67305 136.81 2.68666C135.541 2.9459 133.913 4.52803 132.342 6.06934L131.326 7.05172C124.868 13.5305 117.279 27.0744 116.104 29.912C118.756 28.6165 127.501 19.914 131.775 13.9261C132.65 13.8991 133.391 13.7489 133.391 13.7489C132.706 15.0992 128.023 21.1416 122.468 26.4753C119.908 28.944 117.092 31.1944 114.623 32.913C113.41 35.5455 112.205 38.4505 111.687 41.5063C111.629 41.9292 111.49 43.7441 112.832 43.6349C114.55 43.2526 117.645 38.1124 117.645 38.1124L117.758 37.9352C120.681 33.3378 124.379 27.5206 129.424 24.5577C130.599 23.8895 132.303 23.541 133.464 24.2781C133.735 24.4548 134.393 25.273 134.613 25.6409C134.613 25.6409 135.096 24.7848 135.322 24.4121H140.075L133.136 36.7735C133.136 36.7735 130.644 40.665 130.018 42.5746ZM95.6561 41.5676C95.6642 42.003 95.7461 42.4058 95.9929 42.774C98.0516 45.1745 102.986 38.2802 104.425 35.061C103.266 34.5561 101.347 33.358 100.5 31.4943H100.496C98.4736 34.1035 95.6088 38.8932 95.6561 41.5676ZM105.237 33.6218C105.1 33.7178 102.68 32.899 102.212 30.6485C101.816 28.711 103.144 27.1971 104.429 26.4339C104.981 25.9972 105.812 25.8475 106.421 26.0649C106.987 26.4473 107.14 27.1298 107.14 27.8652C107.14 28.3013 107.085 28.7488 107.034 29.16L107.028 29.2023L107.017 29.2981C106.613 30.8116 105.996 32.2985 105.237 33.6218ZM124.186 42.3239C124.186 42.3239 124.643 41.9149 124.645 41.9149C126.994 38.9819 128.872 35.6406 130.683 32.4077C130.79 32.2182 130.898 32.0278 131.006 31.8367C131.83 30.3774 132.678 28.8784 133.562 27.4425C133.604 27.3747 133.677 27.1566 133.677 27.0744C133.677 26.8156 133.492 26.5561 133.333 26.4065C132.641 26.1198 131.986 26.4874 131.383 26.9248C127.862 29.7527 125.446 33.8059 123.372 37.2848C123.336 37.346 123.3 37.407 123.263 37.4678L123.076 37.8636L123.068 37.8805C122.341 39.3889 121.595 40.9381 121.632 42.6097C121.669 42.8423 121.827 43.1419 122.051 43.2238C122.844 43.5306 123.503 42.9376 124.143 42.3633C124.157 42.3501 124.172 42.337 124.186 42.3239Z" fill="white"/>
</g>
</svg>
