<svg width="38" height="38" viewBox="0 0 38 38" fill="none" xmlns="http://www.w3.org/2000/svg">
<circle cx="19" cy="19" r="19" fill="#B0F560"/>
<path fill-rule="evenodd" clip-rule="evenodd" d="M19 30C19 30 10 22.5826 10 17.75C10 12.9175 14.0294 9 19 9C23.9706 9 28 12.9175 28 17.75C28 22.5826 19 30 19 30ZM19 10.75C15.0235 10.75 11.8 13.884 11.8 17.75C11.8 21.6158 19 27.375 19 27.375C19 27.375 26.2 21.6158 26.2 17.75C26.2 13.884 22.9764 10.75 19 10.75ZM19 21.25C17.0118 21.25 15.4 19.683 15.4 17.75C15.4 15.817 17.0118 14.25 19 14.25C20.9882 14.25 22.6 15.817 22.6 17.75C22.6 19.683 20.9882 21.25 19 21.25ZM19 16C18.0059 16 17.2 16.7835 17.2 17.75C17.2 18.7165 18.0059 19.5 19 19.5C19.9941 19.5 20.8 18.7165 20.8 17.75C20.8 16.7835 19.9941 16 19 16Z" fill="#101010"/>
</svg>
