<svg width="91" height="42" viewBox="0 0 91 42" fill="none" xmlns="http://www.w3.org/2000/svg">
<g opacity="0.55">
<path d="M85.55 23.3176C85.55 22.7796 85.3051 22.3627 84.7969 22.12L84.2356 21.8772C81.9929 21.0783 79.8043 21.1474 77.6665 22.0674C77.0682 22.3074 76.5343 22.682 76.1072 23.1617C75.267 24.1176 75.0394 25.2102 75.4065 26.4261C75.6514 27.2416 76.1256 27.8493 76.8263 28.249L79.6286 29.7596C80.492 30.1888 81.3183 30.688 82.0989 31.2519C82.6495 31.6422 83.0508 32.2055 83.2376 32.8504C83.6409 34.3427 83.1678 35.4712 81.8188 36.253L81.0473 36.5306C79.5231 36.7562 77.9823 36.6688 76.423 36.305L76.0893 37.1217C76.4748 37.6077 76.9479 37.9372 77.5092 38.0766L78.1217 38.1628C80.1898 38.5969 82.1162 38.2673 83.9031 37.1736C85.5494 36.1834 86.5302 34.7945 86.8638 32.9892C87.1439 31.5488 86.7059 30.3501 85.55 29.4472C83.6409 27.9377 81.5566 26.6699 79.2793 25.6105C79.0506 25.5066 78.9111 25.333 78.8938 25.0902C78.7705 24.1011 79.2085 23.3884 80.1904 22.9715C81.2236 22.5905 82.2216 22.6767 83.203 23.233C83.7665 23.5537 84.3837 23.7713 85.025 23.8755L85.55 23.3176Z" fill="white"/>
<path fill-rule="evenodd" clip-rule="evenodd" d="M31.2585 13.2936C31.6385 12.7099 31.7595 12.0742 31.6038 11.3871C31.3448 10.2361 30.6023 9.54902 29.3929 9.32527C26.5258 8.75852 23.97 9.42812 21.7596 11.3352C21.2069 11.7991 21.1552 12.2285 21.604 12.6404L22.0187 12.5546C23.1066 12.0392 24.1944 11.6098 25.2829 11.2832C26.198 11.0086 27.0274 11.077 27.8045 11.5064C28.4777 12.1246 28.4953 12.7947 27.8562 13.5332C26.8216 14.7031 25.5954 15.6905 24.2296 16.4534C23.9535 16.6252 23.6945 16.797 23.4701 17.0032C22.9174 17.4671 22.9344 17.9305 23.5218 18.3774L24.195 18.9272C25.1965 19.8375 25.4561 20.9885 24.9721 22.3797C24.0994 24.8895 22.8787 27.2659 21.3455 29.44C21.1206 29.7661 21.0689 30.0927 21.2075 30.4018L22.0709 30.3164C22.5027 30.1102 22.8827 29.8356 23.1935 29.4576L24.4887 27.8771C26.2618 25.7161 27.6519 23.2704 28.5993 20.645C28.8754 19.8031 28.789 19.0645 28.3226 18.3944L27.8909 18.0164C27.4943 17.8221 27.1683 17.5099 26.9581 17.123L27.2172 16.8654C28.8924 16.0251 30.2393 14.8396 31.2585 13.2936ZM57.8717 38.1158C57.82 38.2707 57.6996 38.3735 57.5439 38.3905V38.3916H56.4385C54.8496 38.2548 54.0548 37.2925 54.0548 35.5069V27.364C53.9861 24.667 52.967 23.3092 51.0162 23.3261C50.2038 23.3086 49.5477 23.5674 49.0643 24.0482C48.3911 24.7184 48.0451 25.6971 48.0622 27.0368L48.0792 36.8281C47.9929 37.2745 47.8543 37.6355 47.6128 37.8932C47.3027 38.2203 46.905 38.3741 46.4045 38.3741C45.904 38.3741 45.4893 38.2203 45.1786 37.8932C44.7645 37.4807 44.5571 36.9315 44.5571 36.2274L44.5395 24.3737C44.5395 23.5149 44.4361 22.9995 44.2288 22.8447C44.1078 22.7588 44.0561 22.621 44.0731 22.4503C44.1078 22.244 44.2288 22.1576 44.4361 22.1407C45.6274 21.9689 46.5079 22.1237 47.0612 22.6215L47.3543 22.8972L47.7344 22.8622C48.7189 22.2785 49.8414 21.9858 51.0679 21.9858C53.5378 21.9858 55.3165 22.7763 56.439 24.3737C57.0083 25.1982 57.3201 26.1599 57.4059 27.2595L57.4928 36.4161C57.4928 37.1202 57.5615 37.5146 57.7172 37.618C57.8717 37.7378 57.9416 37.9096 57.8717 38.1158ZM60.1338 22.1401L61.2393 22.1231C62.8288 22.278 63.6224 23.2227 63.6224 25.0089L63.6394 33.4604C63.5707 35.8997 64.5717 37.1202 66.6451 37.1372C67.4387 37.1196 68.0954 36.8795 68.613 36.3975C69.2872 35.7285 69.615 34.7317 69.615 33.392L69.5809 24.2534C69.5122 23.5307 69.6843 22.9645 70.0644 22.5351C70.3575 22.2079 70.7552 22.0542 71.2727 22.0542C71.7743 22.0542 72.189 22.2079 72.4992 22.5351C72.9138 22.9476 73.1212 23.4968 73.1212 24.1839L73.1041 33.1174C73.1041 34.0277 72.7582 34.9555 72.0504 35.8827C70.7722 37.5666 68.976 38.4085 66.6451 38.4085C64.141 38.4255 62.3442 37.6519 61.2387 36.0545C60.6349 35.1787 60.306 34.2339 60.2719 33.1858L60.2548 24.167C60.2548 23.4629 60.152 23.0335 59.9617 22.8967C59.789 22.7758 59.7373 22.604 59.806 22.3978C59.8577 22.2265 59.9622 22.1401 60.1338 22.1401ZM88.6814 36.5529V36.3636H87.5418V36.5529H88.0253V38.2367H88.215V36.5529H88.6814ZM88.837 36.3636H89.183L89.6323 37.7378L90.0465 36.3636H90.3913V38.2367H90.2186L90.2016 36.5699L89.5449 38.2367L89.0273 36.5699V38.2367H88.837V36.3636ZM29.7729 24.9919C30.6194 23.9098 31.6555 23.1199 32.8815 22.604C34.2806 22.0203 35.7139 21.8655 37.1818 22.1226C38.5975 22.3119 39.8239 22.9131 40.8431 23.9262C42.2252 25.4722 42.812 27.2589 42.6047 29.2858C42.4837 30.4023 41.8451 30.9357 40.6704 30.8673L31.6209 30.8843C31.5516 33.5118 32.6741 35.4019 34.9714 36.5699C35.869 37.0332 36.8364 37.2055 37.8726 37.0846L38.8741 37.1711L38.8395 37.8412C37.5096 38.5967 36.0763 38.8029 34.5391 38.4599C32.1731 37.9441 30.3774 36.6213 29.1856 34.526C28.3391 33.0484 27.9596 31.4341 28.0284 29.6988C28.1147 27.9121 28.7021 26.3317 29.7729 24.9919ZM34.3323 23.9782C35.5242 23.5668 36.5433 23.6352 37.3551 24.1675C38.0453 24.6139 38.5639 25.3535 38.944 26.4006C39.3064 27.3634 39.3064 28.1014 38.9786 28.5823C38.7537 28.9094 38.4259 29.0801 37.9771 29.1156L31.6214 29.1326C31.6731 28.2737 31.8288 27.4488 32.0878 26.6418C32.5713 25.2151 33.3138 24.3223 34.3323 23.9782ZM5.37061 13.1563C4.50714 12.1087 3.43576 11.4555 2.1411 11.1809L0.103397 10.8193L0 10.665C0.138046 9.96095 0.604435 9.54847 1.39861 9.42812C3.8169 8.98117 5.9404 9.56543 7.80595 11.1803C9.8266 12.9495 11.294 15.1317 12.2097 17.6909C12.7624 19.2713 13.2635 20.8348 13.6776 22.4147C14.6794 26.151 15.5493 29.9211 16.2856 33.718C16.4583 34.5939 16.9247 35.2471 17.7018 35.6765L18.1682 35.6595L18.617 35.2471L21.1558 32.0692C21.2768 31.8969 21.4148 31.846 21.5875 31.8799C22.1226 32.241 22.2442 32.7394 21.9846 33.392L21.1728 35.4188C20.3093 37.7034 19.0141 39.7132 17.3218 41.4655C16.9418 41.844 16.493 42.0158 15.9226 41.9989C15.5604 41.9534 15.2282 41.7755 14.9904 41.4999C14.4206 40.8473 14.04 40.0749 13.8332 39.1985L11.4843 28.3246C11.0349 26.1774 10.4998 24.0307 9.9124 21.883C8.99722 18.6187 7.49466 15.716 5.37061 13.1563Z" fill="white"/>
</g>
</svg>
