<svg width="88" height="49" viewBox="0 0 88 49" fill="none" xmlns="http://www.w3.org/2000/svg">
<g opacity="0.551595">
<path fill-rule="evenodd" clip-rule="evenodd" d="M43.7419 0C67.8926 0 87.494 10.9323 87.494 24.3984C87.494 37.8666 67.8926 48.7948 43.7419 48.7948C19.6014 48.7948 0 37.8666 0 24.3984C0 10.9323 19.6014 0 43.7419 0ZM43.7419 2.20072C20.8227 2.20072 2.20847 12.1651 2.20847 24.3984C2.20847 36.6368 20.8227 46.5777 43.7419 46.5777C66.6611 46.5777 85.2754 36.6368 85.2754 24.3984C85.2754 12.1651 66.6611 2.20072 43.7419 2.20072ZM36.0581 26.7407H27.4481C27.5499 28.862 28.7406 29.8452 30.5217 29.8452C31.8447 29.8452 32.7505 29.0994 32.9845 28.3485H35.8036C35.0811 30.915 32.9845 32.1029 30.3995 32.1029C26.7357 32.1029 24.456 29.5793 24.456 25.9746C24.456 22.483 26.868 19.8238 30.3995 19.8238C34.3687 19.8238 36.282 23.1585 36.0581 26.7407ZM30.3181 22.0224C28.5269 22.0224 27.611 23.2155 27.4685 24.7418H33.0558C32.8421 23.1126 32.1602 22.0224 30.3181 22.0224ZM73.3374 26.7407H64.7275C64.8191 28.862 66.02 29.8452 67.7908 29.8452C69.124 29.8452 70.0298 29.0994 70.2639 28.3485H73.083C72.3604 30.915 70.2639 32.1029 67.6789 32.1029C64.0049 32.1029 61.7353 29.5793 61.7353 25.9746C61.7353 22.483 64.1474 19.8238 67.6789 19.8238C71.648 19.8238 73.5613 23.1585 73.3374 26.7407ZM67.5873 22.0224C65.8063 22.0224 64.8903 23.2155 64.7376 24.7418H70.3351C70.1214 23.1126 69.4395 22.0224 67.5873 22.0224ZM9.39363 31.7871H12.5893V24.8477H19.4895V31.7871H22.6851V15.6699H19.4895V22.269H12.5893V15.6699H9.39363V31.7871ZM37.8188 31.7871H40.8312V25.4865C40.8312 23.1208 41.6658 22.1518 43.3959 22.1518C44.8818 22.1518 45.5535 23.0983 45.5535 25.0128V31.7871H48.5558V24.6225C48.5558 21.7392 47.7009 19.8238 44.2915 19.8238C42.9481 19.8238 41.5436 20.4554 40.7396 21.7616H40.6684V20.1396H37.8188V31.7871ZM51.1205 31.7871H54.1227V25.4794L58.56 31.7871H62.2951L57.41 25.2512L61.7354 20.1396H58.153L54.1227 25.1615V15.6699H51.1205V31.7871ZM75.0981 31.7871H78.1004V15.6699H75.0981V31.7871Z" fill="white"/>
</g>
</svg>
