<svg width="122" height="27" viewBox="0 0 122 27" fill="none" xmlns="http://www.w3.org/2000/svg">
<g opacity="0.55">
<path fill-rule="evenodd" clip-rule="evenodd" d="M121.516 7.56563C121.524 7.05123 121.113 6.62803 120.599 6.62043C120.589 6.62028 120.58 6.62028 120.571 6.62043C120.071 6.59877 119.648 6.98685 119.626 7.48724C119.625 7.51332 119.625 7.5395 119.626 7.56563C119.623 8.08461 120.041 8.5078 120.56 8.51083C120.564 8.51088 120.567 8.51088 120.571 8.51083C121.089 8.50065 121.506 8.08337 121.516 7.56563Z" fill="white"/>
<path fill-rule="evenodd" clip-rule="evenodd" d="M121.009 8.03805H120.763L120.518 7.44319H120.308V8.03805H120.098V6.61957H120.623C120.712 6.64092 120.831 6.64396 120.903 6.71111C121.009 6.78738 121.037 6.9246 121.044 7.07715C121.037 7.32731 120.936 7.43102 120.763 7.44015L121.009 8.03805Z" fill="white"/>
<path fill-rule="evenodd" clip-rule="evenodd" d="M81.9871 8.11282C81.984 8.11054 81.9807 8.10826 81.9775 8.10602C77.4032 5.06072 72.4932 5.00448 67.6342 7.22295C65.754 8.04178 64.0619 9.48149 62.7994 11.1165C61.7438 12.5161 61.3436 14.6168 61.3087 15.3313H55.6681C55.183 15.3268 54.7862 15.7149 54.7817 16.1982C54.7816 16.2036 54.7816 16.209 54.7817 16.2144V20.1481C53.7979 20.2247 52.8141 20.0006 51.9614 19.5059C50.8091 18.7245 49.6326 17.4453 49.7454 15.8933C49.8475 14.3277 50.8359 13.2092 52.2434 12.6419C54.3116 11.8498 56.8848 11.7186 58.6898 13.3644C58.9906 13.6079 59.4607 13.533 59.6971 13.244L62.9606 9.06935C63.1978 8.799 63.1702 8.38822 62.8988 8.15183C62.88 8.13543 62.8603 8.12014 62.8397 8.10602C58.2627 5.05805 53.35 5.00448 48.4964 7.22295C46.6108 8.04178 44.9213 9.48149 43.6616 11.1165V6.78141C43.6544 6.29669 43.2618 5.90546 42.7752 5.89828H36.9761C36.4881 5.89683 36.0913 6.2898 36.0898 6.77602C36.0898 6.77782 36.0898 6.77956 36.0898 6.78141V18.8636C36.084 19.6676 35.4251 20.3147 34.6182 20.3089C34.6118 20.3089 34.6054 20.3088 34.599 20.3087C33.8129 20.3236 33.1636 19.7008 33.1486 18.9177C33.1483 18.8997 33.1483 18.8816 33.1486 18.8636V6.78136C33.1268 6.3029 32.7424 5.91997 32.2622 5.89828H26.4201C25.936 5.91095 25.5465 6.29901 25.5337 6.78136V16.696C25.5096 19.8163 25.8937 22.4923 28.7167 24.403C30.6775 25.7035 32.4959 26.2628 34.6393 26.2896C38.3352 26.3243 41.7787 24.3147 43.3017 20.9509C44.4889 22.8937 46.4282 24.1836 48.2977 25.0051C52.7645 26.7418 58.3191 27.4215 62.4395 24.3227V20.9108C63.6375 22.8402 65.5687 24.1862 67.4757 25.0051C71.905 26.7418 77.4569 27.4242 81.5773 24.3227V16.2144C81.5893 15.7386 81.2119 15.3432 80.7344 15.3313C80.7199 15.3309 80.7054 15.3309 80.6909 15.3313H74.8085C74.3235 15.3268 73.9266 15.7149 73.9222 16.1982C73.9221 16.2036 73.9221 16.209 73.9222 16.2144V20.1481C72.9384 20.2249 71.9545 20.0009 71.1018 19.5059C69.9522 18.7245 68.7785 17.4453 68.8859 15.8933C68.9907 14.3277 69.9818 13.2092 71.3839 12.6419C73.4548 11.8525 76.028 11.7213 77.8303 13.3644C78.1443 13.5994 78.5883 13.5464 78.8376 13.244L82.1414 9.06935C82.3639 8.7628 82.2949 8.33456 81.9871 8.11282Z" fill="white"/>
<mask id="mask0_0_3336" style="mask-type:luminance" maskUnits="userSpaceOnUse" x="0" y="0" width="25" height="27">
<path fill-rule="evenodd" clip-rule="evenodd" d="M0 0.472839H24.1141V26.0054H0V0.472839Z" fill="white"/>
</mask>
<g mask="url(#mask0_0_3336)">
<path fill-rule="evenodd" clip-rule="evenodd" d="M23.2274 0.473114C23.2273 0.473114 23.2271 0.473114 23.227 0.473114H15.7266C15.2487 0.461208 14.8516 0.837841 14.8396 1.31434C14.8396 1.31624 14.8395 1.31818 14.8395 1.32008V9.24031H9.27467V1.32008C9.2675 0.846443 8.87653 0.468303 8.40148 0.475495C8.39685 0.475544 8.39217 0.475641 8.38754 0.475787H0.887132C0.409738 0.468254 0.014623 0.844256 0 1.32008V25.0807C0.00887132 25.5723 0.39492 25.9748 0.887132 26.0054H8.38754C8.87098 25.9901 9.25932 25.603 9.27467 25.1209V16.6781H14.8395V25.1209C14.8587 25.6013 15.2449 25.9862 15.7266 26.0054H23.227C23.7216 25.9799 24.1105 25.5745 24.1141 25.0807V1.32008C24.1039 0.842069 23.7068 0.46286 23.2274 0.473114Z" fill="white"/>
</g>
<mask id="mask1_0_3336" style="mask-type:luminance" maskUnits="userSpaceOnUse" x="119" y="6" width="3" height="3">
<path fill-rule="evenodd" clip-rule="evenodd" d="M119.152 6.14673H121.516V8.51086H119.152V6.14673Z" fill="white"/>
</mask>
<g mask="url(#mask1_0_3336)">
<path fill-rule="evenodd" clip-rule="evenodd" d="M120.106 6.89328H120.438C120.543 6.88777 120.725 6.88777 120.728 7.05918C120.723 7.2168 120.623 7.24999 120.479 7.26659H120.106V6.89328ZM120.355 8.51083H120.36C121 8.50927 121.518 7.98938 121.516 7.34951C121.524 6.69816 121.006 6.16182 120.355 6.14673C119.695 6.15711 119.162 6.68959 119.152 7.34951C119.17 7.99945 119.705 8.51559 120.355 8.51083Z" fill="white"/>
</g>
<path fill-rule="evenodd" clip-rule="evenodd" d="M89.4475 5.67389H83.607C83.1387 5.69311 82.7633 6.07864 82.7446 6.55961V25.0794C82.7533 25.5717 83.1285 25.9747 83.607 26.0054H89.4475C89.9174 25.9901 90.2949 25.6024 90.3098 25.1196V6.55961H90.3098C90.2962 6.07636 89.918 5.6879 89.4475 5.67389Z" fill="white"/>
<path fill-rule="evenodd" clip-rule="evenodd" d="M114.165 20.5103C113.182 21.3785 112.031 21.2329 111.033 20.672L108.302 19.1756C107.914 18.9788 107.553 19.0327 107.379 19.2564L106.174 20.7529H99.9105V18.5689H104.247C104.739 18.5419 105.125 18.1348 105.13 17.6386V13.8773C105.129 13.3865 104.734 12.9889 104.247 12.9874H99.9105V10.9247H105.692C105.122 16.0775 110.564 17.5389 113.884 19.3374C114.269 19.5665 114.47 20.1193 114.165 20.5103ZM113.041 12.219C112.818 12.0006 112.805 11.2483 113.241 10.8843C114.657 9.59275 116.389 10.8439 117.698 11.3292C118.137 11.499 118.541 10.8897 118.541 10.3989V6.71846C118.541 6.23577 118.105 5.97158 117.658 5.78819C114.296 4.53443 109.745 5.33792 107.339 7.72958L105.371 5.70733H93.0848C92.5969 5.70733 92.2015 6.10568 92.2015 6.59711V25.2019C92.2014 25.2029 92.2014 25.204 92.2014 25.205C92.1912 25.7068 92.5867 26.1219 93.0848 26.1321H102.039C103.76 26.1186 105.112 25.5983 106.295 24.3121C108.557 26.2777 111.964 26.5743 114.727 26.4557C117.725 26.2858 120.359 24.4873 121.232 21.6805C121.772 19.917 121.665 18.3047 119.826 16.2231C117.998 14.1226 114.711 13.7424 113.041 12.219Z" fill="white"/>
<path fill-rule="evenodd" clip-rule="evenodd" d="M40.8993 3.10211C40.3591 3.10211 39.9286 2.67638 39.9286 2.14828C39.9286 2.14086 39.9286 2.1335 39.9286 2.12608C39.9349 1.60545 40.3695 1.1884 40.8993 1.19451C40.9126 1.19426 40.9259 1.19426 40.9391 1.19451C41.4642 1.20529 41.881 1.63232 41.8701 2.14828C41.8701 2.15199 41.8701 2.1557 41.8701 2.15941C41.8669 2.68309 41.4323 3.10516 40.8993 3.10211ZM40.8993 0.945679C40.236 0.959313 39.7082 1.49643 39.7176 2.14828C39.7172 2.16698 39.7172 2.18563 39.7176 2.20428C39.7334 2.83012 40.2624 3.32492 40.8993 3.30943C40.9183 3.30993 40.9373 3.30993 40.9563 3.30943C41.5932 3.29399 42.0968 2.77412 42.0811 2.14828C42.092 1.49583 41.5634 0.95781 40.8993 0.945679Z" fill="white"/>
<path fill-rule="evenodd" clip-rule="evenodd" d="M41.5736 3.30977H41.3285L41.0833 2.69834H40.8732V3.30977H40.6631V1.89885H41.1884C41.2947 1.88015 41.4029 1.89629 41.5035 1.94587C41.583 2.03677 41.6109 2.17475 41.6086 2.32211C41.611 2.58862 41.5106 2.70153 41.3285 2.69834L41.5736 3.30977Z" fill="white"/>
<mask id="mask2_0_3336" style="mask-type:luminance" maskUnits="userSpaceOnUse" x="25" y="0" width="15" height="6">
<path fill-rule="evenodd" clip-rule="evenodd" d="M25.5327 0H39.7175V5.20109H25.5327V0Z" fill="white"/>
</mask>
<g mask="url(#mask2_0_3336)">
<path fill-rule="evenodd" clip-rule="evenodd" d="M35.4933 3.35399C35.3273 2.9819 35.3835 2.06104 35.6539 1.78797C35.6539 1.78797 35.7985 1.6193 35.8548 1.8683C35.9404 2.30732 35.7932 3.04884 35.4933 3.35399ZM32.0392 1.94858C32.0392 1.94858 32.2133 1.77996 32.2802 2.02891C32.3436 2.48337 32.1957 2.94191 31.8786 3.27366C31.7126 2.89623 31.7982 2.21894 32.0392 1.94858ZM30.513 2.06638C30.513 2.06638 30.679 1.90038 30.7111 2.14666C30.8182 2.58841 30.6442 3.08097 30.3497 3.39146C30.181 3.01403 30.264 2.33941 30.513 2.06638ZM28.9038 2.30999C28.8743 1.76389 29.0162 0.588695 29.1876 0.583356H29.2679C29.5196 1.19634 29.1769 2.3796 28.9466 2.87216C28.9118 3.10237 28.8743 2.59108 28.9038 2.30999ZM39.3892 3.19071C38.9929 3.4932 38.851 3.93489 38.2244 3.8733C37.9245 3.82782 37.8442 3.46912 37.9433 3.27366C38.286 2.69548 38.7251 2.00212 39.0277 1.4266C39.0036 1.3222 38.7224 1.20974 38.5859 1.26594C38.27 1.45602 37.9647 2.16273 37.7023 2.51075L37.4212 1.62736C37.2498 1.65143 37.0945 1.65143 36.9793 1.79064C36.7518 2.2966 36.3233 3.89742 35.7744 3.71808C36.1386 3.19338 36.2966 2.3796 36.2966 1.91111C36.3153 1.48281 35.9913 1.0866 35.5736 1.3088C34.8775 1.8201 34.939 2.75169 35.0515 3.55746C35.0328 3.61901 34.8453 3.6458 34.7704 3.63775C34.2723 3.68594 34.8186 1.91378 34.4491 1.87097C34.0849 1.8549 33.8734 2.04498 33.7261 2.27252C33.7395 2.15205 33.6886 1.96732 33.6458 1.79064C33.5253 1.69696 33.2843 1.79331 33.204 1.94858C33.0139 2.32067 32.9924 2.96317 32.963 3.39413C32.7809 3.65648 32.0606 3.93489 32.1195 3.59493C32.3739 3.38079 32.955 2.39833 32.6818 1.82811C32.3819 1.33555 31.9134 1.48548 31.7581 1.74783C31.3436 2.28995 31.2662 3.01792 31.5572 3.63508C31.0592 4.04197 30.6228 3.79035 30.5532 3.67522C30.8076 3.45573 31.418 2.5188 31.1154 1.94858C30.8477 1.45602 30.3818 1.60323 30.2319 1.8683C29.8222 2.44381 29.7821 3.22818 29.9534 3.59493C29.7579 3.76089 29.3429 3.75555 29.2278 3.59493C29.7766 2.61957 29.9884 1.49043 29.8302 0.382555C29.5517 -0.166214 28.9948 -0.035016 28.8261 0.221943C28.3147 0.856381 28.1621 2.2484 28.5048 3.35399C28.4486 3.57348 28.1781 3.76894 27.9425 3.67522C27.4552 3.42093 27.1473 2.88284 27.0589 2.35013C27.407 1.84418 27.739 1.23114 28.2237 0.824249C28.1166 0.604761 27.889 0.377216 27.6614 0.503026C27.4739 0.604761 26.6412 1.90038 26.2958 2.14938V0.703778C26.2905 0.527149 26.2423 0.387894 26.095 0.342414C25.9156 0.296886 25.6639 0.363819 25.6532 0.703778L25.5327 3.83583C25.5434 4.01522 25.6371 4.33378 25.854 4.35785C26.1968 4.36319 26.2235 4.1089 26.2155 3.83583C26.2289 3.6806 26.2289 3.30313 26.2958 3.11305C26.3681 3.05684 26.427 2.92031 26.577 2.83197C26.826 3.43699 27.2035 4.28558 27.7417 4.27757C28.0871 4.29631 28.5022 4.28291 28.786 3.91616C29.1421 4.28291 29.7553 4.14904 30.1515 3.9563C30.5264 4.24277 31.1663 4.32305 31.6777 3.99649C32.2347 4.50779 32.5988 4.0259 33.0433 3.75555C33.0727 4.06876 33.1852 4.25078 33.3245 4.27757C33.4182 4.30965 33.5253 4.23738 33.5253 4.23738L33.7261 2.7115C33.7663 2.54822 34.0474 2.4706 34.0474 2.4706C33.951 4.24277 34.5401 4.14904 35.0515 3.9563C35.7236 5.14756 36.5643 3.83049 37.0195 3.11305C37.057 3.07558 37.0517 3.15052 37.0998 3.15324C37.1373 3.29779 37.1373 3.40219 37.14 3.55475C36.9927 3.89475 36.6446 4.4328 36.4974 4.87988C36.4974 5.06723 36.8321 5.19576 36.9793 5.2011C37.124 4.64427 37.3649 4.32305 37.5015 4.07677C37.7237 4.51046 38.8162 4.77547 39.349 4.07677C39.4772 3.89354 39.5978 3.70512 39.7105 3.51193C39.764 3.38613 39.4963 3.16125 39.3892 3.19071Z" fill="white"/>
</g>
</g>
</svg>
