<svg width="78" height="78" viewBox="0 0 78 78" fill="none" xmlns="http://www.w3.org/2000/svg">
<circle cx="39" cy="39" r="39" fill="white"/>
<mask id="mask0_80_6368" style="mask-type:luminance" maskUnits="userSpaceOnUse" x="17" y="20" width="40" height="40">
<path fill-rule="evenodd" clip-rule="evenodd" d="M17 20H57V60H17V20Z" fill="white"/>
</mask>
<g mask="url(#mask0_80_6368)">
<path fill-rule="evenodd" clip-rule="evenodd" d="M29.6541 30.0043H53.6659V31.4381L50.7417 41.6674H33.2272L29.6541 30.0043ZM50.3322 54.998C50.3322 55.9174 49.5843 56.6654 48.6651 56.6654C47.7459 56.6654 46.998 55.9174 46.998 54.998C46.998 54.0786 47.7459 53.3306 48.6651 53.3306C49.5843 53.3306 50.3322 54.0786 50.3322 54.998ZM35.3371 54.998C35.3371 55.9174 34.5892 56.6654 33.67 56.6654C32.7508 56.6654 32.0029 55.9174 32.0029 54.998C32.0029 54.0786 32.7508 53.3306 33.67 53.3306C34.5892 53.3306 35.3371 54.0786 35.3371 54.998ZM53.2561 45.0022L57 31.9055V26.6695H28.6779V26.8181L28.02 24.6707L28.0148 24.6539C27.5817 23.2919 26.7427 22.1266 25.5885 21.2841C24.4377 20.444 23.0771 20 21.6557 20C21.6516 20 21.6474 20 21.6432 20H17V23.3348H21.6462H21.6524C23.1091 23.3348 24.3847 24.2635 24.8326 25.6492L29.7909 41.833C27.2367 42.4558 25.3353 44.7638 25.3353 47.5077V47.5145C25.3456 49.9944 26.9142 52.1161 29.1073 52.951C28.826 53.5761 28.6692 54.269 28.6692 54.9978C28.6692 57.756 30.9126 60 33.6703 60C36.4279 60 38.6714 57.756 38.6714 54.9978C38.6714 54.4134 38.5703 53.8522 38.3853 53.3304H43.9498C43.7648 53.8522 43.6638 54.4134 43.6638 54.9978C43.6638 57.756 45.9073 60 48.6648 60C51.4224 60 53.6659 57.756 53.6659 54.9978C53.6659 52.2396 51.4224 49.9956 48.6648 49.9956C48.6532 49.9956 48.6416 49.996 48.6299 49.9961V49.9957H33.6744C33.673 49.9957 33.6717 49.9956 33.6703 49.9956C33.669 49.9956 33.6677 49.9957 33.6663 49.9957H31.1741C29.7993 49.9957 28.6761 48.8776 28.6693 47.5028C28.6719 46.1234 29.7946 45.0021 31.1741 45.0021H31.9946V45.0022H53.2561Z" fill="#2A03DB"/>
</g>
</svg>
