<svg width="38" height="38" viewBox="0 0 38 38" fill="none" xmlns="http://www.w3.org/2000/svg">
<circle cx="19" cy="19" r="19" fill="#B0F560"/>
<path fill-rule="evenodd" clip-rule="evenodd" d="M26.3864 11C28.0914 11 29.4736 12.3739 29.4736 14.0687V15.1458L29.4737 15.1527L29.4736 15.1665V24.9313C29.4736 26.6092 28.119 27.9725 26.4375 27.9996L26.3864 28H11.0873C9.38225 28 8.00009 26.6261 8.00009 24.9313V15.1665L8 15.1527L8.00009 15.1458V14.0687C8.00009 12.3908 9.35476 11.0275 11.0362 11.0004L11.0873 11H26.3864ZM27.6842 16.8158L20.4519 21.6095C19.4134 22.298 18.0603 22.298 17.0218 21.6096L9.78947 16.8158V24.9319C9.78947 25.631 10.3538 26.1991 11.0542 26.2104L11.0755 26.2105H26.3982C27.1085 26.2105 27.6842 25.6381 27.6842 24.9319V16.8158ZM11.0755 12.7895H26.3982L26.4195 12.7896C27.1199 12.801 27.6842 13.3725 27.6842 14.0759V14.6873L19.4502 20.1787L19.4361 20.1879C19.006 20.4667 18.4508 20.4636 18.0235 20.1787L9.78947 14.6874V14.0759C9.78947 13.3654 10.3652 12.7895 11.0755 12.7895Z" fill="black"/>
</svg>
