<svg width="22" height="17" viewBox="0 0 22 17" fill="none" xmlns="http://www.w3.org/2000/svg">
<path fill-rule="evenodd" clip-rule="evenodd" d="M18.3864 0C20.0914 0 21.4736 1.37389 21.4736 3.06869V4.14583L21.4737 4.15274L21.4736 4.16652V13.9313C21.4736 15.6092 20.119 16.9725 18.4375 16.9996L18.3864 17H3.08725C1.38225 17 9.4739e-05 15.6261 9.4739e-05 13.9313V4.16652L0 4.15274L9.4739e-05 4.14583V3.06869C9.4739e-05 1.39085 1.35476 0.0275101 3.0362 0.000411117L3.08725 0H18.3864ZM19.6842 5.81579L12.4519 10.6095C11.4134 11.298 10.0603 11.298 9.02176 10.6096L1.78947 5.81579V13.9319C1.78947 14.631 2.35377 15.1991 3.05422 15.2104L3.07549 15.2105H18.3982C19.1085 15.2105 19.6842 14.6381 19.6842 13.9319V5.81579ZM3.07549 1.78947H18.3982L18.4195 1.78965C19.1199 1.80101 19.6842 2.37253 19.6842 3.07594V3.68734L11.4502 9.17865L11.4361 9.18794C11.006 9.46673 10.4508 9.46363 10.0235 9.17867L1.78947 3.68737V3.07594C1.78947 2.36544 2.36524 1.78947 3.07549 1.78947Z" fill="black"/>
</svg>
