<svg width="21" height="21" viewBox="0 0 21 21" fill="none" xmlns="http://www.w3.org/2000/svg">
<path fill-rule="evenodd" clip-rule="evenodd" d="M5.54318 15.5294C8.05007 18 11.7444 21 15.1749 21C16.7582 21 18.1216 20.3824 19.2651 19.1029C20.5845 17.5147 21.1123 16.3235 20.9803 15.2647C20.8095 14.1505 19.8916 13.4942 19.2749 13.0532C19.2567 13.0402 19.2388 13.0273 19.2211 13.0147C19.1616 12.9749 19.0942 12.9297 19.0202 12.8801C18.2742 12.3799 16.8587 11.4308 16.0985 11.0294C15.7906 10.8529 15.3508 10.6765 14.8231 10.6765C13.9874 10.6765 13.2398 11.1176 12.5361 12.0441C12.5361 12.0882 12.4481 12.1765 12.4041 12.1765C11.9987 12.1765 11.2197 11.3893 10.7558 10.9206C10.7164 10.8808 10.6793 10.8433 10.6449 10.8088L10.2051 10.3676C9.76531 9.97059 8.79774 9 8.84172 8.60294C8.85638 8.58824 8.86615 8.57353 8.87593 8.55882C8.89547 8.52941 8.91502 8.5 8.97366 8.47059C10.3371 7.41176 10.6889 6.22059 9.98521 4.89706C9.58509 4.13446 8.63895 2.71459 8.14029 1.96626C8.09083 1.89203 8.04577 1.82442 8.00609 1.76471C7.5223 1.05882 6.77464 0 5.41124 0C4.44367 0 3.34416 0.573529 1.93678 1.76471C0.705326 2.82353 0.0456187 4.10294 0.00163821 5.64706C-0.0863228 9.30882 3.38814 13.4118 5.54318 15.5294ZM3.16823 3.13235C4.53163 1.98529 5.19134 1.80882 5.45522 1.80882C5.76308 1.80882 6.02697 2.07353 6.55473 2.82353C6.90658 3.30882 8.00609 4.98529 8.44589 5.77941C8.62182 6.13235 8.75376 6.39706 7.91813 7.01471C7.25842 7.5 7.12648 8.07353 7.0825 8.47059C6.99727 9.66752 8.0269 10.6988 8.89111 11.5643C8.91881 11.5921 8.94634 11.6197 8.97366 11.6471L9.36949 12.0441C10.2051 12.8824 11.2606 13.9412 12.4481 13.9412C12.8879 13.9412 13.5037 13.8088 14.0314 13.1029C14.3393 12.6618 14.6471 12.4412 14.867 12.4412C14.999 12.4412 15.1309 12.4853 15.2629 12.5735C16.0545 13.0147 17.7258 14.1176 18.2096 14.4706C18.8253 14.8676 19.1332 15.1324 19.1771 15.4412C19.2211 15.7059 19.0892 16.3676 17.8577 17.8235C17.1101 18.7059 16.1865 19.1471 15.1309 19.1471C12.9319 19.1471 9.89725 17.3382 6.77464 14.2059C3.56406 10.9853 1.76086 7.89706 1.84882 5.69118C1.8928 4.67647 2.3326 3.83824 3.16823 3.13235Z" fill="black"/>
</svg>
