<svg width="22" height="18" viewBox="0 0 22 18" fill="none" xmlns="http://www.w3.org/2000/svg">
<path d="M19.4085 0.492871C19.4085 0.492871 21.277 -0.23349 21.1213 1.53053C21.0694 2.2569 20.6023 4.79916 20.239 7.54898L18.9933 15.6946C18.9933 15.6946 18.8895 16.8879 17.9552 17.0955C17.0209 17.303 15.6195 16.3691 15.36 16.1616C15.1524 16.0059 11.4672 13.6712 10.1696 12.5298C9.80623 12.2184 9.391 11.5958 10.2215 10.8695L15.6714 5.6812C16.2943 5.05859 16.9171 3.60587 14.3219 5.3699L7.05533 10.2988C7.05533 10.2988 6.22486 10.8176 4.66777 10.3507L1.29398 9.31301C1.29398 9.31301 0.0482799 8.53477 2.17635 7.75648C7.36678 5.31797 13.751 2.82759 19.4085 0.492871Z" fill="white"/>
</svg>
