<svg width="20" height="20" viewBox="0 0 20 20" fill="none" xmlns="http://www.w3.org/2000/svg">
<path d="M10.4758 5.71436C11.0018 5.71436 11.4282 6.14075 11.4282 6.66674L11.4282 10.0818L14.0064 12.66C14.3746 13.0282 14.3783 13.6229 14.0174 13.9956L14.0064 14.0068C13.6345 14.3788 13.0315 14.3788 12.6595 14.0068L9.80238 11.1497L9.52344 10.8707V6.66674C9.52344 6.14075 9.94983 5.71436 10.4758 5.71436Z" fill="#101010"/>
<path fill-rule="evenodd" clip-rule="evenodd" d="M20 10C20 4.47715 15.5228 0 10 0C4.47715 0 0 4.47715 0 10C0 15.5228 4.47715 20 10 20C15.5228 20 20 15.5228 20 10ZM2 10C2 5.58172 5.58172 2 10 2C14.4183 2 18 5.58172 18 10C18 14.4183 14.4183 18 10 18C5.58172 18 2 14.4183 2 10Z" fill="#101010"/>
</svg>
