<svg width="427" height="335" viewBox="0 0 427 335" fill="none" xmlns="http://www.w3.org/2000/svg">
<path fill-rule="evenodd" clip-rule="evenodd" d="M342.552 321.028V297.213L363.196 309.121V332.936L342.552 321.028ZM363.839 284.189L384.484 296.096L374.12 302.074L363.839 308.006L360.604 306.139L343.199 296.098L363.839 284.189ZM363.839 282.702L341.91 295.354L341.265 295.751V321.771L363.196 334.423L363.839 334.795L364.483 334.423L386.416 321.771V296.469V295.724L363.839 282.702Z" fill="#16110D"/>
<path fill-rule="evenodd" clip-rule="evenodd" d="M164.839 184.372C164.839 184.372 160.857 184.017 160.146 180.819C159.434 177.621 159.829 175.489 159.829 175.489C159.829 175.489 162.103 173.154 164.198 174.423C167.014 176.126 168.979 177.11 168.979 177.11L164.839 184.372Z" fill="#F2F2F2"/>
<path fill-rule="evenodd" clip-rule="evenodd" d="M160.663 175.925C160.593 176.57 160.492 178.303 161.01 180.628C161.434 182.544 163.399 183.195 164.374 183.403L167.758 177.469C166.919 177.021 165.498 176.243 163.74 175.177C162.573 174.472 161.177 175.485 160.663 175.925ZM165.328 185.303L164.76 185.251C164.571 185.235 160.124 184.797 159.284 181.01C158.541 177.677 158.942 175.423 158.959 175.329L159.01 175.066L159.195 174.873C159.306 174.758 161.987 172.047 164.657 173.667C167.404 175.329 169.357 176.309 169.375 176.321L170.21 176.736L165.328 185.303Z" fill="black"/>
<path fill-rule="evenodd" clip-rule="evenodd" d="M456.393 174.859L383.897 130.419L209.314 229.569L279.841 274.586L456.393 174.859Z" fill="#F2F2F2"/>
<path fill-rule="evenodd" clip-rule="evenodd" d="M211.025 229.614L279.868 273.555L454.652 174.828L383.881 131.445L211.025 229.614ZM279.813 275.617L279.364 275.331L207.603 229.525L208.877 228.802L383.914 129.392L457.259 175.384L456.829 175.627L279.813 275.617Z" fill="black"/>
<path fill-rule="evenodd" clip-rule="evenodd" d="M252.874 76.0435V206.942L324.262 249.253V118.253L252.874 76.0435Z" fill="#F2F2F2"/>
<path fill-rule="evenodd" clip-rule="evenodd" d="M324.314 155.742L252.875 115.57L252.821 181.428L324.26 223.778L324.314 155.742Z" fill="#F2F2F2"/>
<path fill-rule="evenodd" clip-rule="evenodd" d="M253.704 180.925L323.379 222.227L323.428 156.258L253.757 117.082L253.704 180.925ZM325.143 225.328L251.936 181.934L251.993 114.062L325.198 155.227L325.143 225.328Z" fill="black"/>
<path fill-rule="evenodd" clip-rule="evenodd" d="M433.6 200.976L393.731 177.547L416.798 157.443L432.644 160.3C432.644 160.3 443.829 171.455 444.518 172.802C445.207 174.15 433.6 200.976 433.6 200.976Z" fill="black"/>
<path fill-rule="evenodd" clip-rule="evenodd" d="M395.236 177.407L433.184 199.706C438.252 187.958 443.47 175.053 443.659 173.09C442.847 171.925 437.3 166.199 432.214 161.121L417.059 158.388L395.236 177.407ZM434.292 201.598L433.589 201.996L392.225 177.688L416.539 156.496L433.071 159.478L433.267 159.676C435.154 161.555 444.59 171.001 445.305 172.399C445.523 172.825 446.183 174.119 434.41 201.326L434.292 201.598Z" fill="black"/>
<path fill-rule="evenodd" clip-rule="evenodd" d="M456.837 42.5662L324.26 118.774L252.821 76.6301L384.67 1.02002L456.837 42.5662Z" fill="#B0F560"/>
<path fill-rule="evenodd" clip-rule="evenodd" d="M324.716 117.495L255.107 76.3372L384.672 2.03952L455.064 42.5649L324.716 117.495ZM253.758 206.437V78.2103L323.376 119.28V247.7L253.758 206.437ZM457.718 42.0535L384.672 0L253.705 75.1048L253.359 75.302L251.99 76.0866V77.1669V207.446L325.144 250.801V119.284L457.278 43.331L457.718 42.0535Z" fill="black"/>
<path fill-rule="evenodd" clip-rule="evenodd" d="M279.366 288.168L244.826 264.304L269.05 245.716L291.265 250.08L279.366 288.168Z" fill="black"/>
<path fill-rule="evenodd" clip-rule="evenodd" d="M246.327 264.266L278.88 286.756L290.128 250.759L269.272 246.658L246.327 264.266ZM280.106 288.764L279.318 289.208L243.323 264.34L268.83 244.77L292.403 249.406L280.106 288.764Z" fill="black"/>
<path fill-rule="evenodd" clip-rule="evenodd" d="M258.164 256.312L256.99 255.61C256.581 255.415 256.159 255.251 255.713 255.144C249.4 253.644 241.281 262.109 238.434 274.072C235.801 285.145 238.305 295.281 242.675 297.926V297.931L257.89 306.655L270.363 264.534L258.164 256.312Z" fill="#F2F2F2"/>
<path fill-rule="evenodd" clip-rule="evenodd" d="M243.272 297.254L257.359 305.334L269.332 264.903L256.537 256.369C256.218 256.219 255.86 256.087 255.509 256.005C249.555 254.561 241.953 263.12 239.297 274.277C236.735 285.035 239.214 294.799 243.135 297.171L243.272 297.254ZM259.123 305.597C258.763 306.812 257.363 307.371 256.265 306.739L241.79 298.4C237.019 294.974 235.123 284.174 237.574 273.868C240.497 261.588 248.889 252.627 255.92 254.284C256.397 254.399 256.872 254.574 257.377 254.818L258.658 255.58L271.394 264.161L259.123 305.597Z" fill="black"/>
<path fill-rule="evenodd" clip-rule="evenodd" d="M274.477 287.705C271.63 299.669 264.205 308.154 257.889 306.655C251.576 305.155 248.765 294.241 251.613 282.275C254.458 270.311 261.886 261.826 268.199 263.326C274.512 264.825 277.325 275.739 274.477 287.705Z" fill="#F2F2F2"/>
<path fill-rule="evenodd" clip-rule="evenodd" d="M266.742 264.04C261.268 264.04 254.965 272.011 252.473 282.48C249.79 293.756 252.364 304.436 258.094 305.796C263.811 307.178 270.932 298.782 273.615 287.5C276.3 276.222 273.726 265.545 267.992 264.184C267.583 264.085 267.166 264.04 266.742 264.04ZM259.391 307.714C258.817 307.714 258.248 307.65 257.684 307.517C250.793 305.878 247.747 294.703 250.75 282.071C253.758 269.44 261.521 260.842 268.403 262.463C275.296 264.102 278.341 275.279 275.338 287.908C272.579 299.505 265.813 307.714 259.391 307.714Z" fill="black"/>
<path fill-rule="evenodd" clip-rule="evenodd" d="M269.173 286.446C267.646 292.86 263.666 297.407 260.28 296.604C256.896 295.801 255.389 289.948 256.915 283.535C258.442 277.119 262.422 272.572 265.808 273.375C269.192 274.18 270.699 280.031 269.173 286.446Z" fill="black"/>
<path fill-rule="evenodd" clip-rule="evenodd" d="M265.001 274.164C262.263 274.164 259.066 278.311 257.775 283.739C257.072 286.703 257.015 289.62 257.613 291.953C258.156 294.058 259.202 295.44 260.487 295.744C263.285 296.439 266.928 292.074 268.313 286.241C269.018 283.277 269.076 280.359 268.478 278.025C267.933 275.922 266.889 274.54 265.602 274.236C265.406 274.187 265.203 274.164 265.001 274.164ZM261.073 297.581C260.738 297.581 260.407 297.544 260.078 297.466C258.106 296.995 256.622 295.196 255.902 292.395C255.228 289.788 255.284 286.57 256.053 283.331C257.718 276.333 262.093 271.591 266.013 272.515C267.984 272.983 269.467 274.782 270.188 277.586C270.86 280.19 270.805 283.411 270.036 286.65C268.509 293.056 264.712 297.581 261.073 297.581Z" fill="black"/>
<path fill-rule="evenodd" clip-rule="evenodd" d="M265.808 273.376C265.12 273.212 264.406 273.321 263.695 273.571C266.577 274.974 267.792 280.386 266.378 286.334C265.161 291.444 262.387 295.32 259.598 296.297C259.824 296.406 260.036 296.546 260.28 296.606C263.666 297.409 267.648 292.861 269.174 286.447C270.701 280.031 269.192 274.179 265.808 273.376Z" fill="#F2F2F2"/>
<path fill-rule="evenodd" clip-rule="evenodd" d="M280.554 233.282L243.603 211.02L230.329 218.301L261.52 237.254L276.058 250.81L280.554 258.584V233.282Z" fill="#F2F2F2"/>
<path fill-rule="evenodd" clip-rule="evenodd" d="M232.095 218.34L261.978 236.501L276.825 250.367L279.671 255.29V233.782L243.581 212.037L232.095 218.34ZM281.441 261.879L275.36 251.365L260.916 237.902L228.563 218.262L243.622 210L281.441 232.781V261.879Z" fill="black"/>
<path fill-rule="evenodd" clip-rule="evenodd" d="M284.925 209.829L239.71 234.191L249.002 180.876L284.925 161.051V209.829ZM234.264 234.191L165.461 193.365L177.263 145.528L243.166 183.248L234.264 234.191ZM304.862 145.528C295.634 139.219 243.55 105.424 235.781 106.069C228.01 106.712 220.603 111.341 220.603 111.341L181.177 133.87C181.177 133.87 175.396 136.992 173.939 142.472C172.483 147.952 161.6 191.57 161.6 191.57L152.799 247.662C152.799 247.662 148.395 258.698 158.033 264.519C167.673 270.341 223.681 302.284 223.681 302.284C223.681 302.284 231.546 305.18 238.945 300.813C246.344 296.446 246.344 296.432 246.344 296.432C246.344 296.432 247.061 263.034 264.48 255.426C281.899 247.818 279.841 274.587 279.841 274.587L310.705 256.369L312.607 199.763V159.008C312.607 159.008 314.089 151.836 304.862 145.528Z" fill="#F2F2F2"/>
<path fill-rule="evenodd" clip-rule="evenodd" d="M166.477 192.939L233.611 232.781L242.185 183.707L177.841 146.876L166.477 192.939ZM234.914 235.605L164.445 193.789L176.684 144.18L244.143 182.791L244.036 183.401L234.914 235.605ZM249.8 181.443L240.894 232.553L284.042 209.303V162.548L249.8 181.443ZM238.526 235.833L248.201 180.306L285.812 159.553V210.356L238.526 235.833ZM224.119 301.514C224.158 301.512 231.604 304.117 238.495 300.052C243.086 297.343 244.819 296.314 245.475 295.924C245.641 291.502 247.37 261.932 264.125 254.618C268.565 252.677 272.237 252.703 275.043 254.694C280.538 258.596 280.884 268.929 280.797 272.996L309.836 255.854L311.723 199.733V159.009C311.793 158.563 312.94 152.124 304.361 146.256C290.351 136.675 243.614 106.94 236.057 106.94C235.985 106.94 235.919 106.943 235.854 106.951C228.385 107.567 221.146 112.044 221.074 112.092L181.617 134.637C181.543 134.678 176.135 137.663 174.794 142.699C173.357 148.109 162.568 191.349 162.459 191.787L153.673 247.799C153.455 248.413 149.621 258.407 158.492 263.762C168.01 269.513 223.56 301.198 224.119 301.518V301.514ZM229.805 304.121C226.185 304.121 223.566 303.184 223.375 303.112C222.682 302.732 167.116 271.034 157.575 265.275C147.413 259.136 151.932 247.454 151.979 247.337L160.728 191.436C160.852 190.922 171.643 147.669 173.084 142.247C174.624 136.461 180.507 133.228 180.756 133.093L220.164 110.574C220.445 110.397 227.815 105.842 235.708 105.188C235.79 105.18 235.874 105.178 235.965 105.178C245.133 105.178 298.054 139.803 305.36 144.798C314.963 151.366 313.536 158.871 313.472 159.19L313.491 199.764L311.573 256.881L278.83 276.208L278.958 274.518C278.97 274.376 279.967 260.356 274.015 256.133C271.754 254.527 268.66 254.564 264.834 256.236C248.137 263.527 247.234 296.125 247.226 296.451C247.226 296.953 247.226 296.953 239.394 301.576C236.041 303.554 232.62 304.121 229.805 304.121Z" fill="black"/>
<path fill-rule="evenodd" clip-rule="evenodd" d="M165.562 193.6L177.364 145.762L243.265 183.482L234.363 234.427L165.562 193.6Z" fill="#B0F560"/>
<path fill-rule="evenodd" clip-rule="evenodd" d="M166.578 193.174L233.712 233.011L242.287 183.94L177.942 147.111L166.578 193.174ZM235.016 235.838L164.547 194.024L176.785 144.415L244.244 183.024L244.137 183.634L235.016 235.838Z" fill="black"/>
<path fill-rule="evenodd" clip-rule="evenodd" d="M285.026 160.698V210.187L239.811 234.425L249.103 181.11L285.026 160.698Z" fill="#F2F2F2"/>
<path fill-rule="evenodd" clip-rule="evenodd" d="M249.901 181.67L240.995 232.79L284.14 209.657V162.218L249.901 181.67ZM238.627 236.062L248.304 180.547L248.663 180.339L285.91 159.18V210.714L238.627 236.062Z" fill="black"/>
<path fill-rule="evenodd" clip-rule="evenodd" d="M284.925 209.657L240.211 234.019L249.253 180.704L284.925 160.879V209.657ZM243.166 183.248L234.264 234.191C234.264 234.191 225.885 278.29 224.063 287.751C223.064 292.951 226.81 300.15 229.951 303.027C232.788 303.149 236.416 302.725 239.946 300.641C247.345 296.274 247.345 296.26 247.345 296.26C247.345 296.26 248.153 264.213 263.045 256.131C279.749 247.067 279.841 274.587 279.841 274.587L310.705 256.369L312.606 199.591V158.838C312.606 158.838 313.846 150.62 303.355 144.51C303.355 144.51 268.084 165.472 257.071 170.572C241.486 177.789 243.166 183.248 243.166 183.248Z" fill="black"/>
<path fill-rule="evenodd" clip-rule="evenodd" d="M250.053 181.27L241.388 232.373L284.041 209.133V162.38L250.053 181.27ZM239.034 235.667L248.449 180.138L285.809 159.375V210.183L239.034 235.667ZM230.317 302.156C233.682 302.253 236.785 301.482 239.496 299.878C244.089 297.171 245.822 296.14 246.476 295.75C246.648 291.429 248.316 263.12 262.624 255.356C266.814 253.082 270.424 252.803 273.349 254.536C279.329 258.075 280.462 269.008 280.674 273.067L309.835 255.855L311.721 199.562V158.837C311.774 158.402 312.679 151.207 303.356 145.538C299.193 148.005 267.694 166.626 257.443 171.372C243.024 178.054 244.005 182.968 244.017 183.016L244.06 183.194L244.035 183.4L235.132 234.345C235.13 234.359 226.754 278.456 224.931 287.918C224.026 292.624 227.449 299.344 230.317 302.156ZM230.841 303.931C230.535 303.931 230.225 303.924 229.914 303.912L229.591 303.9L229.351 303.68C226.138 300.735 222.094 293.308 223.196 287.584C225.017 278.123 233.395 234.026 233.395 234.026L242.263 183.27C242.033 181.97 242.101 176.532 256.697 169.77C267.546 164.746 302.552 143.961 302.905 143.751L303.351 143.484L303.8 143.747C314.683 150.086 313.534 158.609 313.48 158.969L313.491 199.591L311.571 256.882L278.964 276.129L278.955 274.589C278.955 274.441 278.824 259.829 272.447 256.054C270.093 254.664 267.073 254.953 263.467 256.907C249.196 264.652 248.235 295.968 248.229 296.282C248.229 296.779 248.229 296.779 240.395 301.402C237.549 303.082 234.34 303.931 230.841 303.931Z" fill="black"/>
<path fill-rule="evenodd" clip-rule="evenodd" d="M271.813 239.063V230.33L282.012 224.014V234.696L271.813 240.721V239.063Z" fill="black"/>
<path fill-rule="evenodd" clip-rule="evenodd" d="M272.698 230.822V239.173L281.124 234.192V225.601L272.698 230.822ZM270.93 242.27V229.838L280.162 224.118C281.353 223.38 282.894 224.237 282.894 225.638V233.389C282.894 234.513 282.3 235.552 281.334 236.123L270.93 242.27Z" fill="#F2F2F2"/>
<path fill-rule="evenodd" clip-rule="evenodd" d="M282.593 224.013C282.593 224.013 280.554 224.73 280.554 227.279V233.242C280.554 233.242 280.965 235.283 282.593 234.193C284.221 233.1 283.857 231.525 283.857 231.525L283.892 225.094C283.892 225.094 283.175 223.695 282.593 224.013Z" fill="black"/>
<path fill-rule="evenodd" clip-rule="evenodd" d="M282.72 224.924C282.321 225.137 281.439 225.774 281.439 227.278V233.24C281.476 233.312 281.632 233.593 281.716 233.63C281.76 233.636 281.873 233.612 282.101 233.458C283.211 232.712 282.997 231.732 282.995 231.72L283.007 225.324C282.915 225.172 282.808 225.024 282.72 224.924ZM281.718 235.397C281.449 235.397 281.223 235.339 281.04 235.265C280 234.834 279.716 233.558 279.685 233.413L279.671 227.278C279.671 224.386 281.815 223.373 282.234 223.205C282.524 223.067 282.855 223.045 283.166 223.143C283.939 223.379 284.481 224.306 284.679 224.692L284.775 225.098L284.743 231.525V231.523C284.763 231.523 285.139 233.548 283.086 234.926C282.559 235.278 282.095 235.397 281.718 235.397Z" fill="#F2F2F2"/>
<path fill-rule="evenodd" clip-rule="evenodd" d="M156.48 224.202L228.257 265.781L232.245 244.815L159.975 201.929L156.48 224.202Z" fill="#F2F2F2"/>
<path fill-rule="evenodd" clip-rule="evenodd" d="M157.448 223.741L227.621 264.392L231.26 245.258L160.647 203.356L157.448 223.741ZM228.891 267.171L155.514 224.661L159.303 200.503L233.231 244.371L228.891 267.171Z" fill="black"/>
<path fill-rule="evenodd" clip-rule="evenodd" d="M164.249 221.593L207.203 247.6L229.737 243.326L168.422 206.943L164.249 221.593Z" fill="black"/>
<path fill-rule="evenodd" clip-rule="evenodd" d="M165.286 221.185L207.372 246.67L227.277 242.892L168.96 208.286L165.286 221.185ZM207.035 248.532L206.745 248.356L163.214 222L167.887 205.596L232.196 243.759L207.035 248.532Z" fill="black"/>
<path fill-rule="evenodd" clip-rule="evenodd" d="M157.528 217.522L176.413 228.962C176.413 228.962 173.823 210.146 165.891 205.439C160.805 202.422 159.975 201.929 159.975 201.929L157.528 217.522Z" fill="#F2F2F2"/>
<path fill-rule="evenodd" clip-rule="evenodd" d="M158.494 217.073L175.222 227.205C174.336 222.403 171.478 209.783 165.44 206.197L160.648 203.357L158.494 217.073ZM177.541 230.678L156.563 217.97L159.302 200.504L166.343 204.679C174.548 209.547 177.179 228.053 177.288 228.839L177.541 230.678Z" fill="black"/>
<path fill-rule="evenodd" clip-rule="evenodd" d="M232.244 244.814L224.633 240.297C224.633 240.297 222.208 239.543 214.776 241.072C211.24 241.801 205.126 246.342 205.126 246.342L229.327 260.15L232.244 244.814Z" fill="#F2F2F2"/>
<path fill-rule="evenodd" clip-rule="evenodd" d="M206.764 246.262L228.687 258.77L231.259 245.259L224.189 241.061C224.181 241.092 223.72 240.985 222.664 240.985C221.255 240.985 218.797 241.147 214.956 241.938C212.52 242.439 208.655 244.955 206.764 246.262ZM229.964 261.532L203.512 246.438L204.597 245.633C204.852 245.442 210.913 240.965 214.599 240.209C222.037 238.674 224.627 239.369 224.894 239.453L233.23 244.37L229.964 261.532Z" fill="black"/>
<path fill-rule="evenodd" clip-rule="evenodd" d="M214.07 296.378C207.13 292.411 210.954 280.768 210.954 280.768L212.592 276.196L163.962 247.333L162.998 253.486C162.998 253.486 158.593 264.52 168.23 270.342C174.589 274.181 201.115 289.382 218.441 299.288L214.07 296.378Z" fill="#F2F2F2"/>
<path fill-rule="evenodd" clip-rule="evenodd" d="M164.634 248.759L163.87 253.622C163.65 254.232 159.82 264.229 168.69 269.583C174.107 272.857 194.415 284.517 210.255 293.585C207.596 288.352 209.983 280.89 210.113 280.493L211.513 276.583L164.634 248.759ZM218.001 300.055C202.031 290.923 174.266 275.018 167.774 271.097C157.612 264.958 162.128 253.275 162.174 253.158L163.294 245.906L213.669 275.804L211.788 281.066C211.757 281.153 208.281 292.049 214.51 295.61L214.562 295.641L218.932 298.551L218.001 300.055Z" fill="black"/>
<path fill-rule="evenodd" clip-rule="evenodd" d="M173.278 271.633C166.338 267.667 170.162 256.024 170.162 256.024L171.642 251.889L163.963 247.332L162.997 253.485C162.997 253.485 158.594 264.519 168.231 270.341C169.985 271.401 173.28 273.328 177.486 275.766C176.705 275 173.278 271.633 173.278 271.633Z" fill="black"/>
<path fill-rule="evenodd" clip-rule="evenodd" d="M164.634 248.759L163.87 253.622C163.65 254.232 159.82 264.229 168.69 269.583C169.272 269.938 170.025 270.384 170.925 270.916C166.078 265.872 169.172 256.202 169.32 255.75L170.565 252.277L164.634 248.759ZM183.118 280.054L177.041 276.529C172.829 274.085 169.529 272.159 167.774 271.095C157.612 264.958 162.128 253.275 162.174 253.158L163.294 245.906L172.72 251.505L170.991 256.325C170.964 256.409 167.488 267.305 173.719 270.867L175.44 273.555L183.118 280.054Z" fill="black"/>
<path fill-rule="evenodd" clip-rule="evenodd" d="M413.4 173.311L412.209 172.641C411.794 172.455 411.368 172.303 410.92 172.208C404.568 170.877 396.449 179.551 393.921 191.587C391.579 202.725 394.192 212.791 398.563 215.319V215.323L414.456 223.644L425.697 181.208L413.4 173.311Z" fill="#F2F2F2"/>
<path fill-rule="evenodd" clip-rule="evenodd" d="M399.073 214.594L413.885 222.346L424.676 181.605L411.776 173.412C411.451 173.27 411.087 173.147 410.738 173.073C407.983 172.496 404.671 174.096 401.647 177.474C398.397 181.101 395.963 186.179 394.787 191.767C392.507 202.62 395.128 212.312 399.005 214.555L399.073 214.594ZM415.871 221.754C415.439 223.383 413.603 224.188 412.113 223.403L397.677 215.804C392.869 212.487 390.838 201.961 393.056 191.404C394.291 185.517 396.875 180.152 400.329 176.295C403.783 172.438 407.707 170.639 411.102 171.343C411.579 171.444 412.06 171.606 412.571 171.836L413.879 172.567L426.717 180.812L415.871 221.754Z" fill="black"/>
<path fill-rule="evenodd" clip-rule="evenodd" d="M430.537 204.262C428.008 216.298 420.809 224.976 414.456 223.643C408.106 222.31 405.006 211.473 407.536 199.438C410.065 187.402 417.265 178.724 423.617 180.057C429.967 181.388 433.065 192.226 430.537 204.262Z" fill="#F2F2F2"/>
<path fill-rule="evenodd" clip-rule="evenodd" d="M422.276 180.803C416.708 180.803 410.666 188.834 408.401 199.619C406.018 210.962 408.874 221.569 414.638 222.776C417.387 223.353 420.434 221.795 423.25 218.404C426.198 214.85 428.478 209.765 429.672 204.08C430.867 198.397 430.826 192.824 429.555 188.388C428.344 184.147 426.171 181.495 423.435 180.922C423.053 180.842 422.664 180.803 422.276 180.803ZM415.777 224.662C415.271 224.662 414.77 224.61 414.274 224.508C407.342 223.054 403.999 211.958 406.67 199.255C409.34 186.556 416.844 177.724 423.799 179.193C427.207 179.905 429.855 183.001 431.257 187.901C432.604 192.609 432.653 198.485 431.403 204.443C430.151 210.404 427.74 215.76 424.611 219.529C421.829 222.883 418.742 224.662 415.777 224.662Z" fill="black"/>
<path fill-rule="evenodd" clip-rule="evenodd" d="M425.202 203.143C423.845 209.596 419.987 214.248 416.582 213.533C413.176 212.819 411.515 207.008 412.872 200.557C414.228 194.104 418.087 189.451 421.492 190.166C424.898 190.881 426.559 196.689 425.202 203.143Z" fill="black"/>
<path fill-rule="evenodd" clip-rule="evenodd" d="M420.781 190.976C418.024 190.976 414.893 195.23 413.738 200.736C412.506 206.6 413.892 212.066 416.764 212.669C419.619 213.267 423.104 208.827 424.338 202.961C425.569 197.095 424.183 191.631 421.311 191.032C421.137 190.995 420.958 190.976 420.781 190.976ZM417.282 214.491C416.988 214.491 416.692 214.46 416.4 214.399C412.457 213.571 410.527 207.409 412.005 200.373C413.485 193.34 417.722 188.485 421.675 189.3C425.616 190.128 427.545 196.288 426.069 203.324C424.699 209.835 420.958 214.491 417.282 214.491Z" fill="black"/>
<path fill-rule="evenodd" clip-rule="evenodd" d="M421.492 190.166C420.799 190.02 420.09 190.15 419.387 190.417C422.302 191.744 423.661 197.121 422.404 203.104C421.323 208.247 418.653 212.192 415.89 213.244C416.118 213.347 416.334 213.482 416.58 213.533C419.987 214.248 423.846 209.596 425.202 203.143C426.559 196.689 424.896 190.881 421.492 190.166Z" fill="#F2F2F2"/>
<path fill-rule="evenodd" clip-rule="evenodd" d="M323.818 118.009L323.376 118.264V250.758L404.537 205.316L404.928 205.096L404.981 204.648C406.241 194.056 409.635 180.425 418.668 175.639C421.251 174.271 423.493 174.039 425.325 174.955C428.374 176.473 430.619 181.22 431.813 188.681L432.013 189.932L457.26 175.384L457.718 42.0537L456.836 41.5464L323.818 118.009Z" fill="black"/>
<path fill-rule="evenodd" clip-rule="evenodd" d="M404.124 204.383L279.841 274.588L279.366 288.168L403.403 218.046C403.403 218.046 403.203 212.022 404.124 204.383Z" fill="#F2F2F2"/>
<path fill-rule="evenodd" clip-rule="evenodd" d="M280.707 275.11L280.306 286.62L402.509 217.537C402.486 216.034 402.484 211.544 403.053 206.005L280.707 275.11ZM279.319 289.208L278.466 288.618L278.976 274.06L279.405 273.816L405.212 202.755L405.002 204.491C404.102 211.963 404.285 217.956 404.289 218.016L404.303 218.552L403.839 218.815L279.319 289.208Z" fill="black"/>
<path fill-rule="evenodd" clip-rule="evenodd" d="M211.378 129.515L254.356 155.714L279.587 140.916L235.447 115.571L211.378 129.515Z" fill="#F2F2F2"/>
<path fill-rule="evenodd" clip-rule="evenodd" d="M213.107 129.533L254.365 154.683L277.826 140.926L235.448 116.591L213.107 129.533ZM254.347 156.745L209.647 129.496L235.444 114.554L281.35 140.907L254.347 156.745Z" fill="black"/>
<path fill-rule="evenodd" clip-rule="evenodd" d="M235.446 121.393L274.57 143.859L279.586 140.917L235.446 115.57L211.377 129.514L216.274 132.501L235.446 121.393Z" fill="black"/>
<path fill-rule="evenodd" clip-rule="evenodd" d="M235.444 120.374L274.566 142.838L277.828 140.926L235.448 116.591L213.107 129.535L216.286 131.474L235.444 120.374ZM274.576 144.882L235.448 122.414L216.263 133.53L209.647 129.494L235.444 114.554L281.348 140.907L274.576 144.882Z" fill="black"/>
<path fill-rule="evenodd" clip-rule="evenodd" d="M324.261 155.9L456.837 82.0625V151.731L324.261 223.777V155.9Z" fill="#F2F2F2"/>
<path fill-rule="evenodd" clip-rule="evenodd" d="M325.145 156.421V222.291L455.953 151.206V83.565L325.145 156.421ZM323.377 225.263V155.379L323.829 155.129L457.721 80.5581V152.256L457.259 152.506L323.377 225.263Z" fill="black"/>
<path fill-rule="evenodd" clip-rule="evenodd" d="M249.649 228.905C249.649 228.905 251.259 234.075 257.513 233.601C263.767 233.126 264.278 231.267 264.278 231.267C264.278 231.267 264.165 226.49 259.782 224.436C255.401 222.38 249.649 220.912 249.649 220.912L248.36 222.968L251.345 224.346L249.649 228.905Z" fill="#F2F2F2"/>
<path fill-rule="evenodd" clip-rule="evenodd" d="M250.595 228.902C251 229.872 252.71 233.072 257.447 232.721C261.842 232.386 263.088 231.375 263.378 231.051C263.287 230.122 262.738 226.799 259.408 225.236C255.985 223.63 251.645 222.371 250.054 221.932L249.643 222.587L252.459 223.889L250.595 228.902ZM256.719 234.514C250.543 234.514 248.823 229.223 248.804 229.167L248.716 228.88L250.231 224.805L247.077 223.349L249.242 219.894L249.869 220.054C250.109 220.114 255.751 221.568 260.16 223.636C264.981 225.898 265.158 231.028 265.162 231.246L265.164 231.375L265.129 231.503C264.971 232.078 263.957 233.998 257.58 234.483C257.282 234.505 256.994 234.514 256.719 234.514Z" fill="black"/>
<path fill-rule="evenodd" clip-rule="evenodd" d="M330.176 241.123L358.595 224.566L358.585 212.705L340.278 222.625C333.911 225.889 330.176 233.975 330.176 241.123Z" fill="#F2F2F2"/>
<path fill-rule="evenodd" clip-rule="evenodd" d="M357.703 214.19L340.702 223.405C334.878 226.386 331.615 233.486 331.124 239.547L357.714 224.061L357.703 214.19ZM329.29 242.661V241.124C329.29 232.962 333.644 225.032 339.875 221.84L359.467 211.222L359.482 225.073L329.29 242.661Z" fill="black"/>
<path fill-rule="evenodd" clip-rule="evenodd" d="M42.5742 251.133V255.874L128.207 305.126V300.527L42.5742 251.133Z" fill="#F2F2F2"/>
<path fill-rule="evenodd" clip-rule="evenodd" d="M128.207 300.528L42.5742 251.134L52.8162 245.227L138.449 294.621L128.207 300.528Z" fill="#F2F2F2"/>
<path fill-rule="evenodd" clip-rule="evenodd" d="M128.206 300.527L44.2803 252.117L52.816 247.194L136.97 295.736L128.206 300.527Z" fill="#F2F2F2"/>
<path fill-rule="evenodd" clip-rule="evenodd" d="M43.2013 255.512V252.218L127.58 300.889V304.044L43.2013 255.512ZM137.195 294.621L134.73 296.042L128.205 299.803L97.8034 282.266L43.8283 251.133L52.8163 245.949L137.195 294.621ZM139.076 294.982V294.259L138.449 293.898L53.1288 244.684L52.8163 244.503L42.5743 250.41L41.9473 250.772V251.495V256.237L127.58 305.488L128.209 305.849L128.834 305.488L139.076 299.593V294.982Z" fill="#16110D"/>
<path fill-rule="evenodd" clip-rule="evenodd" d="M28.5908 258.625V263.366L114.223 312.618V308.02L28.5908 258.625Z" fill="#F2F2F2"/>
<path fill-rule="evenodd" clip-rule="evenodd" d="M114.223 308.019L28.5908 258.625L38.8328 252.718L124.465 302.112L114.223 308.019Z" fill="#F2F2F2"/>
<path fill-rule="evenodd" clip-rule="evenodd" d="M114.223 308.019L30.2969 259.609L38.8326 254.686L122.987 303.225L114.223 308.019Z" fill="#F2F2F2"/>
<path fill-rule="evenodd" clip-rule="evenodd" d="M29.2179 263.004V259.71L113.596 308.381V311.536L29.2179 263.004ZM123.211 302.112L120.746 303.534L114.221 307.296L83.82 289.758L29.8449 258.625L38.8329 253.441L123.211 302.112ZM125.092 302.474V301.751L124.465 301.389L39.1454 252.176L38.8329 251.995L28.5909 257.902L27.9639 258.264V258.987V263.729L113.596 312.979L114.225 313.341L114.85 312.979L125.092 307.085V302.474Z" fill="#16110D"/>
<path fill-rule="evenodd" clip-rule="evenodd" d="M14.6094 266.704V271.446L100.242 320.696V316.098L14.6094 266.704Z" fill="#F2F2F2"/>
<path fill-rule="evenodd" clip-rule="evenodd" d="M100.242 316.098L14.6094 266.704L24.8514 260.797L110.484 310.191L100.242 316.098Z" fill="#F2F2F2"/>
<path fill-rule="evenodd" clip-rule="evenodd" d="M100.241 316.098L16.3154 267.688L24.8511 262.765L109.005 311.304L100.241 316.098Z" fill="#F2F2F2"/>
<path fill-rule="evenodd" clip-rule="evenodd" d="M15.2365 271.083V267.789L99.6147 316.46V319.615L15.2365 271.083ZM109.23 310.191L106.765 311.613L100.242 315.373L69.8385 297.837L15.8635 266.704L24.8514 261.52L109.23 310.191ZM111.111 310.553V309.83L110.484 309.468L25.1639 260.255L24.8514 260.074L14.6094 265.981L13.9824 266.343V267.066V271.808L99.6147 321.059L100.244 321.42L100.869 321.059L111.111 315.164V310.553Z" fill="#16110D"/>
<path fill-rule="evenodd" clip-rule="evenodd" d="M0.626953 274.807V279.547L86.2592 328.799V324.201L0.626953 274.807Z" fill="#F2F2F2"/>
<path fill-rule="evenodd" clip-rule="evenodd" d="M86.2592 324.2L0.626953 274.806L10.8689 268.899L96.5012 318.293L86.2592 324.2Z" fill="#F2F2F2"/>
<path fill-rule="evenodd" clip-rule="evenodd" d="M86.2591 324.2L2.33105 275.79L10.8688 270.867L95.023 319.408L86.2591 324.2Z" fill="#F2F2F2"/>
<mask id="mask0_364_5646" style="mask-type:luminance" maskUnits="userSpaceOnUse" x="0" y="268" width="98" height="62">
<path fill-rule="evenodd" clip-rule="evenodd" d="M0 268.176H97.1281V329.522H0V268.176Z" fill="white"/>
</mask>
<g mask="url(#mask0_364_5646)">
<path fill-rule="evenodd" clip-rule="evenodd" d="M1.25404 279.185V275.891L85.6323 324.562V327.717L1.25404 279.185ZM95.2473 318.293L92.7824 319.715L86.2593 323.477L55.8561 305.939L1.88106 274.806L10.869 269.622L95.2473 318.293ZM97.1283 318.655V317.932L96.5013 317.57L11.1815 268.357L10.869 268.176L0.627019 274.083L0 274.445V275.168V279.91L85.6323 329.161L86.2593 329.522L86.8863 329.161L97.1283 323.266V318.655Z" fill="#16110D"/>
</g>
<path fill-rule="evenodd" clip-rule="evenodd" d="M42.5742 236.224V240.965L128.207 290.217V285.618L42.5742 236.224Z" fill="#F2F2F2"/>
<path fill-rule="evenodd" clip-rule="evenodd" d="M128.207 285.618L42.5742 236.223L52.8162 230.316L138.449 279.711L128.207 285.618Z" fill="#F2F2F2"/>
<path fill-rule="evenodd" clip-rule="evenodd" d="M128.206 285.618L44.2803 237.207L52.816 232.284L136.97 280.824L128.206 285.618Z" fill="#F2F2F2"/>
<path fill-rule="evenodd" clip-rule="evenodd" d="M43.2013 240.603V237.308L127.58 285.979V289.134L43.2013 240.603ZM137.195 279.711L134.73 281.132L128.207 284.895L97.8034 267.357L43.8283 236.224L52.8163 231.04L137.195 279.711ZM139.076 280.072V279.349L138.449 278.988L53.1288 229.774L52.8163 229.594L42.5743 235.501L41.9473 235.862V236.585V241.328L127.58 290.578L128.209 290.94L128.834 290.578L139.076 284.683V280.072Z" fill="#16110D"/>
<path fill-rule="evenodd" clip-rule="evenodd" d="M28.5908 243.716V248.456L114.223 297.709V293.11L28.5908 243.716Z" fill="#F2F2F2"/>
<path fill-rule="evenodd" clip-rule="evenodd" d="M114.223 293.11L28.5908 243.716L38.8328 237.809L124.465 287.203L114.223 293.11Z" fill="#F2F2F2"/>
<path fill-rule="evenodd" clip-rule="evenodd" d="M114.223 293.11L30.2969 244.7L38.8326 239.776L122.987 288.318L114.223 293.11Z" fill="#F2F2F2"/>
<path fill-rule="evenodd" clip-rule="evenodd" d="M29.2179 248.095V244.8L113.596 293.472V296.626L29.2179 248.095ZM123.211 287.203L120.746 288.624L114.221 292.385L83.82 274.849L29.8449 243.716L38.8329 238.532L123.211 287.203ZM125.092 287.565V286.842L124.465 286.48L39.1454 237.267L38.8329 237.086L28.5909 242.993L27.9639 243.354V244.077V248.82L113.596 298.07L114.225 298.432L114.85 298.07L125.092 292.176V287.565Z" fill="#16110D"/>
<path fill-rule="evenodd" clip-rule="evenodd" d="M14.6084 251.794V256.535L100.241 305.787V301.189L14.6084 251.794Z" fill="#F2F2F2"/>
<path fill-rule="evenodd" clip-rule="evenodd" d="M100.241 301.188L14.6084 251.794L24.8504 245.887L110.483 295.281L100.241 301.188Z" fill="#F2F2F2"/>
<path fill-rule="evenodd" clip-rule="evenodd" d="M100.241 301.189L16.3154 252.778L24.8511 247.855L109.005 296.397L100.241 301.189Z" fill="#F2F2F2"/>
<path fill-rule="evenodd" clip-rule="evenodd" d="M15.2355 256.173V252.879L99.6137 301.55V304.705L15.2355 256.173ZM109.229 295.282L106.764 296.703L100.241 300.466L69.8375 282.93L15.8625 251.795L24.8505 246.61L109.229 295.282ZM111.11 295.643V294.92L110.483 294.559L25.1629 245.345L24.8505 245.165L14.6085 251.072L13.9814 251.433V252.156V256.898L99.6137 306.149L100.243 306.51L100.868 306.149L111.11 300.254V295.643Z" fill="#16110D"/>
<path fill-rule="evenodd" clip-rule="evenodd" d="M0.626953 259.896V264.639L86.2592 313.889V309.291L0.626953 259.896Z" fill="#F2F2F2"/>
<path fill-rule="evenodd" clip-rule="evenodd" d="M86.2583 309.291L0.625977 259.897L10.868 253.99L96.5003 303.384L86.2583 309.291Z" fill="#F2F2F2"/>
<path fill-rule="evenodd" clip-rule="evenodd" d="M86.2581 309.291L2.33008 260.881L10.8678 255.958L95.022 304.497L86.2581 309.291Z" fill="#F2F2F2"/>
<mask id="mask1_364_5646" style="mask-type:luminance" maskUnits="userSpaceOnUse" x="0" y="253" width="98" height="62">
<path fill-rule="evenodd" clip-rule="evenodd" d="M0 253.267H97.1277V314.613H0V253.267Z" fill="white"/>
</mask>
<g mask="url(#mask1_364_5646)">
<path fill-rule="evenodd" clip-rule="evenodd" d="M1.25306 264.276V260.982L85.6313 309.653V312.807L1.25306 264.276ZM95.2463 303.384L92.7814 304.806L86.2583 308.566L55.8551 291.03L1.88008 259.897L10.868 254.713L95.2463 303.384ZM97.1273 303.746V303.023L96.5003 302.661L11.1805 253.448L10.868 253.267L0.626042 259.174L-0.000976562 259.536V260.259V265.001L85.6313 314.251L86.2604 314.613L86.8854 314.251L97.1273 308.357V303.746Z" fill="#16110D"/>
</g>
<path fill-rule="evenodd" clip-rule="evenodd" d="M63.084 310.91V300.527L76.0499 308.02V318.312L63.084 310.91Z" fill="#F2F2F2"/>
<path fill-rule="evenodd" clip-rule="evenodd" d="M75.4239 317.233L63.712 310.546V301.613L75.4239 308.381V317.233ZM84.9978 313.165L76.678 308.379V307.658L62.458 299.44V311.273L76.678 319.392V317.952L84.9978 313.165Z" fill="#16110D"/>
<path fill-rule="evenodd" clip-rule="evenodd" d="M9.71582 279.979V269.867L22.6818 277.434V287.518L9.71582 279.979Z" fill="#F2F2F2"/>
<path fill-rule="evenodd" clip-rule="evenodd" d="M22.0558 286.429L10.3418 279.616V270.957L22.0558 277.793V286.429ZM31.6296 282.373L23.3098 277.587V277.074L9.08984 268.774V280.339L23.3098 288.606V287.158L31.6296 282.373Z" fill="#16110D"/>
<path fill-rule="evenodd" clip-rule="evenodd" d="M35.7686 294.987V284.874L48.7365 292.443V302.527L35.7686 294.987Z" fill="#F2F2F2"/>
<path fill-rule="evenodd" clip-rule="evenodd" d="M48.1095 301.438L36.3955 294.626V285.966L48.1095 292.802V301.438ZM57.6833 297.382L49.3635 292.594V292.083L35.1436 283.783V295.349L49.3635 303.616V302.168L57.6833 297.382Z" fill="#16110D"/>
<path fill-rule="evenodd" clip-rule="evenodd" d="M96.2385 218.66L57.6285 196.39L19.0206 218.66H19.0186V263.201L57.6285 285.471V241.043L96.2385 218.66Z" fill="#B0F560"/>
<path fill-rule="evenodd" clip-rule="evenodd" d="M19.0205 263.057L57.6305 285.327V240.899L19.0205 218.516V263.057Z" fill="#F2F2F2"/>
<path fill-rule="evenodd" clip-rule="evenodd" d="M73.343 230.974L57.6285 240.038L39.4819 229.571L76.546 208.194L94.6904 218.661L73.343 230.974ZM56.8535 284.135L19.7915 262.756V220L56.8535 241.377V284.135ZM57.6285 197.282L75.775 207.749L38.711 229.128L20.5645 218.661L57.6285 197.282ZM97.0114 218.215L57.6285 195.497L18.3627 218.147L18.2435 218.215L18.2373 219.102L18.2435 219.107V263.645L56.8535 285.916L57.6285 286.363L58.4035 285.916L96.625 263.869L97.0114 263.645V219.107V218.215Z" fill="black"/>
<path fill-rule="evenodd" clip-rule="evenodd" d="M43.0041 247.15C42.7861 247.271 42.4654 247.127 42.2928 247.029L35.1303 242.898C34.1086 242.309 33.2472 240.633 33.2472 239.234C33.2472 238.544 33.461 238.176 33.644 238.07C33.866 237.94 34.1867 238.092 34.3574 238.191L34.8508 238.476C35.0296 240.154 36.0246 241.904 37.2745 242.627L43.3885 246.152C43.3556 246.725 43.1788 247.049 43.0041 247.15ZM42.2928 240.984L35.1303 236.852C34.3389 236.398 33.535 236.35 32.8731 236.73C32.1289 237.162 31.6992 238.072 31.6992 239.234C31.6992 241.181 32.8669 243.379 34.3574 244.237L41.5177 248.368C41.9535 248.62 42.3914 248.746 42.8067 248.746C43.1521 248.746 43.479 248.659 43.7791 248.487C44.5233 248.058 44.9488 247.146 44.9488 245.983C44.9488 244.038 43.7832 241.84 42.2928 240.984Z" fill="#16110D"/>
<path fill-rule="evenodd" clip-rule="evenodd" d="M99.6131 293.116L75.8398 279.402V251.977L99.6131 265.69V293.116Z" fill="#F2F2F2"/>
<path fill-rule="evenodd" clip-rule="evenodd" d="M123.386 251.978L99.6131 265.691L75.8398 251.978L99.6131 238.264L123.386 251.978Z" fill="#F2F2F2"/>
<path fill-rule="evenodd" clip-rule="evenodd" d="M123.387 254.718L102.013 266.9L78.2393 253.186L99.6134 241.004L123.387 254.718Z" fill="#F2F2F2"/>
<path fill-rule="evenodd" clip-rule="evenodd" d="M76.5375 279.002V253.186L98.9149 266.095V291.908L76.5375 279.002ZM99.6138 239.07L121.991 251.977L110.758 258.457L99.6138 264.885L96.1046 262.862L77.2385 251.977L99.6138 239.07ZM99.6138 237.458L75.8426 251.171L75.1416 251.601V279.807L98.9149 293.521L99.6138 293.923L100.311 293.521L124.086 279.807V252.381V251.574L99.6138 237.458Z" fill="#16110D"/>
<path fill-rule="evenodd" clip-rule="evenodd" d="M93.8793 284.905L90.2508 282.812C89.669 282.477 89.1982 281.577 89.1982 280.803V276.993C89.1982 276.219 89.669 275.863 90.2508 276.198L93.8793 278.291C94.4611 278.626 94.9319 279.526 94.9319 280.3V284.11C94.9319 284.884 94.4611 285.24 93.8793 284.905Z" fill="#16110D"/>
</svg>
