<svg width="288" height="296" viewBox="0 0 288 296" fill="none" xmlns="http://www.w3.org/2000/svg">
<path fill-rule="evenodd" clip-rule="evenodd" d="M155.022 184L143.67 177.349L216.302 136L227.478 142.778L155.022 184Z" fill="#F2F2F2"/>
<path fill-rule="evenodd" clip-rule="evenodd" d="M212.42 139.263L222.378 145.281L226.618 142.805L216.829 136.722L212.42 139.263ZM222.366 147L209.52 139.235L216.859 135L229.474 142.849L222.366 147Z" fill="#16110D"/>
<path fill-rule="evenodd" clip-rule="evenodd" d="M153.48 186L143.67 180.212L216.847 139L226.48 144.911L153.48 186Z" fill="#F2F2F2"/>
<path fill-rule="evenodd" clip-rule="evenodd" d="M205.529 141.928L210.306 139L221.492 145.996L216.516 149L205.529 141.928Z" fill="#F2F2F2"/>
<path fill-rule="evenodd" clip-rule="evenodd" d="M145.565 177.198L206.109 142.78L215.883 148.695L155.491 183.009L145.565 177.198ZM211.017 139.987L220.933 145.825L219.355 146.723L217.322 147.875L207.548 141.959L211.017 139.987ZM216.843 136.674L226.617 142.593L222.381 145.001L212.461 139.166L216.843 136.674ZM216.867 135L211.026 138.322L210.987 138.301L205.865 141.256L142.673 177.183L154.04 183.836L153.978 183.872L155.131 184.476L155.479 184.68L155.5 184.668L158.053 186L212.464 154.882L228.442 143.218L229.474 142.632L216.867 135Z" fill="#16110D"/>
<path fill-rule="evenodd" clip-rule="evenodd" d="M207.9 215L196.549 208.346L269.178 167L280.357 173.775L207.9 215Z" fill="#F2F2F2"/>
<path fill-rule="evenodd" clip-rule="evenodd" d="M265.299 170.263L275.257 176.281L279.496 173.805L269.708 167.719L265.299 170.263ZM275.245 178L262.398 170.235L269.738 166L282.352 173.849L275.245 178Z" fill="#16110D"/>
<path fill-rule="evenodd" clip-rule="evenodd" d="M205.358 217L195.552 211.212L268.728 170L278.362 175.908L205.358 217Z" fill="#F2F2F2"/>
<path fill-rule="evenodd" clip-rule="evenodd" d="M258.407 172.928L263.185 170L274.371 176.993L269.395 180L258.407 172.928Z" fill="#F2F2F2"/>
<path fill-rule="evenodd" clip-rule="evenodd" d="M197.446 208.198L257.99 173.777L267.764 179.692L207.372 214.009L197.446 208.198ZM262.898 170.987L272.814 176.825L271.236 177.72L269.202 178.875L259.428 172.959L262.898 170.987ZM268.724 167.674L278.501 173.593L274.262 176.001L264.342 170.166L268.724 167.674ZM268.748 166L262.906 169.322L262.868 169.298L257.746 172.256L194.554 208.18L205.924 214.836L205.859 214.872L207.012 215.473L207.363 215.68L207.381 215.668L209.934 217L264.345 185.882L280.323 174.218L281.355 173.632L268.748 166Z" fill="#16110D"/>
<path fill-rule="evenodd" clip-rule="evenodd" d="M215.118 80.9222V87.817L339.307 159.454V152.765L215.118 80.9222Z" fill="#F2F2F2"/>
<path fill-rule="evenodd" clip-rule="evenodd" d="M339.307 152.765L215.118 80.9223L229.971 72.3307L354.161 144.174L339.307 152.765Z" fill="#F2F2F2"/>
<path fill-rule="evenodd" clip-rule="evenodd" d="M339.307 152.765L217.592 82.3532L229.971 75.1925L352.017 145.796L339.307 152.765Z" fill="#F2F2F2"/>
<path fill-rule="evenodd" clip-rule="evenodd" d="M216.028 87.2916V82.4999L338.398 153.291V157.88L216.028 87.2916ZM352.343 144.174L348.768 146.241L339.308 151.711L295.215 126.205L216.937 80.9226L229.972 73.3825L352.343 144.174ZM355.071 144.7V143.648L354.161 143.122L230.425 71.5423L229.972 71.2794L215.118 79.871L214.209 80.3968V81.4484V88.3462L338.398 159.98L339.311 160.506L340.217 159.98L355.071 151.406V144.7Z" fill="#16110D"/>
<path fill-rule="evenodd" clip-rule="evenodd" d="M194.839 91.8196V98.7144L319.028 170.351V163.662L194.839 91.8196Z" fill="#F2F2F2"/>
<path fill-rule="evenodd" clip-rule="evenodd" d="M319.028 163.662L194.839 91.8189L209.692 83.2273L333.882 155.07L319.028 163.662Z" fill="#F2F2F2"/>
<path fill-rule="evenodd" clip-rule="evenodd" d="M319.028 163.662L197.313 93.2499L209.692 86.0892L331.738 156.692L319.028 163.662Z" fill="#F2F2F2"/>
<path fill-rule="evenodd" clip-rule="evenodd" d="M195.748 98.1882V93.3965L318.119 164.188V168.776L195.748 98.1882ZM332.063 155.07L328.488 157.138L319.028 162.607L274.935 137.101L196.657 91.8192L209.692 84.2791L332.063 155.07ZM334.791 155.596V154.545L333.882 154.019L210.146 82.4389L209.692 82.176L194.839 90.7677L193.929 91.2934V92.345V99.2428L318.119 170.876L319.031 171.402L319.938 170.876L334.791 162.303V155.596Z" fill="#16110D"/>
<path fill-rule="evenodd" clip-rule="evenodd" d="M174.561 103.569V110.467L298.751 182.101V175.412L174.561 103.569Z" fill="#F2F2F2"/>
<path fill-rule="evenodd" clip-rule="evenodd" d="M298.75 175.412L174.561 103.569L189.415 94.9778L313.604 166.821L298.75 175.412Z" fill="#F2F2F2"/>
<path fill-rule="evenodd" clip-rule="evenodd" d="M298.75 175.412L177.036 105L189.415 97.8397L311.46 168.443L298.75 175.412Z" fill="#F2F2F2"/>
<path fill-rule="evenodd" clip-rule="evenodd" d="M175.471 109.938V105.147L297.842 175.938V180.527L175.471 109.938ZM311.786 166.821L308.211 168.888L298.748 174.358L254.658 148.852L176.38 103.569L189.415 96.0294L311.786 166.821ZM314.514 167.346V166.295L313.605 165.769L189.868 94.1892L189.415 93.9263L174.562 102.518L173.652 103.044V104.095V110.993L297.842 182.627L298.754 183.153L299.66 182.627L314.514 174.053V167.346Z" fill="#16110D"/>
<path fill-rule="evenodd" clip-rule="evenodd" d="M154.283 115.354V122.249L278.473 193.886V187.197L154.283 115.354Z" fill="#F2F2F2"/>
<path fill-rule="evenodd" clip-rule="evenodd" d="M278.472 187.197L154.283 115.354L169.137 106.762L293.326 178.605L278.472 187.197Z" fill="#F2F2F2"/>
<path fill-rule="evenodd" clip-rule="evenodd" d="M278.472 187.197L156.755 116.785L169.137 109.624L291.182 180.224L278.472 187.197Z" fill="#F2F2F2"/>
<path fill-rule="evenodd" clip-rule="evenodd" d="M155.193 121.723V116.932L277.563 187.723V192.311L155.193 121.723ZM291.508 178.605L287.933 180.673L278.473 186.143L234.38 160.637L156.102 115.354L169.137 107.814L291.508 178.605ZM294.236 179.131V178.08L293.326 177.554L169.59 105.974L169.137 105.711L154.283 114.303L153.374 114.828V115.88V122.778L277.563 194.412L278.473 194.937L279.382 194.412L294.236 185.838V179.131Z" fill="#16110D"/>
<path fill-rule="evenodd" clip-rule="evenodd" d="M215.118 59.2371V66.1319L339.307 137.769V131.08L215.118 59.2371Z" fill="#F2F2F2"/>
<path fill-rule="evenodd" clip-rule="evenodd" d="M339.307 131.079L215.118 59.2365L229.971 50.6449L354.161 122.488L339.307 131.079Z" fill="#F2F2F2"/>
<path fill-rule="evenodd" clip-rule="evenodd" d="M339.307 131.079L217.592 60.6674L229.971 53.5067L352.017 124.11L339.307 131.079Z" fill="#F2F2F2"/>
<path fill-rule="evenodd" clip-rule="evenodd" d="M216.027 65.6058V60.8141L338.398 131.605V136.194L216.027 65.6058ZM352.342 122.488L348.767 124.555L339.307 130.025L295.215 104.519L216.937 59.2368L229.971 51.6967L352.342 122.488ZM355.07 123.014V121.962L354.161 121.436L230.425 49.8565L229.971 49.5936L215.118 58.1853L214.208 58.711V59.7626V66.6604L338.398 138.294L339.31 138.82L340.217 138.294L355.07 129.72V123.014Z" fill="#16110D"/>
<path fill-rule="evenodd" clip-rule="evenodd" d="M194.838 70.1338V77.0316L319.028 148.665V141.977L194.838 70.1338Z" fill="#F2F2F2"/>
<path fill-rule="evenodd" clip-rule="evenodd" d="M319.028 141.977L194.838 70.1337L209.692 61.5421L333.881 133.385L319.028 141.977Z" fill="#F2F2F2"/>
<path fill-rule="evenodd" clip-rule="evenodd" d="M319.028 141.977L197.313 71.5647L209.692 64.4041L331.737 135.007L319.028 141.977Z" fill="#F2F2F2"/>
<path fill-rule="evenodd" clip-rule="evenodd" d="M195.748 76.5031V71.7113L318.119 142.503V147.091L195.748 76.5031ZM332.063 133.385L328.488 135.452L319.025 140.922L274.935 115.416L196.657 70.134L209.692 62.5939L332.063 133.385ZM334.791 133.911V132.859L333.882 132.334L210.145 60.7537L209.692 60.4908L194.839 69.0825L193.929 69.6082V70.6598V77.5576L318.119 149.191L319.031 149.717L319.937 149.191L334.791 140.618V133.911Z" fill="#16110D"/>
<path fill-rule="evenodd" clip-rule="evenodd" d="M174.561 81.8843V88.7791L298.75 160.416V153.727L174.561 81.8843Z" fill="#F2F2F2"/>
<path fill-rule="evenodd" clip-rule="evenodd" d="M298.75 153.726L174.561 81.8834L189.414 73.2917L313.604 145.135L298.75 153.726Z" fill="#F2F2F2"/>
<path fill-rule="evenodd" clip-rule="evenodd" d="M298.75 153.726L177.035 83.3142L189.414 76.1536L311.46 146.757L298.75 153.726Z" fill="#F2F2F2"/>
<path fill-rule="evenodd" clip-rule="evenodd" d="M175.47 88.2527V83.461L297.841 154.252V158.841L175.47 88.2527ZM311.785 145.135L308.21 147.202L298.747 152.672L254.658 127.166L176.38 81.8837L189.415 74.3436L311.785 145.135ZM314.513 145.661V144.609L313.604 144.083L189.868 72.5034L189.415 72.2405L174.561 80.8321L173.652 81.3579V82.4094V89.3072L297.841 160.941L298.75 161.467L299.66 160.941L314.513 152.367V145.661Z" fill="#16110D"/>
<path fill-rule="evenodd" clip-rule="evenodd" d="M154.283 93.6685V100.563L278.472 172.2V165.511L154.283 93.6685Z" fill="#F2F2F2"/>
<path fill-rule="evenodd" clip-rule="evenodd" d="M278.472 165.512L154.282 93.6688L169.136 85.0771L293.325 156.92L278.472 165.512Z" fill="#F2F2F2"/>
<path fill-rule="evenodd" clip-rule="evenodd" d="M278.472 165.512L156.754 95.0996L169.136 87.939L291.182 158.542L278.472 165.512Z" fill="#F2F2F2"/>
<path fill-rule="evenodd" clip-rule="evenodd" d="M155.192 100.038V95.2464L277.562 166.038V170.626L155.192 100.038ZM291.507 156.92L287.932 158.988L278.472 164.457L234.379 138.951L156.101 93.6691L169.136 86.129L291.507 156.92ZM294.235 157.446V156.394L293.325 155.869L169.589 84.2888L169.136 84.0259L154.282 92.6175L153.373 93.1433V94.1948V101.093L277.562 172.726L278.475 173.252L279.381 172.726L294.235 164.153V157.446Z" fill="#16110D"/>
<path fill-rule="evenodd" clip-rule="evenodd" d="M244.863 167.866V152.765L263.667 163.663V178.632L244.863 167.866Z" fill="#F2F2F2"/>
<path fill-rule="evenodd" clip-rule="evenodd" d="M262.759 177.064L245.77 167.337V154.345L262.759 164.188V177.064ZM276.643 171.149L264.577 164.185V163.137L243.955 151.184V168.394L264.577 180.203V178.109L276.643 171.149Z" fill="#16110D"/>
<path fill-rule="evenodd" clip-rule="evenodd" d="M167.465 122.877V108.167L186.269 119.176V133.844L167.465 122.877Z" fill="#F2F2F2"/>
<path fill-rule="evenodd" clip-rule="evenodd" d="M185.361 132.26L168.373 122.351V109.756L185.361 119.698V132.26ZM199.246 126.36L187.18 119.399V118.655L166.557 106.58V123.402L187.18 135.426V133.32L199.246 126.36Z" fill="#16110D"/>
<path fill-rule="evenodd" clip-rule="evenodd" d="M205.249 144.708V129.998L224.053 141.006V155.674L205.249 144.708Z" fill="#F2F2F2"/>
<path fill-rule="evenodd" clip-rule="evenodd" d="M223.145 154.09L206.157 144.181V131.587L223.145 141.528V154.09ZM237.03 148.19L224.964 141.227V140.483L204.341 128.411V145.233L224.964 157.257V155.151L237.03 148.19Z" fill="#16110D"/>
<path fill-rule="evenodd" clip-rule="evenodd" d="M292.945 33.6911L236.95 1.29919L180.959 33.6911H180.956V98.4748L236.95 130.867V66.2472L292.945 33.6911Z" fill="#F2F2F2"/>
<path fill-rule="evenodd" clip-rule="evenodd" d="M180.958 98.2654L236.953 130.657V66.0379L180.958 33.4817V98.2654Z" fill="#F2F2F2"/>
<path fill-rule="evenodd" clip-rule="evenodd" d="M259.741 51.6005L236.951 64.7837L210.634 49.5602L264.386 18.4678L290.7 33.6914L259.741 51.6005ZM235.827 128.922L182.077 97.8268V35.6391L235.827 66.7315V128.922ZM236.951 2.59601L263.268 17.8196L209.516 48.9149L183.198 33.6914L236.951 2.59601ZM294.067 33.0431L236.951 0L180.005 32.9445L179.832 33.0431L179.823 34.3336L179.832 34.3396V99.1203L235.827 131.512L236.951 132.163L238.075 131.512L293.506 99.446L294.067 99.1203V34.3396V33.0431Z" fill="#16110D"/>
<path fill-rule="evenodd" clip-rule="evenodd" d="M215.742 75.1286C215.426 75.3048 214.958 75.0957 214.71 74.9523L204.323 68.9448C202.841 68.0874 201.592 65.6497 201.592 63.6153C201.592 62.6116 201.902 62.0768 202.167 61.9215C202.489 61.7333 202.954 61.9544 203.199 62.0978L203.917 62.513C204.177 64.9537 205.62 67.4989 207.433 68.5504L216.299 73.6767C216.252 74.5102 215.995 74.9822 215.742 75.1286ZM214.71 66.1576L204.323 60.15C203.175 59.4898 202.009 59.4211 201.049 59.9737C199.97 60.6011 199.347 61.9245 199.347 63.6153C199.347 66.4473 201.04 69.6438 203.199 70.8925L213.586 76.9001C214.218 77.2645 214.853 77.4498 215.456 77.4498C215.957 77.4498 216.431 77.3243 216.866 77.0734C217.945 76.449 218.562 75.1226 218.562 73.4318C218.562 70.6057 216.872 67.4063 214.71 66.1576Z" fill="#16110D"/>
<path fill-rule="evenodd" clip-rule="evenodd" d="M297.839 141.986L263.362 122.039V82.1489L297.839 102.095V141.986Z" fill="#F2F2F2"/>
<path fill-rule="evenodd" clip-rule="evenodd" d="M332.318 82.15L297.84 102.097L263.363 82.15L297.84 62.2035L332.318 82.15Z" fill="#F2F2F2"/>
<path fill-rule="evenodd" clip-rule="evenodd" d="M332.318 86.1361L301.323 103.854L266.842 83.9076L297.84 66.1896L332.318 86.1361Z" fill="#F2F2F2"/>
<path fill-rule="evenodd" clip-rule="evenodd" d="M264.373 121.456V83.9079L296.826 102.683V140.228L264.373 121.456ZM297.84 63.3758L330.293 82.1484L314.003 91.5735L297.84 100.924L292.751 97.9813L265.39 82.1484L297.84 63.3758ZM297.84 61.0308L263.366 80.9773L262.349 81.6017V122.627L296.826 142.574L297.84 143.159L298.851 142.574L333.331 122.627V82.7369V81.5628L297.84 61.0308Z" fill="#16110D"/>
<path fill-rule="evenodd" clip-rule="evenodd" d="M104.243 171.158L74.3655 187.988L162.485 232.712L186.119 219.807L104.243 171.158Z" fill="#F2F2F2"/>
<path fill-rule="evenodd" clip-rule="evenodd" d="M101.187 173.007L71.3098 189.838L159.43 234.559L183.064 221.656L101.187 173.007Z" fill="#F2F2F2"/>
<path fill-rule="evenodd" clip-rule="evenodd" d="M76.5009 187.942L162.471 231.572L184.084 219.769L104.228 172.321L76.5009 187.942ZM162.504 233.849L72.2314 188.032L104.255 169.994L104.756 170.293L188.153 219.844L162.504 233.849Z" fill="#16110D"/>
<path fill-rule="evenodd" clip-rule="evenodd" d="M83.8205 131.214L47.7717 152.224L83.7638 172.872L84.8729 131.823L83.8205 131.214Z" fill="#16110D"/>
<path fill-rule="evenodd" clip-rule="evenodd" d="M140.319 258.633L113.131 243.879L132.186 229.859L143.384 239.903L140.319 258.633Z" fill="#F2F2F2"/>
<path fill-rule="evenodd" clip-rule="evenodd" d="M115.004 243.751L139.249 256.907L139.457 255.727L142.302 240.286L132.12 231.154L115.004 243.751ZM141.082 260.194L111.256 244.011L132.248 228.563L144.466 239.521L141.082 260.194Z" fill="#16110D"/>
<path fill-rule="evenodd" clip-rule="evenodd" d="M235.554 206.937L200.898 192.944L221.523 166.9L237.552 178.515L235.554 206.937Z" fill="#F2F2F2"/>
<path fill-rule="evenodd" clip-rule="evenodd" d="M202.501 192.539L235.553 206.938L236.492 178.988L221.716 168.282L202.501 192.539ZM235.383 208.94L199.29 193.349L221.331 165.521L238.612 178.038L235.383 208.94Z" fill="#16110D"/>
<path fill-rule="evenodd" clip-rule="evenodd" d="M119.068 241.653L118.096 241.122C117.756 240.975 117.411 240.856 117.047 240.784C111.883 239.771 105.92 246.905 104.003 256.719C102.229 265.8 104.015 273.983 108.553 275.957V275.96L118.815 282.022L129.387 247.933L119.068 241.653Z" fill="#F2F2F2"/>
<path fill-rule="evenodd" clip-rule="evenodd" d="M104.989 256.913C106.64 248.468 111.658 241.699 116.059 241.699C116.327 241.699 116.593 241.725 116.855 241.776C117.111 241.827 117.38 241.911 117.612 242.009L124.58 246.209C119.801 247.587 115.314 254.078 113.617 262.768C112.657 267.671 112.767 272.495 113.921 276.355C114.148 277.105 114.419 277.786 114.714 278.434L108.954 275.031C105.01 273.317 103.307 265.526 104.989 256.913ZM130.579 247.491L130.582 247.482L130.525 247.449C130.006 247.019 129.443 246.681 128.843 246.425L119.589 240.793L118.492 240.196C118.045 240.005 117.636 239.87 117.24 239.796C111.414 238.669 105.039 246.165 103.015 256.525C101.092 266.353 103.206 274.727 108.042 276.827L117.782 282.428C118.191 282.724 118.614 282.975 119.061 283.163L119.136 283.205V283.199C119.508 283.351 119.89 283.477 120.287 283.554C120.683 283.629 121.083 283.671 121.479 283.671C126.905 283.671 132.376 276.621 134.287 266.825C135.957 258.29 134.341 250.673 130.579 247.491Z" fill="#16110D"/>
<path fill-rule="evenodd" clip-rule="evenodd" d="M125.393 255.139C122.951 255.139 120.22 258.96 119.257 263.874C118.741 266.527 118.792 269.108 119.406 271.154C119.958 272.997 120.929 274.183 122.074 274.407C124.638 274.915 127.629 270.927 128.648 265.717C129.665 260.504 128.374 255.682 125.831 255.181C125.685 255.154 125.539 255.139 125.393 255.139ZM122.504 276.014C122.259 276.014 122.015 275.993 121.776 275.946C120.017 275.602 118.643 274.061 117.906 271.605C117.221 269.32 117.155 266.467 117.724 263.572C118.944 257.32 122.635 252.94 126.132 253.642C129.626 254.326 131.406 259.763 130.184 266.016C129.048 271.835 125.768 276.014 122.504 276.014Z" fill="#F2F2F2"/>
<path fill-rule="evenodd" clip-rule="evenodd" d="M126.124 255.261C127.916 257.445 128.584 261.547 127.71 266.016C127.051 269.398 125.644 272.286 123.885 274.073C125.906 272.997 127.865 269.717 128.649 265.717C129.165 263.064 129.114 260.48 128.5 258.437C127.996 256.752 127.141 255.617 126.124 255.261ZM122.502 276.015C122.257 276.015 122.016 275.994 121.774 275.946C121.515 275.895 121.303 275.791 121.133 275.71L119.544 274.658L121.02 274.198C123.253 273.311 125.373 269.822 126.175 265.717C127.221 260.358 125.793 256.25 123.807 255.378L122.412 254.712L123.837 253.932C124.672 253.6 125.42 253.496 126.133 253.642C127.889 253.986 129.263 255.53 130 257.986C130.686 260.268 130.751 263.121 130.185 266.016C129.049 271.835 125.766 276.015 122.502 276.015Z" fill="#F2F2F2"/>
<path fill-rule="evenodd" clip-rule="evenodd" d="M216.277 187.235L215.305 186.703C214.965 186.557 214.619 186.437 214.252 186.366C209.091 185.353 203.128 192.487 201.211 202.3C199.437 211.382 201.223 219.564 205.761 221.539V221.542L216.02 227.603L226.595 193.514L216.277 187.235Z" fill="#F2F2F2"/>
<path fill-rule="evenodd" clip-rule="evenodd" d="M202.197 202.495C203.849 194.049 208.867 187.28 213.267 187.28C213.536 187.28 213.801 187.307 214.063 187.355C214.32 187.406 214.588 187.492 214.821 187.588L221.788 191.791C217.009 193.168 212.522 199.66 210.826 208.35C209.865 213.252 209.976 218.077 211.13 221.933C211.356 222.686 211.628 223.367 211.923 224.016L206.163 220.613C202.218 218.898 200.516 211.107 202.197 202.495ZM227.787 193.073L227.79 193.064L227.733 193.031C227.215 192.598 226.651 192.26 226.052 192.006L216.8 186.375L215.7 185.78C215.253 185.586 214.845 185.452 214.448 185.377C208.622 184.251 202.248 191.746 200.223 202.106C198.303 211.935 200.414 220.308 205.25 222.408L214.994 228.01C215.399 228.305 215.822 228.556 216.27 228.745L216.344 228.786V228.783C216.717 228.933 217.099 229.058 217.495 229.136C217.892 229.211 218.291 229.249 218.688 229.249C224.114 229.249 229.585 222.202 231.496 212.407C233.166 203.872 231.55 196.254 227.787 193.073Z" fill="#16110D"/>
<path fill-rule="evenodd" clip-rule="evenodd" d="M222.601 200.72C220.159 200.72 217.428 204.541 216.468 209.452C215.95 212.108 216 214.689 216.614 216.735C217.166 218.579 218.141 219.765 219.283 219.989C221.847 220.496 224.837 216.508 225.857 211.298C226.874 206.085 225.583 201.261 223.039 200.762C222.896 200.735 222.747 200.72 222.601 200.72ZM219.712 221.596C219.468 221.596 219.226 221.575 218.985 221.527C217.226 221.184 215.851 219.642 215.115 217.183C214.429 214.901 214.363 212.048 214.933 209.153C216.152 202.901 219.843 198.521 223.341 199.223C226.835 199.908 228.615 205.345 227.392 211.597C226.256 217.416 222.977 221.596 219.712 221.596Z" fill="#F2F2F2"/>
<path fill-rule="evenodd" clip-rule="evenodd" d="M223.333 200.843C225.124 203.027 225.792 207.128 224.919 211.597C224.26 214.979 222.852 217.868 221.093 219.654C223.115 218.579 225.074 215.302 225.858 211.299C226.374 208.649 226.323 206.062 225.709 204.019C225.205 202.334 224.349 201.198 223.333 200.843ZM219.71 221.596C219.466 221.596 219.224 221.575 218.983 221.527C218.723 221.48 218.511 221.372 218.342 221.291L216.752 220.24L218.228 219.78C220.461 218.893 222.581 215.403 223.383 211.299C224.43 205.939 223.002 201.832 221.016 200.959L219.621 200.293L221.046 199.514C221.881 199.182 222.632 199.077 223.341 199.224C225.098 199.567 226.472 201.112 227.208 203.567C227.894 205.85 227.96 208.703 227.393 211.597C226.257 217.417 222.978 221.596 219.71 221.596Z" fill="#F2F2F2"/>
<path fill-rule="evenodd" clip-rule="evenodd" d="M108.772 118.649L104.243 171.158L186.119 219.807L190.472 166.578L108.772 118.649Z" fill="#F2F2F2"/>
<path fill-rule="evenodd" clip-rule="evenodd" d="M223.795 132.901L140.32 85.8655L108.77 118.649L190.471 166.578L223.795 132.901Z" fill="#F2F2F2"/>
<path fill-rule="evenodd" clip-rule="evenodd" d="M223.811 137.004L140.336 89.9683L108.897 122.076L190.597 170.005L223.811 137.004Z" fill="#B0F560"/>
<path fill-rule="evenodd" clip-rule="evenodd" d="M185.249 218.117L105.298 170.618L109.636 120.323L189.417 167.126L185.249 218.117ZM140.503 87.1276L222.15 133.13L190.305 165.313L162.84 149.202L110.384 118.426L140.503 87.1276ZM225.439 132.67L140.813 84.9887L140.136 84.6063L108.596 117.378L107.907 116.971L107.8 118.205L107.162 118.871L107.716 119.194L103.187 171.703L186.99 221.496L191.441 167.03L225.439 132.67Z" fill="#16110D"/>
<path fill-rule="evenodd" clip-rule="evenodd" d="M170.794 129.515C168.427 122.077 158.555 115.17 158.105 114.856L153.093 111.672L152.539 112.454C152.539 112.454 147.086 120.171 146.582 120.93C146.254 121.425 145.807 122.104 154.167 145.698L153.32 164.109L154.426 164.763L159.48 160.975L160.41 148.527C162.443 146.695 173.069 136.679 170.794 129.515Z" fill="#16110D"/>
<path fill-rule="evenodd" clip-rule="evenodd" d="M155.181 145.545C155.181 145.545 168.627 122.812 157.566 115.708C146.505 108.604 138.008 103.203 131.905 111.161C125.799 119.119 121.831 125.981 121.831 125.981L155.181 145.545Z" fill="#F2F2F2"/>
<path fill-rule="evenodd" clip-rule="evenodd" d="M121.831 125.98L121.071 143.842L154.353 163.546L155.182 145.545L121.831 125.98Z" fill="#F2F2F2"/>
<path fill-rule="evenodd" clip-rule="evenodd" d="M153.424 161.827L122.101 143.285L122.763 127.697L154.149 146.108L153.424 161.827ZM132.7 111.774C138.013 104.852 145.046 108.862 157.023 116.557C165.979 122.305 157.065 140.008 154.805 144.157L123.216 125.624C124.471 123.547 127.948 117.97 132.7 111.774ZM158.108 114.857C147.214 107.864 137.802 101.811 131.108 110.546C126.233 116.898 122.718 122.556 121.478 124.608L120.897 124.264L120.837 125.692L120.458 126.344L120.801 126.544L120.041 144.402L154.426 164.764L155.335 164.071L156.173 145.839C157.479 143.581 169.473 122.158 158.108 114.857Z" fill="#16110D"/>
<path fill-rule="evenodd" clip-rule="evenodd" d="M152.74 127.103C149.967 133.535 143.202 136.561 137.758 133.908C132.442 131.315 130.403 124.268 133.083 118.123C135.755 111.993 142.203 108.868 147.609 111.175C153.148 113.541 155.504 120.689 152.74 127.103ZM149.902 105.89C141.977 102.616 132.612 107.234 128.724 116.134C124.822 125.063 127.714 135.375 135.438 139.256C143.444 143.277 153.491 138.873 157.597 129.323C161.684 119.805 158.112 109.281 149.902 105.89Z" fill="#F2F2F2"/>
<path fill-rule="evenodd" clip-rule="evenodd" d="M143.915 111.436C139.938 111.436 135.91 114.148 134.005 118.525C131.539 124.18 133.421 130.671 138.197 133.001C140.341 134.044 142.824 134.137 145.188 133.261C148.065 132.192 150.48 129.802 151.816 126.704C153.152 123.609 153.247 120.165 152.087 117.255C151.136 114.865 149.404 113.037 147.216 112.105C146.151 111.651 145.036 111.436 143.915 111.436ZM141.936 135.875C140.338 135.875 138.766 135.52 137.317 134.812C131.584 132.019 129.27 124.347 132.159 117.721C135.043 111.101 142.147 107.755 148.003 110.25C150.689 111.394 152.803 113.617 153.957 116.508C155.313 119.911 155.206 123.917 153.662 127.502C152.111 131.104 149.279 133.889 145.889 135.149C144.586 135.633 143.253 135.875 141.936 135.875ZM144.515 105.828C138.51 105.828 132.55 109.888 129.646 116.538C125.955 124.986 128.755 134.77 135.889 138.355C139.169 140.004 142.97 140.174 146.593 138.857C150.975 137.252 154.649 133.635 156.673 128.921C158.691 124.231 158.823 119.018 157.037 114.62C155.558 110.982 152.889 108.212 149.517 106.82C147.893 106.148 146.202 105.828 144.515 105.828ZM141.73 141.751C139.392 141.751 137.097 141.217 134.989 140.153C126.778 136.031 123.621 125.303 127.804 115.729C131.966 106.202 141.843 101.473 150.284 104.959C154.157 106.554 157.216 109.718 158.897 113.856C160.889 118.752 160.749 124.532 158.518 129.721C156.279 134.94 152.183 138.958 147.281 140.748C145.451 141.417 143.578 141.751 141.73 141.751Z" fill="#16110D"/>
<path fill-rule="evenodd" clip-rule="evenodd" d="M145.613 118.262C142.435 116.951 138.678 118.803 137.119 122.37C135.554 125.952 136.714 130.089 139.811 131.646C143.022 133.259 147.053 131.493 148.699 127.661C150.339 123.843 148.908 119.622 145.613 118.262Z" fill="#F2F2F2"/>
<path fill-rule="evenodd" clip-rule="evenodd" d="M143.737 116.604C141.555 116.604 139.331 118.112 138.278 120.523C136.922 123.621 137.92 127.194 140.499 128.49C141.665 129.076 143.019 129.139 144.316 128.664C145.917 128.078 147.264 126.746 148.013 125.007C148.758 123.272 148.809 121.354 148.153 119.735C147.622 118.432 146.668 117.437 145.467 116.941C144.909 116.711 144.325 116.604 143.737 116.604ZM142.572 130.997C141.543 130.997 140.529 130.761 139.599 130.292C136.018 128.493 134.626 123.848 136.436 119.714C138.234 115.591 142.542 113.557 146.233 115.08C147.935 115.782 149.28 117.165 150.016 118.976C150.872 121.088 150.818 123.576 149.858 125.808C148.892 128.051 147.124 129.781 145.004 130.558C144.202 130.85 143.383 130.997 142.572 130.997Z" fill="#16110D"/>
<path fill-rule="evenodd" clip-rule="evenodd" d="M167.156 159.831L165.454 180.715L182.585 191.482L184.126 170.316L167.156 159.831Z" fill="#16110D"/>
<path fill-rule="evenodd" clip-rule="evenodd" d="M170.745 178.067L171.92 163.62L167.776 161.057L166.207 180.34L181.958 190.234L182.313 185.335L170.745 178.067Z" fill="#F2F2F2"/>
<path fill-rule="evenodd" clip-rule="evenodd" d="M166.958 179.963L181.329 188.99L181.564 185.716L169.993 178.445L171.171 164.004L168.395 162.289L166.958 179.963ZM182.587 191.482L165.452 180.715L167.155 159.831L172.673 163.239L171.496 177.692L183.064 184.957L182.587 191.482Z" fill="#16110D"/>
<path fill-rule="evenodd" clip-rule="evenodd" d="M179.371 150.708C179.371 153.636 177.003 156.008 174.082 156.008C171.16 156.008 168.792 153.636 168.792 150.708C168.792 147.78 171.16 145.408 174.082 145.408C177.003 145.408 179.371 147.78 179.371 150.708Z" fill="#F2F2F2"/>
<path fill-rule="evenodd" clip-rule="evenodd" d="M174.08 146.413C171.719 146.413 169.796 148.34 169.796 150.706C169.796 153.075 171.719 154.999 174.08 154.999C176.444 154.999 178.364 153.075 178.364 150.706C178.364 148.34 176.444 146.413 174.08 146.413ZM174.08 157.013C170.61 157.013 167.783 154.186 167.783 150.706C167.783 147.229 170.61 144.4 174.08 144.4C177.55 144.4 180.374 147.229 180.374 150.706C180.374 154.186 177.55 157.013 174.08 157.013Z" fill="#16110D"/>
<path fill-rule="evenodd" clip-rule="evenodd" d="M113.942 105.353C113.942 105.353 121.008 103.119 122.126 100.795C123.247 98.4706 123.197 93.8312 123.197 93.8312L138.799 82.1985C138.799 82.1985 140.295 90.7543 138.807 96.3496C137.317 101.942 135.006 104.308 135.006 104.308H129.803C129.803 104.308 128.536 105.141 129.297 108.442C130.057 111.74 131.929 117.841 131.929 117.841L116.733 116.287L113.942 105.353Z" fill="#F2F2F2"/>
<path fill-rule="evenodd" clip-rule="evenodd" d="M117.534 115.355L130.527 116.685C129.924 114.665 128.857 111.006 128.317 108.67C127.441 104.879 128.944 103.669 129.251 103.466L129.504 103.301H134.543C135.154 102.522 136.731 100.23 137.834 96.09C138.869 92.2064 138.386 86.7246 138.046 84.0151L124.197 94.3394C124.176 95.6658 124.021 99.1819 123.034 101.231C121.979 103.418 117.319 105.258 115.148 106.014L117.534 115.355ZM133.335 118.997L115.935 117.217L112.733 104.679L113.64 104.392C116.401 103.52 120.581 101.688 121.222 100.356C122.053 98.6292 122.202 95.0683 122.191 93.8435L122.188 93.3297L139.507 80.4124L139.79 82.0225C139.853 82.381 141.308 90.8681 139.778 96.6098C138.237 102.39 135.828 104.906 135.726 105.01L135.431 105.315H130.267C130.115 105.641 129.877 106.483 130.276 108.213C131.019 111.439 132.87 117.485 132.888 117.545L133.335 118.997Z" fill="#16110D"/>
<path fill-rule="evenodd" clip-rule="evenodd" d="M87.737 158.323C87.737 158.323 85.8795 166.52 88.5211 171.288C91.1626 176.056 94.2395 178.888 102.668 181.561C111.1 184.238 127.96 187.844 130.819 187.945L130.062 187.88C130.062 187.88 128.541 191.046 128.505 198.7C128.473 206.356 130.226 218.079 129.635 223.369L129.042 228.66L132.599 230.697L136.296 228.089L143.636 189.624C143.636 189.624 146.844 179.467 143.383 176.826C139.921 174.186 119.287 163.219 119.287 163.219C119.287 163.219 105.229 157.128 104.195 156.913C103.154 156.698 87.737 158.323 87.737 158.323Z" fill="#F2F2F2"/>
<path fill-rule="evenodd" clip-rule="evenodd" d="M130.116 228.116L132.543 229.505L135.384 227.5L142.647 189.435C143.834 185.653 144.88 179.237 142.772 177.629C139.415 175.063 119.019 164.216 118.814 164.112C113.575 161.841 104.83 158.11 103.981 157.895C103.077 157.775 94.3567 158.645 88.5816 159.248C88.2208 161.274 87.4069 167.201 89.4015 170.8C91.8522 175.222 94.625 177.949 102.973 180.602C110.543 183.004 125.748 186.338 130.077 186.872L130.906 186.944L130.826 188.249L130.969 188.315C130.966 188.321 130.897 188.47 130.793 188.769L130.781 188.954C130.766 188.954 130.748 188.954 130.733 188.951C130.328 190.191 129.535 193.292 129.511 198.705C129.496 202.063 129.833 206.251 130.161 210.305C130.578 215.518 130.975 220.444 130.635 223.482L130.116 228.116ZM132.653 231.889L127.97 229.206L128.634 223.258C128.953 220.411 128.566 215.581 128.154 210.466C127.823 206.374 127.484 202.138 127.498 198.693C127.522 193.516 128.217 190.311 128.7 188.701C123.104 187.822 109.595 184.817 102.365 182.523C93.4205 179.685 90.29 176.554 87.6424 171.777C84.8458 166.735 86.6764 158.451 86.7539 158.101L86.9149 157.396L87.6305 157.321C92.3144 156.825 103.319 155.696 104.398 155.926C105.451 156.141 116.366 160.855 119.684 162.295C120.599 162.776 140.504 173.363 143.992 176.025C147.904 179.01 144.946 188.82 144.594 189.928L137.209 228.68L132.653 231.889Z" fill="#16110D"/>
<path fill-rule="evenodd" clip-rule="evenodd" d="M166.415 142.982C166.415 142.982 171.934 141.757 173.964 141.898C175.995 142.038 180.783 144.473 180.056 147.018L179.492 148.996L176.045 147.018C176.045 147.018 175.512 147.451 172.834 149.091C170.157 150.734 167.647 150.056 167.647 150.056L163.458 145.264L166.415 142.982Z" fill="#F2F2F2"/>
<path fill-rule="evenodd" clip-rule="evenodd" d="M168.177 149.135C168.821 149.234 170.512 149.341 172.31 148.233C174.826 146.689 175.398 146.246 175.422 146.228L175.956 145.81L178.926 147.51C178.958 147.268 179.009 147.011 179.087 146.742C179.122 146.62 179.23 146.246 178.788 145.622C177.793 144.194 175.133 142.987 173.896 142.904C172.444 142.763 168.502 143.561 166.851 143.919L164.922 145.407L168.177 149.135ZM168.97 151.202C168.043 151.202 167.438 151.044 167.384 151.029L167.089 150.951L161.997 145.12L164.486 143.271C165.649 142.405 166.985 141.816 168.41 141.547C170.238 141.204 172.715 140.806 174.036 140.89C175.747 141.013 179.009 142.426 180.437 144.463C181.254 145.631 181.206 146.65 181.021 147.295C180.699 148.427 181.096 148.759 181.111 148.774L180.061 150.488L176.102 148.209C175.628 148.532 174.79 149.072 173.359 149.954C171.704 150.969 170.097 151.202 168.97 151.202Z" fill="#16110D"/>
<path fill-rule="evenodd" clip-rule="evenodd" d="M166.475 141.347C165.87 140.812 165.107 140.675 164.376 140.961C162.823 141.586 152.922 142.712 146.023 143.384C145.939 142.56 145.748 141.341 145.331 139.985C145.194 139.536 144.907 138.512 144.523 137.114C142.907 131.276 139.544 119.127 137.335 114.906C134.463 109.43 129.148 107.626 126.455 108.151L125.823 108.277C123.688 108.719 120.466 109.382 116.545 107.142C115.179 106.362 115.117 105.657 115.051 104.913C115.006 104.39 114.947 103.739 114.38 103.273C113.802 102.795 113.009 102.813 112.377 102.879C109.735 103.159 104.246 103.742 98.051 110.434C97.4129 110.942 94.9473 113.388 90.9909 123.202C86.9779 133.161 83.412 157.643 85.5378 160.627C87.7053 163.656 112.01 165.506 115.573 165.506C120.433 165.506 122.213 165.156 122.898 164.063C123.483 163.128 123.003 162.136 122.544 161.174C122.147 160.349 121.694 159.411 121.679 158.309C121.634 155.193 126.327 148.056 128.584 144.621C129.3 143.534 129.857 142.682 130.114 142.219C130.295 141.888 130.438 141.508 130.549 141.099C132.845 147.384 137.177 156.388 140.194 157.237C143.327 158.121 162.823 155.238 166.949 152.884C167.388 152.633 167.993 152.224 168.172 151.555C168.72 149.52 168.509 143.157 166.475 141.347Z" fill="#16110D"/>
<path fill-rule="evenodd" clip-rule="evenodd" d="M139.079 75.2744C138.176 73.7509 136.429 72.6754 134.026 72.1586C129.583 71.2176 123.928 72.3528 120.275 74.9398C114.509 79.0295 112.992 87.2865 114.02 93.2314C115.082 99.3883 122.017 100.622 122.315 100.67L125.532 100.685L125.74 100.583C126.14 100.389 135.523 95.7676 137.553 89.7571C138.006 88.4158 138.37 87.3015 138.659 86.3784L139.428 86.3306L140.189 86.7697C140.212 86.7309 140.355 86.483 141.295 84.9146C142.753 82.4859 141.462 79.3073 139.079 75.2744Z" fill="#16110D"/>
<path fill-rule="evenodd" clip-rule="evenodd" d="M70.2924 192.001C70.2924 192.001 65.218 189.814 65.8769 183.427C66.5388 177.043 66.4285 142.856 66.4285 142.856C66.4285 142.856 71.5715 140.278 75.4265 139.725C79.2815 139.173 82.4478 141.046 82.4478 141.046L111.609 157.915C111.609 157.915 115.751 160.774 117.289 167.573C118.872 174.558 116.851 188.643 116.851 188.643L85.0953 201.408L70.2924 192.001Z" fill="#F2F2F2"/>
<path fill-rule="evenodd" clip-rule="evenodd" d="M106.679 162.215L112.335 158.257L80.7288 140.351L74.3664 139.92L69.772 142.059L75.1595 143.32L104.771 160.249L106.679 162.215Z" fill="#F2F2F2"/>
<path fill-rule="evenodd" clip-rule="evenodd" d="M110.188 173.146L110.092 179.01L110.003 190.308L85.1972 200.28L70.8296 191.151L70.6924 191.076C70.6447 191.058 66.3007 189.116 66.8791 183.533C67.4933 177.573 67.4486 148.339 67.4337 143.49C68.8439 142.827 72.6393 141.142 75.5701 140.721C79.0166 140.213 81.9086 141.898 81.9444 141.916L111.034 158.744C111.073 158.771 114.886 161.507 116.309 167.795C116.398 168.19 116.473 168.611 116.538 169.047L110.188 173.146ZM118.27 167.353C116.663 160.249 112.361 157.214 112.111 157.044L82.9581 140.177C82.818 140.094 79.434 138.128 75.2868 138.726C71.3126 139.293 66.1934 141.847 65.9758 141.958L65.4182 142.236L65.4212 142.86C65.4212 143.204 65.5256 177.065 64.8786 183.327C64.3032 188.883 67.8123 191.987 69.8159 192.895L84.9915 202.535L117.764 189.361L117.847 188.785C117.931 188.202 119.874 174.436 118.27 167.353Z" fill="#16110D"/>
<path fill-rule="evenodd" clip-rule="evenodd" d="M63.4549 194.336C63.4549 194.336 60.7656 191.208 61.4245 184.821C62.0864 178.437 63.0076 147.025 63.0076 147.025C63.0076 147.025 64.7339 142.613 68.5889 142.06C72.4439 141.508 75.6102 143.381 75.6102 143.381L104.772 160.25C104.772 160.25 108.511 162.993 109.775 169.846C111.101 177.054 109.813 189.395 109.813 189.395L81.0603 203.785L63.4549 194.336Z" fill="#B0F560"/>
<path fill-rule="evenodd" clip-rule="evenodd" d="M64.1224 193.551L81.0779 202.651L108.868 188.744C109.092 186.289 109.915 176.162 108.785 170.029C107.619 163.701 104.208 161.085 104.175 161.061L75.1061 144.251C75.0733 144.23 72.1664 142.551 68.7318 143.059C65.8785 143.465 64.3311 146.533 64.0091 147.247C63.9227 150.133 63.064 178.77 62.426 184.927C61.8953 190.05 63.6752 192.921 64.1224 193.551ZM81.0452 204.915L62.6943 194.994C62.5721 194.854 59.7278 191.457 60.4254 184.721C61.0754 178.444 61.9937 147.31 62.0056 146.996L62.0742 146.659C62.1517 146.456 64.0628 141.691 68.4485 141.063C72.6047 140.475 75.9826 142.426 76.1198 142.512L105.272 159.379C105.532 159.558 109.443 162.498 110.764 169.664C112.103 176.932 110.869 188.989 110.815 189.5L110.758 190.05L81.0452 204.915Z" fill="#16110D"/>
<path fill-rule="evenodd" clip-rule="evenodd" d="M145.614 169.492L113.131 188.558L49.784 152.216L83.8203 132.38L74.5539 127.075L27.9449 154.358L14.3286 209.111V230.697L99.4759 281.614V258.877L111.748 202.771L156.863 175.673L145.614 169.492Z" fill="#F2F2F2"/>
<path fill-rule="evenodd" clip-rule="evenodd" d="M145.606 172.742L113.123 191.808L47.832 154.358L81.0036 134.02L74.5488 130.325L27.9368 157.609L111.739 206.022L156.855 178.923L145.606 172.742Z" fill="#F2F2F2"/>
<path fill-rule="evenodd" clip-rule="evenodd" d="M98.79 257.31L55.3026 231.893L15.4883 208.622L28.5977 155.901L45.2909 165.544L110.609 203.274L98.79 257.31ZM98.471 279.84L15.3362 230.125V210.865L56.5846 234.976L98.471 259.457V279.84ZM74.5598 128.238L81.8077 132.387L47.7714 152.223L113.134 189.721L145.629 170.649L154.844 175.713L111.738 201.601L30.0139 154.392L29.9483 154.353L74.5598 128.238ZM158.27 175.295L145.596 168.334L113.125 187.394L51.7964 152.212L84.81 132.967L84.8726 131.823L74.5478 125.911L27.9418 153.194L27.0742 153.702L26.7909 154.855L13.3595 209.542L13.3237 209.602V231.269L99.8812 283.028L100.483 282.711V258.985L112.642 203.397L158.27 175.295Z" fill="#16110D"/>
<path fill-rule="evenodd" clip-rule="evenodd" d="M44.8628 176.366C44.7286 176.366 44.5944 176.393 44.4662 176.447C44.1711 176.578 43.9624 176.826 43.8908 177.143L39.7496 195.862C39.5707 196.629 39.9046 197.406 40.5754 197.8L79.555 220.812C79.8263 220.976 80.1512 220.994 80.4464 220.872C80.7386 220.749 80.9503 220.498 81.0248 220.191L85.5179 201.806C85.7206 200.952 85.3509 200.08 84.5936 199.638L45.3607 176.504C45.2086 176.414 45.0357 176.366 44.8628 176.366ZM80.0558 222.395C79.6295 222.395 79.2061 222.282 78.8245 222.055L39.848 199.043C38.6345 198.329 38.0323 196.922 38.3453 195.548L42.4895 176.826C42.6684 176.055 43.1812 175.437 43.8998 175.126C44.6213 174.816 45.4143 174.867 46.0882 175.261H46.0911L85.3211 198.395C86.627 199.16 87.268 200.668 86.9132 202.147L82.4201 220.528C82.2383 221.287 81.7225 221.896 81.0069 222.198C80.6968 222.33 80.3748 222.395 80.0558 222.395Z" fill="#16110D"/>
<path fill-rule="evenodd" clip-rule="evenodd" d="M141.554 255.383L206.138 220.652L216.433 227.105L152.899 262.2L141.554 255.383Z" fill="#F2F2F2"/>
<path fill-rule="evenodd" clip-rule="evenodd" d="M141.554 255.383L152.899 262.2V266.544L141.554 259.479V255.383Z" fill="#F2F2F2"/>
<path fill-rule="evenodd" clip-rule="evenodd" d="M143.982 257.267L206.139 223.77L216.434 230.226L155.326 264.084L143.982 257.267Z" fill="#F2F2F2"/>
<path fill-rule="evenodd" clip-rule="evenodd" d="M188.475 241.563L152.918 261.205L147.331 257.847L143.3 255.425L206.105 221.653L214.733 227.057L188.475 241.563ZM152.039 264.99L142.415 258.997V256.906L146.66 259.457L152.039 262.69V264.99ZM225.439 132.668L223.242 131.426L189.417 165.959L184.748 218.916L163.702 230.408L158.27 175.295L156.404 174.27L110.477 201.855L98.0746 258.57L98.0388 281.928L99.8814 283.028L109.342 278.078L109.3 277.164C109.291 276.904 108.334 251.344 122.379 241.984C125.608 239.834 128.462 239.269 130.844 240.312C136.899 242.952 139.457 248.769 139.457 253.868V255.729L140.694 255.873V259.959L152.039 267.027L152.874 267.547L153.762 267.057L217.297 232.165V227.615V226.626L216.462 226.104L206.343 219.762L206.337 219.702C206.316 219.466 204.796 196.248 220.994 186.426C223.88 184.675 226.838 185.084 229.223 186.27C237.135 190.211 235.251 202.623 234.953 207.708L235.382 208.938L239.553 205.67L242.213 181.41L225.439 132.668Z" fill="#16110D"/>
<path fill-rule="evenodd" clip-rule="evenodd" d="M229.616 149.617L237.35 153.814L242.419 173.683C242.419 173.683 237.517 177.038 234.753 175.825C231.99 174.609 231.137 173.838 231.137 173.838C231.137 173.838 228.925 172.168 228.439 170.45C227.956 168.733 225.29 159.296 225.29 159.296C225.29 159.296 224.59 156.565 225.445 154.041C226.298 151.517 229.616 149.617 229.616 149.617Z" fill="#F2F2F2"/>
<path fill-rule="evenodd" clip-rule="evenodd" d="M240.008 175.081C240.008 175.081 234.528 173.862 233.172 168.282C232.223 164.372 231.263 161.56 232.155 159.036C233.294 155.801 237.784 153.722 237.784 153.722L229.618 149.617L225.02 155.138L226.025 162.932L229.34 172.533L235.026 176.685L240.008 175.081Z" fill="#F2F2F2"/>
<path fill-rule="evenodd" clip-rule="evenodd" d="M229.653 150.782C228.631 151.464 226.902 152.868 226.395 154.364C225.649 156.581 226.261 159.022 226.267 159.045L229.409 170.176C229.728 171.314 231.24 172.653 231.743 173.035C231.812 173.086 232.644 173.797 235.16 174.902C236.752 175.589 239.743 174.141 241.263 173.223L236.487 154.493L229.653 150.782ZM236.147 177.095C235.518 177.095 234.907 176.99 234.352 176.745C231.52 175.503 230.566 174.675 230.464 174.586C230.28 174.451 228.032 172.71 227.474 170.723L224.323 159.571C224.287 159.422 223.553 156.497 224.493 153.719C225.456 150.863 228.968 148.826 229.117 148.742L229.603 148.464L238.216 153.136L243.565 174.114L242.984 174.514C242.533 174.822 239.117 177.095 236.147 177.095Z" fill="#16110D"/>
<path fill-rule="evenodd" clip-rule="evenodd" d="M85.7745 286.396L1.00586 237.484L14.6937 229.565L99.4623 278.479L85.7745 286.396Z" fill="#F2F2F2"/>
<path fill-rule="evenodd" clip-rule="evenodd" d="M1.00635 237.484V245.893L85.775 294.841V286.396L1.00635 237.484Z" fill="#F2F2F2"/>
<path fill-rule="evenodd" clip-rule="evenodd" d="M85.7755 289.447L1.00684 240.535L14.6947 232.887L99.4603 281.802L85.7755 289.447Z" fill="#F2F2F2"/>
<mask id="mask0_0_3362" style="mask-type:luminance" maskUnits="userSpaceOnUse" x="0" y="228" width="101" height="68">
<path fill-rule="evenodd" clip-rule="evenodd" d="M0 228.403H100.469V296H0V228.403Z" fill="white"/>
</mask>
<g mask="url(#mask0_0_3362)">
<path fill-rule="evenodd" clip-rule="evenodd" d="M2.01224 245.311V239.226L33.9585 257.658L84.7684 286.979V293.097L2.01224 245.311ZM14.6924 230.73L97.4485 278.477L85.7761 285.231L36.0485 256.541L3.01997 237.485L14.6924 230.73ZM100.469 279.063V277.898L99.461 277.315L14.6924 228.403L1.00451 236.32L-0.000244141 236.902V238.064V246.477L84.7684 295.421L85.7702 296.001L86.7809 295.43L100.469 287.69V279.063Z" fill="#16110D"/>
</g>
<path fill-rule="evenodd" clip-rule="evenodd" d="M89.0829 233.83L68.7554 221.325C68.7554 221.325 67.1603 220.217 65.5414 221.325C65.5354 221.328 65.5324 221.334 65.5265 221.337L56.4658 225.872L64.1282 241.508C64.1192 247.369 64.1073 253.125 64.0954 254.78C64.0715 258.491 67.053 260.4 67.053 260.4C67.053 260.4 71.2926 262.894 75.9466 265.61L81.358 276.648L89.6613 272.457C90.0161 272.364 90.3172 272.206 90.5706 271.997H90.5736C91.6082 271.154 91.8885 269.64 91.8885 269.64C91.8885 269.64 92.0137 246.335 92.2432 241.054C92.4758 235.772 89.0829 233.83 89.0829 233.83Z" fill="#F2F2F2"/>
<path fill-rule="evenodd" clip-rule="evenodd" d="M58.1807 224.961L81.4569 239.733L89.9689 234.768L66.8 220.695L58.1807 224.961Z" fill="#F2F2F2"/>
<path fill-rule="evenodd" clip-rule="evenodd" d="M76.7151 264.893L76.4527 264.737C71.8196 262.037 67.6008 259.554 67.6008 259.554C67.4935 259.483 65.0815 257.869 65.1024 254.786C65.1113 253.128 65.1262 247.369 65.1351 241.511L57.8067 226.326L65.9759 222.242L66.2115 222.09C67.1685 221.519 68.0868 222.09 68.2299 222.182L88.5574 234.688L88.5753 234.699C88.6916 234.765 91.2616 236.384 91.2288 240.65L83.1789 245.206V274.599L81.8134 275.292L76.7151 264.893ZM89.6009 232.967L69.3301 220.498C68.5251 219.936 66.7034 219.309 65.0904 220.423L56.4651 224.743L63.1227 241.741C63.1137 247.515 63.1018 253.14 63.0899 254.774C63.063 258.99 66.3725 261.158 66.5454 261.269C66.5454 261.269 70.627 263.668 75.1767 266.327L80.904 278.007L89.911 273.431C90.391 273.311 90.8263 273.093 91.2079 272.779C92.493 271.734 92.8418 270.016 92.8925 269.643C92.8955 269.41 93.0207 246.299 93.2502 241.098C93.4977 235.419 89.9349 233.161 89.6009 232.967Z" fill="#16110D"/>
<path fill-rule="evenodd" clip-rule="evenodd" d="M59.6792 225.872L80.0068 238.377C80.0068 238.377 83.3996 240.319 83.1671 245.6C82.9375 250.882 82.8123 274.186 82.8123 274.186C82.8123 274.186 81.9924 278.733 77.8333 276.46C73.6712 274.186 57.9768 264.946 57.9768 264.946C57.9768 264.946 54.9954 263.038 55.0192 259.327C55.046 255.617 55.0729 231.369 55.0729 231.369C55.0729 231.369 54.3842 227.294 56.4652 225.872C58.0841 224.767 59.6792 225.872 59.6792 225.872Z" fill="#F2F2F2"/>
<path fill-rule="evenodd" clip-rule="evenodd" d="M58.0354 226.386C57.7284 226.386 57.3795 226.464 57.0307 226.703C55.7695 227.566 56.1154 230.213 56.0647 231.196C56.0796 231.366 56.0528 255.623 56.0259 259.337C56.0051 262.417 58.4201 264.033 58.5214 264.099C58.6437 264.17 74.2158 273.333 78.3123 275.573C79.2634 276.096 80.0207 276.224 80.5782 275.952C81.5144 275.504 81.8185 274.023 81.8215 274.005C81.8066 273.945 82.1524 250.802 82.1643 245.556C82.1733 241.245 79.6182 239.319 79.4989 239.25L59.1118 226.703C59.0342 226.652 58.5989 226.386 58.0354 226.386ZM79.9491 278.106C79.1471 278.106 78.2795 277.852 77.3493 277.345C73.223 275.089 57.624 265.909 57.466 265.816C57.296 265.706 53.9866 263.537 54.0135 259.322C54.0403 255.612 54.0671 231.366 54.0671 231.366C54.0015 231.053 53.6468 226.386 55.8977 225.039C57.6777 223.975 59.4069 224.471 60.2268 225.027L80.5335 237.52C80.6647 237.595 84.4273 239.817 84.1709 245.646C83.9472 250.847 83.819 273.957 83.8161 274.19C83.7564 274.617 83.2973 276.881 81.4458 277.772C80.9777 277.996 80.4768 278.106 79.9491 278.106Z" fill="#16110D"/>
<path fill-rule="evenodd" clip-rule="evenodd" d="M24.7566 224.274L42.8152 235.315C44.1211 235.921 45.0304 237.191 45.0513 238.437L45.0841 249.457C45.108 250.664 43.8557 251.285 42.5916 250.691L24.4137 239.787C23.2181 239.225 22.3833 238.069 22.3505 236.925L22.27 225.528C22.2343 224.315 23.4865 223.682 24.7566 224.274Z" fill="#F2F2F2"/>
<path fill-rule="evenodd" clip-rule="evenodd" d="M23.7925 224.77C23.5957 224.77 23.4168 224.814 23.2737 224.91C23.0769 225.038 22.9815 225.242 22.9875 225.51L23.068 236.919C23.0948 237.774 23.7716 238.694 24.7167 239.136L42.9632 250.072C43.3299 250.24 43.7831 250.249 44.0783 250.06C44.2751 249.935 44.3705 249.735 44.3675 249.469L44.3347 238.44C44.3168 237.481 43.5685 236.462 42.513 235.969L24.4216 224.91C24.2069 224.814 23.9893 224.77 23.7925 224.77ZM43.5625 251.638C43.1451 251.638 42.7098 251.539 42.2864 251.342L24.0429 240.405C22.6685 239.763 21.6727 238.362 21.6309 236.946L21.5534 225.534C21.5296 224.784 21.8695 224.112 22.4836 223.706C23.1992 223.231 24.1592 223.207 25.0596 223.619L25.1312 223.655L43.1898 234.7C44.6776 235.39 45.7419 236.898 45.7718 238.422L45.8046 249.457C45.8165 250.207 45.4736 250.87 44.8594 251.27C44.4808 251.515 44.0336 251.638 43.5625 251.638Z" fill="#16110D"/>
<path fill-rule="evenodd" clip-rule="evenodd" d="M151.598 229.717L147.636 232.008C146.088 232.904 144.83 231.954 144.83 229.884V226.305C144.83 224.235 146.088 221.83 147.636 220.934L151.598 218.639C153.148 217.743 154.404 218.696 154.404 220.766V224.345C154.404 226.416 153.148 228.82 151.598 229.717Z" fill="#F2F2F2"/>
<path fill-rule="evenodd" clip-rule="evenodd" d="M39.6059 171.051L34.3287 167.834C33.315 167.224 30.5065 167.398 29.0664 167.992C28.3509 168.285 27.9275 168.685 27.7844 169.301L26.2102 188.034C25.8852 189.337 26.395 190.681 27.4773 191.446L29.3825 194.911L29.5464 195.01C29.8893 195.219 30.423 195.309 31.0372 195.309C32.2208 195.309 33.6936 194.983 34.6537 194.598C35.6137 194.212 36.1504 193.749 36.2994 193.188L41.1294 174.833C41.511 173.384 40.8819 171.831 39.6059 171.051Z" fill="#16110D"/>
<path fill-rule="evenodd" clip-rule="evenodd" d="M30.8291 168.813L36.1062 172.03C37.1199 172.648 37.6089 173.861 37.3078 175.014L32.4778 193.306C32.1856 194.42 30.9036 194.937 29.9227 194.334L24.896 191.245C23.9687 190.674 23.5185 189.569 23.7839 188.511L28.274 169.861C28.5542 168.738 29.8422 168.209 30.8291 168.813Z" fill="#F2F2F2"/>
<path fill-rule="evenodd" clip-rule="evenodd" d="M29.9382 169.28C29.8099 169.28 29.6817 169.307 29.5625 169.357C29.2643 169.477 29.0497 169.728 28.9722 170.036L24.4821 188.677C24.2883 189.438 24.6103 190.224 25.2722 190.633L30.2989 193.722C30.5702 193.89 30.8952 193.916 31.1904 193.794C31.4885 193.678 31.7032 193.433 31.7837 193.122L36.6136 174.83C36.8342 173.994 36.4705 173.095 35.7311 172.647L30.4539 169.426C30.2959 169.331 30.117 169.28 29.9382 169.28ZM30.8147 195.312C30.3734 195.312 29.9382 195.189 29.5476 194.947L24.5209 191.858C23.3193 191.117 22.7439 189.701 23.0868 188.336L27.5768 169.692C27.7677 168.927 28.2924 168.321 29.0169 168.022C29.7414 167.726 30.5374 167.795 31.2023 168.198L36.4795 171.413C37.7555 172.192 38.3816 173.749 38.003 175.195L33.173 193.489C32.9763 194.242 32.4485 194.843 31.727 195.132C31.4319 195.252 31.1218 195.312 30.8147 195.312Z" fill="#16110D"/>
<path fill-rule="evenodd" clip-rule="evenodd" d="M34.8648 177.411C34.6859 179.618 33.1117 181.291 31.3496 181.151C29.5876 181.008 28.3026 179.102 28.4815 176.894C28.6604 174.686 30.2346 173.01 31.9966 173.154C33.7586 173.297 35.0436 175.203 34.8648 177.411Z" fill="#F2F2F2"/>
<path fill-rule="evenodd" clip-rule="evenodd" d="M32.6201 185.869C32.4412 188.076 30.867 189.749 29.105 189.606C27.343 189.463 26.058 187.56 26.2368 185.352C26.4157 183.144 27.9899 181.468 29.752 181.612C31.514 181.755 32.799 183.661 32.6201 185.869Z" fill="#F2F2F2"/>
<path fill-rule="evenodd" clip-rule="evenodd" d="M101.369 207.157L96.0923 203.94C95.0786 203.331 92.2701 203.504 90.83 204.098C90.1145 204.391 89.6911 204.791 89.548 205.407L87.9768 224.14C87.6488 225.443 88.1587 226.787 89.2409 227.552L91.1461 231.017L91.3101 231.116C91.6529 231.325 92.1896 231.415 92.8038 231.415C93.9844 231.415 95.4573 231.089 96.4173 230.704C97.3773 230.318 97.914 229.855 98.063 229.294L102.896 210.939C103.275 209.49 102.646 207.937 101.369 207.157Z" fill="#16110D"/>
<path fill-rule="evenodd" clip-rule="evenodd" d="M92.5925 204.918L97.8697 208.135C98.8834 208.754 99.3723 209.967 99.0712 211.12L94.2412 229.411C93.9491 230.529 92.667 231.042 91.6861 230.442L86.6594 227.35C85.7322 226.779 85.282 225.674 85.5473 224.617L90.0374 205.97C90.3176 204.846 91.6056 204.315 92.5925 204.918Z" fill="#F2F2F2"/>
<path fill-rule="evenodd" clip-rule="evenodd" d="M91.7023 205.386C91.5741 205.386 91.4459 205.413 91.3237 205.461C91.0255 205.583 90.8138 205.834 90.7363 206.142L86.2463 224.783C86.0525 225.545 86.3745 226.33 87.0363 226.739L92.0601 229.828C92.3344 229.996 92.6564 230.023 92.9545 229.9C93.2527 229.784 93.4673 229.539 93.5478 229.228L98.3778 210.936C98.5984 210.097 98.2347 209.201 97.4953 208.753L92.2181 205.532C92.0601 205.437 91.8812 205.386 91.7023 205.386ZM92.5789 231.418C92.1376 231.418 91.7023 231.295 91.3117 231.053L86.285 227.964C85.0835 227.223 84.5081 225.807 84.8509 224.439L89.338 205.798C89.5318 205.033 90.0566 204.427 90.781 204.128C91.5055 203.832 92.2986 203.901 92.9664 204.304L98.2406 207.519C99.5197 208.299 100.146 209.855 99.7671 211.301L94.9372 229.595C94.7404 230.348 94.2127 230.946 93.4942 231.235C93.196 231.358 92.8859 231.418 92.5789 231.418Z" fill="#16110D"/>
<path fill-rule="evenodd" clip-rule="evenodd" d="M96.6282 213.517C96.4493 215.724 94.8751 217.397 93.1131 217.257C91.351 217.114 90.066 215.208 90.2449 213C90.4238 210.792 91.998 209.116 93.76 209.26C95.5221 209.403 96.8071 211.309 96.6282 213.517Z" fill="#F2F2F2"/>
<path fill-rule="evenodd" clip-rule="evenodd" d="M94.3836 221.974C94.2047 224.182 92.6305 225.855 90.8684 225.714C89.1064 225.571 87.8214 223.665 88.0003 221.457C88.1792 219.25 89.7504 217.574 91.5154 217.717C93.2774 217.86 94.5624 219.766 94.3836 221.974Z" fill="#F2F2F2"/>
</svg>
