<svg width="33" height="33" viewBox="0 0 33 33" fill="none" xmlns="http://www.w3.org/2000/svg">
<circle cx="16.5" cy="16.4998" r="11.5" transform="rotate(45 16.5 16.4998)" fill="black"/>
<path fill-rule="evenodd" clip-rule="evenodd" d="M10.6457 17.1506C10.8121 17.317 11.0421 17.42 11.2962 17.42L19.4837 17.42L15.8499 21.0538C15.4907 21.413 15.4907 21.9955 15.85 22.3548C16.2092 22.7141 16.7917 22.7141 17.151 22.3548L22.3522 17.1537C22.3632 17.1427 22.3741 17.1314 22.3846 17.1199C22.456 17.0417 22.5115 16.9541 22.5511 16.8614C22.5975 16.7528 22.6236 16.6335 22.6247 16.5083C22.6247 16.5083 22.6247 16.5083 22.6247 16.5082C22.6247 16.5074 22.6247 16.5065 22.6248 16.5056C22.6248 16.5052 22.6248 16.5048 22.6248 16.5044C22.6248 16.5039 22.6248 16.5034 22.6248 16.5029C22.6248 16.502 22.6248 16.5012 22.6248 16.5003L22.6248 16.5L22.6248 16.4971C22.6248 16.497 22.6248 16.4968 22.6248 16.4967C22.6248 16.4959 22.6248 16.4951 22.6248 16.4943C22.6248 16.4937 22.6248 16.4931 22.6247 16.4926L22.6247 16.4916C22.6247 16.4908 22.6247 16.4901 22.6247 16.4893C22.6247 16.4892 22.6247 16.489 22.6247 16.4889C22.6233 16.3686 22.5988 16.254 22.5554 16.1491C22.5154 16.0519 22.458 15.9602 22.3833 15.8787C22.3732 15.8676 22.3628 15.8569 22.3522 15.8463L17.151 10.6452C16.7917 10.2859 16.2092 10.2859 15.8499 10.6452C15.4906 11.0044 15.4906 11.587 15.8499 11.9462L19.4837 15.58L11.2962 15.58C10.7881 15.58 10.3762 15.9919 10.3762 16.5C10.3762 16.7541 10.4792 16.9841 10.6457 17.1506Z" fill="white"/>
</svg>
