<svg width="23" height="23" viewBox="0 0 23 23" fill="none" xmlns="http://www.w3.org/2000/svg">
<circle cx="11.5" cy="11.5" r="11.5" fill="black"/>
<path fill-rule="evenodd" clip-rule="evenodd" d="M7.82012 16.1C8.05556 16.1 8.291 16.0102 8.47064 15.8306L14.2601 10.0411V15.18C14.2601 15.6881 14.672 16.1 15.1801 16.1C15.6882 16.1 16.1001 15.6881 16.1001 15.18V7.82445C16.1002 7.80888 16.0998 7.79327 16.0991 7.77771C16.0943 7.67188 16.0717 7.57071 16.0341 7.47713C15.9901 7.36757 15.9242 7.26472 15.8365 7.17539C15.8365 7.17537 15.8365 7.17537 15.8364 7.17534C15.8358 7.17473 15.8352 7.17411 15.8346 7.17349C15.8343 7.1732 15.834 7.17292 15.8338 7.17265C15.8334 7.1723 15.833 7.17188 15.8327 7.17152C15.832 7.17093 15.8315 7.17031 15.8308 7.16971L15.8306 7.16952L15.8286 7.16744C15.8285 7.16735 15.8284 7.16724 15.8283 7.16715C15.8277 7.1666 15.8271 7.16603 15.8266 7.16547C15.8262 7.16508 15.8258 7.16466 15.8254 7.16428L15.8246 7.16358C15.8241 7.16305 15.8236 7.16249 15.823 7.16199C15.8229 7.16188 15.8228 7.16179 15.8227 7.16168C15.7367 7.07766 15.6383 7.0139 15.5335 6.97035C15.4364 6.92995 15.331 6.9057 15.2205 6.90091C15.2056 6.90025 15.1906 6.89998 15.1756 6.90003H7.8201C7.312 6.90003 6.9001 7.31193 6.9001 7.82004C6.9001 8.32814 7.312 8.74004 7.8201 8.74004H12.959L7.16956 14.5295C6.8103 14.8888 6.8103 15.4713 7.16956 15.8305C7.3492 16.0102 7.58466 16.1 7.82012 16.1Z" fill="white"/>
</svg>
