<svg width="68" height="68" viewBox="0 0 68 68" fill="none" xmlns="http://www.w3.org/2000/svg">
<circle cx="33.9746" cy="34.0444" r="33.8662" fill="#DDE6FF"/>
<path fill-rule="evenodd" clip-rule="evenodd" d="M43.0273 37.0679L53.9998 40.0497L50.855 43.1829L53.6002 45.9182L51.9108 47.6015L49.1654 44.866L46.0194 48.0002L43.0273 37.0679ZM46.4326 40.46L47.2417 43.4151L49.399 41.2656L46.4326 40.46Z" fill="black"/>
<path fill-rule="evenodd" clip-rule="evenodd" d="M46.1612 24.9233L41.7724 38.0907H22.4977L21.3007 40.4848H40.9097V42.8789H39.4922C39.6264 43.2552 39.7127 43.6542 39.7127 44.076C39.7127 46.0562 38.1019 47.6671 36.1217 47.6671C34.1416 47.6671 32.5307 46.0562 32.5307 44.076C32.5307 43.6542 32.6171 43.2552 32.7513 42.8789H27.5222C27.6564 43.2552 27.7427 43.6542 27.7427 44.076C27.7427 46.0562 26.1319 47.6671 24.1517 47.6671C22.1715 47.6671 20.5607 46.0562 20.5607 44.076C20.5607 43.6542 20.6472 43.2552 20.7813 42.8789H17.4268L20.4728 36.7867L16.0071 22.2732L13 21.2702L13.7575 19L17.9324 20.3911L19.3268 24.9233H46.1612ZM37.3187 44.076C37.3187 43.4155 36.7816 42.8789 36.1217 42.8789C35.4619 42.8789 34.9247 43.4155 34.9247 44.076C34.9247 44.7364 35.4619 45.273 36.1217 45.273C36.7816 45.273 37.3187 44.7364 37.3187 44.076ZM24.1521 42.8789C24.8119 42.8789 25.3491 43.4155 25.3491 44.0759C25.3491 44.7364 24.8119 45.273 24.1521 45.273C23.4922 45.273 22.9551 44.7364 22.9551 44.0759C22.9551 43.4155 23.4922 42.8789 24.1521 42.8789ZM42.8403 27.3173H20.0635L22.6416 35.6966H40.0471L42.8403 27.3173Z" fill="black"/>
</svg>
