<svg width="68" height="68" viewBox="0 0 68 68" fill="none" xmlns="http://www.w3.org/2000/svg">
<circle cx="34.1011" cy="34.0445" r="33.8662" fill="#DDE6FF"/>
<path d="M27.1671 13C27.1667 13.0058 27.0791 13.5613 26.632 13.9319C26.2836 14.2206 25.755 14.3308 25.0607 14.2603C23.7953 14.1313 22.6761 14.4338 21.824 15.135C20.4425 16.2719 20.0106 18.2648 19.9919 18.4606L22.6473 18.4498C22.6481 18.4408 22.7705 17.5195 23.3705 17.0257C23.7192 16.7387 24.1914 16.63 24.8143 16.6934C26.1811 16.833 27.3151 16.538 28.1848 15.8175C29.4177 14.7958 29.5811 13.1642 29.5956 13H27.1671Z" fill="black"/>
<path d="M35.5901 13C35.5896 13.0058 35.5021 13.5613 35.0549 13.9319C34.7066 14.2206 34.1777 14.3308 33.4835 14.2603C32.2181 14.1313 31.0988 14.4338 30.2469 15.135C28.8654 16.2719 28.4335 18.2648 28.4148 18.4606L31.0702 18.4498L31.0692 18.4606C31.0698 18.4549 31.1385 17.8812 31.4718 17.3857C31.7075 17.0354 32.1471 16.5831 33.2372 16.6935C34.604 16.833 35.738 16.538 36.6077 15.8176C37.8407 14.7958 38.004 13.1642 38.0186 13H35.5901Z" fill="black"/>
<path fill-rule="evenodd" clip-rule="evenodd" d="M33.1156 35.6093V24.176L30.4797 26.4881V19.7382H28.0416V28.6269L26.7768 29.7363V24.176L22.623 27.8198V20.3089H20.1849V29.9433H20.2022L18 31.8751V53H24.3388H26.777H30.6776H33.1158H37.5599H45.5106H52V35.6093H33.1156ZM24.3387 31.8751V50.5543H20.4381V32.9853L24.3387 29.5636V31.8751ZM30.6775 50.5543V35.6093V29.5636L26.7768 32.9853V50.5543H30.6775ZM43.0723 50.5542H39.9978V47.4702H43.0723V50.5542ZM45.5103 50.5542H49.5617H49.5618V38.0549H33.1156V50.5542H37.5597V45.0245H45.5103V50.5542Z" fill="black"/>
<rect x="37.6313" y="40.4224" width="7.80193" height="2.4457" fill="black"/>
</svg>
