<svg width="68" height="68" viewBox="0 0 68 68" fill="none" xmlns="http://www.w3.org/2000/svg">
<circle cx="33.9741" cy="34.0445" r="33.8662" fill="#DDE6FF"/>
<path fill-rule="evenodd" clip-rule="evenodd" d="M43.0276 37.0676L54.0001 40.0495L50.8553 43.1826L53.6005 45.9179L51.911 47.6012L49.1656 44.8657L46.0197 48L43.0276 37.0676ZM46.4333 40.4599L47.2424 43.415L49.3997 41.2655L46.4333 40.4599Z" fill="black"/>
<path fill-rule="evenodd" clip-rule="evenodd" d="M46.1612 24.9233L41.7724 38.0907H22.4977L21.3007 40.4848H40.9097V42.8789H39.4922C39.6264 43.2552 39.7127 43.6542 39.7127 44.076C39.7127 46.0562 38.1019 47.6671 36.1217 47.6671C34.1416 47.6671 32.5307 46.0562 32.5307 44.076C32.5307 43.6542 32.6171 43.2552 32.7513 42.8789H27.5222C27.6564 43.2552 27.7427 43.6542 27.7427 44.076C27.7427 46.0562 26.1319 47.6671 24.1517 47.6671C22.1715 47.6671 20.5607 46.0562 20.5607 44.076C20.5607 43.6542 20.6472 43.2552 20.7813 42.8789H17.4268L20.4728 36.7867L16.0071 22.2732L13 21.2702L13.7575 19L17.9324 20.3911L19.3268 24.9233H46.1612ZM37.3187 44.076C37.3187 43.4155 36.7816 42.8789 36.1217 42.8789C35.4619 42.8789 34.9247 43.4155 34.9247 44.076C34.9247 44.7364 35.4619 45.273 36.1217 45.273C36.7816 45.273 37.3187 44.7364 37.3187 44.076ZM24.1517 42.8789C24.8116 42.8789 25.3487 43.4155 25.3487 44.076C25.3487 44.7364 24.8116 45.273 24.1517 45.273C23.4919 45.273 22.9547 44.7364 22.9547 44.076C22.9547 43.4155 23.4919 42.8789 24.1517 42.8789ZM42.8403 27.3173H20.0635L22.6416 35.6966H40.0471L42.8403 27.3173Z" fill="black"/>
</svg>
