<svg width="68" height="69" viewBox="0 0 68 69" fill="none" xmlns="http://www.w3.org/2000/svg">
<circle cx="33.9746" cy="34.7959" r="33.8662" fill="#DDE6FF"/>
<mask id="mask0_120_5862" style="mask-type:luminance" maskUnits="userSpaceOnUse" x="13" y="19" width="44" height="32">
<path fill-rule="evenodd" clip-rule="evenodd" d="M13 19H57V51H13V19Z" fill="white"/>
</mask>
<g mask="url(#mask0_120_5862)">
<path fill-rule="evenodd" clip-rule="evenodd" d="M48.7327 40.0674V45.2097H45.4431C44.8855 43.3467 43.1456 41.9839 41.0908 41.9839C40.3904 41.9839 39.7266 42.1424 39.1336 42.4249V34.0646H44.1609L48.7327 40.0674ZM41.0908 48.4355C40.0116 48.4355 39.1336 47.5636 39.1336 46.492C39.1336 45.4203 40.0116 44.5484 41.0908 44.5484C42.17 44.5484 43.048 45.4203 43.048 46.492C43.048 47.5636 42.17 48.4355 41.0908 48.4355ZM22.4123 48.4355C21.3331 48.4355 20.4551 47.5636 20.4551 46.492C20.4551 45.4203 21.3331 44.5484 22.4123 44.5484C23.4915 44.5484 24.3695 45.4203 24.3695 46.492C24.3695 47.5636 23.4915 48.4355 22.4123 48.4355ZM15.582 28.4194H36.5506V32.7824V45.2098H26.7641C26.2065 43.3467 24.4666 41.9839 22.4118 41.9839C20.3571 41.9839 18.6172 43.3467 18.0595 45.2098H15.582V28.4194ZM21.2676 21.5645H42.2362V31.5H39.134V27.1371C39.134 26.4289 38.5559 25.8548 37.8427 25.8548H21.2676V21.5645ZM56.7386 32.0088L51.5179 25.154C51.2738 24.8336 50.8926 24.6452 50.488 24.6452H44.8184V20.2823C44.8184 19.5741 44.2403 19 43.5271 19H19.976C19.2629 19 18.6847 19.5741 18.6847 20.2823V25.8549H14.2913C13.5781 25.8549 13 26.429 13 27.1371V46.492C13 47.2002 13.5781 47.7742 14.2913 47.7742H18.06C18.6176 49.6373 20.3576 51 22.4123 51C24.467 51 26.207 49.6373 26.7646 47.7742H36.7385C37.2961 49.6373 39.0361 51 41.0908 51C43.1456 51 44.8855 49.6373 45.4431 47.7742H50.024C50.7371 47.7742 51.3152 47.2002 51.3152 46.492V39.6371C51.3152 39.3579 51.2234 39.0864 51.0539 38.8637L45.8331 32.0088C45.5921 31.6924 45.2173 31.5051 44.8184 31.5005V27.2097H49.8456L54.4175 33.2126V38.3548H53.1815C52.4683 38.3548 51.8903 38.929 51.8903 39.6371C51.8903 40.3453 52.4683 40.9194 53.1815 40.9194H55.7087C56.4219 40.9194 57 40.3453 57 39.6371V32.7823C57 32.5031 56.9082 32.2315 56.7386 32.0088Z" fill="black"/>
</g>
</svg>
