<svg width="68" height="69" viewBox="0 0 68 69" fill="none" xmlns="http://www.w3.org/2000/svg">
<circle cx="34.1006" cy="34.7959" r="33.8662" fill="#DDE6FF"/>
<path fill-rule="evenodd" clip-rule="evenodd" d="M49.6282 29.3427C49.8215 29.4362 50.0333 29.4843 50.2479 29.4834C51.0255 29.6546 51.7947 29.1629 51.966 28.3858C52.1372 27.6087 51.6452 26.84 50.8675 26.6689L33.3485 18L15.8296 26.6689C15.1063 27.0108 14.7973 27.8741 15.1395 28.5969C15.4817 29.3196 16.3456 29.6284 17.0689 29.2864L33.3485 21.0397L49.6282 29.3427ZM17.8575 43.5563H26.3072V52H17.8575V43.5563ZM37.5727 43.5562H29.123V51.9999H37.5727V43.5562ZM40.3906 43.5562H48.8403V51.9999H40.3906V43.5562ZM43.2055 32.2979H34.7559V40.7416H43.2055V32.2979ZM23.4902 32.2979H31.9399V40.7416H23.4902V32.2979Z" fill="black"/>
</svg>
