<svg width="38" height="38" viewBox="0 0 38 38" fill="none" xmlns="http://www.w3.org/2000/svg">
<circle cx="19" cy="19" r="19" fill="#EAEAEA"/>
<path fill-rule="evenodd" clip-rule="evenodd" d="M19.4265 5.93735C19.4265 5.41967 19.0117 5 18.5 5C17.9883 5 17.5735 5.41967 17.5735 5.93735V7.50371H15.1029C13.909 7.50371 12.9412 8.48293 12.9412 9.69085V13.0758L9.06201 15.3949C8.40381 15.7885 8 16.5044 8 17.2778V27.8129C8 29.0208 8.96785 30 10.1618 30H15.7206H15.7262H26.8382C28.0321 30 29 29.0208 29 27.8129V18.4394C29 17.2315 28.0321 16.2523 26.8382 16.2523H24.0588V9.69085C24.0588 8.48293 23.091 7.50371 21.8971 7.50371H19.4265V5.93735ZM16.6471 14.6931C16.6471 13.534 15.7943 12.6759 14.7941 12.5259V9.69085C14.7941 9.51829 14.9324 9.3784 15.1029 9.3784H18.4884L18.5 9.37848L18.5116 9.3784H21.8971C22.0677 9.3784 22.2059 9.51829 22.2059 9.69085V16.2744C21.1582 16.426 20.3529 17.3376 20.3529 18.4394V28.1253H16.6471V14.6931ZM22.5147 18.127C22.3441 18.127 22.2059 18.2668 22.2059 18.4394V28.1253H26.8382C27.0088 28.1253 27.1471 27.9855 27.1471 27.8129V18.4394C27.1471 18.2668 27.0088 18.127 26.8382 18.127H22.5147ZM10.0043 17.0086L14.3278 14.4238C14.5336 14.3007 14.7937 14.4509 14.7937 14.6928V28.1251H10.1614C9.99081 28.1251 9.85254 27.9852 9.85254 27.8126V17.2776C9.85254 17.1671 9.91023 17.0649 10.0043 17.0086Z" fill="#212121"/>
</svg>
