<svg width="21" height="25" viewBox="0 0 21 25" fill="none" xmlns="http://www.w3.org/2000/svg">
<path fill-rule="evenodd" clip-rule="evenodd" d="M11.4265 0.937345C11.4265 0.419668 11.0117 0 10.5 0C9.98834 0 9.57353 0.419668 9.57353 0.937345V2.50371H7.10294C5.90903 2.50371 4.94118 3.48293 4.94118 4.69085V8.07576L1.06201 10.3949C0.403805 10.7885 0 11.5044 0 12.2778V22.8129C0 24.0208 0.967853 25 2.16176 25H7.72059H7.72617H18.8382C20.0321 25 21 24.0208 21 22.8129V13.4394C21 12.2315 20.0321 11.2523 18.8382 11.2523H16.0588V4.69085C16.0588 3.48293 15.091 2.50371 13.8971 2.50371H11.4265V0.937345ZM8.64706 9.69305C8.64706 8.534 7.79434 7.67592 6.79412 7.52595V4.69085C6.79412 4.51829 6.93238 4.3784 7.10294 4.3784H10.4884L10.5 4.37848L10.5116 4.3784H13.8971C14.0677 4.3784 14.2059 4.51829 14.2059 4.69085V11.2744C13.1582 11.426 12.3529 12.3376 12.3529 13.4394V23.1253H8.64706V9.69305ZM14.5147 13.127C14.3441 13.127 14.2059 13.2668 14.2059 13.4394V23.1253H18.8382C19.0088 23.1253 19.1471 22.9855 19.1471 22.8129V13.4394C19.1471 13.2668 19.0088 13.127 18.8382 13.127H14.5147ZM2.00426 12.0086L6.32779 9.42381C6.53365 9.30073 6.79372 9.45088 6.79372 9.69281V23.1251H2.16136C1.99081 23.1251 1.85254 22.9852 1.85254 22.8126V12.2776C1.85254 12.1671 1.91023 12.0649 2.00426 12.0086Z" fill="#212121"/>
</svg>
