<svg width="91" height="91" viewBox="0 0 91 91" fill="none" xmlns="http://www.w3.org/2000/svg">
<rect width="91" height="91" rx="17" fill="white" fill-opacity="0.116477"/>
<path fill-rule="evenodd" clip-rule="evenodd" d="M56.6151 31.254H56.6165C56.9043 31.254 57.1657 31.1373 57.3548 30.9483L61.5259 26.7789C61.7122 26.5899 61.829 26.3314 61.829 26.0451C61.829 25.4684 61.3618 25.0014 60.7848 25.0014C60.497 25.0014 60.237 25.1167 60.0493 25.3044L55.8783 29.4737C55.6892 29.6627 55.5724 29.9226 55.5724 30.2103C55.5724 30.7857 56.0395 31.2526 56.6151 31.2526H56.6165L56.6151 31.254ZM65.9344 35.8861C65.7828 35.4859 65.4019 35.2065 64.9556 35.2065C64.8249 35.2065 64.7011 35.2302 64.5858 35.2733L64.5927 35.2705L60.4217 36.8187C60.0226 36.9716 59.7432 37.351 59.7432 37.7957C59.7432 38.3711 60.2103 38.838 60.7859 38.838C60.9166 38.838 61.0404 38.8144 61.1558 38.7699L61.1488 38.7727L65.3199 37.2245C65.7203 37.073 65.9997 36.6936 65.9997 36.2489C65.9997 36.1182 65.9761 35.9932 65.9316 35.8778L65.9344 35.8848V35.8861ZM33.6327 30.9483C33.8218 31.1428 34.0873 31.2638 34.3807 31.2638C34.9563 31.2638 35.4234 30.7968 35.4234 30.2214C35.4234 29.9282 35.3025 29.6641 35.1078 29.4751L30.9368 25.3058C30.7491 25.1237 30.4933 25.0111 30.2096 25.0111C29.634 25.0111 29.1669 25.4781 29.1669 26.0535C29.1669 26.3356 29.2795 26.5927 29.463 26.7803L33.6327 30.9483ZM30.1985 38.8395C30.7741 38.8395 31.2413 38.3725 31.2413 37.7971C31.2413 37.351 30.9618 36.9716 30.5683 36.8229L30.5614 36.8201L26.3903 35.2719C26.2861 35.2344 26.1665 35.2121 26.0428 35.2121C25.4672 35.2121 25 35.6791 25 36.2545C25 36.695 25.2725 37.0717 25.659 37.2231L25.666 37.2259L29.837 38.7741C29.9441 38.8158 30.0678 38.8395 30.1971 38.8395H30.1999H30.1985ZM29.7734 58.3547C32.4054 55.2902 34.0112 51.2779 34.0223 46.8918V46.889C34.0223 36.1473 39.9675 31.2539 45.4927 31.2539C48.6446 31.2914 51.4462 32.7577 53.2842 35.0341L53.2995 35.0536C55.5992 38.0569 56.984 41.8649 56.984 45.9967C56.984 46.3053 56.9756 46.6138 56.9603 46.9182L56.9617 46.8751V46.9751C56.9617 51.3391 58.5717 55.3263 61.2301 58.3769L61.212 58.3561L29.7734 58.3547ZM45.4924 63.9139C43.3707 63.9084 41.5938 62.4435 41.1141 60.4701L41.1072 60.4395H49.8775C49.3909 62.4435 47.614 63.9084 45.4924 63.9139ZM59.0483 46.8891C59.0483 35.3608 52.7472 29.785 46.5351 29.2249V26.0423C46.5351 25.467 46.068 25 45.4924 25C44.9167 25 44.4496 25.467 44.4496 26.0423V29.2249C38.2361 29.785 31.9365 35.3608 31.9365 46.8891C31.8725 51.5435 29.8662 55.7184 26.6934 58.6494L26.6823 58.6592C26.4918 58.8482 26.3751 59.1095 26.3751 59.3985C26.3751 59.9739 26.8422 60.4409 27.4178 60.4409H27.4192H38.9953C39.5041 63.6096 42.2195 66 45.4937 66C48.768 66 51.4834 63.6096 51.9881 60.4784L51.9936 60.4409H63.5697H63.5711C64.1467 60.4409 64.6138 59.9739 64.6138 59.3985C64.6138 59.1108 64.497 58.851 64.3093 58.6619C61.1032 55.7365 59.0886 51.5518 59.0524 46.896V46.8891H59.0483Z" fill="black"/>
</svg>
