<svg width="91" height="91" viewBox="0 0 91 91" fill="none" xmlns="http://www.w3.org/2000/svg">
<rect width="91" height="91" rx="17" fill="white" fill-opacity="0.116477"/>
<mask id="mask0_156_5661" style="mask-type:luminance" maskUnits="userSpaceOnUse" x="21" y="21" width="50" height="49">
<path fill-rule="evenodd" clip-rule="evenodd" d="M21 21H70.9057V69.1647H21V21Z" fill="white"/>
</mask>
<g mask="url(#mask0_156_5661)">
<path fill-rule="evenodd" clip-rule="evenodd" d="M44.906 40.094C44.605 40.094 44.5 40.301 44.5 40.5V53.907C44.5 54.207 44.707 54.313 44.906 54.313V54.407H47.187C47.488 54.407 47.594 54.199 47.594 54V40.5C47.594 40.199 47.386 40.094 47.187 40.094H44.906ZM44.8123 32.813C44.5112 32.813 44.4062 32.989 44.4062 33.188V35.813C44.4062 36.114 44.6133 36.188 44.8123 36.188H47.1873C47.4883 36.188 47.5942 36.012 47.5942 35.813V33.188C47.5942 32.887 47.3862 32.813 47.1873 32.813H44.8123ZM46 23C58.82 23 68.906 32.215 68.906 43.313C68.906 54.403 58.73 63.5 45.906 63.5C44.078 63.5 42.355 63.321 40.625 62.938L40.281 62.844L40 63C38.328 63.739 34.793 65.18 31.25 66.156C29.476 66.645 27.711 67.02 26.187 67.125C25.168 67.196 24.539 66.953 23.844 66.781C24.34 66.356 25.019 65.848 25.812 65.188C27.554 63.742 29.644 61.731 30.375 58.75L30.531 58.125L30.031 57.75C25.625 54.016 23 48.875 23 43.188C23 32.098 33.176 23 46 23ZM46 21C32.222 21 21 30.879 21 43.188C21 49.235 23.773 54.664 28.219 58.688C27.547 60.762 26.047 62.399 24.531 63.656C23.715 64.332 22.933 64.91 22.312 65.469C22.004 65.746 21.722 66.028 21.5 66.375C21.277 66.723 21.078 67.219 21.219 67.75L21.344 68.156L21.687 68.375C22.976 69.117 24.582 69.246 26.312 69.125C28.043 69.004 29.929 68.606 31.781 68.094C35.375 67.102 38.75 65.688 40.531 64.906C42.289 65.274 44.054 65.5 45.906 65.5C59.683 65.5 70.906 55.621 70.906 43.313C70.906 31.008 59.781 21 46 21Z" fill="black"/>
</g>
</svg>
