<svg width="260" height="607" viewBox="0 0 260 607" fill="none" xmlns="http://www.w3.org/2000/svg">
<path fill-rule="evenodd" clip-rule="evenodd" d="M262.784 532.544L260.14 557.286L246.325 559.009L246.926 529.628L262.784 532.544Z" fill="white"/>
<path fill-rule="evenodd" clip-rule="evenodd" d="M247.484 530.599L246.938 557.823L259.142 556.323L261.625 533.186L247.484 530.599ZM245.836 560.22C245.61 560.202 245.395 560.099 245.225 559.925C245.011 559.703 244.893 559.39 244.9 559.064L245.498 529.246C245.505 528.918 245.637 528.611 245.861 528.401C246.083 528.192 246.377 528.101 246.665 528.154L262.9 531.125C263.433 531.222 263.803 531.776 263.739 532.38L261.045 557.488C260.989 558.011 260.62 558.421 260.155 558.478L246.015 560.217C245.956 560.224 245.896 560.225 245.836 560.22Z" fill="black"/>
<path fill-rule="evenodd" clip-rule="evenodd" d="M242.806 602.829C248.662 603.932 258.281 604.983 269.63 603.299C273.35 602.748 275.894 598.455 275.088 594.057C272.842 581.802 269.016 558.568 261.865 547.702L259.919 553.49L257.548 547.505C257.217 546.748 256.606 546.23 255.901 546.109L252.112 545.762C250.959 545.564 249.865 546.468 249.597 547.839L248.615 552.873L245.675 548.467C245.091 547.592 243.857 547.985 243.767 549.074L242.042 570.087C241.522 576.423 240.495 582.695 238.974 588.823L237.635 594.222C237.102 598.337 239.402 602.188 242.806 602.829Z" fill="white"/>
<mask id="mask0_80_5524" style="mask-type:luminance" maskUnits="userSpaceOnUse" x="236" y="543" width="44" height="64">
<path fill-rule="evenodd" clip-rule="evenodd" d="M239.738 543.64L279.292 546.763L275.562 606.994L236.008 603.871L239.738 543.64Z" fill="white"/>
</mask>
<g mask="url(#mask0_80_5524)">
<path fill-rule="evenodd" clip-rule="evenodd" d="M242.971 601.712C248.935 602.833 258.376 603.827 269.499 602.177C270.941 601.962 272.226 601.068 273.115 599.66C274.087 598.122 274.446 596.163 274.102 594.284L273.62 591.633C271.489 579.861 268.004 560.6 262.124 550.134L260.86 553.891C260.715 554.32 260.354 554.609 259.947 554.622C259.542 554.638 259.165 554.37 258.999 553.95L256.629 547.966C256.461 547.584 256.126 547.293 255.749 547.229L252.031 546.891C251.311 546.767 250.736 547.291 250.58 548.082L249.598 553.116C249.514 553.549 249.213 553.887 248.829 553.98C248.447 554.077 248.048 553.909 247.811 553.554L244.87 549.147L244.77 549.179L243.045 570.191C242.52 576.579 241.476 582.951 239.944 589.129L238.622 594.455C238.202 597.931 240.143 601.179 242.971 601.712ZM251.048 605.058C247.797 604.802 244.962 604.384 242.64 603.947C238.719 603.208 236.028 598.772 236.639 594.058C236.645 594.009 236.654 593.963 236.665 593.917L238.006 588.519C239.506 582.472 240.527 576.235 241.04 569.982L242.766 548.97C242.845 548.003 243.431 547.208 244.26 546.944C245.091 546.675 245.961 547.009 246.479 547.786L248.103 550.219L248.614 547.596C248.993 545.653 250.596 544.348 252.263 544.641L255.982 544.979C257.078 545.165 257.975 545.919 258.451 547.004L259.842 550.518L260.924 547.3C261.055 546.913 261.363 546.636 261.727 546.58C262.092 546.519 262.456 546.694 262.674 547.028C269.47 557.356 273.303 578.531 275.593 591.183L276.073 593.828C276.53 596.32 276.05 598.925 274.756 600.974C273.539 602.901 271.766 604.124 269.763 604.422C262.721 605.467 256.337 605.476 251.048 605.058Z" fill="black"/>
</g>
<path fill-rule="evenodd" clip-rule="evenodd" d="M252.566 596.088C246.462 595.606 242.261 594.373 241.951 594.279C241.414 594.118 241.095 593.499 241.238 592.894C241.381 592.29 241.927 591.94 242.469 592.09C242.601 592.131 255.998 596.051 269.838 592.517C270.383 592.379 270.92 592.761 271.042 593.37C271.165 593.981 270.825 594.588 270.284 594.726C263.83 596.374 257.561 596.482 252.566 596.088Z" fill="black"/>
<path fill-rule="evenodd" clip-rule="evenodd" d="M249.746 577.859C249.199 577.816 248.783 577.288 248.81 576.671C248.839 576.046 249.312 575.566 249.867 575.598L263.073 576.363C263.617 576.394 264.054 576.929 264.026 577.553C263.998 578.177 263.524 578.658 262.97 578.626L249.764 577.861L249.746 577.859Z" fill="black"/>
<path fill-rule="evenodd" clip-rule="evenodd" d="M196.964 517.662L194.115 554.323L177.148 554.016L177.095 517.304L196.964 517.662Z" fill="white"/>
<path fill-rule="evenodd" clip-rule="evenodd" d="M178.105 518.454L178.154 552.9L193.195 553.172L195.869 518.775L178.105 518.454ZM177.078 555.146C176.555 555.104 176.143 554.614 176.143 554.017L176.09 517.305C176.09 517.001 176.197 516.71 176.39 516.497C176.582 516.283 176.843 516.165 177.112 516.17L196.981 516.529C197.26 516.538 197.525 516.67 197.712 516.904C197.899 517.137 197.992 517.449 197.967 517.761L195.118 554.42C195.071 555.012 194.628 555.465 194.099 555.455L177.133 555.148C177.114 555.149 177.096 555.147 177.078 555.146Z" fill="black"/>
<path fill-rule="evenodd" clip-rule="evenodd" d="M198.131 575.12C198.104 578.592 196.076 581.604 193.256 582.341C183.447 584.903 161.352 590.601 155.062 591.613C146.898 592.927 136.961 589.742 132.778 583.926C128.596 578.111 136.283 567.502 149.501 559.796C159.965 553.696 169.189 538.103 173.156 537.516C177.123 536.929 184.227 550.896 184.227 550.896L196.415 545.002C196.415 545.002 198.268 557.509 198.131 575.12Z" fill="white"/>
<path fill-rule="evenodd" clip-rule="evenodd" d="M173.519 538.632C173.439 538.626 173.362 538.627 173.287 538.638C171.852 538.851 168.868 542.306 165.71 545.963C161.326 551.04 155.871 557.357 149.964 560.801C140.543 566.294 133.794 573.407 132.77 578.924C132.458 580.606 132.725 582.049 133.561 583.213C137.435 588.597 146.815 591.795 154.92 590.491C161.193 589.482 183.661 583.683 193.028 581.236C195.379 580.622 197.102 578.045 197.126 575.108C197.233 561.194 196.078 550.384 195.612 546.623L184.625 551.936C184.156 552.165 183.608 551.957 183.354 551.458C180.713 546.269 175.869 538.818 173.519 538.632ZM149.122 592.955C142.149 592.405 135.304 589.236 131.997 584.638C130.779 582.943 130.364 580.807 130.8 578.46C131.961 572.21 138.949 564.672 149.038 558.79C154.655 555.515 159.984 549.343 164.266 544.384C168.114 539.928 170.895 536.708 173.024 536.394C177.042 535.804 182.725 545.818 184.647 549.46L196.019 543.961C196.304 543.823 196.627 543.842 196.899 544.007C197.17 544.174 197.358 544.473 197.409 544.816C197.427 544.942 199.273 557.622 199.138 575.13C199.107 579.1 196.73 582.596 193.485 583.445C184.09 585.897 161.557 591.712 155.205 592.735C153.224 593.054 151.167 593.117 149.122 592.955Z" fill="black"/>
<path fill-rule="evenodd" clip-rule="evenodd" d="M149.319 583.093C144.339 582.7 140.286 581.372 138.126 578.591C137.76 578.121 137.802 577.404 138.221 576.993C138.639 576.582 139.274 576.629 139.64 577.1C146.68 586.161 180.858 577.014 193.431 572.725C193.963 572.542 194.525 572.883 194.687 573.481C194.848 574.08 194.548 574.712 194.016 574.894C192.558 575.391 165.845 584.398 149.319 583.093Z" fill="black"/>
<path fill-rule="evenodd" clip-rule="evenodd" d="M170.287 564.413C170.052 564.394 169.823 564.284 169.644 564.082L161.202 554.539C160.81 554.097 160.811 553.38 161.205 552.938C161.599 552.497 162.236 552.499 162.627 552.942L171.069 562.484C171.461 562.927 171.46 563.644 171.067 564.085C170.853 564.326 170.566 564.435 170.287 564.413Z" fill="black"/>
<path fill-rule="evenodd" clip-rule="evenodd" d="M226.702 295.931C226.702 295.931 290.998 303.169 285.861 278.106C282.595 262.169 235.046 273.313 221.136 277.248C218.761 277.921 164.17 267.602 164.17 267.602L176.979 302.687L226.702 295.931Z" fill="black"/>
<path fill-rule="evenodd" clip-rule="evenodd" d="M272.412 274.378C272.412 274.378 275.575 394.518 277.531 434.172C279.488 473.824 269.025 537.319 269.025 537.319L242.87 535.186C242.87 535.186 242.678 473.663 241.564 445.047C241.353 439.641 240.402 434.308 238.786 429.211C235.533 418.952 229.811 399.086 227.879 380.836C225.122 354.789 214.778 313.538 214.778 313.538C214.778 313.538 201.596 518.259 200.399 534.34C200.399 534.34 179.84 535.072 172.59 529.353C172.59 529.353 161.043 454.41 163.732 413.797C166.421 373.185 166.39 272.16 166.39 272.16L272.412 274.378Z" fill="#B0F560"/>
<path fill-rule="evenodd" clip-rule="evenodd" d="M173.509 528.681C179.814 533.206 195.546 533.281 199.47 533.225C201.038 511.234 213.644 315.466 213.774 313.455C213.809 312.907 214.19 312.467 214.676 312.411C215.155 312.356 215.613 312.7 215.746 313.23C215.849 313.643 226.144 354.865 228.879 380.701C230.8 398.853 236.504 418.646 239.734 428.828C241.403 434.093 242.357 439.534 242.569 444.997C243.592 471.26 243.841 525.877 243.872 534.131L268.195 536.114C269.506 527.869 278.321 470.598 276.527 434.233C274.69 397.017 271.757 287.575 271.435 275.489L167.396 273.312C167.388 284.658 167.242 376.029 164.736 413.881C162.197 452.208 172.534 522.205 173.509 528.681ZM189.966 535.198C183.614 534.696 175.995 533.421 172.012 530.28C171.793 530.107 171.644 529.842 171.598 529.546C171.483 528.795 160.06 453.998 162.728 413.712C165.384 373.606 165.384 273.169 165.384 272.16C165.384 271.855 165.492 271.564 165.685 271.351C165.878 271.137 166.138 271.021 166.408 271.026L272.43 273.245C272.974 273.255 273.403 273.741 273.418 274.345C273.45 275.546 276.602 394.924 278.536 434.108C280.477 473.442 270.119 536.888 270.014 537.525C269.921 538.091 269.465 538.488 268.955 538.448L268.953 538.447L242.798 536.316C242.273 536.273 241.865 535.782 241.864 535.19C241.862 534.574 241.659 473.36 240.559 445.096C240.355 439.859 239.44 434.642 237.839 429.59C234.58 419.318 228.825 399.343 226.88 380.97C224.807 361.385 218.345 332.838 215.355 320.232C213.082 355.507 202.464 520.17 201.402 534.434C201.36 535.007 200.942 535.453 200.432 535.472C200.035 535.486 195.478 535.633 189.966 535.198Z" fill="black"/>
<path fill-rule="evenodd" clip-rule="evenodd" d="M229.403 100.644C229.403 100.644 252.83 118.262 260.304 143.821C264.788 159.156 261.615 184.582 262.529 199.248C264.964 238.356 285.166 276.089 285.166 276.089C285.166 276.089 281.568 269.808 267.026 280.502C253.483 290.461 241.05 297.785 214.245 295.946C190.004 294.282 175.632 290.342 167.524 287.054C162.152 284.876 159.045 278.574 160.289 272.302C162.086 263.247 164.478 249.058 165.031 235.457C165.805 216.37 156.352 179.888 156.352 179.888C156.352 179.888 116.37 150.223 115.301 126.597C115.301 126.597 144.737 100.93 175.657 98.9824C207.791 96.9579 229.403 100.644 229.403 100.644Z" fill="black"/>
<path fill-rule="evenodd" clip-rule="evenodd" d="M223.223 164.134C223.223 164.134 233.549 186.781 216.539 198.677L277.936 227.886L285.335 197.055C294.649 156.887 274.403 115.049 239.049 103.209C235.626 102.062 232.143 101.165 228.636 100.537L223.223 164.134Z" fill="black"/>
<path fill-rule="evenodd" clip-rule="evenodd" d="M172.543 119.988L106.99 127.538L43.0618 109.749L109.303 102.101L172.543 119.988Z" fill="white"/>
<path fill-rule="evenodd" clip-rule="evenodd" d="M48.918 110.211L107.061 126.391L166.748 119.517L109.23 103.248L48.918 110.211ZM106.92 128.668C106.862 128.663 106.805 128.653 106.748 128.638L42.8208 110.849C42.346 110.716 42.0242 110.219 42.0582 109.67C42.0923 109.12 42.4723 108.678 42.9596 108.622L109.2 100.974C109.317 100.961 109.435 100.97 109.547 101.002L172.787 118.89C173.262 119.024 173.582 119.522 173.546 120.07C173.511 120.618 173.131 121.06 172.645 121.116L107.092 128.665C107.035 128.671 106.977 128.672 106.92 128.668Z" fill="black"/>
<path fill-rule="evenodd" clip-rule="evenodd" d="M100.356 234.855L107.009 127.432L172.812 119.964L166.177 227.092L100.356 234.855Z" fill="white"/>
<path fill-rule="evenodd" clip-rule="evenodd" d="M107.954 128.465L101.443 233.588L165.232 226.064L171.725 121.225L107.954 128.465ZM100.286 235.985C100.052 235.966 99.829 235.855 99.6572 235.669C99.4433 235.437 99.3314 235.11 99.3521 234.775L106.005 127.353C106.039 126.802 106.42 126.36 106.907 126.306L172.71 118.837C173.005 118.801 173.299 118.918 173.512 119.151C173.726 119.383 173.836 119.71 173.816 120.043L167.181 227.17C167.147 227.719 166.768 228.16 166.283 228.218L100.462 235.981C100.403 235.988 100.344 235.989 100.286 235.985Z" fill="black"/>
<path fill-rule="evenodd" clip-rule="evenodd" d="M100.356 234.855L107.009 127.433L43.3311 109.726L36.6916 216.932L100.356 234.855Z" fill="#B0F560"/>
<path fill-rule="evenodd" clip-rule="evenodd" d="M37.7544 216.062L99.4357 233.428L105.946 128.304L44.252 111.148L37.7544 216.062ZM100.286 235.985C100.228 235.981 100.17 235.97 100.113 235.953L36.4484 218.03C35.975 217.897 35.654 217.401 35.688 216.852L42.3275 109.646C42.3481 109.313 42.4988 109.007 42.7388 108.81C42.9783 108.613 43.2843 108.546 43.5716 108.626L107.249 126.333C107.725 126.465 108.047 126.962 108.013 127.512L101.36 234.934C101.339 235.269 101.188 235.575 100.947 235.772C100.754 235.929 100.52 236.004 100.286 235.985Z" fill="black"/>
<path fill-rule="evenodd" clip-rule="evenodd" d="M226.487 199.947C226.487 199.947 197.169 229.739 162.885 226.363C144.578 224.561 134.934 218.428 124.086 213.159C115.671 209.073 111.077 203.164 107.869 198.849C106.076 196.437 103.237 193.016 100.609 191.629C99.8367 191.22 99.0272 191.064 98.3037 191.063C92.224 191.055 100.463 202.887 100.463 202.887C100.869 204.204 100.022 205.585 98.785 205.625L94.9666 205.746C92.6127 205.486 90.3107 204.66 87.3235 202.203L81.3927 196.474C79.6948 195.281 77.4014 195.579 76.163 197.348C75.6391 198.097 75.0885 200.423 75.0731 201.446C75.0138 205.41 72.5267 218.458 86.141 225.27C96.5053 230.456 104.68 225.182 108.929 226.261C112.027 227.047 145.511 259.163 185.471 259.176C245.657 259.197 267.914 220.792 267.914 220.792L226.487 199.947Z" fill="white"/>
<path fill-rule="evenodd" clip-rule="evenodd" d="M108.195 225.003C108.526 225.029 108.845 225.079 109.151 225.156C109.877 225.341 111.138 226.278 114.173 228.569C124.848 236.627 153.192 258.039 185.472 258.044C238.73 258.063 262.175 227.455 266.372 221.257L226.662 201.277C222.664 205.109 195.302 230.069 163.858 227.586C163.505 227.558 163.152 227.527 162.798 227.492C146.97 225.933 137.498 221.148 128.337 216.519C126.792 215.738 125.252 214.96 123.688 214.2C115.428 210.189 110.793 204.549 107.098 199.576C105.273 197.121 102.592 193.927 100.182 192.655C99.4668 192.277 98.7651 192.196 98.3031 192.197C97.866 192.196 97.3135 192.27 97.1596 192.627C96.5182 194.108 99.1259 199.132 101.254 202.19C101.323 202.289 101.376 202.399 101.413 202.518C101.713 203.489 101.587 204.533 101.069 205.379C100.549 206.226 99.728 206.728 98.8141 206.758L94.995 206.879C94.9528 206.88 94.9068 206.878 94.8695 206.875C91.9773 206.554 89.5422 205.431 86.7304 203.118L80.7999 197.393C79.4997 196.527 77.8244 196.807 76.9534 198.05C76.6152 198.533 76.0926 200.577 76.08 201.466C76.0728 201.901 76.0394 202.439 75.9998 203.065C75.6793 208.063 75.0136 218.464 86.5505 224.236C93.1129 227.52 98.6745 226.448 103.141 225.584C105.05 225.216 106.747 224.889 108.195 225.003ZM179.439 260.068C149.118 257.675 123.201 238.11 113.053 230.45C111.048 228.938 109.155 227.509 108.7 227.364C107.463 227.05 105.616 227.406 103.483 227.818C98.998 228.683 92.8562 229.869 85.7338 226.307C72.9047 219.888 73.6667 207.984 73.9924 202.901C74.029 202.325 74.0617 201.828 74.0668 201.427C74.0841 200.253 74.6752 197.645 75.3717 196.649C76.9063 194.454 79.7237 193.965 81.9251 195.514C81.9686 195.544 82.0086 195.577 82.0479 195.615L87.9791 201.344C91.0258 203.846 93.2428 204.411 95.0026 204.613L98.7563 204.493C99.0217 204.485 99.2603 204.338 99.4114 204.093C99.5365 203.888 99.5832 203.645 99.5459 203.406C98.3441 201.653 93.9441 194.882 95.35 191.633C95.6858 190.856 96.4723 189.929 98.3035 189.931C99.2627 189.935 100.203 190.164 101.036 190.604C103.779 192.052 106.686 195.493 108.642 198.124C111.383 201.812 115.972 207.986 124.484 212.12C126.059 212.884 127.607 213.667 129.16 214.451C138.168 219.004 147.484 223.71 162.973 225.235C196.399 228.497 225.523 199.402 225.812 199.107C226.109 198.807 226.537 198.731 226.897 198.913L268.324 219.758C268.593 219.893 268.796 220.154 268.879 220.472C268.962 220.791 268.917 221.134 268.757 221.411C268.531 221.8 245.508 260.331 185.471 260.311C183.445 260.309 181.432 260.226 179.439 260.068Z" fill="black"/>
<path fill-rule="evenodd" clip-rule="evenodd" d="M219.886 200.239C219.664 200.221 219.444 200.12 219.269 199.935C218.864 199.506 218.843 198.789 219.223 198.333C229.417 186.108 226.561 150.069 226.531 149.706C226.48 149.083 226.886 148.531 227.439 148.473C227.993 148.412 228.483 148.873 228.534 149.496C228.661 151.018 231.499 186.924 220.691 199.884C220.475 200.142 220.178 200.262 219.886 200.239Z" fill="white"/>
<path fill-rule="evenodd" clip-rule="evenodd" d="M40.7361 144.807L40.7616 151.877C40.6774 157.283 45.6111 163.75 45.6111 163.75C53.6574 175.946 46.2195 179.251 41.1388 172.373C38.8824 169.318 38.6454 173.13 39.9171 177.845C41.0746 182.138 45.6434 187.888 43.2087 189.536C38.7572 192.549 25.6922 178.92 27.3687 163.838C28.7804 151.137 40.7361 144.807 40.7361 144.807Z" fill="white"/>
<mask id="mask1_80_5524" style="mask-type:luminance" maskUnits="userSpaceOnUse" x="24" y="142" width="28" height="50">
<path fill-rule="evenodd" clip-rule="evenodd" d="M27.6465 142.636L51.923 144.553L49.0044 191.68L24.7278 189.764L27.6465 142.636Z" fill="white"/>
</mask>
<g mask="url(#mask1_80_5524)">
<path fill-rule="evenodd" clip-rule="evenodd" d="M39.7379 146.719C36.6207 148.819 29.4075 154.633 28.3686 163.979C27.2249 174.27 33.403 183.805 38.1561 187.289C40.0873 188.703 41.7815 189.181 42.6905 188.565C43.4413 188.058 42.0681 185.254 41.0648 183.207C40.243 181.529 39.3918 179.793 38.9552 178.173C38.4171 176.176 37.3555 171.413 39.1281 170.338C39.9624 169.835 40.8975 170.275 41.9137 171.649C43.9932 174.464 46.5202 175.357 47.572 174.422C48.7362 173.392 48.3671 169.825 44.8043 164.425C44.6374 164.211 39.6674 157.628 39.7568 151.856L39.7379 146.719ZM41.3802 191.078C40.1035 190.978 38.6331 190.341 37.0581 189.186C30.9982 184.745 25.192 174.302 26.372 163.697C27.8346 150.529 39.7996 144.05 40.3079 143.78C40.6205 143.615 40.9842 143.642 41.2738 143.848C41.5647 144.055 41.7414 144.415 41.743 144.802L41.7689 151.872C41.6924 156.815 46.3288 162.951 46.3753 163.012C52.3141 172.008 49.7447 175.381 48.8161 176.203C46.695 178.077 43.0609 176.746 40.3657 173.096C40.2893 172.993 40.2203 172.904 40.1568 172.828C40.1321 173.707 40.2941 175.338 40.8814 177.515C41.2562 178.908 42.0545 180.538 42.8268 182.114C44.4555 185.437 46.1397 188.875 43.7285 190.506C43.0592 190.96 42.2663 191.148 41.3802 191.078Z" fill="black"/>
</g>
<path fill-rule="evenodd" clip-rule="evenodd" d="M212.382 99.9803L203.844 58.6542L180.018 70.5999L185.062 96.6587C185.764 100.446 184.112 104.288 181.039 106.017L178.265 107.578C176.836 108.382 177.084 110.759 178.64 111.17L190.631 114.339C202.126 117.377 214.187 116.075 224.957 110.635C226.502 109.855 226.406 107.351 224.805 106.727C219.912 104.82 212.767 101.754 212.382 99.9803Z" fill="white"/>
<path fill-rule="evenodd" clip-rule="evenodd" d="M181.176 71.2601L186.046 96.4181C186.84 100.714 184.966 105.074 181.489 107.03L178.715 108.591C178.317 108.815 178.314 109.224 178.332 109.389C178.349 109.556 178.437 109.953 178.869 110.067L190.861 113.236C202.071 116.203 214.037 114.91 224.545 109.601C225.042 109.35 225.061 108.825 225.055 108.67C225.049 108.516 224.989 107.998 224.475 107.797C211.985 102.93 211.593 101.119 211.404 100.249C211.403 100.244 211.402 100.24 211.401 100.236L203.14 60.2471L181.176 71.2601ZM199.019 116.908C196.122 116.679 193.239 116.192 190.401 115.442L178.41 112.273C177.283 111.976 176.468 110.947 176.334 109.653C176.199 108.36 176.779 107.147 177.814 106.564L180.589 105.003C183.249 103.507 184.684 100.17 184.077 96.8893L179.035 70.8404C178.933 70.316 179.173 69.7836 179.608 69.5651L203.433 57.6189C203.708 57.481 204.024 57.4889 204.292 57.6398C204.56 57.7897 204.755 58.0682 204.824 58.3975L213.351 99.6733C213.488 99.9245 214.745 101.608 225.133 105.656C226.255 106.094 227.013 107.237 227.066 108.571C227.119 109.906 226.452 111.122 225.368 111.669C217.12 115.835 208.006 117.617 199.019 116.908Z" fill="black"/>
<mask id="mask2_80_5524" style="mask-type:luminance" maskUnits="userSpaceOnUse" x="143" y="9" width="70" height="85">
<path fill-rule="evenodd" clip-rule="evenodd" d="M148.712 9.54932L212.357 14.5744L207.444 93.9033L143.799 88.8782L148.712 9.54932Z" fill="white"/>
</mask>
<g mask="url(#mask2_80_5524)">
<path fill-rule="evenodd" clip-rule="evenodd" d="M153.668 27.2019C159.801 24.1198 154.331 34.7401 174.983 17.2338C183.208 10.2628 182.563 24.379 184.701 22.577C192.595 15.9219 194.781 14.206 199.525 13.6394C202.666 13.2645 210.836 17.0475 211.331 21.7959C212.948 37.2897 206.109 35.9281 206.414 49.9143C206.628 59.7371 205.341 63.3042 202.669 65.8914C199.966 68.5067 196.089 64.7701 192.947 67.3759C188.882 70.7489 192.717 79.2136 189.514 84.7713C187.495 88.274 181.364 92.1163 169.078 90.8605C167.087 90.6569 165.506 88.8728 165.327 86.619C165.097 83.7316 164.824 80.0814 164.821 76.5684C164.809 59.8261 168.349 54.5292 165.406 51.4471C160.896 46.7246 152.216 54.2404 149.007 50.1494C145.675 45.9008 145.272 31.4213 153.668 27.2019Z" fill="black"/>
</g>
<path fill-rule="evenodd" clip-rule="evenodd" d="M183.93 43.1277L183.387 47.6603C183.132 49.7958 183.007 51.9447 183.014 54.0988C183.027 58.1388 182.809 65.0747 182.728 68.9759C182.466 81.5202 166.593 74.6335 166.593 74.6335L164.769 71.9894L162.926 71.938C162.569 71.9284 162.212 71.8358 161.907 71.6259C161.147 71.101 160.817 70.1158 161.013 69.202C162.084 64.2081 164.109 53.1566 163.242 44.3815C163.242 44.3815 172.47 37.0563 183.93 43.1277Z" fill="white"/>
<path fill-rule="evenodd" clip-rule="evenodd" d="M167.21 73.6801C168.663 74.2572 175.926 76.9322 179.598 74.165C180.975 73.1256 181.671 71.4197 181.723 68.9485C181.745 67.866 181.779 66.549 181.814 65.1241C181.905 61.5063 182.018 57.0041 182.009 54.1027C182.002 51.9017 182.131 49.6831 182.39 47.5078L182.833 43.8121C173.765 39.4026 166.243 43.6756 164.306 44.9653C165.008 53.5955 163.173 63.9654 161.993 69.4666C161.893 69.9293 162.07 70.4077 162.434 70.6593C162.564 70.7493 162.738 70.7909 162.952 70.8058L164.794 70.8559C165.095 70.8725 165.38 71.0253 165.565 71.2937L167.21 73.6801ZM173.808 77.5951C169.984 77.2931 166.468 75.7933 166.232 75.6907C166.061 75.6159 165.911 75.4913 165.798 75.328L164.268 73.1082L162.902 73.0714C162.334 73.0527 161.811 72.8874 161.381 72.5909C160.271 71.8242 159.731 70.3553 160.035 68.9347C160.987 64.4998 163.106 53.2405 162.242 44.5069C162.201 44.097 162.362 43.6936 162.662 43.4558C163.058 43.1421 172.504 35.8213 184.358 42.1024C184.756 42.3134 184.986 42.7898 184.928 43.2795L184.385 47.8121C184.137 49.8854 184.014 51.9994 184.02 54.0959C184.03 57.0338 183.917 61.5561 183.826 65.1909C183.79 66.6106 183.757 67.9234 183.734 69.0039C183.667 72.221 182.651 74.5925 180.715 76.0501C178.797 77.4942 176.239 77.787 173.808 77.5951Z" fill="black"/>
<path fill-rule="evenodd" clip-rule="evenodd" d="M185.763 57.3595C185.763 57.3595 187.056 46.4592 191.313 48.1679C195.57 49.8766 193.88 61.8365 185.763 57.3595Z" fill="white"/>
</svg>
