<svg width="75" height="49" viewBox="0 0 75 49" fill="none" xmlns="http://www.w3.org/2000/svg">
<g opacity="0.55">
<path d="M3.75817 2.79997C6.38082 0.910537 9.64842 0.172749 12.8284 0.0296872C16.5005 -0.151183 20.3234 0.475222 23.4881 2.43823C26.1872 4.0865 28.2759 6.73314 29.1746 9.77831C30.0152 12.5445 29.8848 15.5784 28.8862 18.2864C27.8908 21.0291 25.9365 23.41 23.4249 24.8907C20.3234 26.7556 16.6941 27.5108 13.1218 27.7499C11.7015 27.8306 10.2771 27.8827 8.8547 27.8265C6.71502 27.8235 4.57431 27.7836 2.4387 27.6549C2.14322 27.6191 1.7754 27.6508 1.57162 27.3892C1.37293 27.0928 1.58181 26.7066 1.86812 26.5604C2.93185 25.977 3.79282 25.0818 4.48669 24.0957C5.53717 22.5987 6.28912 20.9187 6.96159 19.2255C8.28921 15.9003 9.28671 12.4413 10.8487 9.21219C11.4987 7.90829 12.2436 6.63402 13.2339 5.55799C14.3241 4.3481 15.827 3.52652 17.4226 3.22609C17.7935 3.17908 18.2948 3.0258 18.5271 3.42944C18.3875 3.78301 18.0584 3.98636 17.7813 4.21935C16.7012 5.1002 15.9554 6.31111 15.3155 7.53326C14.423 9.28066 13.7342 11.1221 13.0566 12.9614C12.1682 15.3986 11.3164 17.85 10.38 20.2708C9.55672 22.333 8.38907 24.3379 6.61516 25.7184C6.50309 25.8186 6.34006 25.9269 6.38489 26.1037C6.39101 26.3121 6.64471 26.3683 6.81181 26.3878C7.8949 26.5002 8.98512 26.5584 10.0743 26.5482C12.3974 26.5686 14.7429 26.3969 16.9906 25.7757C19.6448 25.0368 22.1218 23.4785 23.7327 21.211C25.3812 18.9148 26.1128 16.0424 26.0496 13.2343C26.0323 10.3056 25.2243 7.26247 23.2538 5.03378C21.5176 3.03296 18.9734 1.90073 16.3956 1.50118C14.2732 1.15068 12.0897 1.22936 9.98568 1.66059C7.47919 2.17561 5.01753 3.38857 3.43416 5.45683C1.81412 7.50363 1.24455 10.326 1.91397 12.847C2.0291 13.2935 1.33727 13.4908 1.09681 13.1586C0.0432708 11.7474 -0.127904 9.88254 0.0738377 8.18215C0.516039 5.98411 1.96491 4.08855 3.75817 2.79997Z" fill="white"/>
<path fill-rule="evenodd" clip-rule="evenodd" d="M44.3541 11.2672C42.896 10.2218 40.9907 10.1053 39.2708 10.3567C37.6467 10.605 36.1041 11.2907 34.7907 12.2717C32.3912 14.0712 30.6856 16.7618 30.0222 19.6874C29.6717 21.306 29.6157 23.0473 30.1995 24.6189C30.6703 25.9075 31.6943 26.9897 32.9781 27.4791C34.5798 28.1014 36.3751 28.0166 38.0145 27.5874C40.6891 26.8568 42.9633 24.9888 44.46 22.6794C45.8457 20.5294 46.6384 17.9451 46.451 15.3741C46.3287 13.8065 45.6654 12.1971 44.3541 11.2672ZM36.3262 14.0089C37.2544 12.942 38.3854 11.961 39.769 11.5676C40.5067 11.3612 41.3728 11.3837 41.9953 11.8793C42.7187 12.4464 43.0142 13.3825 43.1518 14.2592C43.4371 16.3152 43.0264 18.408 42.3336 20.3434C41.6968 22.0459 40.8144 23.6962 39.5163 24.9858C38.5586 25.9719 37.2534 26.7464 35.8422 26.7035C35.0678 26.7025 34.3189 26.2754 33.9073 25.6193C33.3041 24.6833 33.188 23.5327 33.1594 22.4444C33.1778 19.3747 34.3536 16.3449 36.3262 14.0089Z" fill="white"/>
<path fill-rule="evenodd" clip-rule="evenodd" d="M71.4232 10.277C69.2876 10.091 67.151 10.7981 65.3893 11.9835C62.4417 13.972 60.3213 17.1848 59.7018 20.699C59.4441 22.3299 59.4043 24.11 60.2103 25.6019C60.8145 26.7474 61.9821 27.5128 63.2313 27.7703C64.619 28.0585 66.0852 27.9727 67.4353 27.5425C69.3956 26.915 71.085 25.5886 72.3372 23.969C72.3843 23.9046 72.4325 23.8404 72.4808 23.7761C72.7408 23.4301 73.0045 23.0791 73.1248 22.6569C73.0137 22.4311 72.8232 22.2165 72.5501 22.2277C72.2575 22.2354 72.0893 22.4644 71.9278 22.6844C71.8751 22.7562 71.8231 22.827 71.7676 22.8889C70.5725 24.3583 69.0604 25.6847 67.203 26.1997C66.233 26.448 65.1428 26.5339 64.2227 26.0689C63.4453 25.6673 63.0285 24.813 62.8961 23.9782C62.6933 22.7039 62.8482 21.398 63.1304 20.1482C64.941 19.9265 66.7434 19.576 68.4786 19.0027C70.062 18.4734 71.6168 17.7662 72.9037 16.6831C73.7463 15.9657 74.4799 15.0419 74.7184 13.9373C74.8936 13.0473 74.7632 12.0295 74.1243 11.3438C73.4345 10.606 72.3953 10.3495 71.4232 10.277ZM66.1087 13.9536C66.9676 12.9819 67.9743 12.0836 69.2071 11.6309C69.8643 11.399 70.6346 11.3101 71.2735 11.6463C71.7411 11.8885 71.9449 12.4331 71.9684 12.9348C72.0162 13.9772 71.5475 14.9796 70.8679 15.746C69.9947 16.7321 68.8352 17.4178 67.635 17.9267C66.3002 18.4815 64.8829 18.8208 63.4504 18.9976C63.9456 17.1449 64.8677 15.4108 66.1087 13.9536Z" fill="white"/>
<path d="M58.854 10.7542C59.287 10.4252 59.8668 10.2259 60.3997 10.418C60.794 10.5529 61.0293 10.9688 61.0436 11.3724C61.0701 12.0867 60.9071 12.7908 60.7247 13.4754C60.2968 15.0011 59.6365 16.4491 58.909 17.8511C57.8402 19.8713 56.5533 21.7761 55.0606 23.5051C53.9174 24.812 52.6846 26.0618 51.2449 27.0387C50.713 27.381 50.1496 27.7141 49.5209 27.8327C49.1133 27.893 48.5957 27.8735 48.3563 27.4781C48.0486 26.9069 48.1423 26.2263 48.1413 25.6019C48.3196 23.1168 48.5927 20.6346 48.5917 18.1392C48.5957 16.5584 48.5448 14.9622 48.1953 13.4151C47.9874 12.5568 47.6726 11.6473 46.9441 11.0935C46.7342 10.9954 46.7709 10.6694 47.0062 10.6408C47.7215 10.4487 48.4959 10.5376 49.1847 10.7951C50.1934 11.1803 50.9555 12.0775 51.2877 13.0943C51.6147 14.0937 51.685 15.1544 51.738 16.1987C51.8297 18.7922 51.6514 21.3857 51.4334 23.97C51.4191 24.2173 51.3946 24.4922 51.5312 24.7139C51.9744 24.8641 52.3738 24.4574 52.6958 24.201C55.0627 21.915 56.8733 19.064 58.0165 15.979C58.4678 14.7385 58.8 13.4499 58.9569 12.1378C59.0129 11.6749 58.9997 11.1997 58.854 10.7542Z" fill="white"/>
<path d="M39.4615 34.1613C40.7066 33.7917 42.1083 33.9125 43.2276 34.596C43.8527 34.9822 44.3141 35.6336 44.4369 36.3667C44.6057 37.329 44.3816 38.3759 43.7739 39.1461C43.5887 39.3774 43.4393 39.6417 43.4342 39.9473C43.954 39.874 44.3499 39.5044 44.7305 39.174C45.3526 38.635 45.8334 37.9495 46.4831 37.4405C47.4326 36.6455 48.6818 36.0353 49.9423 36.2872C50.9429 36.4617 51.6877 37.2113 52.4387 37.8369C51.8637 38.1085 51.2283 38.2985 50.7751 38.7724C49.7602 39.778 49.1801 41.115 48.4935 42.3488C47.5697 43.9936 46.4432 45.5609 44.9515 46.7286C43.3422 48.015 41.3399 48.7553 39.3029 48.9494C37.538 49.127 35.7516 48.8235 34.0819 48.2453C32.5923 47.7373 31.1834 47.0218 29.7971 46.2795C27.1871 44.8629 24.703 43.2182 22.3396 41.4155C22.181 41.2937 22.0501 41.1419 21.9211 40.9901C22.0848 40.9932 22.2475 41.0097 22.4092 41.0397C24.3081 41.6148 26.2847 41.877 28.2481 42.1227C29.6743 42.2859 31.1087 42.3839 32.5442 42.3963C33.8302 42.3623 35.147 42.3334 36.3717 41.8915C36.5538 41.8347 36.6724 41.6788 36.8014 41.5497C36.5374 41.3959 36.2346 41.4062 35.946 41.4671C34.9536 41.654 33.9377 41.5559 32.9483 41.4072C30.8959 41.0995 28.9141 40.3458 27.1554 39.239C26.7912 39.0047 26.4259 38.7631 26.1456 38.4265C26.8792 38.4471 27.6127 38.5473 28.3463 38.4678C30.4826 38.3315 32.4889 37.5024 34.4144 36.6166C36.1455 35.898 37.6372 34.6611 39.4615 34.1613Z" fill="white"/>
</g>
</svg>
