<svg width="30" height="30" viewBox="0 0 30 30" fill="none" xmlns="http://www.w3.org/2000/svg">
<path d="M25.7039 30H4.34748C3.75215 29.9758 3.16742 29.8346 2.6268 29.5843C2.08617 29.3342 1.60025 28.98 1.19683 28.5422C0.793406 28.1043 0.480408 27.5913 0.275753 27.0326C0.0710992 26.4737 -0.0212278 25.8802 0.0040943 25.2857V20.1429C0.0040943 19.8019 0.139752 19.4748 0.381214 19.2338C0.622692 18.9926 0.95018 18.8571 1.29166 18.8571C1.63316 18.8571 1.96064 18.9926 2.20211 19.2338C2.44358 19.4748 2.57923 19.8019 2.57923 20.1429V25.2857C2.53492 25.7947 2.6885 26.3013 3.00814 26.7002C3.32776 27.0993 3.78894 27.36 4.29598 27.4286H25.7039C26.211 27.36 26.6721 27.0993 26.9918 26.7002C27.3115 26.3013 27.4649 25.7947 27.4207 25.2857V20.1429C27.4207 19.8019 27.5563 19.4748 27.7978 19.2338C28.0392 18.9926 28.3668 18.8571 28.7082 18.8571C29.0497 18.8571 29.3772 18.9926 29.6186 19.2338C29.8602 19.4748 29.9958 19.8019 29.9958 20.1429V25.2857C30.0473 26.4778 29.6251 27.6418 28.8214 28.5247C28.0176 29.4077 26.8972 29.9378 25.7039 30Z" fill="black"/>
<path d="M15.0258 21.4286C14.8567 21.4293 14.689 21.3964 14.5327 21.3316C14.3765 21.2669 14.2347 21.1716 14.1159 21.0514L7.2489 14.1943C7.02146 13.9505 6.89765 13.6281 6.90352 13.295C6.90941 12.9619 7.04453 12.6442 7.28045 12.4085C7.51635 12.173 7.83462 12.0381 8.16818 12.0322C8.50175 12.0264 8.82457 12.15 9.06866 12.3772L15.0258 18.3257L20.9829 12.3772C21.227 12.15 21.5498 12.0264 21.8834 12.0322C22.2169 12.0381 22.5352 12.173 22.7711 12.4085C23.007 12.6442 23.1421 12.9619 23.1481 13.295C23.1539 13.6281 23.0302 13.9505 22.8027 14.1943L15.9357 21.0514C15.8169 21.1716 15.6751 21.2669 15.5188 21.3316C15.3626 21.3964 15.1949 21.4293 15.0258 21.4286Z" fill="black"/>
<path d="M15.0258 21.4286C14.6858 21.4241 14.3608 21.2873 14.1203 21.0471C13.8797 20.807 13.7427 20.4825 13.7383 20.1429V1.28571C13.7383 0.944726 13.8739 0.617691 14.1155 0.376577C14.3568 0.135463 14.6844 0 15.0258 0C15.3673 0 15.6949 0.135463 15.9362 0.376577C16.1778 0.617691 16.3134 0.944726 16.3134 1.28571V20.1429C16.3089 20.4825 16.172 20.807 15.9314 21.0471C15.6909 21.2873 15.3659 21.4241 15.0258 21.4286Z" fill="black"/>
</svg>
