<svg width="18" height="21" viewBox="0 0 18 21" fill="none" xmlns="http://www.w3.org/2000/svg">
<path fill-rule="evenodd" clip-rule="evenodd" d="M9 21C9 21 0 13.5826 0 8.75C0 3.91751 4.02944 0 9 0C13.9706 0 18 3.91751 18 8.75C18 13.5826 9 21 9 21ZM9 1.75C5.02355 1.75 1.8 4.88401 1.8 8.75C1.8 12.6158 9 18.375 9 18.375C9 18.375 16.2 12.6158 16.2 8.75C16.2 4.88401 12.9764 1.75 9 1.75ZM9 12.25C7.01178 12.25 5.4 10.683 5.4 8.75C5.4 6.817 7.01178 5.25 9 5.25C10.9882 5.25 12.6 6.817 12.6 8.75C12.6 10.683 10.9882 12.25 9 12.25ZM9 7C8.00589 7 7.2 7.7835 7.2 8.75C7.2 9.7165 8.00589 10.5 9 10.5C9.99411 10.5 10.8 9.7165 10.8 8.75C10.8 7.7835 9.99411 7 9 7Z" fill="#101010"/>
</svg>
