<svg width="10" height="11" viewBox="0 0 10 11" fill="none" xmlns="http://www.w3.org/2000/svg">
<path fill-rule="evenodd" clip-rule="evenodd" d="M4.71429 11C4.71429 11 0 7.11471 0 4.58333C0 2.05203 2.11066 0 4.71429 0C7.31791 0 9.42857 2.05203 9.42857 4.58333C9.42857 7.11471 4.71429 11 4.71429 11ZM4.71429 0.916667C2.63138 0.916667 0.942857 2.55829 0.942857 4.58333C0.942857 6.60825 4.71429 9.625 4.71429 9.625C4.71429 9.625 8.48571 6.60825 8.48571 4.58333C8.48571 2.55829 6.79719 0.916667 4.71429 0.916667ZM4.71429 6.41667C3.67283 6.41667 2.82857 5.59586 2.82857 4.58333C2.82857 3.57081 3.67283 2.75 4.71429 2.75C5.75574 2.75 6.6 3.57081 6.6 4.58333C6.6 5.59586 5.75574 6.41667 4.71429 6.41667ZM4.71429 3.66667C4.19356 3.66667 3.77143 4.07707 3.77143 4.58333C3.77143 5.08959 4.19356 5.5 4.71429 5.5C5.23501 5.5 5.65714 5.08959 5.65714 4.58333C5.65714 4.07707 5.23501 3.66667 4.71429 3.66667Z" fill="white"/>
</svg>
