<svg width="110" height="28" viewBox="0 0 110 28" fill="none" xmlns="http://www.w3.org/2000/svg">
<g opacity="0.55">
<path fill-rule="evenodd" clip-rule="evenodd" d="M30.3968 8.64908C29.2797 8.66902 28.208 8.20588 27.4552 7.37781C26.7023 6.54975 26.3412 5.43684 26.4639 4.32301C26.6709 1.93559 28.7713 0 31.1518 0C33.5322 0 35.2948 1.93559 35.0847 4.32301C34.8777 6.71044 32.7804 8.64908 30.3968 8.64908ZM25.9799 9.91607H33.4866L30.6191 26.222H23.1671L25.9799 9.91607ZM44.5336 0.717449H37.0299L32.546 26.222H39.9979L44.5336 0.717449ZM16.7045 10.9602C15.7152 9.65351 14.6254 8.9208 13.6817 8.9208C12.6407 8.9208 9.6057 9.05513 8.73205 14.1475C7.69648 20.1611 11.3772 20.1592 12.2542 20.1588L12.2754 20.1588C13.1064 20.1588 13.63 20.1588 14.4641 19.5299L14.7746 17.8599H11.7L12.6376 12.4256H23.5811L21.5507 23.8163C16.8598 26.4296 14.1505 26.741 11.4382 26.741C0.649993 26.741 -0.756376 18.2751 0.284703 12.4226C1.32578 6.57001 6.9543 1.86537 13.4717 1.86537C20.4548 1.86537 23.0606 5.41903 24.1017 8.08428L16.7045 10.9602ZM98.003 19.2154L109.342 19.2215C110.377 13.8697 107.86 9.05818 100.727 9.06123C97.4064 9.06123 94.274 10.8411 92.3958 13.5003L93.0503 9.91607H90.548L91.7992 2.70494H84.2955L82.9926 9.91607H80.0764L81.3792 2.70494H73.8756L72.5727 9.91607H70.1222L69.279 14.7123C68.317 10.7282 64.7281 9.05818 60.7068 9.05818C56.6004 9.05818 52.7892 11.7753 51.2702 15.5122L53.9155 0.717449H46.4118L41.9309 26.222H49.3828L50.6339 19.2734C50.6339 23.7125 54.3629 27.3913 59.1117 27.3913C62.9838 27.3913 66.6672 25.3794 68.4358 21.8471L62.305 20.6809C61.7844 21.8837 60.8712 22.1768 60.1163 22.1768C59.0417 22.1768 58.1072 20.9984 57.9793 19.2154L69.3186 19.2246C69.486 18.3637 69.5682 17.06 69.5042 16.1869H71.5316L69.7082 26.222H77.2119L78.9835 16.1869H81.9028L80.1281 26.222H87.6348L89.4065 16.1869L91.0503 16.193C89.2391 21.844 93.1629 27.3883 99.1354 27.3883C103.004 27.3883 106.691 25.3763 108.459 21.844L102.329 20.6778C101.808 21.8807 100.895 22.1738 100.14 22.1738C99.0654 22.1738 98.1339 20.9984 98.003 19.2154ZM58.4877 16.1808L62.8225 16.1777C62.9869 14.2177 61.9914 13.833 60.8469 13.8544C59.9823 13.8697 59.0508 14.8283 58.4877 16.1808ZM102.843 16.2052L98.5053 16.1991C99.0654 14.8375 100.003 13.8697 100.874 13.8544C102.018 13.8361 103.007 14.2421 102.843 16.2052Z" fill="white"/>
</g>
</svg>
