<svg width="78" height="78" viewBox="0 0 78 78" fill="none" xmlns="http://www.w3.org/2000/svg">
<circle cx="39" cy="39" r="39" fill="white"/>
<path fill-rule="evenodd" clip-rule="evenodd" d="M48 34.3344L45.6641 32L36.3273 41.3246L31.3424 36.3428L29 38.6772L36.3273 46L48 34.3344Z" fill="#2A03DB"/>
<mask id="mask0_156_5658" style="mask-type:luminance" maskUnits="userSpaceOnUse" x="20" y="16" width="38" height="46">
<path fill-rule="evenodd" clip-rule="evenodd" d="M20 16H58V62H20V16Z" fill="white"/>
</mask>
<g mask="url(#mask0_156_5658)">
<path fill-rule="evenodd" clip-rule="evenodd" d="M54.6991 34.9814C54.6991 36.0855 54.6926 37.2474 54.6926 38.6019L54.6861 42.7808C54.6861 44.1288 54.6796 44.9505 54.6796 45.4447C54.6796 49.1486 49.1846 53.7255 39.2092 58.3217L38.9881 58.4244L38.767 58.3217C28.785 53.7127 23.29 49.1358 23.29 45.4447V24.5374L23.8168 24.2164C24.4931 23.7992 25.423 23.2343 25.9302 22.9005C27.8616 21.6295 34.0524 19.2544 38.9881 19.2544C43.6962 19.2544 48.5733 20.6153 52.0459 22.9005C52.5531 23.2343 53.483 23.8056 54.1593 24.2164L54.6991 24.5502V24.8327C54.7056 26.0202 54.7056 30.0643 54.6991 34.9814ZM55.8245 21.4114C55.2978 21.0968 54.641 20.7053 53.8736 20.1982C52.6446 19.3829 50.5572 18.2275 47.6309 17.3159C44.8346 16.4429 41.9278 16 38.9885 16C31.4776 16 24.1684 20.1532 24.1033 20.1917C23.336 20.6924 22.6857 21.084 22.1525 21.405C20.4097 22.4449 20 22.6952 20 24.0433V45.4449C20 50.8563 26.3859 56.4281 38.9885 62C51.5911 56.441 57.977 50.8755 57.977 45.4449C57.977 44.6296 57.9835 42.9029 57.9835 40.7268C57.9965 34.6927 58.016 24.5953 57.977 24.0946V24.0497C57.977 22.6952 57.5608 22.4513 55.8245 21.4114Z" fill="#2A03DB"/>
</g>
</svg>
