<svg width="24" height="19" viewBox="0 0 24 19" fill="none" xmlns="http://www.w3.org/2000/svg">
<path fill-rule="evenodd" clip-rule="evenodd" d="M20.5495 0C22.4551 0 23.9999 1.53552 23.9999 3.42971V4.63357L24 4.6413L23.9999 4.6567V15.5703C23.9999 17.4456 22.4859 18.9693 20.6066 18.9995L20.5495 19H3.45046C1.54487 19 0.000105885 17.4645 0.000105885 15.5703V4.6567L0 4.6413L0.000105885 4.63357V3.42971C0.000105885 1.55448 1.51414 0.0307465 3.3934 0.000459483L3.45046 0H20.5495ZM22 6.5L13.9169 11.8577C12.7561 12.6272 11.2439 12.6272 10.0831 11.8577L2 6.5V15.571C2 16.3523 2.63068 16.9872 3.41354 16.9998L3.43731 17H20.5627C21.3565 17 22 16.3602 22 15.571V6.5ZM3.43731 2H20.5627L20.5865 2.00019C21.3693 2.01289 22 2.65166 22 3.43781V4.12114L12.7973 10.2585L12.7815 10.2689C12.3008 10.5805 11.6803 10.577 11.2028 10.2585L2 4.12118V3.43781C2 2.64373 2.6435 2 3.43731 2Z" fill="black"/>
</svg>
