<svg width="126" height="30" viewBox="0 0 126 30" fill="none" xmlns="http://www.w3.org/2000/svg">
<g opacity="0.551595">
<path d="M13.3721 19.9062C12.7912 20.4332 11.9525 20.6088 11.4274 20.6759C10.3572 20.8096 9.25044 20.4544 8.54426 19.6033C7.96431 18.9079 7.66678 18.0074 7.10057 17.2875C6.20618 16.1479 4.77647 15.4016 3.30371 15.6653C0.392435 16.1934 -0.928412 19.5879 0.717465 21.9427C3.06997 25.3079 8.36034 24.7252 11.0755 22.3939C11.921 21.669 12.7103 20.8623 13.3721 19.9062Z" fill="white"/>
<path d="M112.014 19.9056C112.596 20.4337 113.432 20.6093 113.959 20.6755C115.029 20.8101 116.136 20.4553 116.842 19.6035C117.422 18.9073 117.721 18.0077 118.286 17.2878C119.182 16.1477 120.611 15.4014 122.083 15.6656C124.993 16.193 126.314 19.588 124.667 21.943C122.316 25.3075 117.026 24.7255 114.312 22.3944C113.466 21.6693 112.675 20.8622 112.014 19.9056" fill="white"/>
<path d="M102.32 1.95782C102.247 1.95526 95.2987 1.95526 95.2345 1.95759C94.4731 1.9806 93.8433 2.68586 93.8072 3.4112C93.7687 4.18184 94.4386 4.94617 95.2345 4.98449C95.308 4.98705 102.256 4.98705 102.32 4.98449C103.082 4.9613 103.712 4.25645 103.747 3.53089C103.786 2.75957 103.116 1.99659 102.32 1.95782Z" fill="white"/>
<path d="M58.068 17.0571C57.9708 16.655 57.9192 16.2594 57.8915 15.8603C57.8868 15.2841 57.8868 14.4754 57.8868 13.7311C57.9594 11.1604 58.4392 6.63824 54.9525 6.63824C52.5978 6.63824 51.2025 8.61973 50.8072 9.26754C50.7508 7.46117 49.3259 6.1507 47.1489 6.1507C45.76 6.1507 44.9351 7.25606 44.9351 7.25606C44.9351 7.25606 46.2899 7.7258 46.2899 9.54613C46.3046 10.8498 46.2879 17.1962 46.2899 17.223C46.3434 18.3478 47.1291 19.4022 48.5347 19.4022C49.9403 19.4022 50.8126 18.3219 50.8126 17.221V11.5923C51.0085 10.6722 51.5262 9.73321 52.3068 9.73321C53.3193 9.73321 53.3761 10.8591 53.3808 10.8591L53.3761 16.3077C53.3808 16.4851 53.4034 16.655 53.4342 16.8218C53.4843 17.1058 53.5701 17.37 53.6934 17.6125C54.2335 18.71 55.4283 19.4254 57.0339 19.4254C58.4219 19.4254 59.2471 18.321 59.2471 18.321C59.2471 18.321 58.4325 18.0338 58.068 17.0571" fill="white"/>
<path d="M91.5841 17.0572C91.4861 16.6551 91.4336 16.2595 91.4077 15.8603L91.4117 2.37482C91.4117 1.06322 90.3485 0 89.0369 0C87.7251 0 86.6621 1.06322 86.6621 2.37482L86.6652 14.3179C86.677 15.3937 86.5712 16.493 87.0788 17.4814C87.6169 18.5793 88.944 19.4254 90.5478 19.4254C91.9398 19.4254 92.7632 18.321 92.7632 18.321C92.7632 18.321 91.9504 18.0338 91.5841 17.0572" fill="white"/>
<path fill-rule="evenodd" clip-rule="evenodd" d="M32.064 12.9734C32.064 9.40891 34.9525 6.52063 38.5165 6.52063C42.0798 6.52063 44.9695 9.40891 44.9695 12.9734C44.9695 16.5372 42.0798 19.4255 38.5165 19.4255C34.9525 19.4255 32.064 16.5372 32.064 12.9734ZM38.5638 16.688V16.6848C39.7828 16.6627 40.3925 15.2628 40.3925 12.9734C40.3925 10.6874 39.6178 9.28564 38.5638 9.2606V9.26014C38.5585 9.26014 38.5541 9.26014 38.5497 9.2606C38.5447 9.26014 38.5402 9.26014 38.5364 9.26014V9.2606C37.481 9.28562 36.7072 10.6874 36.7072 12.9734C36.7072 15.2628 37.3181 16.6627 38.5364 16.6848V16.688C38.5383 16.688 38.5402 16.6876 38.5422 16.6871C38.5445 16.6866 38.5469 16.6861 38.5497 16.6861C38.552 16.6861 38.5542 16.6866 38.5565 16.687C38.5588 16.6875 38.5612 16.688 38.5638 16.688Z" fill="white"/>
<path fill-rule="evenodd" clip-rule="evenodd" d="M72.4047 15.8603C72.4307 16.2595 72.483 16.6551 72.5815 17.0572H72.5814C72.9477 18.0338 73.7605 18.321 73.7605 18.321C73.7605 18.321 72.9367 19.4254 71.545 19.4254C69.9411 19.4254 68.6142 18.5793 68.0759 17.4814C68.0394 17.4106 68.0074 17.3394 67.9774 17.2679C67.7669 18.2425 66.4571 19.0587 65.6263 19.2753C64.4231 19.588 62.8329 19.4139 61.7784 18.7375C58.0384 16.335 58.383 6.62293 63.837 6.62293C65.8194 6.62293 67.0776 7.967 67.6488 8.76221L67.6582 2.37482C67.6582 1.06322 68.7215 0 70.0331 0C71.3449 0 72.4079 1.06322 72.4079 2.37482L72.4047 15.8603ZM65.5039 16.274V16.2721C66.7224 16.2541 67.3334 15.0324 67.3334 13.039C67.3334 11.0471 66.5603 9.82698 65.5039 9.80468V9.80276C65.5013 9.80276 65.499 9.80328 65.4968 9.80378C65.4948 9.80424 65.4929 9.80468 65.4908 9.80468C65.4881 9.80468 65.486 9.80423 65.4839 9.80376C65.4817 9.80327 65.4794 9.80276 65.4761 9.80276V9.80468C64.4208 9.827 63.6479 11.0471 63.6479 13.039C63.6479 15.0324 64.2576 16.2541 65.4761 16.2721V16.274C65.4794 16.274 65.4817 16.2739 65.4839 16.2738C65.486 16.2737 65.4881 16.2736 65.4908 16.2736C65.4928 16.2736 65.4948 16.2737 65.4968 16.2738C65.499 16.2739 65.5013 16.274 65.5039 16.274Z" fill="white"/>
<path fill-rule="evenodd" clip-rule="evenodd" d="M81.5394 16.3873C84.2413 16.3873 84.9378 15.4329 84.9378 15.4329C84.9378 15.4329 84.7024 19.4254 79.7957 19.4254C77.0095 19.4254 73.6533 17.3049 73.6533 13.1226C73.6533 9.40909 76.2308 6.59564 79.7585 6.59564C81.8949 6.59564 85.4981 7.64714 85.4981 10.8347C85.4981 14.023 82.1951 14.2867 78.2576 14.2867C78.2576 14.2867 78.8373 16.3873 81.5394 16.3873ZM79.2996 9.3471C78.3842 9.94103 78.1404 11.2236 78.0022 12.2412V12.2412C77.9889 12.3409 79.5088 12.2649 79.6048 12.2444C80.5086 12.0542 81.158 11.3703 81.1407 10.3661C81.1244 9.4154 80.0599 8.85325 79.2996 9.3471Z" fill="white"/>
<path fill-rule="evenodd" clip-rule="evenodd" d="M100.538 16.3873C103.24 16.3873 103.937 15.4329 103.937 15.4329C103.937 15.4329 103.701 19.4254 98.7947 19.4254C96.0086 19.4254 92.6523 17.3049 92.6523 13.1226C92.6523 9.40909 95.2298 6.59564 98.7575 6.59564C100.894 6.59564 104.497 7.64714 104.497 10.8347C104.497 14.023 101.194 14.2867 97.2566 14.2867C97.2566 14.2867 97.8363 16.3873 100.538 16.3873ZM98.2986 9.3471C97.3833 9.94103 97.1394 11.2236 97.0012 12.2412V12.2412C96.9879 12.3409 98.5078 12.2649 98.6038 12.2444C99.5077 12.0542 100.157 11.3703 100.14 10.3661C100.123 9.4154 99.0589 8.85325 98.2986 9.3471Z" fill="white"/>
<path d="M112.847 15.778H110.141C110.34 15.778 112.342 14.0902 113.006 13.5276C114.744 12.0524 117.87 9.92392 116.959 7.16683L116.961 7.18619C116.794 6.52959 116.288 6.1507 116.288 6.1507C116.288 6.1507 116.099 6.6867 115.456 6.92653C115.194 6.9901 114.931 7.0381 114.669 7.05365C114.453 7.05748 107.106 7.05365 107.106 7.05365C106.112 7.05237 105.28 7.85157 105.266 8.79419C105.254 9.74493 106.04 10.5075 107.047 10.521L111.334 10.5483C109.347 11.6563 106.974 12.9686 105.769 14.9722C105.082 16.1222 104.345 17.8952 104.625 19.2552C105.577 18.4111 108.076 17.594 109.979 17.9912C110.691 18.14 111.448 18.5035 112.064 18.8885C115.632 21.1202 117.776 16.7553 116.07 14.8313C116.07 14.8313 115.097 15.778 112.847 15.778" fill="white"/>
<path d="M32.4129 18.4927C30.2245 16.0931 29.5399 12.1026 29.4051 9.45035C29.2891 7.15893 29.413 3.19053 31.2187 2.03559C30.6142 1.27576 29.4218 0.969666 28.5157 0.969666C26.4799 0.969666 25.4985 2.32567 24.8022 3.30076C24.5723 3.62285 21.1489 8.34544 21.1489 8.34544C21.1489 8.34544 18.2695 3.89085 17.9156 3.35575C17.4265 2.61734 16.5107 1.26044 14.9011 1.02557C14.208 0.924365 12.41 0.832398 11.4313 2.17556C13.1182 3.52526 13.076 6.96239 12.7097 9.30903C11.6109 16.3528 8.61377 17.0015 8.61377 17.0015C10.149 21.1477 14.1027 19.5095 15.22 16.2038C15.9436 14.0551 16.4108 11.3351 16.5186 9.07957L20.8575 15.7354C20.8575 15.7354 25.7706 9.1003 25.7706 9.10617C24.9614 20.8405 28.9913 24.167 32.5154 24.167C36.0425 24.167 37.2428 20.9415 37.2428 20.9415C35.3356 20.8263 33.6666 19.8672 32.4129 18.4927Z" fill="white"/>
<path d="M43.4187 22.3092C43.4611 22.4816 43.4832 22.6511 43.4945 22.8215C43.4949 22.8734 43.4913 28.9606 43.4942 29.0334C43.5096 29.5448 43.9827 29.9667 44.4691 29.9909C44.9864 30.017 45.4985 29.5673 45.5244 29.0334C45.5267 28.9637 45.5244 23.4817 45.5244 23.4817C45.5197 23.0215 45.5645 22.5508 45.3475 22.1282C45.1169 21.658 44.5489 21.2956 43.8628 21.2956C43.2668 21.2956 42.9141 21.7687 42.9141 21.7687C42.9141 21.7687 43.2621 21.8913 43.4187 22.3092Z" fill="white"/>
<path d="M107.771 28.9781C107.729 28.8057 107.707 28.6366 107.696 28.4655C107.695 28.4139 107.698 22.327 107.696 22.2546C107.681 21.743 107.208 21.321 106.721 21.2965C106.204 21.2708 105.692 21.7204 105.666 22.2546C105.663 22.3243 105.666 27.8058 105.666 27.8058C105.671 28.2658 105.626 28.7362 105.842 29.1598C106.073 29.6297 106.641 29.9917 107.327 29.9917C107.923 29.9917 108.276 29.5191 108.276 29.5191C108.276 29.5191 107.928 29.3958 107.771 28.9781" fill="white"/>
<path d="M71.0417 24.4471C69.9862 24.4471 69.3613 25.3347 69.1844 25.625L69.1783 25.6295C69.1781 25.3358 69.1772 25.1037 69.1772 25.0919C69.1616 24.5807 68.6887 24.1987 68.2026 24.175C67.6859 24.1489 67.1734 24.5586 67.1477 25.0919C67.1461 25.1614 67.1461 28.9781 67.1477 29.0297C67.1635 29.5402 67.6361 29.9622 68.1228 29.9863C68.6394 30.012 69.1513 29.5628 69.1772 29.0297C69.1783 28.9903 69.179 27.7447 69.1785 26.672L69.1869 26.6662C69.2741 26.2542 69.506 25.8332 69.8563 25.8332C70.3098 25.8332 70.3348 26.3378 70.3371 26.3378L70.3325 29.0296C70.3483 29.5401 70.821 29.962 71.3076 29.9862C71.8242 30.0119 72.3361 29.5626 72.3621 29.0296L72.3594 27.6228C72.3594 26.1765 72.5102 24.4402 71.0417 24.447" fill="white"/>
<path d="M96.9865 24.4471C95.9312 24.4471 95.3061 25.3347 95.1292 25.625L95.1233 25.6295C95.1231 25.3358 95.1222 25.1037 95.1222 25.0919C95.1064 24.5807 94.6337 24.1987 94.1475 24.175C93.6309 24.1489 93.1181 24.5586 93.0927 25.0919C93.0909 25.1614 93.0909 28.9781 93.0927 29.0297C93.1082 29.5402 93.5811 29.9622 94.0675 29.9863C94.5841 30.012 95.0962 29.5628 95.1222 29.0297C95.1233 28.9903 95.1239 27.7447 95.1235 26.672L95.1318 26.6662C95.2188 26.2542 95.451 25.8332 95.8013 25.8332C96.2546 25.8332 96.2798 26.3378 96.2818 26.3378L96.2775 29.0296C96.2931 29.5401 96.766 29.962 97.2524 29.9862C97.769 30.0119 98.2809 29.5626 98.307 29.0296L98.3041 27.6228C98.3041 26.1765 98.4551 24.4402 96.9864 24.447" fill="white"/>
<path d="M50.4342 24.4471C49.3789 24.4471 48.7539 25.3347 48.5769 25.625L48.5711 25.6295C48.5706 25.3358 48.5699 25.1037 48.5699 25.0919C48.5544 24.5807 48.0817 24.1987 47.5951 24.175C47.0787 24.1489 46.5659 24.5586 46.5404 25.0919C46.5386 25.1614 46.5386 28.9781 46.5404 29.0297C46.5562 29.5402 47.0291 29.9622 47.5155 29.9863C48.0319 30.012 48.5438 29.5628 48.5699 29.0297C48.5711 28.9903 48.5715 27.7447 48.5711 26.672L48.5796 26.6662C48.6666 26.2542 48.8988 25.8332 49.2491 25.8332C49.7026 25.8332 49.7276 26.3378 49.7298 26.3378L49.7256 29.0296C49.7409 29.5401 50.2138 29.962 50.7002 29.9862C51.217 30.0119 51.7289 29.5626 51.7548 29.0296L51.7519 27.6228C51.7519 26.1765 51.9029 24.4402 50.4342 24.447" fill="white"/>
<path fill-rule="evenodd" clip-rule="evenodd" d="M86.7378 27.083C86.7378 25.486 88.0323 24.1922 89.629 24.1922C91.2253 24.1922 92.52 25.486 92.52 27.083C92.52 28.6801 91.2253 29.9735 89.629 29.9735C88.0323 29.9735 86.7378 28.6801 86.7378 27.083ZM89.65 28.747V28.7457C90.1957 28.7351 90.4686 28.1088 90.4686 27.083C90.4686 26.0587 90.1222 25.431 89.65 25.4197V25.4195C89.6473 25.4195 89.6454 25.4195 89.6432 25.4197C89.6407 25.4195 89.6389 25.4195 89.638 25.4195V25.4197C89.1645 25.431 88.8183 26.0587 88.8183 27.083C88.8183 28.1088 89.0914 28.7351 89.638 28.7457V28.747C89.6389 28.747 89.6407 28.7466 89.6432 28.7466C89.6443 28.7466 89.6452 28.7467 89.6463 28.7468C89.6474 28.7469 89.6486 28.747 89.65 28.747Z" fill="white"/>
<path fill-rule="evenodd" clip-rule="evenodd" d="M77.8041 24.0193C78.3131 24.0448 78.8166 24.4871 78.8333 25.0221H78.8333C78.8349 25.0711 78.8355 28.8975 78.8333 28.9703C78.806 29.5295 78.2696 29.9995 77.7284 29.9726C77.2933 29.951 76.87 29.6255 76.7449 29.1981C76.5407 29.5299 76.092 29.7898 75.7874 29.8694C75.2481 30.0091 74.5356 29.9316 74.0627 29.6284C72.3868 28.5521 72.5417 24.2006 74.9852 24.2006C75.8738 24.2006 76.4366 24.8026 76.6936 25.1592C76.6936 25.1529 76.6944 25.1345 76.6954 25.1125C76.6968 25.0821 76.6985 25.0447 76.6987 25.0221C76.726 24.4632 77.2622 23.9925 77.8041 24.0193ZM75.732 28.5248V28.5242C76.2779 28.5156 76.5522 27.9679 76.5522 27.0749C76.5522 26.1827 76.2051 25.6361 75.732 25.6258V25.6251C75.7313 25.6251 75.7303 25.6253 75.7294 25.6254C75.7284 25.6256 75.7273 25.6258 75.7264 25.6258C75.725 25.6258 75.724 25.6256 75.723 25.6254C75.722 25.6253 75.7211 25.6251 75.7198 25.6251V25.6258C75.2467 25.6361 74.9007 26.1827 74.9007 27.0749C74.9007 27.9679 75.1737 28.5156 75.7198 28.5242V28.5248L75.7264 28.5246L75.732 28.5248Z" fill="white"/>
<path fill-rule="evenodd" clip-rule="evenodd" d="M103.728 24.0193C104.237 24.0448 104.741 24.4871 104.757 25.0221C104.758 25.0711 104.759 28.8975 104.757 28.9703C104.73 29.5295 104.193 29.9995 103.652 29.9726C103.217 29.951 102.794 29.6255 102.669 29.1981C102.465 29.5299 102.016 29.7898 101.711 29.8694C101.172 30.0091 100.459 29.9316 99.9866 29.6284C98.3105 28.5521 98.4656 24.2006 100.909 24.2006C101.797 24.2006 102.361 24.8026 102.617 25.1592C102.617 25.1523 102.618 25.1311 102.619 25.1065C102.621 25.0773 102.622 25.0432 102.623 25.0221C102.65 24.4632 103.186 23.9925 103.728 24.0193ZM101.656 28.5248V28.5242C102.202 28.5156 102.476 27.9679 102.476 27.0749C102.476 26.1827 102.129 25.6361 101.656 25.6258V25.6251C101.655 25.6251 101.654 25.6253 101.653 25.6255C101.652 25.6256 101.651 25.6258 101.65 25.6258C101.649 25.6258 101.648 25.6256 101.647 25.6255C101.646 25.6253 101.645 25.6251 101.643 25.6251V25.6258C101.171 25.6361 100.824 26.1827 100.824 27.0749C100.824 27.9679 101.098 28.5156 101.643 28.5242V28.5248C101.645 28.5248 101.646 28.5248 101.647 28.5247C101.648 28.5247 101.649 28.5246 101.65 28.5246L101.656 28.5248Z" fill="white"/>
<path d="M86.1008 25.5667C86.0767 25.0625 85.6807 24.6671 85.1812 24.625C85.1512 24.6218 85.1237 24.6157 85.0949 24.6157C84.6432 24.6157 84.0743 25.0066 84.0743 25.5006L84.0768 27.3724H84.0743C84.0806 27.9562 84.0736 29.0108 84.0743 29.0228C84.0986 29.527 84.4949 29.9225 84.9935 29.9645C85.0239 29.9683 85.0509 29.9737 85.0802 29.9737C85.5319 29.9737 86.1008 29.5829 86.1008 29.089L86.0988 27.5252H86.1008C86.0941 26.9407 86.1017 25.5782 86.1008 25.5667Z" fill="white"/>
<path d="M86.093 23.0354C86.093 23.5906 85.6424 24.0405 85.087 24.0405C84.531 24.0405 84.0811 23.5906 84.0811 23.0354C84.0811 22.4791 84.531 22.0286 85.087 22.0286C85.6424 22.0286 86.093 22.4791 86.093 23.0354Z" fill="white"/>
<path d="M65.532 24.3773C64.9293 24.4021 64.6313 24.8511 64.221 25.415C64.2181 25.4195 64.2215 25.1544 64.2213 25.1443C64.2055 24.6335 63.7331 24.2116 63.2473 24.187C62.7298 24.1613 62.2179 24.6106 62.1922 25.1443V29.0417H62.1904C62.206 29.5529 62.6784 29.9751 63.1651 29.999C63.6772 30.0242 64.1836 29.5831 64.2181 29.0566H64.2227L64.2222 26.5878C64.2529 26.2258 64.4106 25.7736 64.7019 25.7759C65.1137 25.7797 64.6881 26.7757 65.633 26.7757C66.9881 26.7757 67.1328 24.3112 65.532 24.3773" fill="white"/>
<path fill-rule="evenodd" clip-rule="evenodd" d="M59.8687 28.61C61.0804 28.61 61.3928 28.1822 61.3928 28.1822C61.3928 28.1822 61.2873 29.973 59.0863 29.973C57.8362 29.973 56.3306 29.0218 56.3306 27.1454C56.3306 25.4797 57.4871 24.2179 59.0696 24.2179C60.028 24.2179 61.6441 24.6894 61.6441 26.1194C61.6441 27.5495 60.1626 27.6681 58.3957 27.6681C58.3957 27.6681 58.6565 28.61 59.8687 28.61ZM58.8638 25.452C58.4527 25.7182 58.3429 26.2936 58.2812 26.75V26.7503C58.2751 26.7951 58.9576 26.7606 59.0007 26.7516C59.4062 26.6662 59.6974 26.3594 59.6897 25.9088C59.6823 25.4826 59.2046 25.2304 58.8638 25.452Z" fill="white"/>
<path d="M56.2074 28.9051C56.2074 28.9051 55.6798 29.9737 54.7042 29.9737C53.9014 29.9737 52.9132 29.2646 52.872 28.2382C52.8713 28.2287 52.8663 26.7516 52.8625 25.5171H52.59C52.4475 25.5171 52.1953 25.4322 52.1953 25.0611C52.1953 24.6904 52.4791 24.6117 52.6193 24.6117H52.8602C52.8591 24.18 52.8586 23.8834 52.8593 23.8649C52.8848 23.3325 53.396 22.8845 53.9115 22.9104C54.3968 22.9347 54.8807 23.3551 54.8961 23.8649V24.6112H55.7553C55.8743 24.6112 56.1497 24.689 56.1497 25.067C56.1497 25.4448 55.8743 25.5171 55.7255 25.5171H54.8961V27.7842C54.8961 28.5199 55.5294 28.9017 56.2101 28.904" fill="white"/>
<path d="M83.3625 28.9051C83.3625 28.9051 82.8346 29.9737 81.8595 29.9737C81.0564 29.9737 80.0683 29.2646 80.0272 28.2382C80.0263 28.2287 80.0216 26.7516 80.0175 25.5171H79.745C79.6024 25.5171 79.3506 25.4322 79.3506 25.0611C79.3506 24.6904 79.6341 24.6117 79.7746 24.6117H80.0153C80.0139 24.18 80.0137 23.8834 80.0144 23.8649C80.0401 23.3325 80.5511 22.8845 81.0666 22.9104C81.5519 22.9347 82.0356 23.3551 82.0511 23.8649V24.6112H82.9103C83.0291 24.6112 83.3048 24.689 83.3048 25.067C83.3048 25.4448 83.0291 25.5171 82.8804 25.5171H82.0511V27.7842C82.0511 28.5199 82.6845 28.9017 83.3652 28.904" fill="white"/>
</g>
</svg>
