<svg width="85" height="37" viewBox="0 0 85 37" fill="none" xmlns="http://www.w3.org/2000/svg">
<g opacity="0.551595">
<path fill-rule="evenodd" clip-rule="evenodd" d="M57.816 35.3707C59.4414 36.0143 60.8821 36.3412 63.0682 36.5612H63.0686C63.5313 36.6079 66.3391 36.5519 66.8923 36.4846C69.9028 36.1208 72.9209 35.2681 75.388 34.084L75.9937 33.7937L78.0898 27.1181C79.385 22.9933 80.2473 20.3146 80.347 20.1077C80.8068 19.1511 81.5799 18.42 82.6467 17.9321C82.8507 17.8391 83.0177 17.7478 83.0177 17.7302C83.0181 17.7125 79.9348 17.6978 76.1666 17.6978C72.3981 17.6978 69.3156 17.7125 69.316 17.7302C69.3164 17.7478 69.4569 17.8404 69.6281 17.9354C70.0248 18.1554 70.506 18.6287 70.6882 18.9774C70.8888 19.361 70.9717 19.7594 70.9439 20.2052C70.9229 20.5371 70.7243 21.1975 68.887 27.0533C67.7689 30.6183 66.8288 33.5599 66.798 33.5902C66.6062 33.7815 64.6805 33.8703 63.8872 33.7239C62.5054 33.4694 61.4163 32.8035 60.6714 31.7582C58.8626 29.2213 58.9644 24.5349 60.9742 17.8273C61.6052 15.7191 62.229 14.1425 63.1363 12.359C63.806 11.0432 64.6671 9.6416 65.4486 8.59588C67.8543 5.37669 70.5641 3.50945 73.4867 3.05684C74.1395 2.95546 75.391 2.95672 76.0568 3.05936C78.1416 3.38031 80.2031 4.34569 82.1924 5.93152C82.4393 6.12922 82.6568 6.27434 82.6748 6.25542C82.7333 6.19442 84.1496 1.65525 84.1277 1.59888C84.0848 1.48741 81.8495 0.884208 80.4463 0.6049C78.2467 0.16785 76.581 0.001275 74.394 1.30626e-05C72.9483 -0.000828226 72.2626 0.0387123 71.0386 0.192668C67.0033 0.699965 63.3711 2.14278 60.2154 4.48997C58.3044 5.91175 56.4531 7.79455 55.2089 9.58229C53.2907 12.3392 51.9005 15.8663 51.2901 19.5259C50.6874 23.1418 50.9095 26.6079 51.9211 29.361C52.1474 29.9789 52.7077 31.097 53.0569 31.6295C54.2233 33.4084 55.6043 34.4941 57.816 35.3707ZM27.0627 33.1316C28.3154 35.2509 30.4573 36.432 33.3278 36.5864V36.5868C34.8408 36.668 36.1339 36.4829 37.7004 35.9601C39.0776 35.5007 40.7059 34.6935 42.0684 33.795C42.3342 33.6196 42.5811 33.4762 42.616 33.4762C42.651 33.4762 42.8613 33.644 43.0834 33.8493C44.132 34.8184 45.2236 35.7005 45.7166 35.9777L45.9581 36.1136L50.2015 36.1027C52.9929 36.0951 54.4454 36.0766 54.4462 36.048C54.4471 36.0244 54.2477 35.9256 54.0033 35.8284C51.4874 34.8311 48.3974 32.8809 46.653 31.19C46.3737 30.9191 46.1448 30.6679 46.1448 30.6318C46.1448 30.5956 46.2782 30.4185 46.441 30.238C47.8211 28.7069 48.6195 27.3049 49.0431 25.6656C49.1932 25.0826 49.3358 24.2636 49.3531 23.8796L49.3657 23.5986L47.1502 23.5872C45.9316 23.5809 44.9355 23.591 44.9359 23.6087C44.9363 23.6268 45.0339 23.7366 45.1517 23.8527C45.4083 24.1038 45.6093 24.4925 45.6741 24.8605C45.7641 25.3745 45.5816 26.4093 45.2627 27.1917C45.0049 27.824 44.6095 28.4629 44.5127 28.4032C44.4458 28.3615 43.8582 27.4651 43.4333 26.7543C42.3645 24.9682 41.7386 23.371 41.3663 21.4806C41.2855 21.0718 41.275 20.9502 41.3167 20.9086C41.3461 20.8791 41.9817 20.5624 42.73 20.2044C43.4784 19.846 44.2952 19.4447 44.5447 19.3118C46.5293 18.2577 47.9347 17.1497 48.8689 15.9037C49.2336 15.4175 49.6644 14.5383 49.8006 14.002C50.448 11.4584 48.8041 9.20077 45.8752 8.61102C45.1916 8.47347 43.9751 8.47305 43.2487 8.60976C41.9333 8.85794 40.6121 9.43675 39.6042 10.2065C38.2001 11.2779 37.1422 13.0442 36.5924 15.2337C36.2656 16.5347 36.0725 18.3376 36.1364 19.4948C36.1587 19.9015 36.1524 20.0269 36.1078 20.0622C36.0767 20.0875 35.5942 20.2683 35.0352 20.4648C32.8117 21.2463 31.7197 21.7364 30.4438 22.5259C28.2237 23.8989 26.7771 25.8078 26.351 27.9262C25.9665 29.838 26.2223 31.709 27.0627 33.1316ZM39.0338 32.2798C38.3162 32.5663 37.5359 32.7968 36.9007 32.91C35.0815 33.2347 33.5242 32.8254 32.5281 31.7612C31.9893 31.1853 31.6932 30.5035 31.5754 29.5679C31.3104 27.463 32.5037 25.4486 34.9931 23.7984C35.6935 23.334 36.5041 22.902 36.6029 22.9399C36.6387 22.9537 36.6921 23.0686 36.7215 23.1952C36.8149 23.5923 37.3029 25.041 37.5641 25.6951C38.2729 27.4694 39.3274 29.4476 40.3147 30.8543C40.5288 31.1597 40.6941 31.436 40.6815 31.4688C40.6495 31.5521 39.7552 31.9921 39.0338 32.2798ZM41.1261 18.2732C42.0473 17.734 43.5086 16.4245 44.326 15.4065C45.3721 14.1038 45.9282 12.8881 45.9286 11.9021C45.9286 11.3385 45.8487 11.0861 45.5879 10.8253C45.3284 10.5662 45.0356 10.4589 44.5884 10.4585C43.2617 10.4585 41.8269 12.0334 41.2018 14.1761C40.8863 15.2564 40.8098 15.8377 40.8077 17.1573C40.806 18.1651 40.8224 18.3893 40.8981 18.3893C40.9145 18.3893 41.0172 18.3372 41.1261 18.2732ZM0.0013444 36.0731C-0.0122594 36.0511 0.0789489 35.9743 0.203725 35.9024C0.948266 35.4738 1.78409 34.5846 2.13827 33.8434C2.24091 33.6288 11.6394 3.69579 11.8467 2.92223C11.8833 2.78678 11.914 2.50074 11.9145 2.28706C11.9174 1.63422 11.7147 1.16352 11.2372 0.711743C11.1068 0.588495 11.0004 0.469452 11.0004 0.447158C11.0004 0.387847 27.4118 0.392895 28.1644 0.452626C29.794 0.581764 31.4252 1.01503 32.6728 1.64936C34.803 2.73252 36.0784 4.3764 36.4704 6.54398C36.5798 7.14718 36.6008 8.48904 36.5112 9.13851C36.1461 11.786 34.9464 14.5943 33.3131 16.626C30.6672 19.9171 26.34 22.0216 21.0294 22.6004C19.346 22.7838 17.2247 22.8301 15.7226 22.7157C15.2885 22.6824 14.9242 22.6643 14.9132 22.6753C14.8598 22.7291 11.4715 33.6007 11.4328 33.8434C11.3134 34.5917 11.6987 35.433 12.3629 35.8738C12.4941 35.9609 12.59 36.0505 12.5766 36.0724C12.543 36.1265 0.0863924 36.1271 0.0013444 36.0731ZM0.0013444 36.0731C0.00130913 36.0731 0.00127594 36.0731 0.00124493 36.0731L0.00139553 36.0732C0.00137832 36.0732 0.00136128 36.0732 0.0013444 36.0731ZM22.0028 18.5113C20.9524 19.2504 19.8638 19.7072 18.6301 19.9259V19.9264C18.2797 19.9886 16.8268 20.0521 16.6635 20.0122C16.6278 20.0033 16.4271 19.973 16.2168 19.9444C16.0073 19.9158 15.8273 19.8704 15.8172 19.8435C15.8075 19.8166 16.9727 16.0594 18.4058 11.4941L21.0126 3.19397L22.134 3.18135C23.6214 3.1641 24.2398 3.24108 24.9641 3.53385C25.8075 3.87457 26.4713 4.56064 26.7973 5.42885C27.0169 6.01397 27.0959 6.53556 27.0959 7.40882C27.0964 8.54162 26.9222 9.64076 26.5133 11.0836C25.8714 13.3475 25.0756 15.0662 23.9937 16.5229C23.5613 17.1055 22.513 18.1525 22.0028 18.5113Z" fill="white"/>
</g>
</svg>
