<svg width="38" height="38" viewBox="0 0 38 38" fill="none" xmlns="http://www.w3.org/2000/svg">
<circle cx="19" cy="19" r="19" fill="#B0F560"/>
<path fill-rule="evenodd" clip-rule="evenodd" d="M13.5432 24.5294C16.0501 27 19.7444 30 23.1749 30C24.7582 30 26.1216 29.3824 27.2651 28.1029C28.5845 26.5147 29.1123 25.3235 28.9803 24.2647C28.8095 23.1505 27.8916 22.4942 27.2749 22.0532C27.2567 22.0402 27.2388 22.0273 27.2211 22.0147C27.1616 21.9749 27.0942 21.9297 27.0202 21.8801C26.2742 21.3799 24.8587 20.4308 24.0985 20.0294C23.7906 19.8529 23.3508 19.6765 22.8231 19.6765C21.9874 19.6765 21.2398 20.1176 20.5361 21.0441C20.5361 21.0882 20.4481 21.1765 20.4041 21.1765C19.9987 21.1765 19.2197 20.3893 18.7558 19.9206C18.7164 19.8808 18.6793 19.8433 18.6449 19.8088L18.2051 19.3676C17.7653 18.9706 16.7977 18 16.8417 17.6029C16.8564 17.5882 16.8662 17.5735 16.8759 17.5588C16.8955 17.5294 16.915 17.5 16.9737 17.4706C18.3371 16.4118 18.6889 15.2206 17.9852 13.8971C17.5851 13.1345 16.6389 11.7146 16.1403 10.9663C16.0908 10.892 16.0458 10.8244 16.0061 10.7647C15.5223 10.0588 14.7746 9 13.4112 9C12.4437 9 11.3442 9.57353 9.93678 10.7647C8.70533 11.8235 8.04562 13.1029 8.00164 14.6471C7.91368 18.3088 11.3881 22.4118 13.5432 24.5294ZM11.1682 12.1324C12.5316 10.9853 13.1913 10.8088 13.4552 10.8088C13.7631 10.8088 14.027 11.0735 14.5547 11.8235C14.9066 12.3088 16.0061 13.9853 16.4459 14.7794C16.6218 15.1324 16.7538 15.3971 15.9181 16.0147C15.2584 16.5 15.1265 17.0735 15.0825 17.4706C14.9973 18.6675 16.0269 19.6988 16.8911 20.5643C16.9188 20.5921 16.9463 20.6197 16.9737 20.6471L17.3695 21.0441C18.2051 21.8824 19.2606 22.9412 20.4481 22.9412C20.8879 22.9412 21.5037 22.8088 22.0314 22.1029C22.3393 21.6618 22.6471 21.4412 22.867 21.4412C22.999 21.4412 23.1309 21.4853 23.2629 21.5735C24.0545 22.0147 25.7258 23.1176 26.2096 23.4706C26.8253 23.8676 27.1332 24.1324 27.1771 24.4412C27.2211 24.7059 27.0892 25.3676 25.8577 26.8235C25.1101 27.7059 24.1865 28.1471 23.1309 28.1471C20.9319 28.1471 17.8973 26.3382 14.7746 23.2059C11.5641 19.9853 9.76086 16.8971 9.84882 14.6912C9.8928 13.6765 10.3326 12.8382 11.1682 12.1324Z" fill="black"/>
</svg>
