<svg width="38" height="38" viewBox="0 0 38 38" fill="none" xmlns="http://www.w3.org/2000/svg">
<circle cx="19" cy="19" r="19" fill="#B0F560"/>
<path fill-rule="evenodd" clip-rule="evenodd" d="M13.5432 22.5294C16.0501 25 19.7444 28 23.1749 28C24.7582 28 26.1216 27.3824 27.2651 26.1029C28.5845 24.5147 29.1123 23.3235 28.9803 22.2647C28.8095 21.1505 27.8916 20.4942 27.2749 20.0532C27.2567 20.0402 27.2388 20.0273 27.2211 20.0147C27.1616 19.9749 27.0942 19.9297 27.0202 19.8801C26.2742 19.3799 24.8587 18.4308 24.0985 18.0294C23.7906 17.8529 23.3508 17.6765 22.8231 17.6765C21.9874 17.6765 21.2398 18.1176 20.5361 19.0441C20.5361 19.0882 20.4481 19.1765 20.4041 19.1765C19.9987 19.1765 19.2197 18.3893 18.7558 17.9206C18.7164 17.8808 18.6793 17.8433 18.6449 17.8088L18.2051 17.3676C17.7653 16.9706 16.7977 16 16.8417 15.6029C16.8564 15.5882 16.8662 15.5735 16.8759 15.5588C16.8955 15.5294 16.915 15.5 16.9737 15.4706C18.3371 14.4118 18.6889 13.2206 17.9852 11.8971C17.5851 11.1345 16.6389 9.71459 16.1403 8.96626C16.0908 8.89203 16.0458 8.82442 16.0061 8.76471C15.5223 8.05882 14.7746 7 13.4112 7C12.4437 7 11.3442 7.57353 9.93678 8.76471C8.70533 9.82353 8.04562 11.1029 8.00164 12.6471C7.91368 16.3088 11.3881 20.4118 13.5432 22.5294ZM11.1682 10.1324C12.5316 8.98529 13.1913 8.80882 13.4552 8.80882C13.7631 8.80882 14.027 9.07353 14.5547 9.82353C14.9066 10.3088 16.0061 11.9853 16.4459 12.7794C16.6218 13.1324 16.7538 13.3971 15.9181 14.0147C15.2584 14.5 15.1265 15.0735 15.0825 15.4706C14.9973 16.6675 16.0269 17.6988 16.8911 18.5643C16.9188 18.5921 16.9463 18.6197 16.9737 18.6471L17.3695 19.0441C18.2051 19.8824 19.2606 20.9412 20.4481 20.9412C20.8879 20.9412 21.5037 20.8088 22.0314 20.1029C22.3393 19.6618 22.6471 19.4412 22.867 19.4412C22.999 19.4412 23.1309 19.4853 23.2629 19.5735C24.0545 20.0147 25.7258 21.1176 26.2096 21.4706C26.8253 21.8676 27.1332 22.1324 27.1771 22.4412C27.2211 22.7059 27.0892 23.3676 25.8577 24.8235C25.1101 25.7059 24.1865 26.1471 23.1309 26.1471C20.9319 26.1471 17.8973 24.3382 14.7746 21.2059C11.5641 17.9853 9.76086 14.8971 9.84882 12.6912C9.8928 11.6765 10.3326 10.8382 11.1682 10.1324Z" fill="black"/>
</svg>
