<svg width="23" height="23" viewBox="0 0 23 23" fill="none" xmlns="http://www.w3.org/2000/svg">
<circle cx="11.5" cy="11.5" r="11.5" fill="#B0F560"/>
<path fill-rule="evenodd" clip-rule="evenodd" d="M7.81964 16.0999C8.05507 16.0999 8.29051 16.0101 8.47016 15.8305L14.2596 10.041V15.1799C14.2596 15.688 14.6715 16.0999 15.1796 16.0999C15.6877 16.0999 16.0996 15.688 16.0996 15.1799V7.82433C16.0997 7.80876 16.0994 7.79315 16.0987 7.77759C16.0939 7.67176 16.0712 7.57059 16.0336 7.47701C15.9896 7.36745 15.9238 7.2646 15.836 7.17527C15.836 7.17524 15.836 7.17524 15.8359 7.17522C15.8353 7.1746 15.8347 7.17399 15.8341 7.17337C15.8338 7.17308 15.8336 7.17279 15.8333 7.17253C15.8329 7.17218 15.8325 7.17176 15.8322 7.1714C15.8315 7.17081 15.831 7.17019 15.8304 7.16959L15.8302 7.16939L15.8281 7.16732C15.828 7.16723 15.8279 7.16712 15.8278 7.16703C15.8272 7.16648 15.8266 7.1659 15.8261 7.16535C15.8257 7.16496 15.8253 7.16454 15.8249 7.16416L15.8242 7.16345C15.8236 7.16292 15.8231 7.16237 15.8225 7.16186C15.8224 7.16175 15.8223 7.16167 15.8222 7.16155C15.7362 7.07754 15.6378 7.01377 15.533 6.97023C15.4359 6.92983 15.3305 6.90558 15.22 6.90079C15.2051 6.90013 15.1901 6.89986 15.1751 6.89991H7.81961C7.31151 6.89991 6.89961 7.31181 6.89961 7.81991C6.89961 8.32802 7.31151 8.73992 7.81961 8.73992H12.9585L7.16907 14.5294C6.80981 14.8887 6.80981 15.4711 7.16907 15.8304C7.34871 16.0101 7.58418 16.0999 7.81964 16.0999Z" fill="black"/>
</svg>
