<svg width="137" height="29" viewBox="0 0 137 29" fill="none" xmlns="http://www.w3.org/2000/svg">
<path fill-rule="evenodd" clip-rule="evenodd" d="M31.876 27.2217H32.7944V20.8057H31.876V27.2217Z" fill="white"/>
<path fill-rule="evenodd" clip-rule="evenodd" d="M43.1354 24.426V27.2216H42.2534V24.527C42.2534 23.5733 41.7946 23.1058 40.9953 23.1058C40.1137 23.1058 39.5347 23.6651 39.5347 24.719V27.2216H38.6531V24.527C38.6531 23.5733 38.1939 23.1058 37.3949 23.1058C36.513 23.1058 35.9347 23.6651 35.9347 24.719V27.2216H35.0527V22.3638H35.8978V23.0876C36.2465 22.5926 36.8438 22.3174 37.5788 22.3174C38.3226 22.3174 38.9471 22.6111 39.2686 23.2161C39.6359 22.6661 40.3158 22.3174 41.1423 22.3174C42.3271 22.3174 43.1354 22.9959 43.1354 24.426Z" fill="white"/>
<path fill-rule="evenodd" clip-rule="evenodd" d="M49.3683 24.7925C49.3683 23.7657 48.6609 23.0872 47.7242 23.0872C46.7965 23.0872 46.0891 23.7657 46.0891 24.7925C46.0891 25.8283 46.7965 26.5064 47.7242 26.5064C48.6609 26.5064 49.3683 25.8283 49.3683 24.7925ZM50.2592 24.7925C50.2592 26.2865 49.2213 27.2762 47.7979 27.2762C47.1091 27.2762 46.5029 27.0103 46.0988 26.4878V28.9997H45.2168V22.3634H46.0619V23.1337C46.4563 22.5926 47.0812 22.3174 47.7979 22.3174C49.2213 22.3174 50.2592 23.3074 50.2592 24.7925Z" fill="white"/>
<path fill-rule="evenodd" clip-rule="evenodd" d="M55.6584 24.7925C55.6584 23.7564 54.9603 23.0872 54.0232 23.0872C53.0866 23.0872 52.3792 23.7564 52.3792 24.7925C52.3792 25.8283 53.0866 26.5064 54.0232 26.5064C54.9603 26.5064 55.6584 25.8283 55.6584 24.7925ZM51.4883 24.7925C51.4883 23.3442 52.563 22.3174 54.0232 22.3174C55.4839 22.3174 56.5493 23.3442 56.5493 24.7925C56.5493 26.2405 55.4839 27.2762 54.0232 27.2762C52.563 27.2762 51.4883 26.2405 51.4883 24.7925Z" fill="white"/>
<path fill-rule="evenodd" clip-rule="evenodd" d="M60.8461 22.3179V23.1701C60.7728 23.1612 60.7088 23.1612 60.644 23.1612C59.6981 23.1612 59.1105 23.7387 59.1105 24.8019V27.2217H58.2285V22.3639H59.0736V23.1798C59.3858 22.6113 59.992 22.3179 60.8461 22.3179Z" fill="white"/>
<path fill-rule="evenodd" clip-rule="evenodd" d="M65.3267 26.9376C65.0603 27.1667 64.6562 27.2762 64.2613 27.2762C63.2785 27.2762 62.7185 26.7359 62.7185 25.7548V23.0877H61.8916V22.3639H62.7185V21.3003H63.6001V22.3639H64.9963V23.0877H63.6001V25.7184C63.6001 26.2409 63.8758 26.5343 64.3626 26.5343C64.6193 26.5343 64.8679 26.4518 65.0514 26.3048L65.3267 26.9376Z" fill="white"/>
<path fill-rule="evenodd" clip-rule="evenodd" d="M77.5027 26.424V27.2217H72.8369V20.8057H77.3739V21.603H73.7553V23.5734H76.9791V24.3525H73.7553V26.424H77.5027Z" fill="white"/>
<path fill-rule="evenodd" clip-rule="evenodd" d="M82.3137 27.2216L80.9085 25.361L79.4851 27.2216H78.502L80.4218 24.7375L78.5939 22.3638H79.5767L80.9178 24.114L82.2493 22.3638H83.2139L81.377 24.7375L83.3151 27.2216H82.3137Z" fill="white"/>
<path fill-rule="evenodd" clip-rule="evenodd" d="M88.8888 24.7925C88.8888 23.7657 88.1814 23.0872 87.2447 23.0872C86.317 23.0872 85.6096 23.7657 85.6096 24.7925C85.6096 25.8283 86.317 26.5064 87.2447 26.5064C88.1814 26.5064 88.8888 25.8283 88.8888 24.7925ZM89.7797 24.7925C89.7797 26.2865 88.7418 27.2762 87.3184 27.2762C86.6296 27.2762 86.0234 27.0103 85.6193 26.4878V28.9997H84.7373V22.3634H85.5824V23.1337C85.9769 22.5926 86.6017 22.3174 87.3184 22.3174C88.7418 22.3174 89.7797 23.3074 89.7797 24.7925Z" fill="white"/>
<path fill-rule="evenodd" clip-rule="evenodd" d="M95.1789 24.7925C95.1789 23.7564 94.4808 23.0872 93.5437 23.0872C92.6071 23.0872 91.8997 23.7564 91.8997 24.7925C91.8997 25.8283 92.6071 26.5064 93.5437 26.5064C94.4808 26.5064 95.1789 25.8283 95.1789 24.7925ZM91.0088 24.7925C91.0088 23.3442 92.0835 22.3174 93.5437 22.3174C95.0044 22.3174 96.0698 23.3442 96.0698 24.7925C96.0698 26.2405 95.0044 27.2762 93.5437 27.2762C92.0835 27.2762 91.0088 26.2405 91.0088 24.7925Z" fill="white"/>
<path fill-rule="evenodd" clip-rule="evenodd" d="M100.366 22.3179V23.1701C100.292 23.1612 100.228 23.1612 100.164 23.1612C99.2176 23.1612 98.63 23.7387 98.63 24.8019V27.2217H97.748V22.3639H98.5932V23.1798C98.9054 22.6113 99.5116 22.3179 100.366 22.3179Z" fill="white"/>
<path fill-rule="evenodd" clip-rule="evenodd" d="M104.846 26.9376C104.58 27.1667 104.176 27.2762 103.781 27.2762C102.798 27.2762 102.238 26.7359 102.238 25.7548V23.0877H101.411V22.3639H102.238V21.3003H103.12V22.3639H104.516V23.0877H103.12V25.7184C103.12 26.2409 103.395 26.5343 103.882 26.5343C104.139 26.5343 104.387 26.4518 104.571 26.3048L104.846 26.9376Z" fill="white"/>
<path fill-rule="evenodd" clip-rule="evenodd" d="M0.101562 12.3794L1.11073 10.1454C2.19359 10.933 3.80858 11.4822 5.35026 11.4822C7.11184 11.4822 7.82742 10.8963 7.82742 10.1086C7.82742 7.70935 0.358315 9.35815 0.358315 4.59636C0.358315 2.41692 2.12029 0.604004 5.77223 0.604004C7.38682 0.604004 9.03904 0.988725 10.2313 1.7392L9.31363 3.99218C8.1214 3.31447 6.89155 2.9851 5.754 2.9851C3.99203 2.9851 3.31291 3.64423 3.31291 4.44967C3.31291 6.81218 10.782 5.18234 10.782 9.88918C10.782 12.0315 9.0022 13.863 5.33164 13.863C3.29507 13.863 1.23911 13.2588 0.101562 12.3794Z" fill="white"/>
<path fill-rule="evenodd" clip-rule="evenodd" d="M25.4244 13.6434L25.4062 5.95167L21.6255 12.288H20.2858L16.5237 6.11655V13.6434H13.7344V0.82373H16.1933L21.0018 8.79025L25.7362 0.82373H28.1773L28.2134 13.6434H25.4244Z" fill="white"/>
<path fill-rule="evenodd" clip-rule="evenodd" d="M39.6988 8.64356L37.6614 3.73585L35.6249 8.64356H39.6988ZM40.6347 10.8962H34.6704L33.5325 13.6434H30.4863L36.2117 0.82373H39.148L44.892 13.6434H41.7726L40.6347 10.8962Z" fill="white"/>
<path fill-rule="evenodd" clip-rule="evenodd" d="M52.5428 3.2412H50.1207V7.70923H52.5428C54.3594 7.70923 55.2771 6.86703 55.2771 5.47522C55.2771 4.06522 54.3594 3.2412 52.5428 3.2412ZM55.3321 13.6434L52.855 10.0717H52.708H50.1207V13.6434H47.1475V0.82373H52.708C56.1396 0.82373 58.2867 2.60026 58.2867 5.47522C58.2867 7.39844 57.314 8.80844 55.644 9.52253L58.5253 13.6434H55.3321Z" fill="white"/>
<path fill-rule="evenodd" clip-rule="evenodd" d="M64.0278 3.2412H59.917V0.82373H71.1113V3.2412H67.0006V13.6434H64.0278V3.2412Z" fill="white"/>
<path fill-rule="evenodd" clip-rule="evenodd" d="M82.7066 3.20444V6.59261H88.6523V8.97332H82.7066V13.643H79.7334V0.82373H89.4419V3.20444H82.7066Z" fill="white"/>
<path fill-rule="evenodd" clip-rule="evenodd" d="M104.066 13.6434L104.047 5.95167L100.267 12.288H98.9271L95.165 6.11655V13.6434H92.376V0.82373H94.8345L99.643 8.79025L104.378 0.82373H106.819L106.855 13.6434H104.066Z" fill="white"/>
<path fill-rule="evenodd" clip-rule="evenodd" d="M110.008 7.23377C110.008 3.36992 112.981 0.604492 116.981 0.604492C119.202 0.604492 121.056 1.41032 122.266 2.87489L120.358 4.63323C119.495 3.64433 118.413 3.1315 117.128 3.1315C114.724 3.1315 113.017 4.81669 113.017 7.23377C113.017 9.65086 114.724 11.3357 117.128 11.3357C118.413 11.3357 119.495 10.8232 120.358 9.81574L122.266 11.5741C121.056 13.0572 119.202 13.8631 116.963 13.8631C112.981 13.8631 110.008 11.0976 110.008 7.23377Z" fill="white"/>
<mask id="mask0_154_6986" style="mask-type:luminance" maskUnits="userSpaceOnUse" x="124" y="0" width="13" height="14">
<path fill-rule="evenodd" clip-rule="evenodd" d="M124.1 0.604492H136.541V13.8631H124.1V0.604492Z" fill="white"/>
</mask>
<g mask="url(#mask0_154_6986)">
<path fill-rule="evenodd" clip-rule="evenodd" d="M133.587 7.03251H136.304V12.2336C134.89 13.2953 132.945 13.8631 131.11 13.8631C127.073 13.8631 124.1 11.0976 124.1 7.23377C124.1 3.36992 127.073 0.604492 131.165 0.604492C133.422 0.604492 135.294 1.37355 136.542 2.82032L134.633 4.57827C133.698 3.58937 132.614 3.1315 131.312 3.1315C128.815 3.1315 127.109 4.79811 127.109 7.23377C127.109 9.63306 128.815 11.3357 131.275 11.3357C132.083 11.3357 132.835 11.1897 133.587 10.7868V7.03251Z" fill="white"/>
</g>
<mask id="mask1_154_6986" style="mask-type:luminance" maskUnits="userSpaceOnUse" x="0" y="0" width="137" height="29">
<path fill-rule="evenodd" clip-rule="evenodd" d="M0 28.9998H136.542V0.604004H0V28.9998Z" fill="white"/>
</mask>
<g mask="url(#mask1_154_6986)">
<path fill-rule="evenodd" clip-rule="evenodd" d="M0 25.1115H24.5808V24.4307H0V25.1115Z" fill="white"/>
<path fill-rule="evenodd" clip-rule="evenodd" d="M111.604 25.1115H136.185V24.4307H111.604V25.1115Z" fill="white"/>
</g>
</svg>
