<svg width="57" height="63" viewBox="0 0 57 63" fill="none" xmlns="http://www.w3.org/2000/svg">
<g opacity="0.551595">
<path fill-rule="evenodd" clip-rule="evenodd" d="M49.4601 9.44807C49.4601 10.7139 47.8113 12.1527 46.0099 12.1527C45.3343 12.1527 44.8655 11.9452 44.8655 11.4594C44.8655 11.2509 45.0388 10.8528 45.6118 10.8528C47.1907 10.8528 48.6447 9.79471 48.6447 8.84091C48.6447 8.56415 48.5924 8.44282 48.4713 8.28656C49.1819 8.37294 49.4601 8.85796 49.4601 9.44807ZM45.8716 12.8812C46.0977 14.5277 48.5924 16.7473 49.2692 16.6953C49.7206 16.6565 49.8939 14.545 49.8939 12.8812C49.8939 12.7974 49.8943 12.7151 49.8947 12.6348C49.8988 11.8013 49.9019 11.1665 49.443 11.0077C48.6447 12.6206 46.5489 12.9505 45.8716 12.8812ZM22.8702 61.4319C23.3599 61.4319 24.202 61.2732 24.8645 60.2118C24.4856 59.37 24.216 57.669 24.1772 57.05C23.9819 53.8821 25.2026 50.9021 26.5391 50.8204C27.5179 50.7613 28.3014 51.6881 28.3916 53.1891C28.5927 56.4935 27.7047 58.1867 27.0243 59.4839L27.0243 59.4839L27.0243 59.4839L27.0243 59.484L27.0242 59.484L27.0241 59.4843L27.0239 59.4846L27.0238 59.4849C26.8916 59.7369 26.7673 59.9739 26.6604 60.2049C26.7715 60.7563 27.7052 61.6944 28.5875 61.6944C28.9132 61.6944 29.3075 61.5312 29.4062 61.3992C29.3402 61.172 29.2742 60.8773 29.2742 60.4514C29.2742 58.1642 30.7449 56.2362 32.0192 56.2362C33.0322 56.2362 33.6198 57.5757 33.6198 58.4597C33.6198 59.5037 32.7375 60.3552 31.4313 61.1722C31.6608 61.3992 32.0836 61.5645 32.4443 61.5645C34.3079 61.5645 35.2834 59.3092 36.0058 57.25C36.1365 56.8566 36.3657 56.3014 36.8221 56.3014C37.1652 56.3014 37.4208 57.2872 37.7088 58.3972C38.0798 59.8276 38.5043 61.4644 39.2384 61.4644C39.7949 61.4644 40.2522 60.3199 40.2522 59.4399C40.2522 59.1434 40.2052 58.9679 40.1538 58.7761C40.092 58.5451 40.0238 58.2906 40.0238 57.7724C40.0238 56.7281 40.5795 55.8467 41.332 55.8467C41.7892 55.8467 41.954 56.3014 41.954 56.8563C41.954 58.9477 40.4497 62.8366 38.2301 62.8366C37.1826 62.8366 36.8438 61.7043 36.5916 60.8609C36.4419 60.3604 36.3226 59.9618 36.1038 59.9618C35.9 59.9618 35.6712 60.2423 35.3558 60.6292C34.6557 61.4878 33.5287 62.8699 31.3006 62.8699C30.7752 62.8699 30.2217 62.6086 29.7655 62.0848C28.9815 62.6089 28.3262 62.8366 27.5746 62.8366C26.837 62.8366 26.3548 62.3733 25.9795 62.0128C25.7405 61.7831 25.5448 61.5951 25.3542 61.5951C25.1456 61.5951 24.9292 61.7548 24.6496 61.9613C24.1394 62.3379 23.4187 62.8699 22.1511 62.8699C21.1674 62.8699 20.6977 62.0476 20.3476 61.4346C20.1396 61.0705 19.9738 60.7802 19.7675 60.7802C19.5528 60.7802 19.2886 61.1791 18.991 61.6283C18.6075 62.2073 18.1685 62.8699 17.7089 62.8699C16.9998 62.8699 16.579 61.9048 16.1714 60.9702C15.789 60.0932 15.4183 59.2432 14.8323 59.2432C14.3526 59.2432 13.3486 60.187 12.3686 61.1083C11.4127 62.007 10.4796 62.8843 10.0784 62.8427C9.75105 62.8086 9.61405 62.5637 9.64843 62.2372C9.68218 61.9034 9.9034 61.1556 10.0805 60.5568L10.0806 60.5564C10.1432 60.345 10.2002 60.1522 10.2416 60.0027C10.3391 59.6359 10.4337 59.256 10.521 58.9052L10.5211 58.9051L10.5211 58.905L10.5211 58.9048L10.5212 58.9048C10.6703 58.3058 10.7983 57.7917 10.8837 57.5724C11.0182 57.2228 11.3813 56.9724 11.6721 56.9996C11.8098 57.0125 11.8574 57.2538 11.8999 57.4697L11.9085 57.5127C12.0732 58.3204 12.3041 59.1444 12.5638 59.1444C12.7559 59.1444 13.1338 58.6337 13.5729 58.0404C14.1816 57.2177 14.9079 56.2362 15.42 56.2362C15.9186 56.2362 16.2146 57.2113 16.5334 58.2611C16.9051 59.4853 17.3077 60.8113 18.0984 60.8113C18.5898 60.8113 18.9504 60.2245 19.2759 59.5037C19.3095 58.2924 19.6355 56.565 20.6157 56.565C21.3029 56.565 21.6303 58.099 21.1381 59.4399C21.1381 61.0399 22.183 61.4317 22.8702 61.4317V61.4319ZM49.0083 57.5119C48.6034 59.1912 47.3758 61.6619 45.5442 61.6619C45.1205 61.6619 44.3681 61.4977 44.3681 61.0726C44.3681 60.9289 44.6514 60.8241 45.0401 60.6802C45.8904 60.3656 47.2452 59.8642 47.2452 58.3609C47.2452 57.5452 46.4941 56.4002 45.3827 56.4002C43.9125 56.4002 42.4781 58.0024 42.4781 60.2242C42.4781 62.216 43.7158 62.8699 44.9565 62.8699C47.1148 62.8699 48.4207 61.1037 49.1066 59.6344C49.1951 59.899 49.2738 60.2566 49.3578 60.6377C49.5847 61.668 49.8494 62.8699 50.4474 62.8699C50.7732 62.8699 51.0032 62.706 51.3966 61.8251C51.4984 61.5966 51.5999 61.3647 51.7016 61.1324C52.5749 59.1372 53.4582 57.1193 54.6302 57.1193C54.8218 57.1193 54.8933 57.255 54.9803 57.42C55.1151 57.676 55.2871 58.0024 56.0022 58.0024C56.5565 58.0024 56.9469 57.5452 56.9469 57.0197C56.9469 56.2679 56.2619 55.6819 55.217 55.6819C53.0231 55.6819 52.0637 58.0335 51.5158 59.3765C51.2968 59.9132 51.1435 60.2889 51.0034 60.2889C50.5611 60.2889 50.4347 59.209 50.3186 58.2173C50.22 57.3753 50.1289 56.5969 49.8582 56.5969C49.3349 56.5969 49.0785 57.2203 49.0083 57.5119ZM26.5655 52.7789C27.0557 52.7462 27.2766 53.1583 27.3336 54.0708V54.0711C27.4587 56.0945 26.5949 58.6035 26.2351 58.6242C26.0406 58.6376 25.8315 58.4214 25.7467 57.0175C25.6136 54.8662 25.9146 52.8185 26.5655 52.7789ZM22.0198 52.1522C21.9739 51.629 21.5632 51.2713 21.0074 51.2713C20.3871 51.2713 19.8033 51.9222 19.8654 52.7399C19.9051 53.278 20.2231 53.722 20.8465 53.722C21.5634 53.722 22.0859 52.9049 22.0198 52.1522ZM31.5309 57.8057C31.8877 57.8057 32.1832 58.263 32.1832 58.8173C32.1832 59.471 31.9205 60.2572 30.9744 60.5516C30.8415 60.3854 30.5499 59.9967 30.5499 59.1771C30.5499 58.1306 31.2338 57.8057 31.5309 57.8057ZM44.9565 57.7094C45.6438 57.7094 45.8405 58.5227 45.6773 59.014C45.5123 59.5037 44.9254 60.0611 44.0102 60.2245C43.8137 59.7331 43.7158 57.7094 44.9565 57.7094ZM7.23509 55.1016C7.27553 55.2153 7.31068 55.3143 7.33449 55.3894H7.33476C7.49955 55.911 7.69461 56.7281 7.4349 58.4261C7.1067 60.5516 6.32319 62.0218 4.55918 61.9885C3.38309 61.9885 2.30246 61.0726 2.17399 58.7207C2.04193 56.4981 2.20755 55.552 2.56602 53.5919C2.72916 52.7066 2.79381 51.9563 2.07522 52.087C1.16186 52.2821 0.899128 52.6427 0.605311 53.6565C0.0495895 55.552 -0.0455984 56.8907 0.0165763 58.2302C0.148629 61.0726 1.42156 62.936 4.29783 62.999C7.62996 63.0661 8.97029 59.8308 9.09904 57.1512C9.19808 55.1905 9.16507 53.8191 8.8707 52.7742C8.64374 52.087 8.41429 51.7924 7.82583 51.9563C7.30175 52.1211 6.73117 52.8403 6.89431 53.9319C6.95021 54.2999 7.11571 54.7656 7.23509 55.1016ZM45.6289 10.1936C45.3865 10.1936 45.0388 10.1936 44.8476 9.81259C44.7882 9.69387 44.7589 9.54766 44.7292 9.39963C44.6808 9.15799 44.6314 8.91147 44.4487 8.77158C44.7433 8.85796 45.0559 8.85796 45.2993 8.85796C45.7203 8.85796 46.1312 8.70196 46.5101 8.55807C46.8344 8.43493 47.1354 8.32067 47.3992 8.32067C47.777 8.32067 47.8983 8.56415 47.8983 8.80597C47.8983 9.57022 46.3582 10.1936 45.6289 10.1936ZM7.36338 22.3062C7.22725 23.0881 7.10573 23.7862 6.84672 23.7862C6.69046 23.7862 6.50008 23.7163 6.50008 22.9009C6.50008 22.4074 6.52904 22.0445 6.54946 21.7887C6.56056 21.6496 6.56913 21.5421 6.56913 21.4627C6.56913 21.3243 6.51714 21.22 6.36088 21.22C5.82359 21.22 5.39056 23.1441 5.39056 25.0512C5.39056 27.2023 5.80653 28.5357 6.34382 28.5357C6.88001 28.5357 7.64371 27.2358 7.64371 26.7508C7.64371 26.5815 7.56377 26.4587 7.45906 26.2977C7.43478 26.2604 7.40917 26.221 7.38291 26.1786C6.96722 25.5024 7.36613 24.7403 7.69653 24.7403C7.96831 24.7403 8.08222 24.8857 8.25649 25.1081C8.3703 25.2534 8.50984 25.4315 8.7359 25.6234C8.96231 25.8146 9.0476 26.0231 9.0476 26.2647C9.0476 26.7474 8.64815 27.3072 8.16237 27.988C7.40871 29.0443 6.44726 30.3917 6.44726 32.1944C6.44726 34.7798 7.92196 35.7625 8.791 36.3416C9.07596 36.5315 9.29579 36.678 9.37718 36.8234C10.2587 35.222 9.4505 34.4902 8.61026 33.7294C7.73133 32.9336 6.81732 32.106 7.76558 30.218C8.18073 31.0852 8.63163 31.1891 9.74197 31.2585C9.06465 30.6681 8.97909 30.1831 8.97909 29.7151C8.97909 28.8982 9.7056 27.5059 10.2809 26.4033C10.3527 26.2658 10.4221 26.1327 10.4875 26.0058C11.2493 24.5312 12.117 22.3295 12.117 21.3933C12.117 20.9944 11.9607 20.8032 11.7874 20.8032C11.5968 20.8032 11.3885 21.0637 11.2322 21.5496C10.9555 22.4858 10.0886 24.3576 9.65476 24.3576C9.56838 24.3576 9.53344 24.2707 9.53344 24.1673C9.53344 23.8466 9.77116 23.1403 10.0212 22.3973C10.2985 21.5733 10.591 20.7042 10.591 20.2668C10.591 20.0406 10.4875 19.8153 10.2619 19.8153C9.85908 19.8153 9.45084 21.0895 9.09687 22.1944C8.82598 23.0399 8.58688 23.7862 8.40631 23.7862C8.25005 23.7862 8.16367 23.6822 8.16367 23.3524C8.16367 23.0407 8.25302 22.6083 8.34712 22.153C8.45178 21.6466 8.5623 21.1118 8.5623 20.683C8.5623 20.4051 8.49352 20.1795 8.26793 20.1795C7.7336 20.1795 7.53666 21.3108 7.36338 22.3062Z" fill="white"/>
<path fill-rule="evenodd" clip-rule="evenodd" d="M9.68947 10.4016C9.68823 10.7426 9.63584 11.0814 9.53404 11.4069C8.33704 11.4069 6.96699 10.8528 6.96699 9.48274C6.96699 8.84063 7.45366 8.30334 8.12933 8.30334C9.3079 8.30334 9.68947 9.56967 9.68947 10.4016ZM37.5341 9.34436C37.6068 9.29557 37.762 9.2884 37.9828 9.27819C38.4306 9.25749 39.1482 9.22432 39.9947 8.80625C40.1321 8.7283 40.2871 8.68664 40.4451 8.6852C40.7558 8.6852 40.8667 8.86626 40.9751 9.04332C41.0789 9.21273 41.1804 9.37847 41.4525 9.37847C41.6838 9.37847 41.9501 9.2745 42.1983 9.17761C42.4148 9.09309 42.6175 9.01395 42.7711 9.01395C43.2883 9.01395 44.0339 10.6443 44.0339 11.4069C44.0339 12.2916 42.7018 12.8286 41.1221 12.8286C38.8186 12.8286 37.4293 10.8184 37.4293 9.51768C37.4293 9.41341 37.4821 9.37847 37.5341 9.34436ZM42.6498 10.9909C42.6498 11.1994 42.0767 11.5461 41.3133 11.5461C40.0291 11.5461 39.1955 10.8525 39.1955 10.4016C39.1955 10.3496 39.2307 10.3152 39.2998 10.3152C39.3896 10.3152 39.5439 10.3667 39.7488 10.435C40.0192 10.5251 40.3778 10.6446 40.7925 10.7141C41.6429 10.8525 42.0938 10.8698 42.3194 10.8698C42.5455 10.8698 42.6498 10.9224 42.6498 10.9909ZM12.6018 27.1324C12.6018 28.3275 11.996 28.8656 11.267 28.8656C10.7998 28.8656 10.331 28.5008 10.331 27.8595C10.331 27.7731 10.3828 27.4614 10.4873 27.4614C10.5388 27.4614 10.5855 27.5114 10.6442 27.5742C10.7437 27.6808 10.8779 27.8246 11.1294 27.8246C11.892 27.8246 11.944 27.0807 11.944 25.5896C11.944 23.8729 12.6538 21.9127 14.9427 20.4395C14.5782 21.0637 14.4918 21.8786 14.4918 22.3815C14.4918 24.032 15.6063 25.6227 16.5872 27.0226C17.358 28.1226 18.0462 29.1049 18.0462 29.9058C18.0462 30.6505 17.5084 31.4838 16.521 31.4838C15.6533 31.4838 15.1859 30.7897 15.1859 30.2183C15.1859 29.7666 15.4984 29.4199 15.6019 29.4199C15.6533 29.4199 15.6712 29.454 15.6712 29.5754C15.6712 29.8186 15.8616 30.1311 16.2613 30.1311C16.6253 30.1311 16.8674 29.8708 16.8674 29.541C16.8674 28.9767 16.4164 28.247 15.8684 27.3601C15.0194 25.9863 13.9374 24.2354 13.9374 22.1383C13.7812 22.5199 13.5908 23.0052 13.5908 23.7345C13.5908 24.5798 13.9041 25.4433 14.2123 26.2929C14.5107 27.1155 14.8043 27.9249 14.8043 28.692C14.8043 29.3335 14.302 29.9058 13.6769 29.9058C12.9492 29.9058 12.689 29.3335 12.689 28.9696C12.689 28.7264 12.793 28.5008 12.8623 28.5008C12.89 28.5008 12.9053 28.5377 12.9262 28.588C12.971 28.6959 13.0414 28.8656 13.314 28.8656C13.7292 28.8656 13.8854 28.5701 13.8854 28.0336C13.8854 27.3207 13.6812 26.7097 13.475 26.0932C13.2652 25.4657 13.0535 24.8325 13.0535 24.0803C13.0535 23.8556 13.0535 23.6124 13.1055 23.3868C12.6541 23.9249 12.6018 24.6875 12.6018 25.3632V27.1324ZM10.1404 37.8644C10.1404 36.4407 11.0598 35.5406 11.6315 35.4014C11.0249 37.9335 12.377 40.4309 15.1515 40.4309C16.5386 40.4309 17.2143 39.7184 17.2143 38.4886C17.2143 37.118 16.2954 35.7488 14.752 35.7488C13.9721 35.7488 13.4343 36.1997 13.4343 36.8226C13.4343 37.8644 14.2846 38.5236 15.1686 38.5236C15.7573 38.5236 16.1397 38.2804 16.1397 37.8815C16.1397 37.8121 16.1218 37.7252 16.0877 37.6732C16.0175 37.7081 15.8792 37.7423 15.7058 37.7423C14.9952 37.7423 14.423 37.3255 14.423 36.9098C14.423 36.5799 14.6478 36.3733 14.9603 36.3733C16.0005 36.3733 16.7111 37.4476 16.7111 38.2281C16.7111 39.0251 16.1397 39.7186 15.1686 39.7186C13.1052 39.7186 12.2386 38.0028 12.2386 36.8575C12.2386 35.6278 13.2615 34.7942 14.406 34.7942C16.5037 34.7942 18.1153 36.6322 18.1153 39.2504C18.1153 40.4306 17.4908 42.1814 14.9603 42.1814C11.9611 42.1814 10.1404 39.5629 10.1404 37.8644ZM30.0778 42.0945C30.0789 42.4771 30.3888 42.787 30.7714 42.788C31.1538 42.787 31.4636 42.4772 31.4647 42.0948C31.4638 41.7121 31.1541 41.4019 30.7714 41.4004C30.3887 41.4019 30.079 41.7121 30.0781 42.0948L30.0778 42.0945ZM32.2532 45.5108C32.1286 45.5313 31.9549 45.5598 31.422 45.5598C30.4512 45.5598 28.8984 45.1779 28.1878 43.5152C28.0668 43.2376 27.8591 43.2376 27.79 43.2376C27.6517 43.2376 27.4921 43.3772 27.264 43.5768C26.6919 44.0772 25.6888 44.9548 23.5077 44.9548C22.2243 44.9548 21.635 44.486 21.635 44.3641C21.635 44.3468 21.635 44.3298 21.7041 44.3298C21.7422 44.3298 21.8142 44.3349 21.913 44.3419C22.1304 44.3573 22.4779 44.382 22.8837 44.382C24.8076 44.382 26.3688 43.4978 27.3047 42.4763C27.6338 42.1118 27.79 42.0596 28.0665 42.0596C28.31 42.0596 28.5689 42.2681 28.691 42.5977C29.1249 43.7064 30.1128 44.5903 31.1874 44.5903C32.1831 44.5903 32.5063 43.4245 32.7216 42.6478C32.8213 42.288 32.8979 42.0118 33.0075 41.9734C33.0603 41.9905 33.1464 42.0076 33.2166 42.0076C33.3891 42.0076 33.668 41.8862 33.668 41.5561C33.668 41.3351 33.4918 41.2126 33.3413 41.108C33.2555 41.0483 33.1781 40.9945 33.1464 40.9316C33.0912 40.8271 33.0677 40.6979 33.0444 40.5702C32.9947 40.2972 32.9464 40.0314 32.5921 40.0314C32.253 40.0314 32.2122 40.297 32.1779 40.5199L32.1755 40.5349C31.4306 40.309 30.8055 40.2048 30.2512 40.2048C29.8525 40.2048 29.5056 40.2568 29.211 40.361C29.0027 40.0136 28.1537 39.3371 27.409 39.0939C27.1141 40.6557 25.7094 41.8862 23.6284 42.0596C23.5077 43.0813 22.7101 43.3416 22.0851 43.3416C21.635 43.3416 20.9244 43.1861 20.8895 43.012C20.6298 41.5396 19.5194 40.7085 19.0336 40.5181C19.0515 40.6736 19.0685 40.8447 19.0685 41.0009C19.0685 42.2502 18.219 43.0299 16.6253 43.0299C16.3647 43.0299 16.0351 43.0123 15.7925 42.96C17.0756 44.3907 18.1002 44.4416 18.8911 44.481C19.222 44.4974 19.512 44.5119 19.7629 44.6244C20.0467 44.7527 20.3169 44.9492 20.6214 45.1706C21.5073 45.8147 22.6832 46.6698 25.3278 46.6698C26.6285 46.6698 27.9463 46.1669 28.8123 45.6126C28.9686 46.1325 29.5056 46.6016 30.3904 46.6016C31.898 46.6016 32.7486 46.1325 32.7486 45.751C32.7486 45.6467 32.7304 45.4904 32.4707 45.4904C32.3774 45.4904 32.323 45.4994 32.2533 45.5108H32.2532ZM41.9378 34.5169C41.8119 34.5169 41.4881 34.839 41.0648 35.2603C40.2653 36.0557 39.1108 37.2044 38.2629 37.2044C37.9504 37.2044 37.6907 36.6143 37.6907 36.1656C37.6907 35.9224 37.8456 35.7491 38.4021 35.6278C39.8746 35.2932 40.4588 34.5781 40.98 33.94C41.5139 33.2865 41.9817 32.7138 43.2704 32.7138C44.6746 32.7138 46.2364 33.6679 46.2364 35.8181C46.2364 38.1071 42.9791 40.9492 42.493 40.9492C42.0935 40.9492 41.6605 40.3778 41.6605 39.9962C41.6605 39.8757 41.7128 39.7184 42.0594 39.5803C43.7213 38.92 44.6746 37.3956 44.6746 36.6143C44.6746 36.441 44.5882 36.2699 44.3621 36.2699C44.2699 36.2699 44.0823 36.5531 43.8249 36.9417C43.2618 37.7918 42.3645 39.1464 41.4 39.1464C40.4283 39.1464 39.4393 38.2633 39.4393 37.8465C39.4393 37.5291 40.0286 37.088 40.6675 36.6097C41.4238 36.0435 42.2498 35.4252 42.2498 34.8985C42.2498 34.5339 42.077 34.5169 41.9381 34.5169H41.9378ZM43.3054 34.1026C43.3054 33.6335 43.5651 33.4423 43.8077 33.4423C44.5533 33.4423 45.3338 34.1023 45.3338 34.6382C45.3338 35.0547 44.9348 35.1939 44.4311 35.1939C44.2424 35.1939 44.0509 35.124 43.9299 35.0547C43.7043 34.9504 43.3054 34.6209 43.3054 34.1026ZM11.4232 13.3659C11.4244 13.7489 11.7346 14.0591 12.1176 14.0603C12.5 14.0585 12.8093 13.7483 12.81 13.3659C12.8088 12.9838 12.4997 12.6743 12.1176 12.6726C11.7349 12.6735 11.4247 12.9832 11.4232 13.3659ZM11.215 12.499C10.8328 12.4975 10.5234 12.1879 10.5222 11.8058V11.8055C10.5234 11.4233 10.8328 11.1137 11.215 11.1122C11.5976 11.1133 11.9077 11.4231 11.9091 11.8058C11.9075 12.1883 11.5975 12.498 11.215 12.499ZM9.89773 16.5558C9.49827 16.6601 8.66717 17.1459 8.66717 18.012C8.66717 18.6365 9.15136 19.0351 9.75935 19.0351C10.0713 19.0351 10.2966 18.9658 10.435 18.8618C9.95 18.3938 9.77668 17.8736 9.77668 17.3542C9.77668 16.9897 9.82896 16.7641 9.89773 16.5558ZM5.63354 17.059C5.63354 16.9726 5.63354 16.8862 5.65087 16.7993C6.06656 17.3715 6.76011 17.5432 7.40056 17.5432C7.60981 17.5439 7.81873 17.5268 8.02506 17.492C7.57498 18.064 7.07126 18.3245 6.63879 18.3245C6.06656 18.3245 5.63354 17.8736 5.63354 17.059ZM5.0437 18.3418C5.04376 19.6594 5.44266 20.2838 6.15294 20.2838C6.70811 20.2838 7.45366 19.8849 8.33676 19.122C7.66109 19.2786 7.14114 19.3817 6.67317 19.3817C6.04868 19.3817 5.56448 19.1394 5.0437 18.3418ZM8.05945 15.7761C7.48777 15.7761 6.86355 15.0655 6.86355 14.424C6.86355 14.0773 7.12325 13.6435 7.31445 13.6435C7.38378 13.6435 7.41872 13.6958 7.4355 13.8176C7.54004 14.6666 8.09411 15.1525 8.61517 15.3943L8.63344 15.4063C8.67519 15.4337 8.70128 15.4508 8.70128 15.4815C8.70128 15.6025 8.3717 15.7759 8.05918 15.7759L8.05945 15.7761ZM9.87342 13.8739C9.79014 13.8019 9.70474 13.728 9.65536 13.6606C9.56447 13.5372 9.51678 13.3941 9.47498 13.2687C9.42885 13.1302 9.38987 13.0133 9.3079 12.9681C9.22069 12.9158 9.16952 12.8988 9.04737 12.8988C8.78849 12.8988 8.59729 12.9329 8.59729 13.2619C8.59729 13.7827 9.08231 14.7016 9.68947 14.7016C9.96706 14.7016 10.1063 14.389 10.1063 14.1467C10.1063 14.0754 9.99198 13.9765 9.87342 13.8739L9.87342 13.8739ZM5.58154 15.8111C5.5488 15.8647 5.52927 15.9321 5.52927 16.0023C5.52927 16.1577 5.70259 16.331 5.8583 16.331C5.93998 16.331 6.00347 16.3193 6.05595 16.3096C6.09291 16.3028 6.12441 16.2969 6.15294 16.2969C6.33576 16.2969 6.52863 16.3537 6.74482 16.4173C7.02053 16.4984 7.33419 16.5907 7.71336 16.5907C8.11145 16.5907 8.57996 16.4697 9.16952 16.1756C10.4171 15.5506 10.9038 14.0083 10.9038 13.7478C10.9038 13.5514 10.8098 13.4872 10.6869 13.4032C10.6035 13.3462 10.5068 13.2802 10.4171 13.1577C10.297 12.9934 10.2674 12.8391 10.2426 12.7098C10.2219 12.6017 10.2045 12.5112 10.1404 12.447C10.0757 12.3824 9.90416 12.3659 9.67774 12.3441H9.67774H9.67773L9.67773 12.3441C9.62107 12.3387 9.56099 12.3329 9.49827 12.326C9.37165 12.3136 9.24447 12.3078 9.11725 12.3087C8.54502 12.3087 7.86715 12.3785 7.1062 12.8638C6.0011 13.5686 5.82735 14.6132 5.71709 15.2761C5.67726 15.5156 5.64571 15.7052 5.58154 15.8111ZM10.5563 17.111C10.5563 16.331 10.9553 15.5676 11.3368 15.1178V15.1175C12.2037 15.3772 13.2609 16.1927 13.2609 17.3542C13.2609 18.0992 12.8623 18.8268 12.0133 18.8268C11.1294 18.8268 10.5563 18.0469 10.5563 17.111ZM7.62698 11.7887C7.62698 11.7887 7.12325 12.1695 6.49958 12.1695C5.75486 12.1695 5.16475 11.6151 5.16475 10.8355C5.16475 10.2973 5.44261 9.74327 6.08361 9.46541C6.06656 9.56995 6.06656 9.65606 6.06656 9.76032C6.06656 10.7482 6.6209 11.4941 7.62698 11.7887ZM38.9177 18.2728C38.5234 18.2728 38.1933 17.9432 38.1933 17.5437V17.5434C38.1933 17.1456 38.5237 16.8166 38.9179 16.8166C39.3191 16.8184 39.6441 17.1426 39.647 17.5437C39.6447 17.9455 39.3195 18.2707 38.9177 18.2728ZM38.2453 19.7281C38.2453 20.1776 38.6097 20.542 39.0592 20.542C39.5087 20.542 39.8731 20.1776 39.8731 19.7281C39.865 19.2844 39.503 18.929 39.0592 18.929C38.6154 18.929 38.2534 19.2844 38.2453 19.7281ZM36.9446 22.3989C36.284 22.3978 35.7487 21.8628 35.7473 21.2023C35.7487 20.5417 36.284 20.0067 36.9446 20.0057C37.6049 20.0072 38.1399 20.5418 38.1418 21.2021C38.14 21.8625 37.605 22.3973 36.9446 22.3989ZM36.3889 18.7581C36.3899 19.1408 36.7002 19.4507 37.083 19.4513C37.4655 19.4504 37.7754 19.1406 37.7765 18.7581C37.7754 18.3756 37.4657 18.0657 37.0832 18.0645C36.7005 18.0654 36.3904 18.3751 36.3889 18.7578V18.7581ZM34.8092 20.8376C34.4278 20.8355 34.1195 20.5262 34.1186 20.1449C34.1195 19.7635 34.4276 19.4542 34.8089 19.4516C35.1919 19.4521 35.5026 19.7619 35.5041 20.1449C35.5041 20.5267 35.1916 20.8376 34.8092 20.8376ZM35.903 16.0889C35.903 16.6953 36.4059 17.1976 37.0131 17.1976C37.6211 17.1976 38.124 16.6953 38.124 16.0889C38.124 15.481 37.6211 14.9789 37.0131 14.9789C36.4059 14.9789 35.903 15.481 35.903 16.0889ZM37.3974 14.4216C37.2738 14.2981 37.2043 14.1305 37.2043 13.9557C37.2042 13.7809 37.2736 13.6131 37.3972 13.4895C37.5209 13.3658 37.6886 13.2963 37.8634 13.2963C38.1034 13.2894 38.3281 13.4134 38.4501 13.6201C38.5721 13.8268 38.5721 14.0835 38.4501 14.2903C38.3281 14.497 38.1034 14.621 37.8634 14.6141C37.6887 14.6143 37.521 14.545 37.3974 14.4216ZM34.0675 15.6202C34.0666 15.9831 34.3598 16.2782 34.7228 16.2796C35.0867 16.2796 35.3817 15.9846 35.3817 15.6207C35.3817 15.2568 35.0867 14.9618 34.7228 14.9618C34.3602 14.963 34.067 15.2576 34.0675 15.6202ZM34.2866 18.6223C34.0886 18.4236 33.9783 18.1539 33.9803 17.8733C33.9786 17.593 34.089 17.3236 34.287 17.1252C34.485 16.9268 34.7542 16.8158 35.0345 16.8169C35.6246 16.8169 36.0942 17.2846 36.0942 17.8733C36.0958 18.1547 35.9846 18.425 35.7854 18.6238C35.5863 18.8226 35.3159 18.9334 35.0345 18.9314C34.7539 18.9323 34.4846 18.821 34.2866 18.6223ZM31.7948 18.9834C31.7948 19.5215 32.2452 19.9707 32.783 19.9707C33.3203 19.9707 33.772 19.5215 33.772 18.9834C33.772 18.4461 33.3203 17.9952 32.783 17.9952C32.2452 17.9952 31.7948 18.4464 31.7948 18.9834ZM33.0768 17.2326C32.6947 17.2308 32.3854 16.9212 32.3841 16.539C32.3856 16.157 32.6948 15.8476 33.0768 15.8457C33.4598 15.8465 33.7703 16.1563 33.772 16.5393C33.7702 16.9222 33.4597 17.2318 33.0768 17.2326ZM38.4709 21.8786C38.4709 21.532 38.7834 21.2371 39.1262 21.2371C39.5086 21.2371 39.8032 21.5317 39.8032 21.8786C39.8032 22.2775 39.5089 22.5548 39.1262 22.5548C38.7834 22.5548 38.4709 22.2775 38.4709 21.8786ZM39.1094 42.1814C39.1094 41.8681 39.0051 41.8169 38.9182 41.8169C38.8971 41.8169 38.8538 41.8412 38.7856 41.8794C38.5326 42.0211 37.937 42.3547 36.8579 42.3547H36.6318C36.6352 42.3854 36.6387 42.4141 36.6419 42.4414C36.6552 42.5528 36.6659 42.6419 36.6659 42.7537C36.6659 43.168 36.5616 43.6018 36.4232 44.017C37.2909 44.0016 37.881 43.7581 38.3149 43.4634C38.9361 43.0645 39.1094 42.5625 39.1094 42.1814ZM39.0571 40.1002C39.198 39.9814 39.2305 39.7885 39.2305 39.5973V39.1984C39.2305 38.6955 38.4712 38.4017 37.4293 38.4017C36.1627 38.4017 35.4865 38.9723 35.4865 39.2155V40.0141C35.4865 40.3437 36.2499 40.6733 37.1867 40.6733C37.933 40.6733 38.6101 40.4829 39.0574 40.1002H39.0571ZM36.7008 41.4172C38.4541 41.4172 39.508 40.6392 39.9589 40.2914H39.9592C40.3595 40.2914 40.9139 40.6733 40.9139 41.6087C40.9139 43.2544 38.4882 45.2819 35.243 45.2819C34.2411 45.2819 33.703 44.5906 33.703 43.8973C33.703 42.9099 34.2411 42.0081 34.6532 41.5223C34.8436 41.2961 35.0348 41.1228 35.2081 41.1228C35.2468 41.1228 35.307 41.1456 35.394 41.1785C35.6195 41.2638 36.0247 41.4172 36.7008 41.4172ZM40.5667 25.7106C40.5667 26.1436 40.7059 26.6465 41.1397 26.6465C41.5034 26.6465 41.8159 26.0925 41.8159 25.4853C41.8159 25.0605 41.7705 24.694 41.7353 24.41L41.7353 24.4098C41.7131 24.2302 41.6949 24.0836 41.6949 23.9761C41.6949 23.8556 41.7469 23.8036 41.8159 23.8036C41.9426 23.8119 42.0653 23.9841 42.1897 24.1589C42.3212 24.3437 42.4548 24.5312 42.5972 24.5312C42.7729 24.5312 42.9965 24.3508 43.1925 24.1925C43.3455 24.069 43.4818 23.959 43.5654 23.959C43.6176 23.959 43.6344 24.0283 43.6344 24.0454C43.6344 24.1805 43.5271 24.3997 43.4238 24.6107C43.3279 24.8065 43.2355 24.9954 43.2355 25.1035C43.2355 25.2009 43.499 25.2577 43.7562 25.3131C44.0017 25.366 44.2416 25.4177 44.2416 25.5024C44.2416 25.6535 43.8863 25.7168 43.4898 25.7875C43.2034 25.8386 42.8954 25.8936 42.6845 25.9882C42.1986 26.1956 41.9031 26.4562 41.9031 26.8028C41.9031 27.1494 42.2498 27.2182 42.7367 27.2182C43.5229 27.2182 44.1508 26.9309 44.5543 26.7463C44.7452 26.6589 44.8859 26.5945 44.9692 26.5945C45.0215 26.5945 45.0556 26.6295 45.0556 26.6818C45.0556 26.7596 44.9367 26.9178 44.8057 27.0921C44.6451 27.3057 44.4663 27.5435 44.4663 27.687C44.4663 27.8517 44.8031 28.0326 45.0969 28.1903C45.3282 28.3146 45.5327 28.4244 45.5252 28.5008C45.5082 28.5531 45.438 28.5701 45.317 28.5701C45.2252 28.5701 45.1098 28.5583 44.9895 28.546C44.8588 28.5326 44.7225 28.5187 44.6047 28.5187C44.4663 28.5187 44.345 28.5357 44.2922 28.605C44.243 28.6623 44.2402 28.8513 44.2371 29.0539C44.2328 29.3441 44.228 29.6623 44.0861 29.6623C44.0201 29.6623 43.9232 29.4882 43.7858 29.2416C43.4524 28.6431 42.8812 27.6177 41.9381 27.6177C41.7469 27.6177 41.6085 27.7731 41.6085 28.0336C41.6085 28.7264 42.2847 29.5239 42.9271 29.9058C43.0369 29.9776 43.1746 30.0496 43.3035 30.117C43.516 30.2281 43.7046 30.3267 43.7046 30.3916C43.7046 30.4818 43.4941 30.4966 43.2567 30.5133C42.9496 30.5348 42.5975 30.5596 42.5975 30.7548C42.5975 30.9158 42.6344 31.1182 42.6701 31.3146C42.7038 31.4993 42.7365 31.6786 42.7365 31.8128C42.7365 31.8998 42.7186 32.0032 42.6146 32.0032C42.5148 32.0032 42.3468 31.7833 42.1721 31.5547C41.9831 31.3074 41.7863 31.0499 41.6599 31.0499C41.5541 31.0499 41.385 31.1985 41.2192 31.3442C41.0598 31.4843 40.9034 31.6216 40.8093 31.6216C40.7579 31.6216 40.7238 31.5694 40.7238 31.519C40.7238 31.3583 40.8274 31.1167 40.9513 30.8276L40.9513 30.8276C41.1357 30.3975 41.365 29.8626 41.365 29.3335C41.365 28.9176 41.313 28.0158 40.8093 28.0158C40.3933 28.0158 39.9246 28.6741 39.7163 29.3335C39.6707 29.4767 39.6545 29.7742 39.6374 30.0898V30.0898C39.6088 30.6141 39.5776 31.1883 39.4043 31.1883C39.2836 31.1883 39.2337 30.9757 39.1803 30.7477C39.1185 30.4843 39.0519 30.2004 38.8657 30.2004C38.7285 30.2004 38.5053 30.3349 38.2983 30.4597C38.1193 30.5677 37.9523 30.6684 37.8634 30.6684C37.8293 30.6684 37.7944 30.6505 37.7944 30.6161C37.7944 30.5021 37.9463 30.2464 38.0832 30.0161L38.0832 30.0161C38.1953 29.8275 38.2973 29.6559 38.2973 29.5932C38.2973 29.4563 37.9788 29.3821 37.6778 29.3119C37.408 29.249 37.1523 29.1894 37.1523 29.0909C37.1523 28.9698 37.6032 28.8826 38.0197 28.8133C38.9014 28.657 40.203 28.0155 40.203 27.1153C40.203 26.2493 39.4817 25.8073 38.8743 25.4351C38.7763 25.375 38.6813 25.3168 38.5928 25.2589C38.5163 25.2108 38.438 25.1646 38.3628 25.1203C38.1135 24.9732 37.8987 24.8464 37.8987 24.7395C37.8987 24.6006 38.3152 24.6006 38.4888 24.6006C38.7482 24.6006 39.0057 24.5832 39.0057 24.3758C39.0057 24.3059 38.9986 24.2054 38.9907 24.094L38.9907 24.0939C38.9809 23.9553 38.9699 23.7997 38.9699 23.6652C38.9699 23.491 38.9878 23.3518 39.058 23.3518C39.2007 23.3518 39.3753 23.6091 39.5323 23.8406C39.6607 24.0298 39.7773 24.2016 39.8552 24.2016C39.9963 24.2016 40.1642 24.0229 40.3294 23.8469C40.4895 23.6763 40.6472 23.5084 40.7757 23.5084C40.8613 23.5084 40.8962 23.5609 40.8962 23.7166C40.8962 24.0392 40.8128 24.3837 40.7299 24.726C40.648 25.0641 40.5667 25.4001 40.5667 25.7106ZM32.2969 20.6311C32.2969 20.631 32.2969 20.6309 32.2969 20.6307H32.2971C32.2971 20.6309 32.297 20.631 32.2969 20.6311ZM32.2969 20.6311C31.8283 21.4978 31.6556 22.1213 31.6556 22.6242C31.6556 23.6308 32.4014 24.0351 33.0837 24.4048C33.6587 24.7165 34.1885 25.0037 34.1885 25.6064C34.1885 25.9189 33.9462 26.1258 33.7197 26.1258C33.5334 26.1258 33.3681 25.9462 33.1852 25.7474C32.9583 25.5008 32.7043 25.2248 32.3491 25.2248C32.0025 25.2248 31.7599 25.4853 31.7599 26.0053C31.7599 26.2085 31.7824 26.3851 31.8045 26.5579C31.8256 26.7232 31.8462 26.8851 31.8462 27.0633C31.8462 27.8081 31.5345 28.172 31.1698 28.5008C32.6358 28.378 33.2282 27.6273 33.6365 27.1101C33.8611 26.8255 34.03 26.6116 34.2579 26.6116C34.4661 26.6116 34.5321 26.7508 34.5321 26.838C34.5321 26.9671 34.4362 27.1327 34.3284 27.3188C34.1901 27.5576 34.0323 27.8301 34.0323 28.1027C34.0323 28.7093 34.7398 29.0738 35.2086 29.0738C35.7638 29.0738 35.9721 28.8653 35.9721 28.5187C35.9721 28.3063 35.7884 28.0604 35.6012 27.8098C35.4068 27.5495 35.2086 27.2843 35.2086 27.0463C35.2086 26.7849 35.4513 26.7508 35.7809 26.7508C36.4758 26.7508 36.7355 26.8551 36.7355 27.0105C36.7355 27.1282 36.6408 27.2964 36.5588 27.442C36.4961 27.5533 36.4408 27.6515 36.4408 27.7041C36.4408 27.7734 36.4758 27.8944 36.6491 27.8944C37.2213 27.8944 39.1961 27.4955 39.1961 27.0974C39.1961 26.6639 37.3264 25.2418 36.9446 25.2418C36.9074 25.2412 36.8716 25.2557 36.8453 25.2819C36.819 25.3081 36.8044 25.3439 36.8048 25.381C36.8048 25.4362 36.8122 25.5057 36.8203 25.5815C36.83 25.6722 36.8406 25.772 36.8406 25.8669C36.8406 26.1778 36.7184 26.23 36.3539 26.23C35.955 26.23 35.347 26.0925 35.347 25.4853C35.347 24.8527 35.9684 24.6298 36.5958 24.4046C37.1731 24.1975 37.7555 23.9885 37.8634 23.4569C37.3193 23.4569 36.9223 23.2521 36.5653 23.0678C36.2735 22.9172 36.0084 22.7804 35.7115 22.7804C35.4513 22.7804 35.0174 22.9188 35.0174 23.526C35.0174 23.6121 35.0317 23.7302 35.0474 23.8595C35.0664 24.0158 35.0873 24.1885 35.0873 24.3409C35.0873 24.6184 35.0172 24.8267 34.7228 24.8267C34.4312 24.8267 34.3971 24.4968 34.3971 24.1144C34.3971 23.941 34.4164 23.7525 34.4346 23.5749C34.4508 23.4166 34.4661 23.267 34.4661 23.1444C34.4661 22.1962 33.9084 21.9617 33.3567 21.7297C32.8695 21.5248 32.3869 21.3219 32.2969 20.6311Z" fill="white"/>
<path fill-rule="evenodd" clip-rule="evenodd" d="M23.2464 12.8116C23.2464 11.7021 22.7273 10.7139 21.5828 10.7139C20.6989 10.7139 19.8835 11.4586 19.2939 12.4297C19.3283 12.2394 19.3462 12.0308 19.3462 11.8405C19.3462 10.4886 18.6185 9.27423 17.2479 9.27423C16.1393 9.27423 15.134 9.91551 14.7172 11.1642C14.8385 11.0429 15.2031 10.8181 15.4985 10.8181C15.8443 10.8181 15.9489 11.112 15.9489 11.5807C15.9489 11.8933 15.8787 12.2564 15.7577 12.6039C15.5491 13.1753 15.1681 13.3486 14.9599 13.3486C14.4648 13.3486 14.3881 12.8651 14.3241 12.4622C14.2784 12.1744 14.2393 11.9277 14.0589 11.9277C13.6941 11.9277 13.5901 12.6903 13.5901 12.9857C13.5901 13.9739 14.2322 15.0138 15.6534 15.0138C17.1794 15.0138 18.0284 14.3027 18.9473 13.3315C19.1206 14.3717 19.6928 16.1583 21.2183 16.1583C22.05 16.1583 22.6401 15.4642 22.7094 14.6664C22.606 14.7706 22.4497 14.8576 22.2764 14.8576C21.9647 14.8576 21.8954 14.4061 21.8954 14.008C21.8954 13.3659 22.0852 12.6732 22.3804 12.6732C22.5369 12.6732 22.623 12.7772 22.658 13.2446C22.6649 13.3177 22.669 13.3922 22.673 13.4645V13.4646C22.689 13.7531 22.7032 14.008 22.8833 14.008C23.1089 14.008 23.2464 13.2966 23.2464 12.8116ZM32.8002 30.5119C33.5985 30.6158 33.7897 30.8934 33.7897 31.1198C33.7897 31.5006 33.4423 31.6211 33.1119 31.6211C32.9964 31.6211 32.8732 31.6095 32.7439 31.5974L32.7439 31.5974C32.6014 31.584 32.4516 31.5699 32.297 31.5699C31.9154 31.5699 31.5344 31.656 31.2219 32.0208C31.4474 32.0558 31.777 32.2112 31.777 32.5587C31.777 32.9448 31.3651 33.0598 30.8576 33.2014C30.0441 33.4285 28.9852 33.724 28.9852 35.3153C28.9852 36.6845 30.407 38.1764 32.5567 38.1764C33.6676 38.1764 34.379 37.8119 34.379 37.3951C34.379 37.2238 34.219 37.2028 34.0657 37.1827C33.9249 37.1642 33.7897 37.1464 33.7897 37.0135C33.7897 36.9597 33.8306 36.8852 33.876 36.8024C33.933 36.6985 33.9972 36.5815 33.9972 36.4754C33.9972 36.3907 33.9281 36.2344 33.7897 36.2344C33.6837 36.2344 33.546 36.2919 33.3639 36.3679C33.0079 36.5164 32.4819 36.7359 31.6898 36.7359C30.7539 36.7359 29.8348 36.1995 29.8348 35.471C29.8348 35.3155 29.9041 35.2278 30.0081 35.2278C30.0584 35.2278 30.1165 35.244 30.1768 35.2608C30.2417 35.2789 30.3091 35.2977 30.372 35.2977C30.4771 35.2977 30.4942 35.2278 30.4942 35.0371C30.4942 34.8468 30.4942 34.3086 30.8229 34.3086C30.9121 34.3086 31.0229 34.3976 31.1845 34.5273C31.6201 34.8769 32.4249 35.523 34.1713 35.523C34.9661 35.523 36.5097 35.3667 37.0831 34.8468C37.0652 36.7538 35.5733 39.2672 32.4532 39.2672C29.2114 39.2672 27.4768 36.6661 27.4768 34.274C27.4768 31.6211 29.6436 29.2125 32.6095 29.2125C33.3716 29.2125 34.0145 29.4714 34.0145 29.8012C34.0145 30.0191 33.7522 30.0673 33.471 30.1191C33.169 30.1746 32.8452 30.2341 32.8002 30.5119ZM34.6888 29.5939L34.6885 29.5938V29.5935L34.6888 29.5939ZM34.6888 29.5939C36.5098 29.9406 37.4988 31.3103 37.4988 32.5931C37.4988 33.4775 36.9439 34.2908 35.9719 34.2908C35.0871 34.2908 34.4489 33.6852 34.4489 32.7136C34.4489 32.3518 34.5893 31.9814 34.7305 31.6088C34.8735 31.2318 35.0173 30.8525 35.0173 30.4775C35.0173 30.1832 34.9309 29.8884 34.6888 29.5939ZM36.0068 32.3334C35.7636 32.3334 35.5903 32.1419 35.5903 31.8995V31.8992C35.5903 31.8251 35.6148 31.7313 35.6403 31.6337L35.6403 31.6337C35.6626 31.5483 35.6857 31.4599 35.6938 31.3793C35.7047 31.3104 35.7073 31.2432 35.7097 31.183C35.715 31.0461 35.719 30.9457 35.8156 30.9457C36.1284 30.9457 36.4586 31.4492 36.4586 31.8123C36.4586 32.0899 36.2847 32.3334 36.0068 32.3334ZM32.3842 32.5416C32.5567 32.7136 32.6098 32.8877 32.6098 33.061C32.6098 33.1871 32.5812 33.3173 32.5518 33.4515C32.5205 33.5943 32.4882 33.7416 32.4882 33.8935C32.4882 34.3089 32.8002 34.6734 33.2502 34.6734C33.7369 34.6734 34.0673 34.291 34.0673 33.8423C34.0673 33.1829 33.3886 32.5416 32.3842 32.5416ZM38.2971 31.9856C38.2971 31.8123 38.2451 31.6211 38.1238 31.4321C39.4223 31.5185 40.2548 32.2984 40.2548 33.2173C40.2548 33.8935 39.769 34.4649 39.0575 34.4649C38.4014 34.4649 37.9675 33.9978 37.9675 33.4255C37.9675 33.1714 38.0514 32.931 38.1345 32.6927L38.1345 32.6927C38.2162 32.4586 38.2971 32.2265 38.2971 31.9856ZM20.2472 12.7593C20.2472 12.4649 20.1781 12.3956 20.1088 12.3956C19.9355 12.3956 19.7451 12.6039 19.4675 13.0718C19.5025 13.6963 19.6067 13.9737 19.7801 13.9737C19.9699 13.9737 20.2472 13.3657 20.2472 12.7593ZM18.7569 12.7593C18.306 13.2617 18.0625 13.4699 17.8722 13.4699C17.7679 13.4699 17.6645 13.2966 17.6645 13.09C17.6645 12.7252 17.9242 11.3376 18.4452 11.3376C18.6527 11.3376 18.7919 11.7194 18.7919 12.066C18.7919 12.3255 18.7919 12.5337 18.7569 12.7593ZM20.6989 15.0138C21.1319 15.0138 21.617 13.3486 21.617 12.3084C21.617 12.0828 21.5828 11.8407 21.4786 11.8407C21.1141 11.8407 20.5074 13.5571 20.5074 14.4931C20.5074 14.8576 20.5946 15.0138 20.6989 15.0138ZM17.7156 10.3323C17.7156 10.8701 17.0408 14.06 16.4515 14.06C16.2952 14.06 16.2603 13.9217 16.2603 13.7995C16.2603 13.1233 17.0058 10.0888 17.5431 10.0888C17.6642 10.0888 17.7156 10.1931 17.7156 10.3323Z" fill="white"/>
<path fill-rule="evenodd" clip-rule="evenodd" d="M23.1093 5.5817C23.1093 5.02522 22.3036 4.22547 21.5499 3.4773C20.8951 2.82733 20.2796 2.21628 20.2655 1.83746C20.2625 1.76318 20.3029 1.6889 20.3656 1.62232C20.5899 1.38624 21.1428 1.17974 21.67 0.982797C22.2763 0.75632 22.8488 0.542492 22.8488 0.310877C22.8488 0.0861123 22.4323 0.0861123 22.2237 0.0861123C20.6121 0.0861123 18.2542 0.675397 18.2542 1.24762C18.2542 1.52898 18.7349 2.00328 19.238 2.49959C19.79 3.04422 20.3689 3.61537 20.3689 3.98716C20.3689 4.17837 20.2476 4.24769 20.0564 4.24769C19.7642 4.24769 19.301 4.07249 18.8343 3.89597C18.3606 3.71679 17.8833 3.53626 17.5777 3.53626C17.3004 3.53626 17.1961 3.72691 17.1961 4.00422C17.1961 4.48024 17.519 5.19951 17.7956 5.81575C18.003 6.27757 18.1843 6.68152 18.1843 6.88187C18.1843 6.93386 18.1672 7.00291 18.0979 7.00291C17.9615 7.00291 17.6041 6.67273 17.2013 6.30062L17.2013 6.30061L17.2013 6.3006C16.6813 5.82023 16.0857 5.27 15.7922 5.27C15.6016 5.27 15.5845 5.5297 15.5845 5.91128V6.50084C15.5845 6.89975 15.5666 7.14184 15.3771 7.14184C15.149 7.14184 14.9828 6.81853 14.8184 6.49874C14.6576 6.18585 14.4985 5.87634 14.2849 5.87634C14.057 5.87634 13.922 6.45147 13.7884 7.02069C13.6576 7.57833 13.528 8.13031 13.3138 8.13031C13.06 8.13031 13.0445 7.49958 13.0293 6.87438C13.0143 6.26003 12.9994 5.65103 12.7586 5.65103C12.467 5.65103 12.1549 6.13616 11.8693 6.5799C11.6287 6.95384 11.4071 7.29838 11.2326 7.29838C11.0942 7.29838 11.0598 7.15918 11.0598 7.03785C11.0598 6.78465 11.1345 6.45188 11.2086 6.122C11.2814 5.79776 11.3536 5.4763 11.3536 5.23589C11.3536 4.99241 11.2845 4.85403 11.0768 4.85403C10.796 4.85403 10.3401 5.09047 9.9045 5.31639C9.50604 5.52305 9.12455 5.7209 8.90953 5.7209C8.8402 5.7209 8.75381 5.68597 8.75381 5.61664C8.75381 5.42688 9.14749 5.04914 9.57541 4.63854C10.0849 4.14965 10.643 3.61417 10.643 3.29389C10.643 3.01742 10.0375 2.96334 9.41083 2.90736C8.73856 2.84732 8.04183 2.78509 8.04183 2.4438C8.04183 2.1689 8.49882 1.88932 8.95933 1.6076C9.42698 1.3215 9.89827 1.03318 9.89827 0.745275C9.89854 0.241549 7.69574 0.0167847 6.84703 0.0167847C5.82307 0.0167847 5.26955 0.137283 5.26955 0.43275C5.26955 0.665399 5.88722 0.815023 6.48556 0.959966C7.0476 1.09611 7.59258 1.22813 7.59258 1.42094C7.59258 1.59108 7.11344 1.88867 6.58244 2.21846C5.92257 2.62829 5.18262 3.08786 5.18262 3.41439C5.18262 3.67268 6.01825 3.68336 6.86062 3.69412C7.71667 3.70505 8.57967 3.71608 8.57967 3.98716C8.57967 4.25491 7.96787 4.92699 7.30023 5.66041C6.49847 6.54115 5.61619 7.51036 5.61619 7.97405C5.61619 8.16525 5.7554 8.25136 5.94495 8.25136C6.43423 8.25136 7.34631 7.74665 8.18107 7.28474C8.88533 6.89503 9.53456 6.53578 9.82839 6.53578C10.054 6.53578 10.0716 6.81254 10.0716 7.05491C10.0716 7.27469 10.0346 7.55151 9.99662 7.83579C9.95653 8.13582 9.91533 8.44417 9.91533 8.70254C9.91533 9.10145 10.0199 9.37876 10.3657 9.37876C10.7183 9.37876 11.0549 9.04947 11.3585 8.75251C11.6078 8.50864 11.8348 8.28658 12.0301 8.28658C12.2792 8.28658 12.3501 8.93433 12.4282 9.64761C12.5238 10.5214 12.6301 11.4935 13.0882 11.4935C13.4839 11.4935 13.7506 10.4184 13.987 9.46542C14.1751 8.70703 14.344 8.02605 14.5435 8.02605C14.7741 8.02605 14.982 8.2883 15.1855 8.54501C15.3806 8.79111 15.5717 9.03212 15.7749 9.03212C16.0306 9.03212 16.102 8.60854 16.1746 8.17807C16.2495 7.73337 16.3257 7.28133 16.6076 7.28133C16.8916 7.28133 17.4227 7.73766 17.9874 8.22288C18.6285 8.77368 19.3128 9.3617 19.7282 9.3617C19.9703 9.3617 20.0564 9.1705 20.0564 8.92703C20.0564 8.43008 19.6808 7.5927 19.3361 6.82452C19.0441 6.17359 18.7744 5.57235 18.7744 5.27C18.7744 5.09668 18.8256 5.04441 19.0162 5.04441C19.3274 5.04441 19.9131 5.24218 20.546 5.45592C21.2902 5.70722 22.0998 5.98061 22.6056 5.98061C22.9181 5.98061 23.1093 5.80729 23.1093 5.5817ZM17.231 0.380755C17.231 0.276488 16.7111 0.172497 16.0005 0.172497C15.4002 0.172497 15.1639 0.438444 14.9431 0.686931C14.7495 0.904799 14.5679 1.10924 14.1633 1.10924C13.7392 1.10924 13.5642 0.894282 13.3789 0.666543C13.1701 0.410018 12.9482 0.137283 12.3421 0.137283C11.6482 0.137283 11.0078 0.259431 11.0078 0.415143C11.0078 0.493506 11.1231 0.530152 11.267 0.575866C11.5055 0.651641 11.8224 0.752333 11.8224 1.10924C11.8224 1.45089 11.2665 1.65532 10.7812 1.83381C10.4052 1.9721 10.0716 2.09481 10.0716 2.2537C10.0716 2.3742 10.2091 2.42619 10.3825 2.42619C10.5673 2.42619 10.8048 2.38571 11.0499 2.34394C11.3111 2.29942 11.5809 2.25342 11.8048 2.25342C12.048 2.25342 12.2733 2.30487 12.2733 2.53046C12.2733 2.75936 12.0122 3.08503 11.7657 3.3925C11.5453 3.66743 11.3365 3.9278 11.3365 4.09143C11.3365 4.1957 11.4229 4.23064 11.5099 4.23064C11.6629 4.23064 11.8633 4.05821 12.0871 3.8656C12.3703 3.6219 12.691 3.34588 13.001 3.34588C13.5293 3.34588 13.5535 3.99355 13.574 4.54409C13.5892 4.95105 13.6024 5.30494 13.8158 5.30494C14.053 5.30494 14.1354 4.90571 14.2252 4.47088C14.3326 3.9509 14.4504 3.38 14.856 3.38C15.1888 3.38 15.4742 3.77983 15.7327 4.14184C15.9465 4.44128 16.1417 4.71483 16.3301 4.71483C16.4343 4.71483 16.5213 4.62872 16.5213 4.50657C16.5213 4.33811 16.4092 4.08718 16.289 3.81814C16.1502 3.5072 16.0005 3.17206 16.0005 2.91204C16.0005 2.61739 16.2087 2.47819 16.4863 2.47819C16.7005 2.47819 16.9552 2.54842 17.1905 2.61332C17.3926 2.66905 17.5804 2.72084 17.7161 2.72084C17.8206 2.72084 17.9246 2.68672 17.9246 2.5654C17.9246 2.37071 17.5867 2.16836 17.2271 1.95308C16.8185 1.70842 16.382 1.44705 16.382 1.16124C16.382 0.839504 16.6859 0.710231 16.93 0.606347C17.094 0.536571 17.231 0.47825 17.231 0.380755ZM34.6887 10.1411C34.5492 9.9155 34.0322 9.79528 33.7896 9.79528C33.0253 9.79528 32.5054 10.3326 32.4011 10.8184C32.3321 10.6443 32.2793 10.4366 32.2793 10.2283C32.2793 9.4657 32.8 8.5295 34.0675 8.5295C34.8714 8.5295 35.3198 8.8404 35.5652 9.01055C35.6577 9.07465 35.7213 9.11878 35.7643 9.11878C35.8554 9.11878 35.9467 9.07042 36.0332 9.02467C36.1107 8.9836 36.1843 8.94464 36.2502 8.94464C36.4408 8.94464 36.4408 9.2401 36.4408 9.44864C36.4408 10.1411 36.1291 11.3378 35.3478 11.7714C35.2086 11.4762 34.931 11.1472 34.4832 10.9397C34.3768 10.8974 34.3078 10.7936 34.3098 10.6792C34.3098 10.4888 34.4832 10.2454 34.6884 10.1411H34.6887ZM17.5609 18.0989C17.5609 16.2796 17.595 15.377 18.3406 15.377C18.7573 15.377 19.537 16.1233 19.7453 16.8859L19.7368 16.8843C19.6534 16.8677 19.5691 16.851 19.485 16.851C18.9298 16.851 18.619 17.4062 18.1672 18.3421C19.173 17.6651 20.1092 17.1107 21.1665 17.1107C22.0675 17.1107 22.7797 17.6651 22.7797 18.5154C22.7797 18.8786 22.6056 19.2783 22.38 19.6241C22.2416 18.8445 21.6003 18.4984 20.4908 18.4984C19.8498 18.4984 19.0861 18.6189 18.4798 18.8445C20.4391 19.122 20.7335 19.8326 20.7335 20.4748C20.7335 21.5579 19.6592 22.0953 18.9309 22.4597L18.9128 22.4687C18.9818 22.1562 19.0341 21.8258 19.0341 21.48C19.0341 20.8206 18.7923 20.075 17.8033 19.3474C17.7296 19.6843 17.5661 19.9589 17.4146 20.2136C17.2463 20.4963 17.0927 20.7544 17.0927 21.0459C17.0927 21.2544 17.231 21.3237 17.3353 21.3237C17.3353 21.4926 17.2947 21.8281 17.2573 22.1367C17.2255 22.3994 17.1961 22.6425 17.1961 22.7466C17.1961 23.2135 17.3001 23.3007 17.5257 23.3518C17.6048 23.579 17.6405 23.893 17.6739 24.1878C17.6993 24.4116 17.7235 24.6243 17.7645 24.7794C17.8189 24.983 17.976 25.0344 18.0979 25.0344C18.1131 25.0724 18.1287 25.1124 18.1449 25.1539C18.2765 25.4916 18.4465 25.9278 18.74 26.1437C18.8085 26.1957 18.8949 26.3173 18.8949 26.4212C18.8949 26.7329 18.4275 27.0807 18.1328 27.0807C18.0459 27.0807 17.896 27.0262 17.7628 26.7065C17.7148 26.5904 17.5241 26.4231 17.3217 26.2455C17.0663 26.0214 16.7922 25.781 16.7631 25.6066C16.8151 25.5546 16.8503 25.4501 16.8503 25.3291C16.8503 25.1137 16.7002 24.8847 16.5331 24.6299C16.3237 24.3104 16.0877 23.9504 16.0877 23.526C16.1738 23.4911 16.261 23.3518 16.261 23.1964C16.261 22.9949 16.1633 22.703 16.0589 22.3908C15.939 22.0323 15.8101 21.6471 15.8101 21.3416C16.0005 21.3416 16.1047 21.3237 16.1218 21.0462C16.1567 20.4748 16.2781 19.6241 16.8151 19.1391C16.694 19.122 16.5383 19.1047 16.3301 19.1047C15.2899 19.1047 13.6774 19.7113 13.0711 21.064C13.0362 20.8555 13.0183 20.6651 13.0183 20.4918C13.0183 19.3644 13.6945 18.6189 14.1974 18.3944C14.4571 18.2731 14.7696 18.2381 15.1163 18.2381C15.6534 18.2381 16.2887 18.3519 16.9425 18.4691L16.9425 18.4691H16.9425L17.0063 18.4805C16.4173 17.7 15.5152 17.1286 14.7696 17.1286C14.4238 17.1286 14.1454 17.2499 14.0593 17.5437C14.0241 17.3891 14.007 17.1286 14.007 16.9545C14.007 16.1063 14.2846 15.6202 15.0123 15.6202C16.0874 15.6202 17.0065 16.903 17.5609 18.0989ZM49.1129 30.322C49.1129 29.0042 48.4196 27.8768 47.552 27.8768C46.7915 27.8768 46.3748 28.4832 46.3748 29.1434C46.3748 29.5278 46.5207 29.9302 46.8125 30.2225C46.5025 29.9301 46.0798 29.7839 45.5423 29.7839C44.9172 29.7839 44.3962 30.2697 44.3962 30.9977C44.3962 31.7803 45.0037 32.0444 45.6609 32.33C46.4306 32.6646 47.2686 33.0288 47.2782 34.2907C48.4538 33.2514 49.1129 31.7251 49.1129 30.322ZM33.4064 12.0314C32.9205 12.0314 32.5227 11.8407 32.0715 11.4069C31.7598 11.8404 31.6215 12.43 31.6215 12.9849C31.6215 13.9211 31.9846 14.8058 32.3841 14.8749C32.4872 14.8828 32.5395 14.7494 32.5973 14.6022C32.666 14.4273 32.7423 14.2328 32.9205 14.2328C32.948 14.2328 32.9968 14.2518 33.0689 14.2799C33.2721 14.3591 33.6604 14.5104 34.2757 14.5104C35.5561 14.5104 36.9446 13.7827 36.9446 11.8927C36.9446 11.633 36.8224 11.0602 36.6139 10.7835C36.6139 12.3428 35.4859 12.9681 34.501 12.9681C34.2578 12.9681 34.0322 12.9329 33.824 12.8465C34.0322 12.6726 34.2056 12.3607 34.2056 12.1697C34.2056 12.0481 34.1016 11.9799 33.9459 11.9799C33.8918 11.9799 33.8174 11.99 33.7345 12.0013C33.6305 12.0154 33.5133 12.0314 33.4064 12.0314ZM22.901 3.13763C22.3979 3.13763 21.3057 2.46113 21.3057 2.14943C21.3057 1.94173 22.0342 1.78546 22.6056 1.78546C23.0573 1.78546 23.2818 1.80252 23.2818 2.32193C23.2818 2.73872 23.1949 3.13763 22.901 3.13763ZM5.49514 6.08405C5.96255 6.08405 7.2795 4.92309 7.2795 4.57645V4.57672C7.2795 4.43752 7.00192 4.3869 6.7601 4.3869C6.36119 4.3869 5.84123 4.48951 5.61646 4.69777C5.42526 4.85403 5.26955 5.33988 5.26955 5.68597C5.26955 5.87634 5.32182 6.08405 5.49514 6.08405ZM20.0226 6.36219C20.0226 6.9688 22.1899 9.93311 22.6059 9.93311C22.9533 9.93311 23.2122 9.32676 23.2122 8.80571C23.2122 8.66815 23.1781 8.52977 23.1096 8.42496C22.7971 7.99193 20.5954 6.25819 20.1095 6.25819C20.0567 6.25819 20.0223 6.31046 20.0223 6.36219H20.0226ZM48.2978 1.54172C48.0546 1.54172 47.8639 1.35134 47.8639 1.10952C47.8627 0.994073 47.908 0.882985 47.9896 0.801347C48.0712 0.719709 48.1823 0.674407 48.2978 0.675672C48.5404 0.675672 48.7316 0.866323 48.7316 1.10979C48.7324 1.22491 48.6868 1.3355 48.6053 1.41672C48.5237 1.49793 48.4129 1.54297 48.2978 1.54172ZM45.0386 4.94069C45.0386 4.1056 43.6842 3.69336 42.8125 3.42802C42.3988 3.3021 42.0938 3.20927 42.0938 3.12002C42.0938 2.89526 43.7389 2.51285 44.5879 2.49552C43.7026 1.36248 42.5605 1.08153 41.9221 0.924485C41.6231 0.850948 41.4346 0.804577 41.4346 0.710611C41.4346 0.536466 42.8223 0.189829 44.1035 0.189829C45.178 0.189829 46.1838 0.432475 46.1838 1.24707C46.1838 1.44882 46.1113 1.65381 46.031 1.88068C45.9315 2.16179 45.8201 2.47651 45.8201 2.86032C45.8201 3.24217 46.01 3.57092 46.5142 3.57092C47.0524 3.57092 47.1737 2.9987 47.1737 2.39153C47.1737 2.09535 47.1433 1.84101 47.1184 1.63241V1.63236V1.63232V1.63229C47.1011 1.48732 47.0865 1.36444 47.0865 1.26496C47.0865 0.536466 47.5863 0.0517236 48.2978 0.0517236C48.5645 0.0517236 48.7389 0.104716 48.9301 0.1628C49.1619 0.233232 49.4184 0.311152 49.894 0.311152C49.4252 0.588737 49.2524 1.09246 49.2524 1.33428C49.2524 1.63399 49.3318 1.89552 49.4252 2.20338C49.5588 2.64383 49.7212 3.17912 49.7212 4.05677C49.7212 6.79493 47.1558 7.76607 44.0165 7.76607C43.1527 7.76607 42.233 7.69674 41.3304 7.55836C41.192 7.5413 41.157 7.50609 41.157 7.41998C41.157 7.34962 41.2763 7.28941 41.4406 7.20646C41.8045 7.02278 42.3893 6.72758 42.3893 5.96383C42.3893 5.6927 42.3349 5.42855 42.2941 5.23041C42.2696 5.1115 42.25 5.01636 42.25 4.95775C42.25 4.87164 42.3194 4.81937 42.3893 4.81937C42.4782 4.81937 42.5976 4.93667 42.7548 5.09114C43.0577 5.38885 43.5012 5.82462 44.1384 5.82462C44.3967 5.82462 45.0388 5.73769 45.0388 4.94069H45.0386ZM44.8124 6.24086C46.8441 5.91183 47.9674 4.73244 47.9674 3.1899V3.19017C48.4188 3.32828 48.6967 3.77918 48.6967 4.28236C48.6967 5.18334 47.829 6.25764 45.4553 6.25764C45.2471 6.25764 45.0388 6.25764 44.8124 6.24086ZM47.9679 23.1268C47.3997 24.0624 47.0523 24.6698 46.7745 25.5359C46.7741 25.0366 46.415 24.1491 46.1583 23.5147L46.1582 23.5145C46.0763 23.3122 46.0049 23.1356 45.9588 23.0055C45.0212 20.4049 44.6746 19.9193 42.7015 19.6937C42.8028 20.0515 43.2711 20.5836 43.842 21.2323C44.9308 22.4696 46.3926 24.1308 46.3926 25.8144C46.3926 25.9706 46.375 26.1954 46.3585 26.2823C45.5826 24.0109 44.3798 23.0619 43.5644 22.4186C43.3032 22.2125 43.0817 22.0378 42.9268 21.861C42.5189 21.4051 42.3671 20.9548 42.2269 20.5386C42.0151 19.9101 41.8295 19.3591 40.8272 18.9831C40.9312 19.122 40.9661 19.2956 40.9661 19.486C40.9661 19.7728 40.8827 20.0964 40.802 20.4091L40.802 20.4092C40.7266 20.7018 40.6536 20.9849 40.6536 21.2197C40.6536 22.3414 41.4734 22.5572 42.3887 22.7982C42.9445 22.9445 43.5356 23.1001 43.9997 23.4734C45.2124 24.4446 45.8897 26.0405 46.3926 27.8078C46.4948 27.6437 46.5878 27.4726 46.679 27.3048C47.021 26.6757 47.3379 26.0928 48.0199 26.0928C48.5759 26.0928 48.7663 26.7855 48.7663 27.2705C48.7663 27.3748 48.7663 27.4609 48.7484 27.531C49.5817 26.8204 50.0156 25.6754 50.0156 24.9134C50.0156 24.3923 49.8244 24.0627 49.4076 24.0627C48.9877 24.0627 48.6598 24.4407 48.3317 24.8187C48.0232 25.1742 47.7147 25.5297 47.3297 25.5712C47.5597 24.6126 48.1223 23.8675 48.6622 23.1526C49.2938 22.3162 49.8942 21.5212 49.8942 20.4742C49.8942 18.528 48.4434 17.6925 47.5701 17.1895C47.4553 17.1234 47.3505 17.0631 47.2603 17.0067L47.1119 16.7941C45.9027 15.0604 44.9753 13.7307 42.9791 13.7307C42.4946 13.7307 42.1091 13.7775 41.7598 13.8198C41.4705 13.8549 41.2062 13.887 40.9312 13.887C40.0036 13.887 39.5801 13.6076 39.3992 13.4882C39.3501 13.4558 39.3189 13.4353 39.3003 13.4353C39.283 13.4353 39.2659 13.4531 39.2659 13.5222C39.2659 15.1354 40.1166 18.8268 43.8427 18.8268C45.1863 18.8268 46.0103 18.4808 46.5485 18.2549C46.8094 18.1453 47.0032 18.064 47.1563 18.064C47.6554 18.064 49.2692 18.6183 49.2692 20.4571C49.2692 21.4803 48.4535 22.5205 48.1591 22.5205C47.8815 22.5205 47.569 22.0517 47.569 21.5664C47.569 21.3078 47.6373 20.9406 47.7081 20.5597C47.7844 20.1493 47.8637 19.7231 47.8637 19.3996C47.8637 19.174 47.8287 19.053 47.6903 19.053C47.3817 19.053 45.8897 19.9889 45.8897 21.1845C45.8897 22.1015 47.1018 22.6987 47.7628 23.0243C47.8395 23.0621 47.9088 23.0962 47.9679 23.1268ZM46.0202 16.7831C46.19 16.8988 46.3233 16.9895 46.3233 17.128H46.3236C46.3236 17.18 46.2716 17.2673 46.1321 17.2673C46.0512 17.2673 45.9362 17.2482 45.8137 17.228C45.6736 17.2048 45.5236 17.18 45.4031 17.18C45.0609 17.18 44.7771 17.4539 44.5385 17.6841C44.3656 17.851 44.2164 17.9949 44.0861 17.9949C43.9819 17.9949 43.9296 17.8906 43.9296 17.8037C43.9296 17.6232 44.1062 17.4221 44.2659 17.2403C44.3979 17.0901 44.5183 16.9529 44.5183 16.8513C44.5183 16.695 44.2586 16.643 44.1552 16.643C43.8433 16.643 43.4647 16.8705 43.1077 17.0849C42.7895 17.276 42.4886 17.4568 42.2676 17.4568C42.1815 17.4568 42.077 17.4056 42.077 17.3014C42.077 17.1908 42.2275 17.0593 42.3807 16.9254C42.5396 16.7865 42.7015 16.6451 42.7015 16.5217C42.7015 16.2969 42.441 16.262 42.2676 16.262C42.1282 16.262 41.9263 16.2968 41.7136 16.3335C41.4771 16.3743 41.2274 16.4174 41.0354 16.4174C40.8272 16.4174 40.6715 16.3663 40.6715 16.21C40.6715 16.0444 40.9283 16.0093 41.1968 15.9725C41.4909 15.9323 41.7989 15.8901 41.7989 15.6727C41.7989 15.5792 41.7159 15.4401 41.6311 15.2982C41.5426 15.15 41.4522 14.9986 41.4522 14.8922C41.4522 14.8058 41.5383 14.7538 41.6255 14.7538C41.8173 14.7538 42.0128 15.0053 42.2162 15.2668C42.4365 15.5501 42.666 15.8452 42.9098 15.8452C43.118 15.8452 43.1703 15.6898 43.1703 15.4636C43.1703 15.3471 43.1608 15.2582 43.1517 15.1728C43.1434 15.0941 43.1353 15.0185 43.1353 14.9272C43.1353 14.7189 43.2176 14.6666 43.2878 14.6666C43.3996 14.6666 43.5062 14.8901 43.6388 15.1679C43.8566 15.6242 44.1443 16.2271 44.6396 16.2271C44.8174 16.2271 44.8403 15.9762 44.8625 15.7319C44.8836 15.4999 44.9042 15.2738 45.0564 15.2738C45.2476 15.2738 45.2988 15.5506 45.3167 15.7068C45.3702 16.3406 45.7437 16.5949 46.0202 16.7831Z" fill="white"/>
<path fill-rule="evenodd" clip-rule="evenodd" d="M33.7734 7.68808C33.724 7.28849 33.6565 6.74293 33.4065 6.74293V6.74266C33.2941 6.74266 33.0224 6.9837 32.7302 7.24287L32.7302 7.24288C32.3905 7.54421 32.0231 7.87006 31.8464 7.87006C31.7771 7.87006 31.76 7.87006 31.76 7.78285C31.76 7.61215 31.9712 7.23005 32.1851 6.84306C32.4046 6.44604 32.6269 6.04387 32.6269 5.85956C32.6269 5.66784 32.2996 5.63474 31.9899 5.6034C31.7116 5.57525 31.4475 5.54853 31.4475 5.40948C31.4475 5.24005 31.7019 5.067 31.9744 4.88164C32.2886 4.66792 32.6269 4.43784 32.6269 4.17809C32.6269 3.92025 32.3097 3.77974 32.0118 3.64778C31.7481 3.53095 31.4995 3.42082 31.4995 3.24189C31.4995 3.14829 31.7131 3.03724 31.9483 2.91497C32.2364 2.76517 32.557 2.59853 32.557 2.42647C32.557 2.28005 32.3203 1.93513 32.0691 1.56904C31.7851 1.15508 31.4824 0.714046 31.4824 0.50235C31.4824 0.251493 32.0233 0.547224 32.5595 0.840437C32.949 1.05336 33.3359 1.26495 33.5116 1.26495C33.7199 1.26495 33.7199 0.658612 33.7199 0.467136C33.7199 0.172494 33.8071 0 33.8932 0C33.9887 0 34.1281 0.145744 34.2775 0.301885C34.4537 0.486154 34.6438 0.684902 34.792 0.675669C34.9651 0.675669 35.1972 0.591331 35.4833 0.487411C35.9423 0.320641 36.5402 0.103441 37.2556 0.103441C39.6991 0.103441 41.4694 1.57748 41.4694 4.09088C41.4694 6.69066 39.4917 8.16442 37.3948 8.16442C36.3933 8.16442 35.6635 7.74057 35.1952 7.4686C34.974 7.34014 34.8112 7.24556 34.7056 7.24556C34.5926 7.24556 34.4522 7.45157 34.314 7.65422C34.1803 7.85037 34.0487 8.04338 33.9463 8.04338C33.8591 8.04338 33.8242 8.02632 33.7898 7.81779C33.7844 7.77712 33.779 7.73355 33.7734 7.68808ZM33.5835 3.53523C33.7491 3.67278 33.9111 3.80731 33.9111 3.9005C33.9111 3.95891 33.7493 4.10213 33.5818 4.25036C33.4022 4.40931 33.2162 4.57402 33.2162 4.64605C33.2162 4.68016 33.2503 4.69722 33.3375 4.69722C33.3903 4.69722 33.4953 4.70058 33.6143 4.70439C33.7699 4.70936 33.9494 4.7151 34.0673 4.7151C34.1546 4.7151 34.1878 4.78443 34.1878 4.85376L34.2236 5.54703C34.2236 5.63397 34.2577 5.70329 34.31 5.70329C34.3843 5.70329 34.493 5.54274 34.6071 5.37426C34.733 5.1883 34.8654 4.99269 34.9653 4.99269C35.0459 4.99269 35.2276 5.05724 35.4039 5.11987C35.57 5.17887 35.7312 5.23616 35.7986 5.23616C35.833 5.23616 35.8509 5.21828 35.8509 5.18334C35.8509 5.1005 35.7477 4.92423 35.6512 4.75924L35.6512 4.75923C35.5662 4.61409 35.4864 4.47768 35.4864 4.42128C35.4864 4.34518 35.7209 4.31018 35.9615 4.27428C36.215 4.23648 36.4751 4.19766 36.4751 4.10876C36.4751 4.04117 36.246 3.96151 36.0103 3.87955C35.7606 3.79272 35.5034 3.7033 35.5034 3.62292C35.5034 3.55088 35.6196 3.39097 35.7317 3.23664C35.8363 3.09272 35.9373 2.95366 35.9373 2.89525C35.9373 2.86031 35.9029 2.84298 35.8679 2.84298C35.7864 2.84298 35.6518 2.90012 35.5087 2.96087C35.3462 3.02986 35.1727 3.10351 35.0533 3.10351C34.9462 3.10351 34.8339 2.81734 34.7346 2.56435C34.656 2.36395 34.5855 2.18437 34.5323 2.18437C34.4532 2.18437 34.4034 2.394 34.3502 2.61846C34.2888 2.87713 34.2228 3.15551 34.1017 3.15551C33.9614 3.15551 33.8011 3.13524 33.6531 3.11653C33.5263 3.1005 33.4086 3.08563 33.3204 3.08563C33.2673 3.08563 33.2332 3.10351 33.2332 3.13762C33.2332 3.24423 33.4104 3.39138 33.5835 3.53523ZM37.2911 7.19411C36.0767 7.19411 35.2781 6.58777 35.2781 6.27525C35.2781 6.11899 35.3824 6.01554 35.5216 6.01554C35.7275 6.01554 36.0649 6.18702 36.3754 6.34489C36.6403 6.47953 36.8857 6.60428 37.0135 6.60428C37.0826 6.60428 37.1345 6.56989 37.1345 6.46562C37.1345 6.30209 37.0539 6.08192 36.9771 5.87198C36.9071 5.68071 36.8402 5.49794 36.8402 5.37426C36.8402 5.30494 36.8922 5.25294 36.9964 5.25294C37.2448 5.25294 37.5573 5.30686 37.8504 5.35743C38.1093 5.40209 38.353 5.44414 38.5241 5.44414C38.6446 5.44414 38.6787 5.37426 38.6787 5.30494C38.6787 5.08922 38.3184 4.75719 38.0052 4.46853C37.7644 4.24658 37.5513 4.05028 37.5513 3.95222C37.5513 3.85988 37.8269 3.74705 38.1337 3.62143C38.5188 3.46374 38.953 3.28592 38.953 3.10324C38.953 2.92714 38.4636 2.90261 37.9808 2.87842C37.5111 2.85488 37.0476 2.83166 37.0476 2.66939C37.0476 2.5404 37.1502 2.36281 37.2465 2.19601C37.3317 2.04833 37.4121 1.90911 37.4121 1.81957C37.4121 1.73264 37.3431 1.69853 37.2218 1.69853C37.159 1.69853 36.9872 1.75168 36.7815 1.8153C36.4751 1.91009 36.0937 2.02811 35.8861 2.02811C35.712 2.02811 35.5037 1.99317 35.5037 1.75052C35.5037 1.35079 36.1807 0.917765 37.2388 0.917765C38.953 0.917765 39.9778 2.09716 39.9778 4.07327C39.9778 6.56989 38.2278 7.19411 37.2911 7.19411ZM25.3621 37.6903C25.501 37.5175 25.5533 37.3434 25.5533 37.1871C25.5533 37.0373 25.5038 36.9051 25.4552 36.7753C25.4082 36.6498 25.3621 36.5264 25.3621 36.3912C25.3621 36.0957 25.5533 35.9051 25.8135 35.9051C26.1434 35.9051 26.3167 36.2 26.3508 36.5109C26.4721 36.3912 26.5756 36.3389 26.7318 36.3389C27.0793 36.3389 27.287 36.6149 27.287 36.9098C27.287 37.1002 27.1836 37.2743 27.0444 37.3775C27.2529 37.4826 27.3739 37.6388 27.3739 37.8644C27.3739 38.142 27.1662 38.3503 26.8881 38.3503C26.7603 38.3503 26.6576 38.2746 26.5532 38.1977C26.4454 38.1184 26.3359 38.0377 26.1954 38.0377C26.0391 38.0377 25.865 38.1068 25.7956 38.2111C25.8999 38.4545 25.9519 38.6955 25.9519 38.9203C25.9519 40.2744 24.2352 41.366 22.4498 41.366C20.6637 41.366 20.0225 40.2573 20.0225 39.8056C20.0225 39.7016 20.0918 39.6493 20.2128 39.6493C20.3244 39.6493 20.4038 39.6642 20.5024 39.6828C20.6646 39.7133 20.879 39.7536 21.3743 39.7536C22.3437 39.7536 22.6458 39.0862 22.943 38.4299C23.2304 37.7949 23.5132 37.1703 24.3909 37.1703C24.6341 37.1692 25.1722 37.3436 25.3621 37.6903Z" fill="white"/>
<path fill-rule="evenodd" clip-rule="evenodd" d="M18.2712 35.9397C18.1328 35.0542 17.4392 34.3086 16.0524 33.9633C14.9429 33.6852 14.7866 33.4775 14.7866 33.1829C14.7866 32.697 15.4639 32.3674 16.0703 32.3674C16.9193 32.3674 17.5435 32.6109 18.1149 33.4775C18.4007 33.9056 18.5557 34.4904 18.6831 34.9713C18.7878 35.3665 18.874 35.6915 18.9988 35.8014C19.138 35.9227 19.3636 35.9576 19.5199 35.9576C19.6144 35.9576 19.7038 35.9523 19.7852 35.9475C19.853 35.9434 19.9152 35.9397 19.97 35.9397C21.2184 35.9397 22.0674 37.3436 22.0674 37.9681C22.0674 38.5409 21.5661 38.7469 20.9416 38.7469C20.1953 38.7469 19.3463 38.3156 18.9127 37.8289C18.5837 37.482 18.4104 36.7879 18.2712 35.9397ZM19.5889 36.9791C19.5889 37.2916 20.3697 37.8468 20.8896 37.8468C21.1485 37.8468 21.2355 37.6905 21.2355 37.5684C21.2355 37.1175 20.4558 36.5796 20.022 36.5796C19.8324 36.5796 19.5889 36.7186 19.5889 36.9791Z" fill="white"/>
<path fill-rule="evenodd" clip-rule="evenodd" d="M20.5084 22.9755C19.8859 23.406 19.2943 23.815 19.2943 24.3409C19.2943 25.1542 20.1926 25.692 20.9227 26.1292C21.4225 26.4285 21.8435 26.6806 21.8435 26.9415C21.8435 27.1498 21.7216 27.2881 21.4438 27.2881C21.1324 27.2881 20.6471 27.0108 20.1612 26.5946C19.6069 27.1327 19.2424 27.8766 19.2424 28.7267C19.2424 30.4439 21.0451 31.8822 22.7968 31.8822C23.0914 31.8822 23.3687 31.8299 23.6807 31.76C22.7274 31.6387 22.1024 30.9111 22.1024 30.0274C22.1024 29.4181 22.4613 28.8432 22.7969 28.3054C23.0918 27.8331 23.3687 27.3894 23.3687 26.9764C23.3687 26.41 22.9982 26.1035 22.6475 25.8136C22.3327 25.5533 22.0339 25.3062 22.0339 24.8961C22.0339 24.5667 22.2769 24.2748 22.5484 23.9486C22.8922 23.5356 23.2818 23.0676 23.2818 22.3989C23.2818 21.7064 22.6061 20.8558 21.6872 20.3529C21.8435 20.6481 21.9299 21.0462 21.9299 21.2718C21.9299 21.9926 21.2 22.4973 20.5084 22.9755ZM24.7558 31.8473C24.7558 31.4975 24.4313 31.3011 24.0734 31.0845C23.6333 30.8182 23.1426 30.5213 23.1426 29.8709C23.1426 29.5754 23.3338 29.0731 23.7156 28.5352C23.8719 29.437 24.2356 29.9053 25.0163 30.2004C26.5586 30.7719 26.7671 31.6387 26.7671 32.5584C26.7671 34.1197 25.675 36.0608 22.8666 36.0608C20.6121 36.0608 18.9997 34.0498 18.9997 32.351C18.9997 31.8822 19.1208 31.362 19.4157 31.362C19.6097 31.362 19.7075 31.4774 19.8305 31.6224C19.8725 31.6719 19.9174 31.7249 19.97 31.7779C20.7513 32.5584 21.6 32.7661 22.8317 32.7661C23.9409 32.7661 24.7558 32.316 24.7558 31.8473ZM24.8249 33.0957C24.7122 33.1473 24.6124 33.1875 24.5246 33.2228C24.149 33.3738 23.9932 33.4365 23.9932 33.9293C23.9932 34.0517 23.9777 34.1947 23.9636 34.3247C23.9518 34.4332 23.9409 34.5328 23.9409 34.6039C23.9409 34.8116 23.9759 34.9337 24.2177 34.9337C24.8428 34.9337 25.8309 33.8762 25.8309 32.9744C25.8309 32.7312 25.6917 32.6286 25.5355 32.6286C25.4719 32.6286 25.405 32.6864 25.3115 32.7673C25.2002 32.8635 25.0512 32.9923 24.8249 33.0957ZM9.23827 32.9051C9.31145 33.4974 9.86332 33.9458 10.4867 33.8767C10.7115 33.852 10.9206 33.7895 11.0598 33.7034C11.1982 34.2578 11.6639 34.6146 12.2928 34.532C12.9311 34.449 13.3657 33.9461 13.2964 33.3037C13.284 33.1659 13.2489 33.0311 13.1924 32.9048C13.1924 32.9048 13.2772 32.8965 13.341 32.8839C13.9666 32.7656 14.3889 32.2635 14.3369 31.6563C14.2675 31.0329 13.7077 30.5696 13.1239 30.6412C12.8983 30.669 12.6892 30.7545 12.55 30.8767C12.3938 30.3573 11.9049 29.9047 11.2369 30.0159C10.6345 30.1154 10.2355 30.6271 10.2963 31.2753C10.3057 31.3804 10.3305 31.5009 10.3827 31.6214L10.2108 31.647C9.70458 31.7224 9.15574 32.2316 9.23827 32.9051ZM12.2215 32.8381C12.4119 32.6946 12.51 32.4594 12.478 32.2231C12.4507 31.9892 12.3008 31.7876 12.0847 31.6942C11.8685 31.6009 11.619 31.6299 11.43 31.7704C11.2411 31.911 11.1415 32.1416 11.1687 32.3755C11.1918 32.6128 11.3413 32.8192 11.5596 32.9152C11.7779 33.0111 12.031 32.9816 12.2215 32.8381Z" fill="white"/>
</g>
</svg>
