<svg width="22" height="25" viewBox="0 0 22 25" fill="none" xmlns="http://www.w3.org/2000/svg">
<path fill-rule="evenodd" clip-rule="evenodd" d="M10.8369 14.7725C9.96972 14.7719 9.46934 14.7786 8.81661 14.8099C7.89604 14.8541 7.03047 14.9407 6.20659 15.0838C4.54029 15.3733 3.14674 15.8755 2.08219 16.6647C0.742509 17.6579 0 19.0634 0 20.845C0 23.1396 1.82672 24.9997 4.08009 24.9997H17.8896C20.143 24.9997 21.9697 23.1396 21.9697 20.845C21.9697 19.0634 21.2272 17.6579 19.8875 16.6647C18.823 15.8755 17.4294 15.3733 15.7631 15.0838C14.9392 14.9407 14.0737 14.8541 13.1531 14.8099C12.9459 14.8 12.754 14.7925 12.5609 14.787L12.5029 14.7854C12.1062 14.7748 11.6972 14.7721 11.1328 14.7725L11.1207 14.7725L11.0793 14.7725L11.0705 14.7725H10.8992L10.8904 14.7725L10.849 14.7725L10.8369 14.7725ZM9.43741 16.7045C9.84037 16.6926 10.2496 16.6896 10.8355 16.69L10.8478 16.69L10.8894 16.6901L10.8982 16.6901H11.0715L11.0803 16.6901L11.1219 16.69L11.1342 16.69C11.7601 16.6896 12.1843 16.693 12.6147 16.7071L12.6697 16.7089C12.7981 16.7134 12.9279 16.7188 13.0645 16.7253C13.9137 16.766 14.7051 16.8452 15.4464 16.974C16.8515 17.2181 17.9862 17.627 18.7792 18.2149C19.6443 18.8563 20.0866 19.6934 20.0866 20.8449C20.0866 22.0804 19.1029 23.0821 17.8896 23.0821H4.08009C2.86674 23.0821 1.88312 22.0804 1.88312 20.8449C1.88312 19.6934 2.32537 18.8563 3.19053 18.2149C3.9835 17.627 5.11818 17.2181 6.52328 16.974C7.26456 16.8452 8.056 16.766 8.90516 16.7253C9.07105 16.7174 9.22688 16.7111 9.38249 16.7062L9.43741 16.7045Z" fill="black"/>
<path fill-rule="evenodd" clip-rule="evenodd" d="M17.0455 6.06061C17.0455 2.71344 14.3321 0 10.9849 0C7.63774 0 4.92432 2.71342 4.92432 6.06061C4.92432 9.40779 7.63774 12.1212 10.9849 12.1212C14.3321 12.1212 17.0455 9.40777 17.0455 6.06061ZM6.83819 6.06061C6.83819 3.77043 8.69475 1.91388 10.9849 1.91388C13.2751 1.91388 15.1317 3.77045 15.1317 6.06061C15.1317 8.35076 13.2751 10.2073 10.9849 10.2073C8.69475 10.2073 6.83819 8.35078 6.83819 6.06061Z" fill="black"/>
</svg>
