<svg width="24" height="24" viewBox="0 0 24 24" fill="none" xmlns="http://www.w3.org/2000/svg">
<path fill-rule="evenodd" clip-rule="evenodd" d="M3.48669 16.8437L2.20595 21.5499L6.91021 20.2663C8.3564 21.1095 10.001 21.5526 11.6751 21.5499C16.907 21.5499 21.148 17.3088 21.148 12.0769C21.148 6.84504 16.907 2.604 11.6751 2.604C6.44319 2.604 2.20216 6.84504 2.20216 12.0769C2.19941 13.7517 2.64278 15.3971 3.48669 16.8437ZM7.90485 7.72697C8.01443 7.67205 8.13397 7.63983 8.2563 7.63224V7.63129C8.38336 7.62245 8.51084 7.62118 8.63806 7.6275C8.68921 7.63129 8.74036 7.63697 8.79151 7.64266H8.79152C8.94214 7.66066 9.10791 7.7516 9.1638 7.87853C9.4461 8.5189 9.72081 9.16401 9.98605 9.81196C10.0448 9.955 10.0097 10.1397 9.89796 10.3197C9.82111 10.4417 9.73795 10.5597 9.64882 10.673C9.54177 10.8095 9.31158 11.0614 9.31158 11.0614C9.31158 11.0614 9.2178 11.1732 9.2538 11.3125C9.27782 11.381 9.31028 11.4462 9.35042 11.5067L9.40631 11.5967C9.67507 12.0372 9.99986 12.4409 10.3726 12.7978C10.4032 12.8274 10.4336 12.8573 10.464 12.8872C10.5466 12.9683 10.6292 13.0495 10.7164 13.1256C11.16 13.5167 11.6617 13.8363 12.2037 14.0729L12.2084 14.0748C12.2317 14.0849 12.2517 14.0937 12.2711 14.1023C12.3189 14.1233 12.3637 14.143 12.4471 14.178C12.5059 14.2032 12.5663 14.2241 12.6281 14.2406C12.7585 14.2741 12.8963 14.2254 12.9767 14.1174C13.6616 13.2876 13.725 13.2336 13.7298 13.2336V13.2355C13.8262 13.1456 13.9567 13.1017 14.0878 13.1152C14.1456 13.1177 14.2025 13.1309 14.2555 13.154C14.7585 13.3833 15.5827 13.7423 15.5827 13.7423L16.134 13.9895C16.2259 14.034 16.3102 14.1392 16.314 14.2406C16.3141 14.2441 16.3143 14.2478 16.3145 14.2516C16.3175 14.3158 16.3222 14.4169 16.3007 14.5939C16.2704 14.8392 16.1965 15.1339 16.1226 15.2883C16.0705 15.3972 16.0023 15.4929 15.9237 15.5743C15.8176 15.6852 15.739 15.7524 15.6111 15.8472C15.5334 15.9059 15.4927 15.9324 15.4927 15.9324C15.361 16.0158 15.2871 16.0575 15.1299 16.1408C14.886 16.2707 14.6167 16.3454 14.3408 16.3597C14.3101 16.3611 14.2795 16.3628 14.2489 16.3644C14.1036 16.3721 13.9588 16.3798 13.8141 16.372L13.2751 16.2896C11.9282 15.9353 10.6827 15.2717 9.63745 14.3514C9.45887 14.1934 9.29093 14.0255 9.12192 13.8565C9.08922 13.8238 9.05647 13.7911 9.0236 13.7584C8.18146 12.92 7.54393 12.0154 7.15649 11.1609C6.96703 10.7384 6.84578 10.2866 6.84388 9.82238C6.84067 9.24777 7.02899 8.68847 7.3791 8.23282C7.38959 8.21917 7.39998 8.20545 7.41044 8.19162C7.46894 8.11433 7.52992 8.03375 7.62635 7.94295C7.70828 7.85791 7.80209 7.78516 7.90485 7.72697Z" fill="white"/>
</svg>
