<svg width="38" height="38" viewBox="0 0 38 38" fill="none" xmlns="http://www.w3.org/2000/svg">
<circle cx="19" cy="19" r="19" fill="#B0F560"/>
<path d="M17.0768 6.21504C15.6176 6.36641 14.2493 6.77207 12.8991 7.45019C11.004 8.40078 9.56901 9.66621 8.38229 11.4402C5.80905 15.2607 5.68796 20.274 8.05534 24.3791L8.32174 24.8393L7.29245 27.6123C6.51745 29.7133 6.27526 30.4338 6.29948 30.5609C6.34792 30.7729 6.65671 31.0332 6.85651 31.0332C6.94128 31.0332 8.20065 30.5307 9.65378 29.9131L12.2936 28.793L13.2321 29.2652C15.9809 30.6578 19.0506 31.0029 21.9932 30.2521C26.177 29.1805 29.501 25.8141 30.5243 21.6182C30.9602 19.8078 30.9602 17.61 30.5243 15.8057C29.6161 12.1002 27.1034 9.02441 23.6159 7.35332C21.6178 6.39668 19.2505 5.98496 17.0768 6.21504ZM19.4079 7.42598C24.409 7.93457 28.4657 11.6461 29.4708 16.6291C29.5919 17.2285 29.61 17.4949 29.61 18.7119C29.61 19.8078 29.5858 20.2195 29.501 20.6494C28.9561 23.368 27.5938 25.6082 25.5049 27.2248C21.963 29.9676 17.0223 30.2037 13.0868 27.8303C12.778 27.6426 12.5055 27.5215 12.4026 27.5215C12.2997 27.5215 11.2704 27.9271 10.1079 28.4176C8.94538 28.9141 7.98874 29.3137 7.97663 29.3076C7.97057 29.3016 8.3278 28.2965 8.7819 27.0795C9.22995 25.8625 9.59928 24.7969 9.59928 24.7242C9.59928 24.6455 9.47213 24.3791 9.31471 24.1309C6.98971 20.4072 7.00182 15.7209 9.33893 12.1729C11.5368 8.83672 15.4057 7.01426 19.4079 7.42598Z" fill="black"/>
<path d="M14.2314 11.1556C13.5291 11.4401 12.633 12.2091 12.1729 12.9296C11.6643 13.7106 11.5189 14.4251 11.6521 15.4241C12.0033 18.0579 13.7471 20.8794 16.29 22.938C18.2699 24.5425 20.4738 25.4628 22.3387 25.481C22.8473 25.481 23.0229 25.4567 23.3861 25.3296C24.4154 24.9663 25.5174 23.9249 25.9291 22.9198C26.1652 22.3507 26.0865 21.7271 25.7354 21.3819C25.6324 21.279 25.251 21.0126 24.8877 20.7946C24.5184 20.5767 23.925 20.2134 23.5617 19.9954C22.5324 19.3657 22.0965 19.287 21.5334 19.6321C21.2852 19.7896 21.0854 20.0015 20.4254 20.8007L20.2014 21.0731L19.9713 20.9884C19.4082 20.7886 18.282 19.9288 17.5252 19.1175C16.7623 18.3001 16.0781 17.295 16.0781 16.9862C16.0781 16.9196 16.2658 16.7198 16.5201 16.5079C17.1074 16.0296 17.5676 15.5271 17.6523 15.2546C17.8037 14.8005 17.616 14.3222 16.6957 12.8388C15.7875 11.3796 15.7633 11.3433 15.4787 11.1919C15.1578 11.0224 14.6008 11.0042 14.2314 11.1556ZM15.1578 12.6571C15.2729 12.8569 15.5635 13.3353 15.8057 13.7167C16.0479 14.0981 16.3021 14.528 16.3687 14.6673L16.502 14.9216L16.0963 15.2728C14.8793 16.3263 14.74 16.5321 14.8672 17.1255C15.0307 17.9187 15.7088 18.9661 16.7381 20.0317C18.0762 21.4122 19.39 22.2538 20.2377 22.2599C20.6736 22.2659 20.8977 22.1146 21.4971 21.394C22.2115 20.5403 22.1389 20.5827 22.5809 20.8188C22.7807 20.9339 23.3316 21.2608 23.7979 21.5454C24.2641 21.836 24.6939 22.1024 24.7605 22.1388C24.924 22.2356 24.8514 22.496 24.5244 22.9501C24.0098 23.6767 23.2227 24.2155 22.5869 24.2882C22.1691 24.3366 21.1822 24.1731 20.498 23.9491C16.8834 22.7503 13.4988 18.9964 12.8934 15.5331C12.7057 14.4433 12.8631 13.8681 13.5594 13.1233C14.0014 12.6511 14.5887 12.2515 14.8006 12.2757C14.9156 12.2878 15.0064 12.3847 15.1578 12.6571Z" fill="black"/>
</svg>
