<svg width="28" height="28" viewBox="0 0 28 28" fill="none" xmlns="http://www.w3.org/2000/svg">
<path fill-rule="evenodd" clip-rule="evenodd" d="M3.916 19.8708L2.33867 25.6668L8.13233 24.086C9.91343 25.1245 11.9389 25.6702 14.0007 25.6668C20.4442 25.6668 25.6673 20.4437 25.6673 14.0002C25.6673 7.55666 20.4442 2.3335 14.0007 2.3335C7.55717 2.3335 2.334 7.55666 2.334 14.0002C2.33061 16.0628 2.87666 18.0892 3.916 19.8708ZM9.35732 8.64283C9.49227 8.5752 9.63949 8.53552 9.79015 8.52616V8.525C9.94664 8.5141 10.1036 8.51255 10.2603 8.52033C10.3233 8.525 10.3863 8.532 10.4493 8.539C10.6348 8.56116 10.839 8.67316 10.9078 8.8295C11.2555 9.61816 11.5938 10.4127 11.9205 11.2107C11.9928 11.3868 11.9497 11.6143 11.812 11.836C11.7173 11.9863 11.6149 12.1315 11.5052 12.2712C11.3733 12.4392 11.0898 12.7495 11.0898 12.7495C11.0898 12.7495 10.9743 12.8872 11.0187 13.0587C11.0482 13.143 11.0882 13.2234 11.1377 13.2978L11.2065 13.4087C11.5375 13.9512 11.9375 14.4484 12.3965 14.888C12.4342 14.9245 12.4717 14.9613 12.5091 14.9981C12.6108 15.0979 12.7126 15.1979 12.82 15.2917C13.3662 15.7733 13.9842 16.1669 14.6517 16.4583L14.6575 16.4607C14.6862 16.4732 14.7108 16.484 14.7348 16.4946C14.7936 16.5205 14.8487 16.5447 14.9515 16.5878C15.0238 16.6188 15.0983 16.6445 15.1743 16.6648C15.335 16.7062 15.5046 16.6462 15.6037 16.5132C16.4472 15.4912 16.5253 15.4247 16.5312 15.4247V15.427C16.6499 15.3163 16.8107 15.2622 16.9722 15.2788C17.0433 15.282 17.1133 15.2982 17.1787 15.3267C17.7982 15.609 18.8132 16.0512 18.8132 16.0512L19.4922 16.3557C19.6053 16.4105 19.7092 16.54 19.7138 16.6648C19.714 16.6692 19.7142 16.6738 19.7144 16.6785C19.7181 16.7575 19.7239 16.882 19.6975 17.1C19.6602 17.4022 19.5692 17.765 19.4782 17.9552C19.414 18.0893 19.33 18.2072 19.2332 18.3075C19.1025 18.444 19.0057 18.5268 18.8482 18.6435C18.7525 18.7158 18.7023 18.7485 18.7023 18.7485C18.5402 18.8512 18.4492 18.9025 18.2555 19.0052C17.9552 19.1651 17.6234 19.2571 17.2837 19.2747C17.2459 19.2765 17.2082 19.2785 17.1705 19.2805C16.9916 19.29 16.8133 19.2995 16.635 19.2898L15.9712 19.1883C14.3124 18.752 12.7784 17.9347 11.4912 16.8013C11.2712 16.6068 11.0644 16.4 10.8562 16.1919C10.816 16.1516 10.7756 16.1113 10.7352 16.071C9.69799 15.0385 8.91282 13.9243 8.43565 12.872C8.20232 12.3517 8.05299 11.7952 8.05065 11.2235C8.0467 10.5158 8.27863 9.82699 8.70982 9.26583C8.72274 9.24901 8.73553 9.23212 8.74841 9.2151C8.82045 9.1199 8.89556 9.02066 9.01432 8.90883C9.11523 8.80409 9.23076 8.7145 9.35732 8.64283Z" fill="black"/>
</svg>
