<svg width="20" height="20" viewBox="0 0 20 20" fill="none" xmlns="http://www.w3.org/2000/svg">
<circle cx="10" cy="10" r="9.5" stroke="#B0F560"/>
<path fill-rule="evenodd" clip-rule="evenodd" d="M6.80002 14C7.00475 14 7.20948 13.9219 7.36569 13.7657L12.4 8.73135V13.2C12.4 13.6418 12.7582 14 13.2 14C13.6418 14 14 13.6418 14 13.2V6.80385C14 6.79031 13.9998 6.77674 13.9992 6.7632C13.995 6.67118 13.9753 6.5832 13.9426 6.50183C13.9044 6.40656 13.8471 6.31713 13.7708 6.23945C13.7707 6.23943 13.7707 6.23943 13.7707 6.23941C13.7702 6.23887 13.7697 6.23833 13.7691 6.2378C13.7689 6.23755 13.7687 6.2373 13.7684 6.23707C13.7681 6.23676 13.7677 6.23639 13.7674 6.23609C13.7669 6.23557 13.7664 6.23503 13.7659 6.23451L13.7657 6.23434L13.7639 6.23253C13.7638 6.23246 13.7637 6.23236 13.7636 6.23229C13.7631 6.23181 13.7626 6.23131 13.7622 6.23083C13.7618 6.23048 13.7615 6.23012 13.7611 6.22979L13.7605 6.22917C13.76 6.22871 13.7595 6.22823 13.7591 6.22779C13.759 6.2277 13.7589 6.22762 13.7588 6.22752C13.684 6.15447 13.5984 6.09902 13.5073 6.06116C13.4229 6.02602 13.3312 6.00494 13.2352 6.00077C13.2221 6.0002 13.2091 5.99997 13.1961 6H6.8C6.35818 6 6 6.35818 6 6.80001C6 7.24184 6.35818 7.60001 6.8 7.60001H11.2686L6.23432 12.6343C5.92191 12.9467 5.92191 13.4532 6.23432 13.7657C6.39053 13.9219 6.59528 14 6.80002 14Z" fill="#B0F560"/>
</svg>
