<svg width="285" height="76" viewBox="0 0 285 76" fill="none" xmlns="http://www.w3.org/2000/svg">
<g filter="url(#filter0_b_21_3592)">
<rect x="0.851074" width="284" height="76" rx="38" fill="black" fill-opacity="0.240794"/>
</g>
<path d="M49.5897 45.7288V49.9858H33.1637V45.7288H39.2697V30.7218C39.0117 31.0658 38.6103 31.4241 38.0657 31.7968C37.521 32.1695 36.9047 32.5278 36.2167 32.8718C35.5573 33.1871 34.8837 33.4451 34.1957 33.6458C33.5077 33.8465 32.877 33.9468 32.3037 33.9468V29.5178C32.877 29.5178 33.5363 29.3458 34.2817 29.0018C35.027 28.6578 35.758 28.2565 36.4747 27.7978C37.22 27.3105 37.8507 26.8518 38.3667 26.4218C38.8827 25.9631 39.1837 25.6335 39.2697 25.4328H44.1287V45.7288H49.5897ZM54.9555 36.0108C54.9555 37.9315 55.4142 39.6658 56.3315 41.2138C57.2775 42.7331 58.5532 43.9515 60.1585 44.8688C61.7638 45.7861 63.5555 46.2448 65.5335 46.2448C66.6228 46.2448 67.6262 46.0728 68.5435 45.7288C69.4895 45.3848 70.3208 44.8975 71.0375 44.2668C71.7542 43.6361 72.3132 42.9051 72.7145 42.0738C72.6858 44.2811 72.3705 46.1588 71.7685 47.7068C71.1952 49.2548 70.3782 50.4301 69.3175 51.2328C68.2568 52.0641 67.0098 52.4798 65.5765 52.4798C64.2005 52.4798 62.9248 52.1215 61.7495 51.4048C60.5742 50.6881 59.6568 49.7421 58.9975 48.5668L56.2025 51.4908C57.2058 53.0961 58.5245 54.3431 60.1585 55.2318C61.7925 56.1491 63.5698 56.6078 65.4905 56.6078C67.8412 56.6078 69.8908 55.9485 71.6395 54.6298C73.3882 53.3111 74.7355 51.3475 75.6815 48.7388C76.6562 46.1301 77.1435 42.8765 77.1435 38.9778C77.1435 36.1398 76.6705 33.7175 75.7245 31.7108C74.8072 29.6755 73.5172 28.1275 71.8545 27.0668C70.1918 25.9775 68.2425 25.4328 66.0065 25.4328C63.9425 25.4328 62.0648 25.9058 60.3735 26.8518C58.7108 27.7978 57.3922 29.0735 56.4175 30.6788C55.4428 32.2841 54.9555 34.0615 54.9555 36.0108ZM65.9635 29.4748C67.1388 29.4748 68.2138 29.7758 69.1885 30.3778C70.1632 30.9511 70.9515 31.7395 71.5535 32.7428C72.1555 33.7461 72.4565 34.8355 72.4565 36.0108C72.4565 37.1861 72.1555 38.2611 71.5535 39.2358C70.9802 40.2105 70.2062 40.9988 69.2315 41.6008C68.2568 42.1741 67.1675 42.4608 65.9635 42.4608C64.7882 42.4608 63.6988 42.1741 62.6955 41.6008C61.7208 40.9988 60.9325 40.2105 60.3305 39.2358C59.7572 38.2611 59.4705 37.1861 59.4705 36.0108C59.4705 34.8068 59.7572 33.7175 60.3305 32.7428C60.9325 31.7395 61.7208 30.9511 62.6955 30.3778C63.6988 29.7758 64.7882 29.4748 65.9635 29.4748ZM105.908 37.3868C105.908 39.9095 105.421 42.1598 104.446 44.1378C103.5 46.0871 102.196 47.6208 100.533 48.7388C98.8994 49.8568 97.0218 50.4158 94.9004 50.4158C92.8078 50.4158 90.9301 49.8568 89.2674 48.7388C87.6048 47.6208 86.2861 46.0871 85.3114 44.1378C84.3654 42.1598 83.8924 39.9095 83.8924 37.3868C83.8924 34.8641 84.3654 32.6281 85.3114 30.6788C86.2861 28.7008 87.6048 27.1528 89.2674 26.0348C90.9301 24.8881 92.8078 24.3148 94.9004 24.3148C97.0218 24.3148 98.8994 24.8881 100.533 26.0348C102.196 27.1528 103.5 28.7008 104.446 30.6788C105.421 32.6281 105.908 34.8641 105.908 37.3868ZM101.092 37.3868C101.092 35.6668 100.834 34.1618 100.318 32.8718C99.8024 31.5531 99.0714 30.5355 98.1254 29.8188C97.1794 29.0735 96.1044 28.7008 94.9004 28.7008C93.6678 28.7008 92.5784 29.0735 91.6324 29.8188C90.6864 30.5355 89.9411 31.5531 89.3964 32.8718C88.8804 34.1618 88.6224 35.6668 88.6224 37.3868C88.6224 39.1068 88.8804 40.6118 89.3964 41.9018C89.9411 43.1918 90.6864 44.2095 91.6324 44.9548C92.5784 45.6715 93.6678 46.0298 94.9004 46.0298C96.1044 46.0298 97.1651 45.6715 98.0824 44.9548C99.0284 44.2095 99.7594 43.1918 100.275 41.9018C100.82 40.6118 101.092 39.1068 101.092 37.3868ZM126.907 32.8288V36.6128H122.134V41.8158H117.877V36.6128H113.104V32.8288H117.877V27.6258H122.134V32.8288H126.907Z" fill="white"/>
<path opacity="0.605911" d="M162.656 34.804C162.656 35.26 162.536 35.652 162.296 35.98C162.064 36.308 161.748 36.56 161.348 36.736C160.948 36.912 160.508 37 160.028 37H155.96V28.48H160.352C160.752 28.48 161.096 28.588 161.384 28.804C161.68 29.012 161.904 29.284 162.056 29.62C162.216 29.948 162.296 30.292 162.296 30.652C162.296 31.068 162.188 31.46 161.972 31.828C161.764 32.188 161.464 32.456 161.072 32.632C161.56 32.776 161.944 33.04 162.224 33.424C162.512 33.8 162.656 34.26 162.656 34.804ZM161.276 34.552C161.276 34.312 161.224 34.096 161.12 33.904C161.024 33.704 160.888 33.544 160.712 33.424C160.544 33.296 160.344 33.232 160.112 33.232H157.304V35.836H160.028C160.268 35.836 160.48 35.78 160.664 35.668C160.856 35.548 161.004 35.392 161.108 35.2C161.22 35 161.276 34.784 161.276 34.552ZM157.304 29.644V32.152H159.776C160 32.152 160.2 32.1 160.376 31.996C160.552 31.884 160.692 31.736 160.796 31.552C160.9 31.36 160.952 31.144 160.952 30.904C160.952 30.656 160.904 30.44 160.808 30.256C160.712 30.064 160.58 29.916 160.412 29.812C160.252 29.7 160.064 29.644 159.848 29.644H157.304ZM164.863 37V28.48H168.571C168.955 28.48 169.307 28.56 169.627 28.72C169.947 28.88 170.223 29.092 170.455 29.356C170.695 29.62 170.879 29.916 171.007 30.244C171.143 30.572 171.211 30.908 171.211 31.252C171.211 31.628 171.143 31.988 171.007 32.332C170.871 32.676 170.675 32.972 170.419 33.22C170.171 33.468 169.879 33.648 169.543 33.76L171.547 37H170.035L168.187 34.036H166.207V37H164.863ZM166.207 32.848H168.559C168.807 32.848 169.027 32.776 169.219 32.632C169.411 32.488 169.563 32.296 169.675 32.056C169.787 31.808 169.843 31.54 169.843 31.252C169.843 30.956 169.779 30.692 169.651 30.46C169.523 30.22 169.355 30.028 169.147 29.884C168.947 29.74 168.727 29.668 168.487 29.668H166.207V32.848ZM176.061 28.48H177.333L180.645 37H179.229L178.329 34.684H175.041L174.153 37H172.725L176.061 28.48ZM178.065 33.688L176.697 29.956L175.281 33.688H178.065ZM183.848 30.976V37H182.504V28.48H183.608L188.432 34.636V28.492H189.788V37H188.612L183.848 30.976ZM192.508 37V28.48H195.532C196.452 28.48 197.22 28.672 197.836 29.056C198.452 29.432 198.912 29.944 199.216 30.592C199.528 31.232 199.684 31.944 199.684 32.728C199.684 33.592 199.512 34.344 199.168 34.984C198.832 35.624 198.352 36.12 197.728 36.472C197.104 36.824 196.372 37 195.532 37H192.508ZM198.316 32.728C198.316 32.128 198.204 31.6 197.98 31.144C197.764 30.68 197.448 30.32 197.032 30.064C196.624 29.8 196.124 29.668 195.532 29.668H193.852V35.812H195.532C196.132 35.812 196.636 35.676 197.044 35.404C197.46 35.132 197.776 34.764 197.992 34.3C198.208 33.836 198.316 33.312 198.316 32.728ZM206.931 30.484C206.851 30.396 206.735 30.304 206.583 30.208C206.431 30.104 206.251 30.008 206.043 29.92C205.835 29.832 205.611 29.76 205.371 29.704C205.131 29.648 204.883 29.62 204.627 29.62C204.067 29.62 203.651 29.724 203.379 29.932C203.107 30.14 202.971 30.428 202.971 30.796C202.971 31.068 203.047 31.284 203.199 31.444C203.351 31.596 203.583 31.724 203.895 31.828C204.207 31.932 204.599 32.044 205.071 32.164C205.647 32.3 206.147 32.464 206.571 32.656C206.995 32.84 207.319 33.088 207.543 33.4C207.767 33.712 207.879 34.124 207.879 34.636C207.879 35.068 207.799 35.44 207.639 35.752C207.479 36.064 207.255 36.32 206.967 36.52C206.679 36.712 206.347 36.856 205.971 36.952C205.595 37.04 205.191 37.084 204.759 37.084C204.335 37.084 203.911 37.04 203.487 36.952C203.071 36.864 202.671 36.736 202.287 36.568C201.911 36.392 201.563 36.18 201.243 35.932L201.855 34.78C201.959 34.884 202.107 35 202.299 35.128C202.499 35.248 202.727 35.364 202.983 35.476C203.247 35.588 203.531 35.684 203.835 35.764C204.147 35.836 204.463 35.872 204.783 35.872C205.319 35.872 205.727 35.78 206.007 35.596C206.295 35.404 206.439 35.132 206.439 34.78C206.439 34.492 206.347 34.264 206.163 34.096C205.979 33.92 205.711 33.772 205.359 33.652C205.007 33.532 204.587 33.412 204.099 33.292C203.539 33.14 203.071 32.976 202.695 32.8C202.319 32.616 202.035 32.384 201.843 32.104C201.659 31.816 201.567 31.452 201.567 31.012C201.567 30.452 201.703 29.98 201.975 29.596C202.247 29.204 202.615 28.912 203.079 28.72C203.551 28.52 204.079 28.42 204.663 28.42C205.047 28.42 205.411 28.464 205.755 28.552C206.099 28.632 206.419 28.744 206.715 28.888C207.019 29.032 207.295 29.196 207.543 29.38L206.931 30.484ZM213.802 37V28.48H215.146V37H213.802ZM219.221 30.976V37H217.877V28.48H218.981L223.805 34.636V28.492H225.161V37H223.985L219.221 30.976ZM162.212 43.668H159.38V51H158.024V43.668H155.18V42.48H162.212V43.668ZM171.156 42.48V51H169.8V47.244H165.504V51H164.16V42.48H165.504V46.044H169.8V42.48H171.156ZM179.727 49.812V51H173.883V42.48H179.619V43.668H175.227V46.092H179.031V47.208H175.227V49.812H179.727ZM185.148 46.68C185.148 46.16 185.24 45.652 185.424 45.156C185.608 44.652 185.876 44.196 186.228 43.788C186.588 43.372 187.024 43.044 187.536 42.804C188.048 42.556 188.628 42.432 189.276 42.432C190.044 42.432 190.708 42.608 191.268 42.96C191.828 43.304 192.244 43.748 192.516 44.292L191.46 45C191.3 44.656 191.096 44.384 190.848 44.184C190.608 43.984 190.344 43.844 190.056 43.764C189.776 43.684 189.5 43.644 189.228 43.644C188.78 43.644 188.388 43.736 188.052 43.92C187.716 44.096 187.432 44.332 187.2 44.628C186.976 44.924 186.804 45.256 186.684 45.624C186.572 45.992 186.516 46.36 186.516 46.728C186.516 47.136 186.584 47.532 186.72 47.916C186.856 48.292 187.044 48.628 187.284 48.924C187.532 49.212 187.824 49.44 188.16 49.608C188.496 49.776 188.864 49.86 189.264 49.86C189.536 49.86 189.82 49.812 190.116 49.716C190.412 49.62 190.684 49.472 190.932 49.272C191.188 49.064 191.388 48.792 191.532 48.456L192.648 49.092C192.472 49.516 192.196 49.876 191.82 50.172C191.452 50.468 191.036 50.692 190.572 50.844C190.116 50.996 189.664 51.072 189.216 51.072C188.616 51.072 188.068 50.948 187.572 50.7C187.076 50.444 186.648 50.108 186.288 49.692C185.928 49.268 185.648 48.796 185.448 48.276C185.248 47.748 185.148 47.216 185.148 46.68ZM197.039 42.48H198.311L201.623 51H200.207L199.307 48.684H196.019L195.131 51H193.703L197.039 42.48ZM199.043 47.688L197.675 43.956L196.259 47.688H199.043ZM208.937 43.668H206.105V51H204.749V43.668H201.905V42.48H208.937V43.668ZM212.547 42.48H213.819L217.131 51H215.715L214.815 48.684H211.527L210.639 51H209.211L212.547 42.48ZM214.551 47.688L213.183 43.956L211.767 47.688H214.551ZM218.99 51V42.48H220.334V49.812H224.906V51H218.99ZM230.108 51.06C229.492 51.06 228.936 50.94 228.44 50.7C227.944 50.46 227.516 50.136 227.156 49.728C226.796 49.312 226.516 48.848 226.316 48.336C226.124 47.816 226.028 47.284 226.028 46.74C226.028 46.172 226.132 45.632 226.34 45.12C226.548 44.6 226.836 44.14 227.204 43.74C227.572 43.332 228.004 43.012 228.5 42.78C229.004 42.54 229.548 42.42 230.132 42.42C230.74 42.42 231.292 42.544 231.788 42.792C232.292 43.04 232.72 43.372 233.072 43.788C233.432 44.204 233.708 44.668 233.9 45.18C234.1 45.692 234.2 46.216 234.2 46.752C234.2 47.32 234.096 47.864 233.888 48.384C233.688 48.896 233.404 49.356 233.036 49.764C232.668 50.164 232.232 50.48 231.728 50.712C231.232 50.944 230.692 51.06 230.108 51.06ZM227.396 46.74C227.396 47.14 227.46 47.528 227.588 47.904C227.716 48.28 227.896 48.616 228.128 48.912C228.368 49.2 228.656 49.428 228.992 49.596C229.328 49.764 229.704 49.848 230.12 49.848C230.552 49.848 230.936 49.76 231.272 49.584C231.608 49.408 231.888 49.172 232.112 48.876C232.344 48.572 232.52 48.236 232.64 47.868C232.76 47.492 232.82 47.116 232.82 46.74C232.82 46.34 232.756 45.956 232.628 45.588C232.508 45.212 232.328 44.88 232.088 44.592C231.848 44.296 231.56 44.064 231.224 43.896C230.896 43.728 230.528 43.644 230.12 43.644C229.688 43.644 229.304 43.732 228.968 43.908C228.632 44.084 228.348 44.32 228.116 44.616C227.884 44.912 227.704 45.244 227.576 45.612C227.456 45.98 227.396 46.356 227.396 46.74ZM239.877 51.06C239.317 51.06 238.793 50.944 238.305 50.712C237.817 50.48 237.389 50.16 237.021 49.752C236.661 49.344 236.377 48.88 236.169 48.36C235.969 47.84 235.869 47.288 235.869 46.704C235.869 46.12 235.969 45.572 236.169 45.06C236.377 44.548 236.661 44.092 237.021 43.692C237.389 43.292 237.817 42.98 238.305 42.756C238.801 42.532 239.341 42.42 239.925 42.42C240.733 42.42 241.413 42.592 241.965 42.936C242.525 43.272 242.945 43.72 243.225 44.28L242.193 45.024C241.969 44.56 241.649 44.212 241.233 43.98C240.825 43.748 240.377 43.632 239.889 43.632C239.489 43.632 239.125 43.716 238.797 43.884C238.469 44.052 238.185 44.284 237.945 44.58C237.713 44.868 237.537 45.2 237.417 45.576C237.297 45.944 237.237 46.332 237.237 46.74C237.237 47.172 237.305 47.576 237.441 47.952C237.577 48.328 237.769 48.66 238.017 48.948C238.265 49.228 238.557 49.448 238.893 49.608C239.229 49.768 239.593 49.848 239.985 49.848C240.449 49.848 240.889 49.732 241.305 49.5C241.729 49.26 242.125 48.904 242.493 48.432V49.8C241.749 50.64 240.877 51.06 239.877 51.06ZM242.361 47.688H240.573V46.692H243.489V51H242.361V47.688Z" fill="white"/>
<defs>
<filter id="filter0_b_21_3592" x="-56.2328" y="-57.0839" width="398.168" height="190.168" filterUnits="userSpaceOnUse" color-interpolation-filters="sRGB">
<feFlood flood-opacity="0" result="BackgroundImageFix"/>
<feGaussianBlur in="BackgroundImageFix" stdDeviation="28.542"/>
<feComposite in2="SourceAlpha" operator="in" result="effect1_backgroundBlur_21_3592"/>
<feBlend mode="normal" in="SourceGraphic" in2="effect1_backgroundBlur_21_3592" result="shape"/>
</filter>
</defs>
</svg>
